<svg width="192" height="191" viewBox="0 0 192 191" fill="none" xmlns="http://www.w3.org/2000/svg">
<g filter="url(#filter0_d_77_1423)">
<path d="M90.5217 41.2029C93.7532 38.7237 98.2468 38.7237 101.478 41.2029L103.377 42.6598C105.531 44.3123 108.316 44.9043 110.956 44.2707L113.283 43.7121C117.244 42.7617 121.349 44.5894 123.293 48.1686L124.435 50.272C125.731 52.6577 128.034 54.3311 130.703 54.826L133.057 55.2624C137.061 56.005 140.068 59.3444 140.388 63.4047L140.576 65.7909C140.789 68.4973 142.213 70.9629 144.45 72.5007L146.422 73.8566C149.779 76.1638 151.167 80.4375 149.808 84.2769L149.009 86.5332C148.103 89.0924 148.401 91.9238 149.819 94.2386L151.07 96.2796C153.197 99.7525 152.728 104.221 149.924 107.176L148.277 108.912C146.408 110.882 145.528 113.59 145.883 116.281L146.195 118.654C146.726 122.692 144.479 126.584 140.717 128.143L138.505 129.059C135.997 130.098 134.092 132.214 133.321 134.817L132.641 137.112C131.484 141.017 127.848 143.658 123.777 143.552L121.384 143.489C118.67 143.419 116.069 144.577 114.306 146.641L112.752 148.461C110.106 151.557 105.711 152.492 102.034 150.739L99.8739 149.708C97.4235 148.54 94.5765 148.54 92.1261 149.708L89.9656 150.739C86.2893 152.492 81.8939 151.557 79.2485 148.461L77.6938 146.641C75.9306 144.577 73.3297 143.419 70.6158 143.489L68.2231 143.552C64.1516 143.658 60.5162 141.017 59.3591 137.112L58.6791 134.817C57.9078 132.214 56.0028 130.098 53.4947 129.059L51.2834 128.143C47.5207 126.584 45.2739 122.692 45.8052 118.654L46.1174 116.281C46.4715 113.59 45.5918 110.882 43.7232 108.912L42.0757 107.176C39.2724 104.221 38.8027 99.7525 40.9304 96.2796L42.1809 94.2387C43.5992 91.9238 43.8968 89.0924 42.9908 86.5332L42.192 84.2769C40.8327 80.4375 42.2213 76.1638 45.5777 73.8566L47.5502 72.5007C49.7874 70.9629 51.2109 68.4973 51.4241 65.7909L51.6121 63.4047C51.932 59.3444 54.9389 56.005 58.9435 55.2624L61.2969 54.826C63.9662 54.3311 66.2695 52.6577 67.5651 50.272L68.7074 48.1686C70.6511 44.5894 74.7562 42.7617 78.7166 43.7121L81.0441 44.2707C83.684 44.9043 86.4687 44.3123 88.6227 42.6598L90.5217 41.2029Z" fill="#25AF94"/>
<path d="M142.562 81.1824C142.685 81.53 142.778 82.0378 142.894 82.4532C143.371 84.1991 143.481 84.8564 143.787 86.4618C144.383 88.8216 144.867 95.9977 144.352 96C144.352 96 144.352 96 144.352 96C144.348 96 144.344 95.9993 144.34 95.9979C144.262 95.9723 144.173 95.3659 144.082 95.2781C143.99 95.1906 143.424 95.2629 143.367 94.4224C143.311 93.2058 143.181 90.2645 143.066 89.618C143.002 89.1761 142.871 88.6416 142.767 88.0783C142.423 86.2735 142.246 85.3188 141.692 83.756C141.593 83.0966 141.48 82.4403 141.353 81.7849C141.064 80.9643 140.721 79.6981 140.525 79.2048C140.367 78.8012 140.22 78.5866 140.049 78.1706C139.857 77.7055 139.616 76.9626 139.222 76.1314C138.571 74.7736 138.3 74.6065 137.866 73.8188C137.414 73.0027 136.765 71.698 136.078 70.7191C135.984 70.6017 135.889 70.4849 135.794 70.3686C135.819 70.4792 135.845 70.5899 135.87 70.7005C135.533 70.2059 135.457 69.9485 135.15 69.4913C134.786 68.9541 134.533 68.7282 134.28 68.375C134.071 68.0859 133.832 67.6617 133.547 67.296C133.131 66.7645 133.152 66.9353 132.915 66.6609C132.834 66.5395 131.07 64.5326 130.955 64.4343C130.18 63.5909 130.193 63.4401 129.56 62.7783C127.793 60.9493 125.739 59.3241 123.826 57.9708C122.973 57.3648 122.075 56.7435 121.203 56.1689C122.762 56.7989 119.783 54.6523 120.699 55.7781C119.742 55.1132 118.959 54.8149 117.998 54.2801C117.374 53.9373 116.963 53.6513 116.041 53.2179C114.402 52.443 112.491 51.9207 112.114 51.4316C110.096 50.7613 108.339 50.1712 107.525 50.2737C106.996 50.154 105.66 49.6738 105.062 49.539C104.508 49.3527 100.081 48.6806 99.3461 48.6818C98.6116 48.622 97.3379 48.567 96.7181 48.5877C96.4666 48.5944 96.2391 48.6321 96 48.6683C95.4998 48.7449 94.956 48.8094 94.0184 48.6031C92.4163 48.7079 91.8528 48.746 90.3613 48.8709C90.0919 48.8955 90.055 48.8467 89.8982 48.8665C89.5743 48.9078 89.0358 49.0211 88.4613 49.1179C87.518 49.2774 86.9648 49.2763 87.1008 49.4237C86.4917 49.5687 85.8796 49.727 85.2754 49.8966C85.0536 49.914 84.8319 49.9329 84.6103 49.9534C84.2937 50.0686 83.9774 50.1875 83.6622 50.3098C83.9755 49.9578 81.7404 50.7525 82.5192 50.6757C81.3411 50.972 80.1722 51.3146 79.0147 51.7037C79.0645 51.3622 76.5209 52.6875 76.8128 52.7454C76.6855 52.8017 76.5586 52.8585 76.4319 52.9159C75.2942 53.3535 74.3142 53.9051 72.9916 54.5808C71.672 55.2685 71.7865 55.1876 71.3296 55.3076C71.0329 55.4966 70.7385 55.6887 70.4465 55.8839C69.1121 57.1948 68.9959 56.4606 66.6459 58.5963C65.7066 59.0328 63.876 60.7445 62.7569 61.9552C62.6254 62.095 62.6533 62.1281 62.4817 62.3173C62.0569 62.774 60.9271 63.8968 61.0707 63.9545C60.6692 64.332 60.2739 64.7168 59.8846 65.109C59.6111 65.4678 59.3427 65.8302 59.08 66.1958C59.1154 66.2215 59.1509 66.2472 59.1863 66.2729C58.4982 66.8789 57.6888 68.0541 57.2586 68.6077C57.1723 68.7177 57.1044 68.7067 56.8434 69.0552C56.5365 69.4623 56.0297 70.2609 55.6933 70.7657C55.6247 71.0008 55.558 71.2362 55.4933 71.4715C54.9686 72.4125 54.6334 72.6584 54.3131 73.2091C54.2459 73.3032 53.2995 75.163 53.2635 75.2717C52.9029 76.119 53.1017 75.9255 52.0552 78.3631C51.874 78.7992 51.6881 79.138 51.5371 79.5392C51.2557 80.2405 50.6724 82.4478 50.7396 82.6489C50.3335 83.4821 49.8081 85.8734 49.6426 86.5772C49.5886 86.7876 49.4906 86.8174 49.3511 87.4729C49.234 88.005 49.0867 89.3984 48.9957 90.0796C48.8941 90.8031 48.7974 91.061 48.7601 91.384C48.7258 91.6911 48.759 91.98 48.7269 92.4006C48.6259 93.7201 48.4966 94.8996 48.4937 95.9519C48.4936 95.968 48.4936 95.984 48.4936 96C48.4954 97.4989 48.7321 98.8013 48.9125 100.034C48.9275 100.345 48.9187 100.651 48.9524 100.978C49.3508 105.01 50.4018 109.484 51.8684 113.28C52.4735 115.068 54.4361 119.357 54.2128 118.054C54.5245 118.627 56.8702 122.767 57.4528 123.474C57.9779 124.213 58.4699 124.741 58.9111 125.298C60.2542 126.969 61.214 128.15 63.1225 129.935C63.6177 130.394 64.2062 130.82 64.5021 131.087C64.8582 131.408 65.1938 131.81 65.6682 132.215C66.7869 133.193 69.0312 134.819 70.2271 135.593C70.4436 135.737 70.4814 135.847 70.7847 136.065C71.9642 136.92 73.4037 137.693 73.2598 137.354C74.824 138.363 76.4348 138.997 78.0245 139.645C81.3514 141.128 87.8202 142.742 90.999 142.87C92.9872 142.989 92.9387 142.923 95.8708 143.058C95.9139 143.059 95.9569 143.06 96 143.062C96.6119 143.08 97.2282 143.095 97.9646 143.087C99.8167 143.067 101.543 143.071 102.908 142.641C104.958 142.397 106.549 141.999 108.078 141.801C108.242 141.709 108.404 141.617 108.566 141.525C108.809 141.456 109.052 141.386 109.294 141.314C109.382 141.334 109.47 141.355 109.559 141.375C111.309 140.875 113.402 139.897 114.8 139.281C117.211 138.371 122.952 135.038 124.856 133.491C125.899 132.719 125.885 132.595 126.582 132.269C126.796 132.071 127.007 131.871 127.217 131.669C127.325 131.517 127.433 131.365 127.539 131.212C128.778 130.106 130.219 128.753 131.273 127.567C133.232 125.435 135.676 121.841 137.141 119.343C137.518 118.721 138.025 117.962 138.345 117.323C138.807 116.391 138.787 116.105 139.317 114.903C140.26 112.849 141.743 108.881 142.173 106.772C142.313 106.15 142.32 105.846 142.402 105.414C142.738 103.606 142.957 102.104 143.037 100.339C143.334 98.4666 143.48 98.6261 143.695 98.0484C143.858 97.6109 144.201 96.2267 144.318 96.0241C144.403 95.8839 144.511 96.4077 144.605 96.2116C144.654 98.5501 144.494 99.5325 144.169 101.396C143.791 104.866 143.035 108.296 141.916 111.603C141.766 111.888 141.613 112.17 141.457 112.449C141.457 112.449 141.457 112.449 141.457 112.449C140.942 113.685 140.843 114.254 140.591 114.931C138.535 121.659 129.554 132.472 122.896 136.318C121.573 137.295 116.897 139.904 115.802 140.22C115.527 140.32 115.421 140.28 115.136 140.4C112.616 141.539 109.994 142.461 107.307 143.151C103.641 143.946 99.822 144.414 96 144.438C94.0075 144.452 92.033 144.348 90.0782 144.116C74.5812 142.38 60.4605 132.62 53.2508 119.072C51.8275 116.476 50.3209 113.013 49.5284 110.219C49.1975 109.058 49.1765 108.537 48.7187 107.019C48.7481 106.995 48.7775 106.971 48.807 106.947C48.4603 105.604 48.214 104.755 47.9703 103.215C47.7381 101.931 47.4419 98.4632 47.4569 97.3138C47.4495 96.7136 47.5173 96.9362 47.5107 96.376C47.5098 96.2646 47.5079 96.1383 47.5057 96C47.4831 94.9461 47.4783 93.2185 47.5786 92.0495C47.6638 90.86 47.9965 88.8631 48.1469 87.9557C48.6488 84.6849 49.5041 81.1447 50.8569 77.8716C51.2246 76.9679 51.8179 75.8532 51.9461 75.5779C52.1937 75.0358 52.2003 74.8416 52.3685 74.4759C53.2074 72.6125 54.9148 69.9153 56.0745 68.2915C59.7819 62.9406 64.8596 58.0763 70.3904 54.6848C73.8236 52.4341 80.1432 49.7688 83.854 48.9854C84.6449 48.7988 84.4553 48.9367 85.1195 48.781C85.857 48.6127 86.2507 48.4745 86.5949 48.4013C88.7665 47.8894 93.4178 47.3521 96 47.4434C96.2624 47.447 96.5026 47.4537 96.7161 47.4624C97.1581 47.4806 97.4752 47.5591 97.738 47.568C97.8713 47.5728 98.1724 47.5365 98.5912 47.5537C102.291 47.7306 104.976 48.1854 108.484 49.1082C115.208 50.8633 122.557 54.6085 127.989 59.5141C129.179 60.5725 129.853 61.4433 130.013 61.5972C130.361 61.9406 130.651 62.0946 131.35 62.8016C133.696 65.1397 136.285 68.7917 137.883 71.4954C138.695 72.8188 139.779 74.6696 140.424 76.0608C140.97 77.1631 141.949 79.8854 142.152 80.3892C142.287 80.6926 142.429 80.8072 142.562 81.1824ZM115.084 52.6983C115.345 52.6294 113.236 51.8887 113.976 52.289C114.143 52.3754 115.018 52.7116 115.084 52.6983ZM49.5522 106.382C49.5919 106.352 49.6316 106.322 49.6713 106.292C49.5896 106.01 49.51 105.724 49.4337 105.441C49.4394 105.607 49.4466 105.776 49.4545 105.943C49.4864 106.09 49.519 106.236 49.5522 106.382Z" fill="white"/>
<circle cx="95.0781" cy="95.0781" r="32.2656" stroke="white" stroke-width="0.7" stroke-dasharray="2.03 2.03"/>
<rect x="90.2744" y="59.2675" width="41.6511" height="10.2958" rx="1.62143" transform="rotate(25.1122 90.2744 59.2675)" fill="white"/>
<rect x="82.8594" y="64.0607" width="51.0109" height="11.6997" rx="1.62143" transform="rotate(25.1122 82.8594 64.0607)" fill="white"/>
<path d="M82.9247 75.3613C83.2444 74.4578 84.2737 74.0272 85.1414 74.4339L119.62 90.5937C120.486 90.9998 120.814 92.0637 120.327 92.8872L97.6948 131.158C97.2696 131.877 96.3675 132.155 95.6111 131.801L68.9306 119.296C68.1755 118.942 67.812 118.073 68.0901 117.287L82.9247 75.3613Z" fill="white"/>
<path d="M86.2358 65.1273C90.1784 67.9503 103.58 75.5965 125.645 83.5982" stroke="#25AF94" stroke-width="0.810717"/>
<path d="M80.9795 76.6179C89.1368 80.4412 106.531 89.3689 119.859 94.8405" stroke="#25AF94" stroke-width="0.810717"/>
</g>
<defs>
<filter id="filter0_d_77_1423" x="-2.3" y="-2.3" width="196.6" height="196.6" filterUnits="userSpaceOnUse" color-interpolation-filters="sRGB">
<feFlood flood-opacity="0" result="BackgroundImageFix"/>
<feColorMatrix in="SourceAlpha" type="matrix" values="0 0 0 0 0 0 0 0 0 0 0 0 0 0 0 0 0 0 127 0" result="hardAlpha"/>
<feOffset/>
<feGaussianBlur stdDeviation="19.65"/>
<feComposite in2="hardAlpha" operator="out"/>
<feColorMatrix type="matrix" values="0 0 0 0 0.144245 0 0 0 0 0.687337 0 0 0 0 0.578719 0 0 0 0.46 0"/>
<feBlend mode="normal" in2="BackgroundImageFix" result="effect1_dropShadow_77_1423"/>
<feBlend mode="normal" in="SourceGraphic" in2="effect1_dropShadow_77_1423" result="shape"/>
</filter>
</defs>
</svg>
