<svg width="115" height="115" viewBox="0 0 115 115" fill="none" xmlns="http://www.w3.org/2000/svg">
<mask id="mask0_696_2648" style="mask-type:alpha" maskUnits="userSpaceOnUse" x="0" y="0" width="115" height="115">
<circle cx="57.5" cy="57.5" r="57.5" fill="#D9D9D9"/>
</mask>
<g mask="url(#mask0_696_2648)">
<circle cx="57.5" cy="57.5" r="57.5" fill="#DEEEEB"/>
<path d="M57.3804 62.5243H60.1221C61.2267 62.5243 62.1137 61.6325 62.0734 60.5287C61.9578 57.3623 61.6131 50.9594 60.7981 40.5386C59.8176 28.0025 46.0305 25.6763 36.8683 26.0972C35.7197 26.15 34.9045 27.214 35.1381 28.3398C38.1714 42.956 47.2048 45.6176 53.3104 44.9034C54.7091 44.7398 56.0905 45.7955 56.0225 47.2021L55.3827 60.4276C55.3275 61.5688 56.2379 62.5243 57.3804 62.5243Z" fill="url(#paint0_linear_696_2648)"/>
<path d="M36.238 26.8394C39.4018 30.5669 48.3507 38.903 58.8362 42.4272C60.2675 36.8924 57.7515 26.0261 36.238 26.8394Z" fill="url(#paint1_linear_696_2648)"/>
<path d="M26.1402 73.156C25.5789 69.0062 28.3126 65.1257 32.4092 64.2574L40.1207 62.6228L57.1497 61.1C57.6288 61.0572 58.1108 61.0577 58.5899 61.1014L75.2493 62.6228L83.3949 64.3078C87.4659 65.1499 90.2135 68.9697 89.7172 73.0971L85.5257 107.955C85.0423 111.975 81.6317 115 77.5829 115H38.7914C34.7876 115 31.4003 112.04 30.8636 108.072L26.1402 73.156Z" fill="url(#paint2_linear_696_2648)"/>
<path d="M60.5858 92.1117H54.7586C53.5609 92.1117 52.6166 93.1642 52.89 94.3302C53.8434 98.3967 55.7537 99.6205 56.8804 99.7341C57.0457 99.7507 57.214 99.761 57.3788 99.7822C60.092 100.132 61.6632 97.0493 62.4076 94.3396C62.7272 93.1761 61.7925 92.1117 60.5858 92.1117Z" fill="#259C84"/>
<g filter="url(#filter0_f_696_2648)">
<ellipse cx="39.1962" cy="93.2282" rx="5.9164" ry="3.90777" fill="#63B5A5"/>
</g>
<g filter="url(#filter1_f_696_2648)">
<ellipse cx="76.5436" cy="92.4838" rx="5.9164" ry="3.90777" fill="#63B5A5"/>
</g>
<ellipse cx="46.5918" cy="84.4822" rx="5.54662" ry="5.58252" fill="#486660"/>
<ellipse cx="43.8189" cy="82.5498" rx="1.91999" ry="1.93241" fill="white"/>
<ellipse cx="68.6726" cy="84.4822" rx="5.54662" ry="5.58252" fill="#486660"/>
<ellipse cx="65.8997" cy="82.5498" rx="1.91999" ry="1.93241" fill="white"/>
<path d="M24.9276 66.5587C24.6374 65.3902 24.4922 64.3364 24.4306 63.5178C24.3687 62.6955 24.9237 61.9866 25.714 61.7512C50.8332 54.271 77.8007 58.3918 89.798 61.7573C90.6147 61.9864 91.1844 62.7202 91.1666 63.5682C91.132 65.2175 90.9035 66.5048 90.6076 67.3778C90.3627 68.1005 89.571 68.3432 88.8352 68.1412C61.96 60.7633 37.9137 64.5104 27.413 67.8307C26.3567 68.1646 25.1946 67.6338 24.9276 66.5587Z" fill="url(#paint3_linear_696_2648)"/>
</g>
<defs>
<filter id="filter0_f_696_2648" x="29.7798" y="85.8204" width="18.8328" height="14.8156" filterUnits="userSpaceOnUse" color-interpolation-filters="sRGB">
<feFlood flood-opacity="0" result="BackgroundImageFix"/>
<feBlend mode="normal" in="SourceGraphic" in2="BackgroundImageFix" result="shape"/>
<feGaussianBlur stdDeviation="1.75" result="effect1_foregroundBlur_696_2648"/>
</filter>
<filter id="filter1_f_696_2648" x="67.1272" y="85.076" width="18.8328" height="14.8156" filterUnits="userSpaceOnUse" color-interpolation-filters="sRGB">
<feFlood flood-opacity="0" result="BackgroundImageFix"/>
<feBlend mode="normal" in="SourceGraphic" in2="BackgroundImageFix" result="shape"/>
<feGaussianBlur stdDeviation="1.75" result="effect1_foregroundBlur_696_2648"/>
</filter>
<linearGradient id="paint0_linear_696_2648" x1="48.4405" y1="0.930399" x2="48.4405" y2="62.5243" gradientUnits="userSpaceOnUse">
<stop stop-color="#5DCC98"/>
<stop offset="1" stop-color="#99EEAA"/>
</linearGradient>
<linearGradient id="paint1_linear_696_2648" x1="52.5087" y1="31.0752" x2="48.4633" y2="38.4692" gradientUnits="userSpaceOnUse">
<stop stop-color="#7ADDA1" stop-opacity="0"/>
<stop offset="1" stop-color="#47D582"/>
</linearGradient>
<linearGradient id="paint2_linear_696_2648" x1="9.05957" y1="70.9556" x2="104.095" y2="72.334" gradientUnits="userSpaceOnUse">
<stop stop-color="#51A191"/>
<stop offset="0.423439" stop-color="#71D7C2"/>
<stop offset="1" stop-color="#B4D9CE"/>
</linearGradient>
<linearGradient id="paint3_linear_696_2648" x1="24.3926" y1="63.014" x2="91.1711" y2="63.014" gradientUnits="userSpaceOnUse">
<stop stop-color="#58B2A0"/>
<stop offset="1" stop-color="#67BEAD"/>
</linearGradient>
</defs>
</svg>
