<svg width="115" height="115" viewBox="0 0 115 115" fill="none" xmlns="http://www.w3.org/2000/svg">
<mask id="mask0_696_2649" style="mask-type:alpha" maskUnits="userSpaceOnUse" x="0" y="0" width="115" height="115">
<circle cx="57.5" cy="57.5" r="57.5" fill="#D9D9D9"/>
</mask>
<g mask="url(#mask0_696_2649)">
<circle cx="57.5" cy="57.5" r="57.5" fill="#DEEEEB"/>
<path d="M57.3805 62.5242H60.1223C61.2269 62.5242 62.1139 61.6325 62.0736 60.5286C61.958 57.3623 61.6133 50.9593 60.7982 40.5386C59.7813 27.5361 50.8601 20.1439 37.3874 20.727C36.406 20.7695 35.6258 21.563 35.6117 22.5452C35.396 37.5568 46.5215 44.2337 53.2728 44.5958C54.6791 44.6713 56.0906 45.7955 56.0226 47.2021L55.3828 60.4276C55.3276 61.5687 56.238 62.5242 57.3805 62.5242Z" fill="url(#paint0_linear_696_2649)"/>
<path d="M60.2081 62.6707H57.4663C56.3618 62.6707 55.4748 61.779 55.5151 60.6751C55.6307 57.5087 55.9754 51.1058 56.7904 40.685C57.8073 27.6826 66.7285 20.2903 80.2012 20.8735C81.1826 20.916 81.9628 21.7094 81.9769 22.6917C82.1926 37.7033 71.0672 44.3802 64.3158 44.7423C62.9095 44.8178 61.498 45.942 61.566 47.3486L62.2058 60.574C62.261 61.7152 61.3506 62.6707 60.2081 62.6707Z" fill="url(#paint1_linear_696_2649)"/>
<path d="M26.1402 73.156C25.5789 69.0062 28.3126 65.1257 32.4092 64.2574L40.1207 62.6228L57.1497 61.1C57.6288 61.0572 58.1108 61.0577 58.5899 61.1014L75.2493 62.6228L83.3949 64.3078C87.4659 65.1499 90.2135 68.9697 89.7172 73.0971L85.5257 107.955C85.0423 111.975 81.6317 115 77.5829 115H38.7914C34.7876 115 31.4003 112.04 30.8636 108.072L26.1402 73.156Z" fill="url(#paint2_linear_696_2649)"/>
<g filter="url(#filter0_f_696_2649)">
<ellipse cx="39.1962" cy="93.2282" rx="5.9164" ry="3.90777" fill="#63B5A5"/>
</g>
<g filter="url(#filter1_f_696_2649)">
<ellipse cx="76.5436" cy="92.4838" rx="5.9164" ry="3.90777" fill="#63B5A5"/>
</g>
<path d="M24.9276 66.5587C24.6374 65.3902 24.4922 64.3364 24.4306 63.5178C24.3687 62.6955 24.9237 61.9866 25.714 61.7512C50.8332 54.271 77.8007 58.3918 89.798 61.7573C90.6147 61.9864 91.1844 62.7202 91.1666 63.5682C91.132 65.2175 90.9035 66.5048 90.6076 67.3778C90.3627 68.1005 89.571 68.3432 88.8352 68.1412C61.96 60.7633 37.9137 64.5104 27.413 67.8307C26.3567 68.1646 25.1946 67.6338 24.9276 66.5587Z" fill="url(#paint3_linear_696_2649)"/>
<g filter="url(#filter2_d_696_2649)">
<path fill-rule="evenodd" clip-rule="evenodd" d="M47.3311 89.3204C45.6098 88.9519 40.3054 86.0658 40.3054 80.8768C40.3054 80.0713 40.5632 79.2862 41.0422 78.6327C41.5212 77.9792 42.1971 77.4905 42.9743 77.2358C43.7515 76.981 44.5905 76.9732 45.3724 77.2134C46.1543 77.4536 46.8396 77.9296 47.3311 78.574C47.8227 77.9296 48.5079 77.4536 49.2899 77.2134C50.0718 76.9732 50.9108 76.981 51.688 77.2358C52.4652 77.4905 53.1411 77.9792 53.6201 78.6327C54.0991 79.2862 54.3569 80.0713 54.3569 80.8768C54.3569 86.0658 49.0524 88.9519 47.3311 89.3204Z" fill="#FE989A"/>
</g>
<g filter="url(#filter3_d_696_2649)">
<path fill-rule="evenodd" clip-rule="evenodd" d="M68.7782 89.3204C67.0569 88.9519 61.7524 86.0658 61.7524 80.8768C61.7524 80.0713 62.0102 79.2862 62.4892 78.6327C62.9682 77.9792 63.6442 77.4905 64.4213 77.2358C65.1985 76.981 66.0375 76.9732 66.8194 77.2134C67.6014 77.4536 68.2866 77.9296 68.7782 78.574C69.2697 77.9296 69.955 77.4536 70.7369 77.2134C71.5189 76.9732 72.3578 76.981 73.135 77.2358C73.9122 77.4905 74.5881 77.9792 75.0671 78.6327C75.5461 79.2862 75.8039 80.0713 75.8039 80.8768C75.8039 86.0658 70.4995 88.9519 68.7782 89.3204Z" fill="#FE989A"/>
</g>
<ellipse cx="43.0788" cy="80.9466" rx="1.66399" ry="1.67476" fill="#FFC3D5"/>
<ellipse cx="64.8954" cy="80.5744" rx="1.66399" ry="1.67476" fill="#FFC3D5"/>
<path d="M52.8779 92.8527C53.5745 93.7695 55.3877 95.1694 57.1895 93.6467C57.272 93.5769 57.3949 93.5784 57.4767 93.6491C58.3341 94.3891 60.2527 95.1107 62.1223 92.8527" stroke="#415450" stroke-width="2" stroke-linecap="round"/>
<path d="M36.6077 22.0104C39.6694 26.5367 48.3296 36.6591 58.4769 40.9385C59.8619 34.2176 57.4272 21.0228 36.6077 22.0104Z" fill="url(#paint4_linear_696_2649)"/>
<path d="M58.7942 41.2582C61.8559 36.7319 70.5161 26.6095 80.6634 22.3301C82.0485 29.0509 79.6137 42.2457 58.7942 41.2582Z" fill="url(#paint5_linear_696_2649)"/>
</g>
<defs>
<filter id="filter0_f_696_2649" x="29.7798" y="85.8204" width="18.8328" height="14.8156" filterUnits="userSpaceOnUse" color-interpolation-filters="sRGB">
<feFlood flood-opacity="0" result="BackgroundImageFix"/>
<feBlend mode="normal" in="SourceGraphic" in2="BackgroundImageFix" result="shape"/>
<feGaussianBlur stdDeviation="1.75" result="effect1_foregroundBlur_696_2649"/>
</filter>
<filter id="filter1_f_696_2649" x="67.1272" y="85.076" width="18.8328" height="14.8156" filterUnits="userSpaceOnUse" color-interpolation-filters="sRGB">
<feFlood flood-opacity="0" result="BackgroundImageFix"/>
<feBlend mode="normal" in="SourceGraphic" in2="BackgroundImageFix" result="shape"/>
<feGaussianBlur stdDeviation="1.75" result="effect1_foregroundBlur_696_2649"/>
</filter>
<filter id="filter2_d_696_2649" x="35.3054" y="74.0388" width="24.0515" height="22.2815" filterUnits="userSpaceOnUse" color-interpolation-filters="sRGB">
<feFlood flood-opacity="0" result="BackgroundImageFix"/>
<feColorMatrix in="SourceAlpha" type="matrix" values="0 0 0 0 0 0 0 0 0 0 0 0 0 0 0 0 0 0 127 0" result="hardAlpha"/>
<feOffset dy="2"/>
<feGaussianBlur stdDeviation="2.5"/>
<feComposite in2="hardAlpha" operator="out"/>
<feColorMatrix type="matrix" values="0 0 0 0 0 0 0 0 0 0 0 0 0 0 0 0 0 0 0.15 0"/>
<feBlend mode="normal" in2="BackgroundImageFix" result="effect1_dropShadow_696_2649"/>
<feBlend mode="normal" in="SourceGraphic" in2="effect1_dropShadow_696_2649" result="shape"/>
</filter>
<filter id="filter3_d_696_2649" x="56.7524" y="74.0388" width="24.0515" height="22.2815" filterUnits="userSpaceOnUse" color-interpolation-filters="sRGB">
<feFlood flood-opacity="0" result="BackgroundImageFix"/>
<feColorMatrix in="SourceAlpha" type="matrix" values="0 0 0 0 0 0 0 0 0 0 0 0 0 0 0 0 0 0 127 0" result="hardAlpha"/>
<feOffset dy="2"/>
<feGaussianBlur stdDeviation="2.5"/>
<feComposite in2="hardAlpha" operator="out"/>
<feColorMatrix type="matrix" values="0 0 0 0 0 0 0 0 0 0 0 0 0 0 0 0 0 0 0.15 0"/>
<feBlend mode="normal" in2="BackgroundImageFix" result="effect1_dropShadow_696_2649"/>
<feBlend mode="normal" in="SourceGraphic" in2="effect1_dropShadow_696_2649" result="shape"/>
</filter>
<linearGradient id="paint0_linear_696_2649" x1="48.4406" y1="0.930393" x2="48.4406" y2="62.5242" gradientUnits="userSpaceOnUse">
<stop stop-color="#5DCC98"/>
<stop offset="1" stop-color="#99EEAA"/>
</linearGradient>
<linearGradient id="paint1_linear_696_2649" x1="69.148" y1="1.07688" x2="69.148" y2="62.6707" gradientUnits="userSpaceOnUse">
<stop stop-color="#5DCC98"/>
<stop offset="1" stop-color="#99EEAA"/>
</linearGradient>
<linearGradient id="paint2_linear_696_2649" x1="9.05957" y1="70.9556" x2="104.095" y2="72.334" gradientUnits="userSpaceOnUse">
<stop stop-color="#51A191"/>
<stop offset="0.423439" stop-color="#71D7C2"/>
<stop offset="1" stop-color="#B4D9CE"/>
</linearGradient>
<linearGradient id="paint3_linear_696_2649" x1="24.3926" y1="63.014" x2="91.1711" y2="63.014" gradientUnits="userSpaceOnUse">
<stop stop-color="#58B2A0"/>
<stop offset="1" stop-color="#67BEAD"/>
</linearGradient>
<linearGradient id="paint4_linear_696_2649" x1="52.3535" y1="27.1539" x2="46.9101" y2="35.083" gradientUnits="userSpaceOnUse">
<stop stop-color="#7ADDA1" stop-opacity="0"/>
<stop offset="1" stop-color="#47D582"/>
</linearGradient>
<linearGradient id="paint5_linear_696_2649" x1="74.54" y1="36.1147" x2="69.0966" y2="28.1856" gradientUnits="userSpaceOnUse">
<stop stop-color="#7ADDA1" stop-opacity="0"/>
<stop offset="1" stop-color="#5FCC8E"/>
</linearGradient>
</defs>
</svg>
