<svg width="393" height="276" viewBox="0 0 393 276" fill="none" xmlns="http://www.w3.org/2000/svg">
<path d="M393 264.015C328.283 238.632 235.201 253.439 196.75 264.015C115 286.5 32.4587 271.336 0 264.015V0H393V264.015Z" fill="#25AF94"/>
<path d="M234.052 102.64C234.352 101.037 236.321 100.467 237.518 101.574C253.701 116.546 267.505 120 272.942 119.819C273.181 119.811 273.425 119.838 273.654 119.905C318.488 132.892 302.652 171.32 307.738 164.977C312.839 158.614 329.511 147.729 350.546 153.305C363.624 156.771 381.148 150.719 393 144.939V164.84C365.966 208.351 329.213 201.179 310.665 190.182C309.16 189.29 307.171 190.419 307.284 192.164L311.041 249.941C301.946 249.819 292.905 250.046 284.072 250.535C284.074 250.506 284.077 250.477 284.081 250.448L292.157 185.101C292.324 183.752 291.121 182.617 289.77 182.759C231.809 188.841 228.117 134.283 234.052 102.64Z" fill="url(#paint0_linear_436_2684)"/>
<defs>
<linearGradient id="paint0_linear_436_2684" x1="323.781" y1="43.2155" x2="315.213" y2="227.43" gradientUnits="userSpaceOnUse">
<stop stop-color="#25AF94"/>
<stop offset="1" stop-color="#6FD2BE"/>
</linearGradient>
</defs>
</svg>
