<svg width="392" height="322" viewBox="0 0 392 322" fill="none" xmlns="http://www.w3.org/2000/svg">
<g filter="url(#filter0_f_367_2375)">
<path d="M155.978 209.531L162.065 160.28C162.146 159.63 161.559 159.083 160.908 159.158C117.373 164.156 115.13 122.88 119.729 99.81C119.883 99.0387 120.831 98.7673 121.402 99.3082C133.604 110.869 144.061 113.444 148.042 113.266C148.157 113.261 148.273 113.275 148.383 113.306C181.233 122.766 169.643 150.884 173.362 146.246C177.087 141.599 189.261 133.651 204.621 137.723C215.797 140.685 231.419 134.132 239.645 129.513C240.442 129.065 241.414 129.81 241.164 130.689L237.87 142.261C237.849 142.334 237.819 142.408 237.782 142.474C217.433 179.115 188.256 172.717 174.567 164.082C173.854 163.632 172.905 164.175 172.96 165.017L175.89 210.07C175.941 210.854 175.1 211.398 174.375 211.094C168.198 208.498 161.302 209.466 157.376 210.659C156.646 210.88 155.885 210.288 155.978 209.531Z" fill="#B4CDC8"/>
</g>
<path d="M195.031 203.319L206.351 111.729C206.431 111.079 205.838 110.533 205.188 110.613C124.408 120.572 121.113 43.4822 129.859 1.83161C130.021 1.06191 130.973 0.813123 131.538 1.35975C154.226 23.291 173.755 28.0301 180.968 27.6361C181.083 27.6298 181.197 27.6436 181.308 27.6753C240.962 44.7643 219.937 95.7642 226.676 87.3591C233.422 78.9459 255.465 64.5536 283.278 71.9261C304.374 77.5179 334.221 64.3848 348.522 56.0144C349.311 55.5527 350.27 56.2946 350.02 57.1738L343.457 80.2334C343.436 80.3067 343.405 80.38 343.368 80.4467C305.795 148.195 251.566 134.81 227.426 118.727C226.724 118.259 225.783 118.8 225.838 119.642L231.349 204.389C231.4 205.174 230.562 205.713 229.851 205.377C217.616 199.599 203.464 201.999 196.412 204.417C195.69 204.665 194.937 204.077 195.031 203.319Z" fill="#25AF94"/>
<g filter="url(#filter1_f_367_2375)">
<path d="M104.597 213.489L90.2405 158.029C90.0764 157.395 90.5888 156.777 91.2438 156.768C141.806 156.078 138.019 108.462 129.287 82.9692C129.032 82.2251 128.059 82.0836 127.565 82.6956C115.343 97.8354 103.743 102.346 99.192 102.724C99.0772 102.734 98.9646 102.762 98.8589 102.808C62.922 118.441 80.2828 148.669 75.367 143.953C70.4437 139.23 55.4321 132.014 38.5906 138.926C26.1924 144.014 7.17165 138.714 -2.76867 134.672C-3.61539 134.328 -4.47615 135.192 -4.1138 136.032L1.50628 149.047C1.53649 149.117 1.57633 149.185 1.62167 149.247C30.3503 188.065 62.7423 176.111 76.887 164.197C77.532 163.654 78.5431 164.066 78.5982 164.908L82.0155 217.088C82.0669 217.873 82.9692 218.302 83.6436 217.898C90.4372 213.822 98.7149 213.962 103.363 214.78C104.115 214.913 104.789 214.227 104.597 213.489Z" fill="#3ACFA7"/>
</g>
<path d="M298.259 213.393L306.557 163.389C306.665 162.741 306.097 162.17 305.442 162.219C263.598 165.397 263.484 123.294 269.026 99.954C269.212 99.1698 270.206 98.9458 270.747 99.5436C281.802 111.769 291.635 114.841 295.46 114.841C295.582 114.841 295.705 114.862 295.82 114.903C326.782 125.972 314.281 154.149 318.074 149.577C321.873 144.997 333.929 137.412 348.434 142.227C358.942 145.715 374.142 139.77 382.278 135.416C383.09 134.981 384.056 135.759 383.776 136.637L380.044 148.296C380.022 148.365 379.991 148.434 379.954 148.497C358.686 184.92 331.146 177.263 318.428 167.895C317.74 167.388 316.739 167.878 316.749 168.733L317.299 214.795C317.309 215.59 316.421 216.089 315.709 215.735C309.988 212.895 303.442 213.551 299.629 214.58C298.884 214.781 298.133 214.154 298.259 213.393Z" fill="#48CEB3"/>
<path d="M392 235.467C223.2 176.667 60.3333 210.967 0 235.467V321.967H392V235.467Z" fill="url(#paint0_linear_367_2375)"/>
<defs>
<filter id="filter0_f_367_2375" x="114.054" y="95.0253" width="131.15" height="120.154" filterUnits="userSpaceOnUse" color-interpolation-filters="sRGB">
<feFlood flood-opacity="0" result="BackgroundImageFix"/>
<feBlend mode="normal" in="SourceGraphic" in2="BackgroundImageFix" result="shape"/>
<feGaussianBlur stdDeviation="2" result="effect1_foregroundBlur_367_2375"/>
</filter>
<filter id="filter1_f_367_2375" x="-5.09897" y="81.412" width="140.54" height="137.54" filterUnits="userSpaceOnUse" color-interpolation-filters="sRGB">
<feFlood flood-opacity="0" result="BackgroundImageFix"/>
<feBlend mode="normal" in="SourceGraphic" in2="BackgroundImageFix" result="shape"/>
<feGaussianBlur stdDeviation="0.45" result="effect1_foregroundBlur_367_2375"/>
</filter>
<linearGradient id="paint0_linear_367_2375" x1="195.5" y1="160.467" x2="195.5" y2="299.467" gradientUnits="userSpaceOnUse">
<stop stop-color="#D9D9D9"/>
<stop offset="1" stop-color="white"/>
</linearGradient>
</defs>
</svg>
