<svg width="393" height="345" viewBox="0 0 393 345" fill="none" xmlns="http://www.w3.org/2000/svg">
<mask id="mask0_561_2746" style="mask-type:alpha" maskUnits="userSpaceOnUse" x="0" y="0" width="393" height="345">
<rect width="393" height="345" fill="white"/>
</mask>
<g mask="url(#mask0_561_2746)">
<g filter="url(#filter0_f_561_2746)">
<path d="M155.978 275.531L162.065 226.28C162.146 225.63 161.559 225.083 160.908 225.158C117.373 230.156 115.13 188.88 119.729 165.81C119.883 165.039 120.831 164.767 121.402 165.308C133.604 176.869 144.061 179.444 148.042 179.266C148.157 179.261 148.273 179.275 148.383 179.306C181.233 188.766 169.643 216.884 173.362 212.246C177.087 207.599 189.261 199.651 204.621 203.723C215.797 206.685 231.419 200.132 239.645 195.513C240.442 195.065 241.414 195.81 241.164 196.689L237.87 208.261C237.849 208.334 237.819 208.408 237.782 208.474C217.433 245.115 188.256 238.717 174.567 230.082C173.854 229.632 172.905 230.175 172.96 231.017L175.89 276.07C175.941 276.854 175.1 277.398 174.375 277.094C168.198 274.498 161.302 275.466 157.376 276.659C156.646 276.88 155.885 276.288 155.978 275.531Z" fill="#B4CDC8"/>
</g>
<path d="M195.031 269.319L206.351 177.729C206.431 177.079 205.838 176.533 205.188 176.613C124.408 186.572 121.113 109.482 129.859 67.8316C130.021 67.0619 130.973 66.8131 131.538 67.3597C154.226 89.291 173.755 94.0301 180.968 93.6361C181.083 93.6298 181.197 93.6436 181.308 93.6753C240.962 110.764 219.937 161.764 226.676 153.359C233.422 144.946 255.465 130.554 283.278 137.926C304.374 143.518 334.221 130.385 348.522 122.014C349.311 121.553 350.27 122.295 350.02 123.174L343.457 146.233C343.436 146.307 343.405 146.38 343.368 146.447C305.795 214.195 251.566 200.81 227.426 184.727C226.724 184.259 225.783 184.8 225.838 185.642L231.349 270.389C231.4 271.174 230.562 271.713 229.851 271.377C217.616 265.599 203.464 267.999 196.412 270.417C195.69 270.665 194.937 270.077 195.031 269.319Z" fill="#25AF94"/>
<g filter="url(#filter1_f_561_2746)">
<path d="M104.597 279.489L90.2405 224.029C90.0764 223.395 90.5888 222.777 91.2438 222.768C141.806 222.078 138.019 174.462 129.287 148.969C129.032 148.225 128.059 148.084 127.565 148.696C115.343 163.835 103.743 168.346 99.192 168.724C99.0772 168.734 98.9646 168.762 98.8589 168.808C62.922 184.441 80.2828 214.669 75.367 209.953C70.4437 205.23 55.4321 198.014 38.5906 204.926C26.1924 210.014 7.17165 204.714 -2.76867 200.672C-3.61539 200.328 -4.47615 201.192 -4.1138 202.032L1.50628 215.047C1.53649 215.117 1.57633 215.185 1.62167 215.247C30.3503 254.065 62.7423 242.111 76.887 230.197C77.532 229.654 78.5431 230.066 78.5982 230.908L82.0155 283.088C82.0669 283.873 82.9692 284.302 83.6436 283.898C90.4372 279.822 98.7149 279.962 103.363 280.78C104.115 280.913 104.789 280.227 104.597 279.489Z" fill="#3ACFA7"/>
</g>
<path d="M298.259 279.393L306.557 229.389C306.665 228.741 306.097 228.17 305.442 228.219C263.598 231.397 263.484 189.294 269.026 165.954C269.212 165.17 270.206 164.946 270.747 165.544C281.802 177.769 291.635 180.841 295.46 180.841C295.582 180.841 295.705 180.862 295.82 180.903C326.782 191.972 314.281 220.149 318.074 215.577C321.873 210.997 333.929 203.412 348.434 208.227C358.942 211.715 374.142 205.77 382.278 201.416C383.09 200.981 384.056 201.759 383.776 202.637L380.044 214.296C380.022 214.365 379.991 214.434 379.954 214.497C358.686 250.92 331.146 243.263 318.428 233.895C317.74 233.388 316.739 233.878 316.749 234.733L317.299 280.795C317.309 281.59 316.421 282.089 315.709 281.735C309.988 278.895 303.442 279.551 299.629 280.58C298.884 280.781 298.133 280.154 298.259 279.393Z" fill="#48CEB3"/>
<path d="M392 286.105C223.2 246.07 60.3333 269.424 0 286.105V345H392V286.105Z" fill="url(#paint0_linear_561_2746)"/>
</g>
<defs>
<filter id="filter0_f_561_2746" x="114.054" y="161.025" width="131.15" height="120.154" filterUnits="userSpaceOnUse" color-interpolation-filters="sRGB">
<feFlood flood-opacity="0" result="BackgroundImageFix"/>
<feBlend mode="normal" in="SourceGraphic" in2="BackgroundImageFix" result="shape"/>
<feGaussianBlur stdDeviation="2" result="effect1_foregroundBlur_561_2746"/>
</filter>
<filter id="filter1_f_561_2746" x="-5.09897" y="147.412" width="140.54" height="137.54" filterUnits="userSpaceOnUse" color-interpolation-filters="sRGB">
<feFlood flood-opacity="0" result="BackgroundImageFix"/>
<feBlend mode="normal" in="SourceGraphic" in2="BackgroundImageFix" result="shape"/>
<feGaussianBlur stdDeviation="0.45" result="effect1_foregroundBlur_561_2746"/>
</filter>
<linearGradient id="paint0_linear_561_2746" x1="195.5" y1="235.041" x2="195.5" y2="329.681" gradientUnits="userSpaceOnUse">
<stop stop-color="#D9D9D9"/>
<stop offset="1" stop-color="white"/>
</linearGradient>
</defs>
</svg>
