<svg width="393" height="345" viewBox="0 0 393 345" fill="none" xmlns="http://www.w3.org/2000/svg">
<rect width="393" height="345" fill="white"/>
<rect x="142" y="304" width="251" height="4" fill="url(#paint0_linear_561_2648)"/>
<path d="M135.635 108.184H269.207L263.419 198.818L247.39 308.542H156.116L140.088 198.818L135.635 108.184Z" fill="url(#paint1_linear_561_2648)"/>
<path d="M123 108.184H227.692L223.155 198.818L210.592 308.542H139.053L126.49 198.818L123 108.184Z" fill="url(#paint2_linear_561_2648)"/>
<path d="M123 87.8397C123 86.8917 123.733 86.1053 124.679 86.0391L195.129 81.1086L267.525 86.042C268.472 86.1065 269.207 86.8935 269.207 87.8428V106.379C269.207 107.376 268.399 108.184 267.402 108.184H124.805C123.808 108.184 123 107.376 123 106.379V87.8397Z" fill="url(#paint3_linear_561_2648)"/>
<path d="M159.47 190.504L159.385 176.797C159.382 176.205 158.816 175.78 158.237 175.901C146.23 178.422 143.61 167.361 143.806 160.096C143.825 159.386 144.639 159.025 145.232 159.416C148.941 161.87 151.846 162.233 153.052 162.069C153.155 162.055 153.263 162.052 153.366 162.068C163.786 163.719 161.35 172.816 162.311 171.237C163.276 169.65 166.723 166.703 171.637 167.345C174.655 167.739 178.381 165.91 180.888 164.271C181.579 163.82 182.554 164.396 182.432 165.212L182.114 167.346C182.104 167.414 182.085 167.483 182.059 167.547C177.608 178.685 169.395 178.87 164.555 177.173C163.837 176.921 163.034 177.534 163.181 178.281L165.451 189.828C165.588 190.525 164.886 191.131 164.18 191.062C162.979 190.943 161.812 191.155 160.894 191.446C160.237 191.654 159.474 191.193 159.47 190.504Z" fill="url(#paint4_linear_561_2648)"/>
<defs>
<linearGradient id="paint0_linear_561_2648" x1="142" y1="306" x2="393" y2="306" gradientUnits="userSpaceOnUse">
<stop stop-color="#647680"/>
<stop offset="1" stop-color="white"/>
</linearGradient>
<linearGradient id="paint1_linear_561_2648" x1="215.891" y1="108.216" x2="222.277" y2="337.1" gradientUnits="userSpaceOnUse">
<stop stop-color="#5ED7D1"/>
<stop offset="1" stop-color="#65D1C4"/>
</linearGradient>
<linearGradient id="paint2_linear_561_2648" x1="185.903" y1="108.217" x2="194.047" y2="336.989" gradientUnits="userSpaceOnUse">
<stop stop-color="#80F0EA"/>
<stop offset="1" stop-color="#65D1C4"/>
</linearGradient>
<linearGradient id="paint3_linear_561_2648" x1="123" y1="126.686" x2="269.207" y2="94.6463" gradientUnits="userSpaceOnUse">
<stop stop-color="#8F8E8E"/>
<stop offset="1" stop-color="#637572"/>
</linearGradient>
<linearGradient id="paint4_linear_561_2648" x1="131.848" y1="173.993" x2="185.096" y2="192.946" gradientUnits="userSpaceOnUse">
<stop stop-color="white" stop-opacity="0.92"/>
<stop offset="1" stop-color="white" stop-opacity="0.57"/>
</linearGradient>
</defs>
</svg>
