<svg width="270" height="228" viewBox="0 0 270 228" fill="none" xmlns="http://www.w3.org/2000/svg">
<rect x="19" y="223" width="255" height="4" fill="url(#paint0_linear_367_2374)"/>
<path d="M12.6353 27.184H146.207L140.419 117.818L124.39 227.542H33.1163L17.0876 117.818L12.6353 27.184Z" fill="url(#paint1_linear_367_2374)"/>
<path d="M0.000244141 27.1841H104.692L100.155 117.818L87.5921 227.542H16.0529L3.48996 117.818L0.000244141 27.1841Z" fill="url(#paint2_linear_367_2374)"/>
<path d="M0 6.83971C0 5.89172 0.733337 5.10527 1.67901 5.03909L72.1288 0.108643L144.525 5.04195C145.472 5.10649 146.207 5.89354 146.207 6.8428V25.379C146.207 26.3759 145.399 27.184 144.402 27.184H1.80502C0.808136 27.184 0 26.3759 0 25.379L0 6.83971Z" fill="url(#paint3_linear_367_2374)"/>
<path d="M36.4702 109.504L36.3853 95.7966C36.3816 95.2054 35.8157 94.7796 35.2371 94.901C23.2298 97.4218 20.6102 86.3606 20.806 79.096C20.8251 78.3865 21.6395 78.0246 22.2315 78.4161C25.9407 80.8695 28.8458 81.2335 30.0522 81.0692C30.1552 81.0551 30.2631 81.0519 30.3657 81.0682C40.7861 82.7188 38.3501 91.8158 39.3108 90.237C40.2764 88.6501 43.7226 85.7025 48.6373 86.3448C51.6554 86.7392 55.3811 84.9096 57.8882 83.2714C58.5788 82.8202 59.5539 83.3963 59.4322 84.2121L59.1138 86.3459C59.1036 86.4139 59.0849 86.4829 59.0594 86.5467C54.6081 97.6849 46.3946 97.8701 41.5553 96.1729C40.837 95.921 40.034 96.5344 40.1809 97.2813L42.4507 108.828C42.5877 109.525 41.8863 110.131 41.1799 110.062C39.9792 109.943 38.8125 110.155 37.8937 110.446C37.2369 110.654 36.4744 110.193 36.4702 109.504Z" fill="url(#paint4_linear_367_2374)"/>
<defs>
<linearGradient id="paint0_linear_367_2374" x1="19" y1="225" x2="274" y2="225" gradientUnits="userSpaceOnUse">
<stop stop-color="#647680"/>
<stop offset="1" stop-color="white"/>
</linearGradient>
<linearGradient id="paint1_linear_367_2374" x1="92.8906" y1="27.2163" x2="99.2767" y2="256.1" gradientUnits="userSpaceOnUse">
<stop stop-color="#5ED7D1"/>
<stop offset="1" stop-color="#65D1C4"/>
</linearGradient>
<linearGradient id="paint2_linear_367_2374" x1="62.9031" y1="27.2165" x2="71.0469" y2="255.989" gradientUnits="userSpaceOnUse">
<stop stop-color="#80F0EA"/>
<stop offset="1" stop-color="#65D1C4"/>
</linearGradient>
<linearGradient id="paint3_linear_367_2374" x1="-6.02276e-09" y1="45.6855" x2="146.207" y2="13.6463" gradientUnits="userSpaceOnUse">
<stop stop-color="#8F8E8E"/>
<stop offset="1" stop-color="#637572"/>
</linearGradient>
<linearGradient id="paint4_linear_367_2374" x1="8.84803" y1="92.9929" x2="62.0963" y2="111.946" gradientUnits="userSpaceOnUse">
<stop stop-color="white" stop-opacity="0.92"/>
<stop offset="1" stop-color="white" stop-opacity="0.57"/>
</linearGradient>
</defs>
</svg>
