<svg viewBox="0 0 393 336" fill="none" xmlns="http://www.w3.org/2000/svg" preserveAspectRatio="xMidYMid meet" style="width:100%;height:auto">
  <g>
    <path d="M335.775 12.0318C332.755 8.84079 328.575 6.99433 324.157 6.89864C319.738 6.80295 315.442 8.46588 312.214 11.5216L287.867 34.5648C290.887 37.7559 292.501 42.0301 292.354 46.4472C292.206 50.8643 290.31 55.0625 287.081 58.1183C283.853 61.174 279.556 62.8369 275.138 62.7412C270.719 62.6455 266.54 60.7991 263.52 57.608L239.173 80.6512C235.945 83.707 234.048 87.9052 233.901 92.3223C233.754 96.7394 235.367 101.014 238.388 104.205L329.489 200.459C332.509 203.65 336.688 205.497 341.106 205.593C345.525 205.688 349.821 204.025 353.05 200.97L377.396 177.926C374.376 174.735 372.762 170.461 372.91 166.044C373.057 161.627 374.954 157.429 378.182 154.373C381.411 151.317 385.707 149.654 390.125 149.75C394.544 149.846 398.723 151.692 401.743 154.883L426.09 131.84C429.319 128.784 431.215 124.586 431.363 120.169C431.51 115.752 429.896 111.478 426.876 108.287L335.775 12.0318ZM382.994 98.4973L382.404 116.162L282.27 113.994L282.859 96.3288L382.994 98.4973ZM344.658 58.4812C350.238 64.3768 349.928 73.6804 343.963 79.326C341.106 82.0303 337.304 83.502 333.393 83.4173C329.483 83.3327 325.784 81.6985 323.112 78.8745C317.532 72.9789 317.842 63.6753 323.807 58.0297C326.664 55.3254 330.466 53.8537 334.377 53.9384C338.287 54.023 341.986 55.6572 344.658 58.4812ZM342.152 133.617C347.732 139.512 347.421 148.816 341.456 154.461C338.599 157.166 334.797 158.638 330.887 158.553C326.976 158.468 323.278 156.834 320.605 154.01C315.025 148.114 315.335 138.811 321.3 133.165C324.158 130.461 327.96 128.989 331.87 129.074C335.781 129.159 339.479 130.793 342.152 133.617Z" fill="#EDEDED"/>
  </g>
  <g>
    <path d="M-22.1135 196.607C-26.3268 198.246 -29.7407 201.429 -31.6041 205.457C-33.4675 209.485 -33.6277 214.028 -32.0496 218.085L-20.1487 248.685C-15.9353 247.047 -11.2676 247.087 -7.17238 248.798C-3.07716 250.508 0.110111 253.749 1.68826 257.807C3.26641 261.865 3.10617 266.407 1.24279 270.435C-0.620596 274.463 -4.03448 277.647 -8.24786 279.285L3.653 309.886C5.23115 313.943 8.41842 317.184 12.5136 318.895C16.6089 320.605 21.2766 320.646 25.49 319.007L152.582 269.579C156.796 267.94 160.21 264.757 162.073 260.729C163.936 256.701 164.097 252.158 162.518 248.1L150.618 217.5C146.404 219.139 141.737 219.098 137.641 217.388C133.546 215.677 130.359 212.436 128.781 208.379C127.203 204.321 127.363 199.778 129.226 195.75C131.09 191.722 134.503 188.539 138.717 186.9L126.816 156.3C125.238 152.242 122.05 149.002 117.955 147.291C113.86 145.58 109.192 145.54 104.979 147.179L-22.1135 196.607ZM78.1598 184.03L94.5376 190.871L52.3091 282.155L35.9313 275.314L78.1598 184.03ZM25.1384 205.003C32.9228 201.976 41.5484 205.579 44.4641 213.076C45.8607 216.667 45.7189 220.687 44.0698 224.252C42.4207 227.817 39.3994 230.634 35.6706 232.085C27.8862 235.112 19.2606 231.509 16.3449 224.012C14.9482 220.421 15.09 216.401 16.7391 212.836C18.3882 209.271 21.4095 206.454 25.1384 205.003ZM94.7983 234.101C102.583 231.074 111.208 234.677 114.124 242.174C115.521 245.765 115.379 249.785 113.73 253.35C112.081 256.914 109.059 259.732 105.331 261.182C97.5462 264.21 88.9206 260.607 86.0048 253.11C84.6082 249.518 84.75 245.498 86.3991 241.933C88.0482 238.369 91.0695 235.551 94.7983 234.101Z" fill="#DFDFDF"/>
  </g>
  <g>
    <path d="M159.959 87.829C155.408 85.9253 150.287 85.9074 145.723 87.7792C141.159 89.651 137.526 93.2593 135.622 97.8102L121.266 132.128C125.817 134.032 129.425 137.666 131.297 142.23C133.169 146.794 133.151 151.915 131.247 156.466C129.343 161.016 125.71 164.625 121.146 166.497C116.582 168.368 111.461 168.35 106.91 166.447L92.554 200.765C90.6503 205.316 90.6324 210.437 92.5042 215.001C94.376 219.565 97.9843 223.198 102.535 225.102L239.808 282.526C244.359 284.43 249.48 284.448 254.044 282.576C258.608 280.704 262.242 277.096 264.146 272.545L278.502 238.227C273.951 236.323 270.342 232.689 268.471 228.125C266.599 223.561 266.617 218.44 268.52 213.89C270.424 209.339 274.058 205.73 278.622 203.859C283.186 201.987 288.307 202.005 292.857 203.908L307.213 169.59C309.117 165.039 309.135 159.918 307.263 155.354C305.391 150.79 301.783 147.157 297.232 145.253L159.959 87.829ZM247.857 154.841L255.343 173.094L151.91 215.514L144.424 197.261L247.857 154.841ZM190.316 131.174C198.724 134.691 202.667 144.304 199.15 152.712C197.465 156.74 194.249 159.933 190.21 161.59C186.171 163.246 181.639 163.23 177.611 161.546C169.203 158.028 165.261 148.415 168.778 140.007C170.463 135.98 173.678 132.786 177.718 131.13C181.757 129.473 186.289 129.489 190.316 131.174ZM222.156 208.809C230.564 212.327 234.507 221.94 230.99 230.348C229.305 234.375 226.089 237.569 222.05 239.225C218.011 240.882 213.479 240.866 209.451 239.181C201.043 235.664 197.101 226.051 200.618 217.643C202.303 213.615 205.518 210.422 209.558 208.765C213.597 207.109 218.129 207.125 222.156 208.809Z" fill="url(#paint0_linear_367_2377)"/>
  </g>
  <defs>
    <linearGradient id="paint0_linear_367_2377" x1="228.596" y1="116.541" x2="171.172" y2="253.814" gradientUnits="userSpaceOnUse">
      <stop stop-color="#25AF94"/>
      <stop offset="1" stop-color="#7ECBBC"/>
    </linearGradient>
  </defs>
</svg>
