<svg width="393" height="345" viewBox="0 0 393 345" fill="none" xmlns="http://www.w3.org/2000/svg">
<mask id="mask0_561_2752" style="mask-type:alpha" maskUnits="userSpaceOnUse" x="0" y="0" width="393" height="345">
<rect width="393" height="345" fill="white"/>
</mask>
<g mask="url(#mask0_561_2752)">
<g filter="url(#filter0_d_561_2752)">
<path d="M336.775 10.0318C333.755 6.84079 329.575 4.99433 325.157 4.89864C320.738 4.80295 316.442 6.46588 313.214 9.5216L288.867 32.5648C291.887 35.7559 293.501 40.0301 293.354 44.4472C293.206 48.8643 291.31 53.0625 288.081 56.1183C284.853 59.174 280.556 60.8369 276.138 60.7412C271.719 60.6455 267.54 58.7991 264.52 55.608L240.173 78.6512C236.945 81.707 235.048 85.9052 234.901 90.3223C234.754 94.7394 236.367 99.0136 239.388 102.205L330.489 198.459C333.509 201.65 337.688 203.497 342.106 203.593C346.525 203.688 350.821 202.025 354.05 198.97L378.396 175.926C375.376 172.735 373.762 168.461 373.91 164.044C374.057 159.627 375.954 155.429 379.182 152.373C382.411 149.317 386.707 147.654 391.125 147.75C395.544 147.846 399.723 149.692 402.743 152.883L427.09 129.84C430.319 126.784 432.215 122.586 432.363 118.169C432.51 113.752 430.896 109.478 427.876 106.287L336.775 10.0318ZM383.994 96.4973L383.404 114.162L283.27 111.994L283.859 94.3288L383.994 96.4973ZM345.658 56.4812C351.238 62.3768 350.928 71.6804 344.963 77.326C342.106 80.0303 338.304 81.502 334.393 81.4173C330.483 81.3327 326.784 79.6985 324.112 76.8745C318.532 70.9789 318.842 61.6753 324.807 56.0297C327.664 53.3254 331.466 51.8537 335.377 51.9384C339.287 52.023 342.986 53.6572 345.658 56.4812ZM343.152 131.617C348.732 137.512 348.421 146.816 342.456 152.461C339.599 155.166 335.797 156.638 331.887 156.553C327.976 156.468 324.278 154.834 321.605 152.01C316.025 146.114 316.335 136.811 322.3 131.165C325.158 128.461 328.96 126.989 332.87 127.074C336.781 127.159 340.479 128.793 343.152 131.617Z" fill="#EDEDED"/>
</g>
<g filter="url(#filter1_d_561_2752)">
<path d="M-21.1135 194.607C-25.3268 196.246 -28.7407 199.429 -30.6041 203.457C-32.4675 207.485 -32.6277 212.028 -31.0496 216.085L-19.1487 246.685C-14.9353 245.047 -10.2676 245.087 -6.17238 246.798C-2.07716 248.508 1.11011 251.749 2.68826 255.807C4.26641 259.865 4.10617 264.407 2.24279 268.435C0.379404 272.463 -3.03448 275.647 -7.24786 277.285L4.653 307.886C6.23115 311.943 9.41842 315.184 13.5136 316.895C17.6089 318.605 22.2766 318.646 26.49 317.007L153.582 267.579C157.796 265.94 161.21 262.757 163.073 258.729C164.936 254.701 165.097 250.158 163.518 246.1L151.618 215.5C147.404 217.139 142.737 217.098 138.641 215.388C134.546 213.677 131.359 210.436 129.781 206.379C128.203 202.321 128.363 197.778 130.226 193.75C132.09 189.722 135.503 186.539 139.717 184.9L127.816 154.3C126.238 150.242 123.05 147.002 118.955 145.291C114.86 143.58 110.192 143.54 105.979 145.179L-21.1135 194.607ZM79.1598 182.03L95.5376 188.871L53.3091 280.155L36.9313 273.314L79.1598 182.03ZM26.1384 203.003C33.9228 199.976 42.5484 203.579 45.4641 211.076C46.8607 214.667 46.7189 218.687 45.0698 222.252C43.4207 225.817 40.3994 228.634 36.6706 230.085C28.8862 233.112 20.2606 229.509 17.3449 222.012C15.9482 218.421 16.09 214.401 17.7391 210.836C19.3882 207.271 22.4095 204.454 26.1384 203.003ZM95.7983 232.101C103.583 229.074 112.208 232.677 115.124 240.174C116.521 243.765 116.379 247.785 114.73 251.35C113.081 254.914 110.059 257.732 106.331 259.182C98.5462 262.21 89.9206 258.607 87.0048 251.11C85.6082 247.518 85.75 243.498 87.3991 239.933C89.0482 236.369 92.0695 233.551 95.7983 232.101Z" fill="#DFDFDF"/>
</g>
<g filter="url(#filter2_d_561_2752)">
<path d="M160.959 85.829C156.408 83.9253 151.287 83.9074 146.723 85.7792C142.159 87.651 138.526 91.2593 136.622 95.8102L122.266 130.128C126.817 132.032 130.425 135.666 132.297 140.23C134.169 144.794 134.151 149.915 132.247 154.466C130.343 159.016 126.71 162.625 122.146 164.497C117.582 166.368 112.461 166.35 107.91 164.447L93.554 198.765C91.6503 203.316 91.6324 208.437 93.5042 213.001C95.376 217.565 98.9843 221.198 103.535 223.102L240.808 280.526C245.359 282.43 250.48 282.448 255.044 280.576C259.608 278.704 263.242 275.096 265.146 270.545L279.502 236.227C274.951 234.323 271.342 230.689 269.471 226.125C267.599 221.561 267.617 216.44 269.52 211.89C271.424 207.339 275.058 203.73 279.622 201.859C284.186 199.987 289.307 200.005 293.857 201.908L308.213 167.59C310.117 163.039 310.135 157.918 308.263 153.354C306.391 148.79 302.783 145.157 298.232 143.253L160.959 85.829ZM248.857 152.841L256.343 171.094L152.91 213.514L145.424 195.261L248.857 152.841ZM191.316 129.174C199.724 132.691 203.667 142.304 200.15 150.712C198.465 154.74 195.249 157.933 191.21 159.59C187.171 161.246 182.639 161.23 178.611 159.546C170.203 156.028 166.261 146.415 169.778 138.007C171.463 133.98 174.678 130.786 178.718 129.13C182.757 127.473 187.289 127.489 191.316 129.174ZM223.156 206.809C231.564 210.327 235.507 219.94 231.99 228.348C230.305 232.375 227.089 235.569 223.05 237.225C219.011 238.882 214.479 238.866 210.451 237.181C202.043 233.664 198.101 224.051 201.618 215.643C203.303 211.615 206.518 208.422 210.558 206.765C214.597 205.109 219.129 205.125 223.156 206.809Z" fill="url(#paint0_linear_561_2752)"/>
</g>
</g>
<defs>
<filter id="filter0_d_561_2752" x="234.892" y="4.89471" width="211.48" height="213.702" filterUnits="userSpaceOnUse" color-interpolation-filters="sRGB">
<feFlood flood-opacity="0" result="BackgroundImageFix"/>
<feColorMatrix in="SourceAlpha" type="matrix" values="0 0 0 0 0 0 0 0 0 0 0 0 0 0 0 0 0 0 127 0" result="hardAlpha"/>
<feOffset dx="7" dy="8"/>
<feGaussianBlur stdDeviation="3.5"/>
<feComposite in2="hardAlpha" operator="out"/>
<feColorMatrix type="matrix" values="0 0 0 0 0 0 0 0 0 0 0 0 0 0 0 0 0 0 0.21 0"/>
<feBlend mode="normal" in2="BackgroundImageFix" result="effect1_dropShadow_561_2752"/>
<feBlend mode="normal" in="SourceGraphic" in2="effect1_dropShadow_561_2752" result="shape"/>
</filter>
<filter id="filter1_d_561_2752" x="-32.1274" y="143.978" width="210.724" height="189.229" filterUnits="userSpaceOnUse" color-interpolation-filters="sRGB">
<feFlood flood-opacity="0" result="BackgroundImageFix"/>
<feColorMatrix in="SourceAlpha" type="matrix" values="0 0 0 0 0 0 0 0 0 0 0 0 0 0 0 0 0 0 127 0" result="hardAlpha"/>
<feOffset dx="7" dy="8"/>
<feGaussianBlur stdDeviation="3.5"/>
<feComposite in2="hardAlpha" operator="out"/>
<feColorMatrix type="matrix" values="0 0 0 0 0 0 0 0 0 0 0 0 0 0 0 0 0 0 0.21 0"/>
<feBlend mode="normal" in2="BackgroundImageFix" result="effect1_dropShadow_561_2752"/>
<feBlend mode="normal" in="SourceGraphic" in2="effect1_dropShadow_561_2752" result="shape"/>
</filter>
<filter id="filter2_d_561_2752" x="90.4132" y="83.6881" width="234.941" height="214.979" filterUnits="userSpaceOnUse" color-interpolation-filters="sRGB">
<feFlood flood-opacity="0" result="BackgroundImageFix"/>
<feColorMatrix in="SourceAlpha" type="matrix" values="0 0 0 0 0 0 0 0 0 0 0 0 0 0 0 0 0 0 127 0" result="hardAlpha"/>
<feOffset dx="7" dy="8"/>
<feGaussianBlur stdDeviation="4.35"/>
<feComposite in2="hardAlpha" operator="out"/>
<feColorMatrix type="matrix" values="0 0 0 0 0 0 0 0 0 0 0 0 0 0 0 0 0 0 0.31 0"/>
<feBlend mode="normal" in2="BackgroundImageFix" result="effect1_dropShadow_561_2752"/>
<feBlend mode="normal" in="SourceGraphic" in2="effect1_dropShadow_561_2752" result="shape"/>
</filter>
<linearGradient id="paint0_linear_561_2752" x1="229.596" y1="114.541" x2="172.172" y2="251.814" gradientUnits="userSpaceOnUse">
<stop stop-color="#25AF94"/>
<stop offset="1" stop-color="#7ECBBC"/>
</linearGradient>
</defs>
</svg>
