<svg width="222" height="104" viewBox="0 0 222 104" fill="none" xmlns="http://www.w3.org/2000/svg">
<path d="M6.2882 81.8992H53.3167V96.9483H6.2882V81.8992ZM1.83287 52.197C12.3276 51.2564 22.5254 51.2564 33.0202 52.197L32.5251 60.2661C27.3272 59.8701 22.5254 59.6226 17.674 59.6226C17.5255 60.4641 17.377 61.2067 17.278 61.9492H32.0301V69.0283H16.684C16.7335 71.0084 17.5255 71.5529 19.8522 71.5529C23.367 71.5529 28.1193 71.4539 33.0202 71.1569L33.5152 79.9191C29.1589 80.2656 22.8719 80.4141 19.0601 80.4141C7.32777 80.4141 3.31798 77.8399 3.31798 70.2163C3.31798 66.8996 3.6645 63.6819 4.45656 60.1176L2.32791 60.2661L1.83287 52.197ZM19.6542 90.5128H39.9507V88.0872H19.6542V90.5128ZM33.7627 70.1173V57.7414H40.1982V51.0089H53.3167V80.6616H40.1982V70.1173H33.7627ZM108.123 78.2359V89.5723H72.5299V91.0079H108.618V96.9483H58.4213V85.1169H94.0144V83.6813H58.1738V78.2359H108.123ZM56.2927 76.9983V70.5629H110.252V76.9983H56.2927ZM58.4213 61.9492V51.0089H72.7774V52.9396H93.7669C93.6679 52.4445 93.5194 51.9495 93.3709 51.405L106.192 51.0089C108.371 53.7811 108.668 58.0384 107.281 61.8997H108.123V69.3253H71.7873C60.748 69.3253 58.4213 66.9491 58.4213 61.9492ZM72.7774 59.8701C72.9259 61.6027 73.9655 61.8997 77.1832 61.8997H93.5689C93.7669 61.2067 93.9154 60.5136 94.0144 59.8701H72.7774ZM150.355 51.0089H163.721V96.9483H150.355V79.424H147.534V66.058H150.355V51.0089ZM112.733 78.533V67.8897H132.336C132.732 66.6026 132.93 65.4145 132.93 64.5234C132.93 63.2363 132.138 62.6423 130.455 62.6423C127.188 62.6423 125.554 62.7413 114.218 63.3848L113.723 52.9396C119.515 52.2465 125.653 51.8505 131.049 51.8505C142.336 51.8505 145.801 54.0287 145.801 61.1572C145.801 63.1868 145.554 65.464 145.009 67.8897H146.296V78.533H127.039C126.891 79.4735 126.841 80.3646 126.841 81.2062C126.841 83.4833 127.386 84.0279 129.762 84.0279C133.277 84.0279 138.029 83.6813 147.286 82.8893L147.781 93.384C141.197 94.4731 134.712 95.1167 128.97 95.1167C118.129 95.1167 113.723 92.196 113.723 85.0674C113.723 82.9883 113.921 80.7111 114.317 78.533H112.733ZM172.39 82.6418H186.499V86.8001H220.409V96.9483H172.39V82.6418ZM167.935 67.0481H181.103C181.4 69.1273 183.281 70.8599 186.202 70.8599C189.42 70.8599 191.4 68.9788 191.4 66.157C191.4 63.3353 189.42 61.5037 186.202 61.5037C183.182 61.5037 181.053 63.4343 181.053 66.5531L167.935 65.563C167.935 56.4543 175.361 51.2564 186.202 51.2564C197.39 51.2564 204.518 56.9494 204.518 66.3551C204.518 75.6617 197.34 81.4042 186.202 81.4042C175.311 81.4042 167.935 75.6617 167.935 67.0481ZM205.558 85.0674V50.7614L219.419 51.0089V85.0674H205.558Z" fill="white"/>
<path d="M182.578 45.8385L184.92 26.8902C185 26.2401 184.432 25.6918 183.78 25.7492C166.842 27.2405 165.419 11.4822 167.05 1.79364C167.18 1.01806 168.128 0.737745 168.716 1.25988C173.403 5.42009 177.37 6.43733 179.022 6.41169C179.137 6.4099 179.257 6.42206 179.368 6.4544C193.035 10.4535 188.196 22.1954 189.754 20.253C191.318 18.3025 196.428 14.9659 202.876 16.6751C207.021 17.7738 212.623 15.7544 216.254 13.9317C217.071 13.5216 218.056 14.2869 217.805 15.166L216.852 18.5163C216.831 18.5896 216.801 18.6627 216.763 18.7293C208.717 33.1579 197.401 31.6109 191.319 28.3563C190.576 27.9584 189.61 28.5122 189.665 29.3539L190.747 45.9979C190.798 46.7827 189.946 47.3425 189.188 47.1319C187.333 46.6163 185.425 46.75 184 47.0491C183.253 47.2059 182.484 46.596 182.578 45.8385Z" fill="white"/>
</svg>
