<svg width="335" height="126" viewBox="0 0 335 126" fill="none" xmlns="http://www.w3.org/2000/svg">
<path d="M21 31.0041H287.576C295.997 30.8293 313.666 36.2457 316.966 59.3087C317.482 71.5391 312.325 96 287.576 96H76.1714" stroke="#EFEFEF" stroke-width="13.4077"/>
<path d="M105.623 3.47612C107.524 1.56061 110.622 1.56061 112.523 3.47612C113.885 4.84814 115.93 5.28286 117.732 4.58328C120.248 3.60657 123.077 4.86646 124.035 7.38957C124.721 9.19678 126.412 10.4258 128.343 10.5196C131.038 10.6506 133.111 12.9525 132.96 15.6469C132.851 17.5769 133.897 19.3877 135.622 20.2586C138.031 21.4747 138.989 24.4206 137.754 26.8205C136.87 28.5394 137.089 30.6189 138.311 32.1164C140.017 34.2072 139.693 37.2878 137.59 38.9781C136.083 40.1889 135.437 42.1775 135.944 44.0427C136.652 46.6467 135.104 49.3293 132.494 50.0178C130.625 50.511 129.226 52.0648 128.931 53.9752C128.519 56.6422 126.013 58.4629 123.349 58.0306C121.441 57.7209 119.531 58.5714 118.485 60.1965C117.023 62.4654 113.993 63.1094 111.736 61.631C110.119 60.5721 108.028 60.5721 106.411 61.631C104.153 63.1094 101.123 62.4654 99.6619 60.1965C98.6153 58.5714 96.7052 57.7209 94.7972 58.0306C92.1333 58.4629 89.6274 56.6422 89.2153 53.9752C88.9202 52.0648 87.5211 50.511 85.6521 50.0178C83.0428 49.3293 81.494 46.6467 82.2024 44.0427C82.7098 42.1775 82.0636 40.1889 80.5568 38.9781C78.4531 37.2878 78.1293 34.2072 79.8356 32.1164C81.0578 30.6189 81.2764 28.5394 80.3923 26.8205C79.1579 24.4206 80.1151 21.4747 82.5243 20.2586C84.2499 19.3877 85.2954 17.5769 85.1869 15.6469C85.0354 12.9525 87.1081 10.6506 89.8036 10.5196C91.7343 10.4258 93.4258 9.19678 94.1117 7.38957C95.0692 4.86646 97.899 3.60657 100.415 4.58328C102.217 5.28287 104.262 4.84814 105.623 3.47612Z" fill="#CECECE"/>
<path d="M135.109 24.2269C135.182 24.4199 135.21 24.7112 135.274 24.9436C135.534 25.9208 135.579 26.2921 135.74 27.19C136.058 28.5081 136.361 32.5141 135.898 32.5122C135.898 32.5122 135.898 32.5122 135.898 32.5122C135.894 32.5122 135.89 32.5118 135.886 32.5111C135.809 32.4967 135.722 32.1612 135.634 32.1135C135.545 32.0659 134.984 32.1086 134.939 31.6506C134.89 30.9879 134.883 29.3756 134.817 29.0212C134.78 28.7797 134.686 28.4908 134.625 28.1838C134.424 27.2006 134.344 26.6741 133.981 25.8375C133.959 25.4696 133.929 25.102 133.89 24.7337C133.718 24.2896 133.571 23.5826 133.461 23.3129C133.373 23.0925 133.268 22.9844 133.174 22.7573C133.067 22.5036 132.961 22.086 132.741 21.6324C132.378 20.8914 132.17 20.8306 131.926 20.4048C131.672 19.9639 131.349 19.2328 130.953 18.7107C130.896 18.6506 130.838 18.5908 130.779 18.5314C130.779 18.6009 130.779 18.6703 130.778 18.7396C130.588 18.4746 130.576 18.3155 130.409 18.0659C130.211 17.7726 130.047 17.6684 129.909 17.4762C129.796 17.3188 129.686 17.0721 129.53 16.8738C129.301 16.5855 129.283 16.702 129.148 16.5572C129.102 16.4926 128.127 15.4153 128.065 15.3623C127.643 14.9052 127.688 14.7874 127.346 14.4237C126.392 13.4185 125.245 12.5649 124.197 11.8426C123.729 11.519 123.243 11.1791 122.773 10.8597C123.696 11.0919 122.123 9.83165 122.514 10.623C122.008 10.2356 121.554 10.1219 121.036 9.82292C120.7 9.63103 120.489 9.44958 119.987 9.21422C119.092 8.79299 118.026 8.58646 117.87 8.18067C116.762 7.83971 115.816 7.46571 115.34 7.64835C115.051 7.59119 114.342 7.25375 114.016 7.16973C113.717 7.05845 111.304 6.65665 110.902 6.65525C110.501 6.62062 109.804 6.58843 109.466 6.61116C109.328 6.61942 109.204 6.65728 109.073 6.69292C108.8 6.76796 108.506 6.83034 107.99 6.61089C107.115 6.68092 106.808 6.69715 105.99 6.74723C105.843 6.75737 105.82 6.70744 105.734 6.71827C105.557 6.74088 105.264 6.81997 104.951 6.87501C104.435 6.96558 104.124 6.91661 104.212 7.07116C103.882 7.16275 103.55 7.26156 103.224 7.36637C103.099 7.36164 102.975 7.35782 102.85 7.35489C102.681 7.43324 102.513 7.51348 102.345 7.59552C102.488 7.29789 101.283 7.79427 101.727 7.81222C101.078 7.95197 100.433 8.11749 99.7926 8.309C99.7754 8.0067 98.4224 8.83427 98.6112 8.92663C98.5417 8.95724 98.4725 8.98814 98.4033 9.01934C97.7689 9.22815 97.246 9.5533 96.5138 9.90255C95.7825 10.2587 95.8387 10.2042 95.5592 10.2213C95.3983 10.3275 95.2388 10.4355 95.0807 10.5452C94.4375 11.3919 94.2206 10.7679 93.003 12.0349C92.4278 12.197 91.4534 13.178 90.862 13.8618C90.7924 13.9408 90.821 13.9725 90.7312 14.0802C90.5089 14.34 89.8728 14.9377 89.9967 15.0107C89.7642 15.2048 89.5348 15.4034 89.3083 15.6065C89.167 15.8101 89.0288 16.0155 88.8939 16.2223C88.9282 16.2484 88.9625 16.2746 88.9968 16.3007C88.5703 16.5902 88.1473 17.2484 87.8997 17.5416C87.85 17.5999 87.7913 17.5786 87.6424 17.7652C87.4674 17.9833 87.1965 18.4248 87.0054 18.6967C86.9926 18.8409 86.9811 18.985 86.9709 19.1286C86.6985 19.6499 86.4483 19.7455 86.2677 20.0442C86.2299 20.0952 85.7172 21.1151 85.699 21.1753C85.5135 21.6444 85.6821 21.5664 85.0984 22.8902C84.9971 23.1271 84.8744 23.3038 84.791 23.5226C84.6356 23.9056 84.3665 25.1264 84.4495 25.2484C84.1708 25.685 83.9079 26.9952 83.8008 27.375C83.7662 27.4886 83.6752 27.4974 83.591 27.854C83.5205 28.1437 83.4703 28.9093 83.4155 29.2802C83.3546 29.6744 83.2699 29.812 83.2472 29.9884C83.2264 30.1561 83.2703 30.3163 83.2526 30.546C83.1966 31.2663 83.0843 31.9098 83.0819 32.4859C83.0819 32.4947 83.0819 32.5035 83.0819 32.5122C83.0832 33.3331 83.2879 34.0421 83.4198 34.7103C83.4231 34.8803 83.4018 35.0486 83.4201 35.2267C83.6349 37.4257 84.1938 39.8675 84.9792 41.9464C85.3013 42.9225 86.2829 45.317 86.3139 44.5235C86.5099 44.8204 87.7274 47.1112 88.0454 47.4995C88.3311 47.9031 88.6242 48.1725 88.8649 48.4756C89.5974 49.3846 90.1048 50.0442 91.1639 50.9976C91.4388 51.2425 91.7841 51.4476 91.9446 51.5926C92.1378 51.7678 92.2969 52.0136 92.5539 52.2358C93.1601 52.773 94.3895 53.649 95.0371 54.0754C95.1544 54.1549 95.158 54.2411 95.3182 54.3684C95.9415 54.8672 96.7306 55.2872 96.6998 55.0146C97.5245 55.6137 98.4264 55.9133 99.2916 56.2628C101.103 57.0631 104.62 57.9648 106.354 57.9924C107.438 58.0306 107.412 57.9494 109.003 58.0616C109.026 58.0629 109.05 58.0642 109.073 58.0656C109.406 58.0842 109.741 58.1028 110.141 58.108C111.148 58.1214 112.101 58.2062 112.83 57.8726C113.949 57.7653 114.809 57.5318 115.665 57.5061C115.749 57.4365 115.832 57.3665 115.914 57.2962C116.047 57.2585 116.179 57.2198 116.31 57.1801C116.364 57.2101 116.417 57.2399 116.471 57.2696C117.429 57.0015 118.542 56.393 119.301 56.0587C120.612 55.5649 123.752 53.7789 124.808 52.9557C125.386 52.5451 125.351 52.4457 125.787 52.3335C125.899 52.2207 126.011 52.107 126.122 51.9924C126.169 51.8952 126.215 51.7979 126.26 51.7005C126.935 51.0973 127.741 50.3804 128.316 49.7332C129.385 48.5677 130.674 46.5807 131.501 45.2371C131.714 44.9026 132.025 44.5064 132.2 44.1573C132.451 43.6478 132.382 43.4641 132.67 42.8094C133.181 41.6919 134.061 39.5508 134.291 38.3956C134.366 38.0556 134.346 37.8843 134.389 37.6486C134.561 36.6604 134.682 35.8403 134.689 34.8754C134.912 33.8608 135.072 33.9506 135.27 33.6374C135.419 33.4007 135.747 32.6389 135.864 32.5256C135.948 32.4477 136.055 32.7389 136.147 32.6301C136.206 33.933 136.082 34.4816 135.845 35.5109C135.637 37.4398 135.219 39.3469 134.6 41.1866C134.495 41.3376 134.389 41.4869 134.282 41.6346C134.282 41.6346 134.282 41.6345 134.282 41.6345C133.973 42.3106 133.971 42.6464 133.843 43.0281C132.811 46.8217 127.722 52.8021 124.021 54.9185C123.285 55.4586 120.698 56.9357 120.075 57.0792C119.918 57.1259 119.846 57.073 119.687 57.1382C118.297 57.7882 116.847 58.3194 115.359 58.7225C113.313 59.1307 111.197 59.3971 109.073 59.4217C107.967 59.4349 106.869 59.3841 105.782 59.2581C97.1662 58.3166 89.2826 52.9051 85.2752 45.3562C84.4846 43.9112 83.6218 41.9915 83.1958 40.4301C83.0178 39.7808 83.0588 39.4779 82.7649 38.6433C82.7955 38.6266 82.8261 38.6101 82.8567 38.5935C82.6469 37.8514 82.4771 37.385 82.3381 36.5278C82.2061 35.8138 82.039 33.8832 82.053 33.2434C82.0517 32.9093 82.1166 33.0327 82.1129 32.7213C82.1123 32.6593 82.1107 32.5891 82.1085 32.5122C82.0888 31.9266 82.0566 30.9641 82.1125 30.3129C82.16 29.6502 82.3763 28.5431 82.4554 28.0379C82.7183 26.2171 83.1503 24.2303 83.9163 22.4097C84.1246 21.9071 84.4873 21.3008 84.5576 21.1473C84.6936 20.8448 84.6662 20.7218 84.7561 20.5159C85.2041 19.4666 86.1914 17.9831 86.8381 17.0806C88.9064 14.1045 91.724 11.3846 94.8087 9.50022C96.7224 8.25022 100.242 6.75955 102.314 6.34855C102.756 6.25012 102.659 6.36343 103.028 6.27696C103.438 6.18343 103.652 6.08167 103.843 6.03892C105.047 5.74142 107.636 5.41983 109.073 5.48612C109.219 5.48971 109.353 5.49537 109.472 5.50259C109.718 5.5177 109.893 5.59091 110.039 5.59575C110.113 5.5984 110.281 5.55808 110.514 5.56558C112.574 5.64578 114.068 5.9107 116.017 6.43069C119.751 7.41839 123.858 9.4696 126.869 12.2154C127.528 12.8079 127.861 13.3337 127.951 13.4185C128.145 13.6081 128.334 13.6659 128.729 14.0524C130.058 15.332 131.465 17.3891 132.37 18.8815C132.83 19.6122 133.478 20.6202 133.848 21.3922C134.161 22.0037 134.689 23.5287 134.823 23.8027C134.91 23.9677 135.03 24.0186 135.109 24.2269ZM119.479 8.90042C119.65 8.79909 118.476 8.44789 118.865 8.70097C118.953 8.75581 119.436 8.92418 119.479 8.90042ZM83.628 38.1997C83.6691 38.179 83.7101 38.1584 83.7512 38.1378C83.6985 37.9852 83.6469 37.8308 83.5971 37.6774C83.5885 37.7706 83.5808 37.8655 83.5735 37.9598C83.5913 38.0399 83.6095 38.1199 83.628 38.1997Z" fill="white"/>
<path d="M96.8284 39.3041C109.186 33.3365 111.128 31.929 111.128 29.9868C111.128 29.0578 110.453 28.6075 109.186 28.6075C107.835 28.6075 104.541 29.6771 100.234 31.535L97.1099 25.0325C101.389 22.3865 106.005 21.0072 110.481 21.0072C117.462 21.0072 121.037 23.991 121.037 28.5793C121.037 32.6609 118.25 36.0951 111.832 37.8967H121.177V45.2154H97.6728L96.8284 39.3041Z" fill="white"/>
<path d="M105.623 3.47612C107.524 1.56061 110.622 1.56061 112.523 3.47612C113.885 4.84814 115.93 5.28286 117.732 4.58328C120.248 3.60657 123.077 4.86646 124.035 7.38957C124.721 9.19678 126.412 10.4258 128.343 10.5196C131.038 10.6506 133.111 12.9525 132.96 15.6469C132.851 17.5769 133.897 19.3877 135.622 20.2586C138.031 21.4747 138.989 24.4206 137.754 26.8205C136.87 28.5394 137.089 30.6189 138.311 32.1164C140.017 34.2072 139.693 37.2878 137.59 38.9781C136.083 40.1889 135.437 42.1775 135.944 44.0427C136.652 46.6467 135.104 49.3293 132.494 50.0178C130.625 50.511 129.226 52.0648 128.931 53.9752C128.519 56.6422 126.013 58.4629 123.349 58.0306C121.441 57.7209 119.531 58.5714 118.485 60.1965C117.023 62.4654 113.993 63.1094 111.736 61.631C110.119 60.5721 108.028 60.5721 106.411 61.631C104.153 63.1094 101.123 62.4654 99.6619 60.1965C98.6153 58.5714 96.7052 57.7209 94.7972 58.0306C92.1333 58.4629 89.6274 56.6422 89.2153 53.9752C88.9202 52.0648 87.5211 50.511 85.6521 50.0178C83.0428 49.3293 81.494 46.6467 82.2024 44.0427C82.7098 42.1775 82.0636 40.1889 80.5568 38.9781C78.4531 37.2878 78.1293 34.2072 79.8356 32.1164C81.0578 30.6189 81.2764 28.5394 80.3923 26.8205C79.1579 24.4206 80.1151 21.4747 82.5243 20.2586C84.2499 19.3877 85.2954 17.5769 85.1869 15.6469C85.0354 12.9525 87.1081 10.6506 89.8036 10.5196C91.7343 10.4258 93.4258 9.19678 94.1117 7.38957C95.0692 4.86646 97.899 3.60657 100.415 4.58328C102.217 5.28287 104.262 4.84814 105.623 3.47612Z" fill="#CECECE"/>
<path d="M135.109 24.2269C135.182 24.4199 135.21 24.7112 135.274 24.9436C135.534 25.9208 135.579 26.2921 135.74 27.19C136.058 28.5081 136.361 32.5141 135.898 32.5122C135.898 32.5122 135.898 32.5122 135.898 32.5122C135.894 32.5122 135.89 32.5118 135.886 32.5111C135.809 32.4967 135.722 32.1612 135.634 32.1135C135.545 32.0659 134.984 32.1086 134.939 31.6506C134.89 30.9879 134.883 29.3756 134.817 29.0212C134.78 28.7797 134.686 28.4908 134.625 28.1838C134.424 27.2006 134.344 26.6741 133.981 25.8375C133.959 25.4696 133.929 25.102 133.89 24.7337C133.718 24.2896 133.571 23.5826 133.461 23.3129C133.373 23.0925 133.268 22.9844 133.174 22.7573C133.067 22.5036 132.961 22.086 132.741 21.6324C132.378 20.8914 132.17 20.8306 131.926 20.4048C131.672 19.9639 131.349 19.2328 130.953 18.7107C130.896 18.6506 130.838 18.5908 130.779 18.5314C130.779 18.6009 130.779 18.6703 130.778 18.7396C130.588 18.4746 130.576 18.3155 130.409 18.0659C130.211 17.7726 130.047 17.6684 129.909 17.4762C129.796 17.3188 129.686 17.0721 129.53 16.8738C129.301 16.5855 129.283 16.702 129.148 16.5572C129.102 16.4926 128.127 15.4153 128.065 15.3623C127.643 14.9052 127.688 14.7874 127.346 14.4237C126.392 13.4185 125.245 12.5649 124.197 11.8426C123.729 11.519 123.243 11.1791 122.773 10.8597C123.696 11.0919 122.123 9.83165 122.514 10.623C122.008 10.2356 121.554 10.1219 121.036 9.82292C120.7 9.63103 120.489 9.44958 119.987 9.21422C119.092 8.79299 118.026 8.58646 117.87 8.18067C116.762 7.83971 115.816 7.46571 115.34 7.64835C115.051 7.59119 114.342 7.25375 114.016 7.16973C113.717 7.05845 111.304 6.65665 110.902 6.65525C110.501 6.62062 109.804 6.58843 109.466 6.61116C109.328 6.61942 109.204 6.65728 109.073 6.69292C108.8 6.76796 108.506 6.83034 107.99 6.61089C107.115 6.68092 106.808 6.69715 105.99 6.74723C105.843 6.75737 105.82 6.70744 105.734 6.71827C105.557 6.74088 105.264 6.81997 104.951 6.87501C104.435 6.96558 104.124 6.91661 104.212 7.07116C103.882 7.16275 103.55 7.26156 103.224 7.36637C103.099 7.36164 102.975 7.35782 102.85 7.35489C102.681 7.43324 102.513 7.51348 102.345 7.59552C102.488 7.29789 101.283 7.79427 101.727 7.81222C101.078 7.95197 100.433 8.11749 99.7926 8.309C99.7754 8.0067 98.4224 8.83427 98.6112 8.92663C98.5417 8.95724 98.4725 8.98814 98.4033 9.01934C97.7689 9.22815 97.246 9.5533 96.5138 9.90255C95.7825 10.2587 95.8387 10.2042 95.5592 10.2213C95.3983 10.3275 95.2388 10.4355 95.0807 10.5452C94.4375 11.3919 94.2206 10.7679 93.003 12.0349C92.4278 12.197 91.4534 13.178 90.862 13.8618C90.7924 13.9408 90.821 13.9725 90.7312 14.0802C90.5089 14.34 89.8728 14.9377 89.9967 15.0107C89.7642 15.2048 89.5348 15.4034 89.3083 15.6065C89.167 15.8101 89.0288 16.0155 88.8939 16.2223C88.9282 16.2484 88.9625 16.2746 88.9968 16.3007C88.5703 16.5902 88.1473 17.2484 87.8997 17.5416C87.85 17.5999 87.7913 17.5786 87.6424 17.7652C87.4674 17.9833 87.1965 18.4248 87.0054 18.6967C86.9926 18.8409 86.9811 18.985 86.9709 19.1286C86.6985 19.6499 86.4483 19.7455 86.2677 20.0442C86.2299 20.0952 85.7172 21.1151 85.699 21.1753C85.5135 21.6444 85.6821 21.5664 85.0984 22.8902C84.9971 23.1271 84.8744 23.3038 84.791 23.5226C84.6356 23.9056 84.3665 25.1264 84.4495 25.2484C84.1708 25.685 83.9079 26.9952 83.8008 27.375C83.7662 27.4886 83.6752 27.4974 83.591 27.854C83.5205 28.1437 83.4703 28.9093 83.4155 29.2802C83.3546 29.6744 83.2699 29.812 83.2472 29.9884C83.2264 30.1561 83.2703 30.3163 83.2526 30.546C83.1966 31.2663 83.0843 31.9098 83.0819 32.4859C83.0819 32.4947 83.0819 32.5035 83.0819 32.5122C83.0832 33.3331 83.2879 34.0421 83.4198 34.7103C83.4231 34.8803 83.4018 35.0486 83.4201 35.2267C83.6349 37.4257 84.1938 39.8675 84.9792 41.9464C85.3013 42.9225 86.2829 45.317 86.3139 44.5235C86.5099 44.8204 87.7274 47.1112 88.0454 47.4995C88.3311 47.9031 88.6242 48.1725 88.8649 48.4756C89.5974 49.3846 90.1048 50.0442 91.1639 50.9976C91.4388 51.2425 91.7841 51.4476 91.9446 51.5926C92.1378 51.7678 92.2969 52.0136 92.5539 52.2358C93.1601 52.773 94.3895 53.649 95.0371 54.0754C95.1544 54.1549 95.158 54.2411 95.3182 54.3684C95.9415 54.8672 96.7306 55.2872 96.6998 55.0146C97.5245 55.6137 98.4264 55.9133 99.2916 56.2628C101.103 57.0631 104.62 57.9648 106.354 57.9924C107.438 58.0306 107.412 57.9494 109.003 58.0616C109.026 58.0629 109.05 58.0642 109.073 58.0656C109.406 58.0842 109.741 58.1028 110.141 58.108C111.148 58.1214 112.101 58.2062 112.83 57.8726C113.949 57.7653 114.809 57.5318 115.665 57.5061C115.749 57.4365 115.832 57.3665 115.914 57.2962C116.047 57.2585 116.179 57.2198 116.31 57.1801C116.364 57.2101 116.417 57.2399 116.471 57.2696C117.429 57.0015 118.542 56.393 119.301 56.0587C120.612 55.5649 123.752 53.7789 124.808 52.9557C125.386 52.5451 125.351 52.4457 125.787 52.3335C125.899 52.2207 126.011 52.107 126.122 51.9924C126.169 51.8952 126.215 51.7979 126.26 51.7005C126.935 51.0973 127.741 50.3804 128.316 49.7332C129.385 48.5677 130.674 46.5807 131.501 45.2371C131.714 44.9026 132.025 44.5064 132.2 44.1573C132.451 43.6478 132.382 43.4641 132.67 42.8094C133.181 41.6919 134.061 39.5508 134.291 38.3956C134.366 38.0556 134.346 37.8843 134.389 37.6486C134.561 36.6604 134.682 35.8403 134.689 34.8754C134.912 33.8608 135.072 33.9506 135.27 33.6374C135.419 33.4007 135.747 32.6389 135.864 32.5256C135.948 32.4477 136.055 32.7389 136.147 32.6301C136.206 33.933 136.082 34.4816 135.845 35.5109C135.637 37.4398 135.219 39.3469 134.6 41.1866C134.495 41.3376 134.389 41.4869 134.282 41.6346C134.282 41.6346 134.282 41.6345 134.282 41.6345C133.973 42.3106 133.971 42.6464 133.843 43.0281C132.811 46.8217 127.722 52.8021 124.021 54.9185C123.285 55.4586 120.698 56.9357 120.075 57.0792C119.918 57.1259 119.846 57.073 119.687 57.1382C118.297 57.7882 116.847 58.3194 115.359 58.7225C113.313 59.1307 111.197 59.3971 109.073 59.4217C107.967 59.4349 106.869 59.3841 105.782 59.2581C97.1662 58.3166 89.2826 52.9051 85.2752 45.3562C84.4846 43.9112 83.6218 41.9915 83.1958 40.4301C83.0178 39.7808 83.0588 39.4779 82.7649 38.6433C82.7955 38.6266 82.8261 38.6101 82.8567 38.5935C82.6469 37.8514 82.4771 37.385 82.3381 36.5278C82.2061 35.8138 82.039 33.8832 82.053 33.2434C82.0517 32.9093 82.1166 33.0327 82.1129 32.7213C82.1123 32.6593 82.1107 32.5891 82.1085 32.5122C82.0888 31.9266 82.0566 30.9641 82.1125 30.3129C82.16 29.6502 82.3763 28.5431 82.4554 28.0379C82.7183 26.2171 83.1503 24.2303 83.9163 22.4097C84.1246 21.9071 84.4873 21.3008 84.5576 21.1473C84.6936 20.8448 84.6662 20.7218 84.7561 20.5159C85.2041 19.4666 86.1914 17.9831 86.8381 17.0806C88.9064 14.1045 91.724 11.3846 94.8087 9.50022C96.7224 8.25022 100.242 6.75955 102.314 6.34855C102.756 6.25012 102.659 6.36343 103.028 6.27696C103.438 6.18343 103.652 6.08167 103.843 6.03892C105.047 5.74142 107.636 5.41983 109.073 5.48612C109.219 5.48971 109.353 5.49537 109.472 5.50259C109.718 5.5177 109.893 5.59091 110.039 5.59575C110.113 5.5984 110.281 5.55808 110.514 5.56558C112.574 5.64578 114.068 5.9107 116.017 6.43069C119.751 7.41839 123.858 9.4696 126.869 12.2154C127.528 12.8079 127.861 13.3337 127.951 13.4185C128.145 13.6081 128.334 13.6659 128.729 14.0524C130.058 15.332 131.465 17.3891 132.37 18.8815C132.83 19.6122 133.478 20.6202 133.848 21.3922C134.161 22.0037 134.689 23.5287 134.823 23.8027C134.91 23.9677 135.03 24.0186 135.109 24.2269ZM119.479 8.90042C119.65 8.79909 118.476 8.44789 118.865 8.70097C118.953 8.75581 119.436 8.92418 119.479 8.90042ZM83.628 38.1997C83.6691 38.179 83.7101 38.1584 83.7512 38.1378C83.6985 37.9852 83.6469 37.8308 83.5971 37.6774C83.5885 37.7706 83.5808 37.8655 83.5735 37.9598C83.5913 38.0399 83.6095 38.1199 83.628 38.1997Z" fill="white"/>
<path d="M96.8284 39.3041C109.186 33.3365 111.128 31.929 111.128 29.9868C111.128 29.0578 110.453 28.6075 109.186 28.6075C107.835 28.6075 104.541 29.6771 100.234 31.535L97.1099 25.0325C101.389 22.3865 106.005 21.0072 110.481 21.0072C117.462 21.0072 121.037 23.991 121.037 28.5793C121.037 32.6609 118.25 36.0951 111.832 37.8967H121.177V45.2154H97.6728L96.8284 39.3041Z" fill="white"/>
<path d="M182.184 3.47612C184.085 1.56061 187.183 1.56061 189.084 3.47612C190.446 4.84814 192.491 5.28286 194.293 4.58328C196.808 3.60657 199.638 4.86646 200.596 7.38957C201.282 9.19678 202.973 10.4258 204.904 10.5196C207.599 10.6506 209.672 12.9525 209.52 15.6469C209.412 17.5769 210.457 19.3877 212.183 20.2586C214.592 21.4747 215.549 24.4206 214.315 26.8205C213.431 28.5394 213.65 30.6189 214.872 32.1164C216.578 34.2072 216.254 37.2878 214.151 38.9781C212.644 40.1889 211.998 42.1775 212.505 44.0427C213.213 46.6467 211.665 49.3293 209.055 50.0178C207.186 50.511 205.787 52.0648 205.492 53.9752C205.08 56.6422 202.574 58.4629 199.91 58.0306C198.002 57.7209 196.092 58.5714 195.045 60.1965C193.584 62.4654 190.554 63.1094 188.297 61.631C186.68 60.5721 184.589 60.5721 182.972 61.631C180.714 63.1094 177.684 62.4654 176.223 60.1965C175.176 58.5714 173.266 57.7209 171.358 58.0306C168.694 58.4629 166.188 56.6422 165.776 53.9752C165.481 52.0648 164.082 50.511 162.213 50.0178C159.604 49.3293 158.055 46.6467 158.763 44.0427C159.271 42.1775 158.625 40.1889 157.118 38.9781C155.014 37.2878 154.69 34.2072 156.397 32.1164C157.619 30.6189 157.837 28.5394 156.953 26.8205C155.719 24.4206 156.676 21.4747 159.085 20.2586C160.811 19.3877 161.856 17.5769 161.748 15.6469C161.596 12.9525 163.669 10.6506 166.364 10.5196C168.295 10.4258 169.987 9.19678 170.673 7.38957C171.63 4.86646 174.46 3.60657 176.976 4.58328C178.778 5.28287 180.823 4.84814 182.184 3.47612Z" fill="#CECECE"/>
<path d="M211.67 24.2269C211.743 24.4199 211.771 24.7112 211.834 24.9436C212.095 25.9208 212.14 26.2921 212.301 27.19C212.619 28.5081 212.922 32.5141 212.459 32.5122C212.459 32.5122 212.459 32.5122 212.459 32.5122C212.455 32.5122 212.451 32.5118 212.447 32.5111C212.37 32.4967 212.283 32.1612 212.195 32.1135C212.106 32.0659 211.545 32.1086 211.5 31.6506C211.451 30.9879 211.444 29.3756 211.378 29.0212C211.341 28.7797 211.247 28.4908 211.186 28.1838C210.985 27.2006 210.905 26.6741 210.542 25.8375C210.52 25.4696 210.49 25.102 210.451 24.7337C210.279 24.2896 210.132 23.5826 210.022 23.3129C209.934 23.0925 209.829 22.9844 209.735 22.7573C209.628 22.5036 209.522 22.086 209.302 21.6324C208.939 20.8914 208.731 20.8306 208.487 20.4048C208.232 19.9639 207.91 19.2328 207.514 18.7107C207.456 18.6506 207.399 18.5908 207.34 18.5314C207.34 18.6009 207.34 18.6703 207.339 18.7396C207.149 18.4746 207.137 18.3155 206.97 18.0659C206.772 17.7726 206.608 17.6684 206.47 17.4762C206.357 17.3188 206.247 17.0721 206.091 16.8738C205.862 16.5855 205.844 16.702 205.709 16.5572C205.663 16.4926 204.688 15.4153 204.625 15.3623C204.204 14.9052 204.249 14.7874 203.907 14.4237C202.953 13.4185 201.806 12.5649 200.758 11.8426C200.29 11.519 199.804 11.1791 199.334 10.8597C200.257 11.0919 198.684 9.83165 199.075 10.623C198.569 10.2356 198.115 10.1219 197.597 9.82292C197.261 9.63103 197.05 9.44958 196.548 9.21422C195.653 8.79299 194.587 8.58646 194.431 8.18067C193.322 7.83971 192.377 7.46571 191.901 7.64835C191.612 7.59119 190.903 7.25375 190.577 7.16973C190.278 7.05845 187.865 6.65665 187.463 6.65525C187.062 6.62062 186.365 6.58843 186.027 6.61116C185.889 6.61942 185.765 6.65728 185.634 6.69292C185.361 6.76796 185.067 6.83034 184.551 6.61089C183.676 6.68092 183.369 6.69715 182.551 6.74723C182.404 6.75737 182.381 6.70744 182.295 6.71827C182.117 6.74088 181.825 6.81997 181.511 6.87501C180.996 6.96558 180.684 6.91661 180.773 7.07116C180.443 7.16275 180.111 7.26156 179.785 7.36637C179.66 7.36164 179.536 7.35782 179.411 7.35489C179.242 7.43324 179.073 7.51348 178.906 7.59552C179.049 7.29789 177.844 7.79427 178.288 7.81222C177.639 7.95197 176.994 8.11749 176.354 8.309C176.336 8.0067 174.983 8.83427 175.172 8.92663C175.103 8.95724 175.033 8.98814 174.964 9.01934C174.33 9.22815 173.807 9.5533 173.075 9.90255C172.343 10.2587 172.4 10.2042 172.12 10.2213C171.959 10.3275 171.8 10.4355 171.642 10.5452C170.998 11.3919 170.781 10.7679 169.564 12.0349C168.989 12.197 168.014 13.178 167.423 13.8618C167.353 13.9408 167.382 13.9725 167.292 14.0802C167.07 14.34 166.434 14.9377 166.558 15.0107C166.325 15.2048 166.096 15.4034 165.869 15.6065C165.728 15.8101 165.59 16.0155 165.455 16.2223C165.489 16.2484 165.523 16.2746 165.558 16.3007C165.131 16.5902 164.708 17.2484 164.461 17.5416C164.411 17.5999 164.352 17.5786 164.203 17.7652C164.028 17.9833 163.757 18.4248 163.566 18.6967C163.554 18.8409 163.542 18.985 163.532 19.1286C163.259 19.6499 163.009 19.7455 162.829 20.0442C162.791 20.0952 162.278 21.1151 162.26 21.1753C162.074 21.6444 162.243 21.5664 161.659 22.8902C161.558 23.1271 161.435 23.3038 161.352 23.5226C161.196 23.9056 160.927 25.1264 161.01 25.2484C160.732 25.685 160.469 26.9952 160.362 27.375C160.327 27.4886 160.236 27.4974 160.152 27.854C160.081 28.1437 160.031 28.9093 159.976 29.2802C159.915 29.6744 159.831 29.812 159.808 29.9884C159.787 30.1561 159.831 30.3163 159.813 30.546C159.757 31.2663 159.645 31.9098 159.643 32.4859C159.643 32.4947 159.643 32.5035 159.643 32.5122C159.644 33.3331 159.849 34.0421 159.981 34.7103C159.984 34.8803 159.963 35.0486 159.981 35.2267C160.196 37.4257 160.755 39.8675 161.54 41.9464C161.862 42.9225 162.844 45.317 162.875 44.5235C163.071 44.8204 164.288 47.1112 164.606 47.4995C164.892 47.9031 165.185 48.1725 165.426 48.4756C166.158 49.3846 166.666 50.0442 167.725 50.9976C168 51.2425 168.345 51.4476 168.506 51.5926C168.699 51.7678 168.858 52.0136 169.115 52.2358C169.721 52.773 170.95 53.649 171.598 54.0754C171.715 54.1549 171.719 54.2411 171.879 54.3684C172.502 54.8672 173.292 55.2872 173.261 55.0146C174.085 55.6137 174.987 55.9133 175.853 56.2628C177.664 57.0631 181.181 57.9648 182.915 57.9924C183.999 58.0306 183.973 57.9494 185.564 58.0616C185.587 58.0629 185.611 58.0642 185.634 58.0656C185.967 58.0842 186.302 58.1028 186.702 58.108C187.709 58.1214 188.662 58.2062 189.391 57.8726C190.51 57.7653 191.37 57.5318 192.225 57.5061C192.309 57.4365 192.393 57.3665 192.475 57.2962C192.608 57.2585 192.74 57.2198 192.871 57.1801C192.925 57.2101 192.978 57.2399 193.032 57.2696C193.99 57.0015 195.103 56.393 195.862 56.0587C197.173 55.5649 200.313 53.7789 201.369 52.9557C201.947 52.5451 201.912 52.4457 202.348 52.3335C202.46 52.2207 202.572 52.107 202.683 51.9924C202.729 51.8952 202.776 51.7979 202.821 51.7005C203.495 51.0973 204.301 50.3804 204.877 49.7332C205.946 48.5677 207.234 46.5807 208.062 45.2371C208.275 44.9026 208.586 44.5064 208.761 44.1573C209.012 43.6478 208.943 43.4641 209.23 42.8094C209.742 41.6919 210.622 39.5508 210.852 38.3956C210.927 38.0556 210.907 37.8843 210.949 37.6486C211.122 36.6604 211.243 35.8403 211.25 34.8754C211.473 33.8608 211.633 33.9506 211.831 33.6374C211.98 33.4007 212.308 32.6389 212.425 32.5256C212.509 32.4477 212.616 32.7389 212.708 32.6301C212.767 33.933 212.643 34.4816 212.406 35.5109C212.198 37.4398 211.78 39.3469 211.16 41.1866C211.056 41.3376 210.95 41.4869 210.843 41.6346C210.843 41.6346 210.843 41.6345 210.843 41.6345C210.534 42.3106 210.532 42.6464 210.404 43.0281C209.372 46.8217 204.282 52.8021 200.582 54.9185C199.846 55.4586 197.259 56.9357 196.636 57.0792C196.479 57.1259 196.406 57.073 196.247 57.1382C194.858 57.7882 193.408 58.3194 191.919 58.7225C189.874 59.1307 187.758 59.3971 185.634 59.4217C184.527 59.4349 183.43 59.3841 182.343 59.2581C173.727 58.3166 165.843 52.9051 161.836 45.3562C161.046 43.9112 160.183 41.9915 159.757 40.4301C159.579 39.7808 159.62 39.4779 159.326 38.6433C159.356 38.6266 159.387 38.6101 159.418 38.5935C159.208 37.8514 159.038 37.385 158.899 36.5278C158.767 35.8138 158.6 33.8832 158.614 33.2434C158.613 32.9093 158.678 33.0327 158.674 32.7213C158.673 32.6593 158.672 32.5891 158.669 32.5122C158.65 31.9266 158.618 30.9641 158.673 30.3129C158.721 29.6502 158.937 28.5431 159.016 28.0379C159.279 26.2171 159.711 24.2303 160.477 22.4097C160.685 21.9071 161.048 21.3008 161.119 21.1473C161.254 20.8448 161.227 20.7218 161.317 20.5159C161.765 19.4666 162.752 17.9831 163.399 17.0806C165.467 14.1045 168.285 11.3846 171.37 9.50022C173.283 8.25022 176.803 6.75955 178.875 6.34855C179.317 6.25012 179.22 6.36343 179.589 6.27696C179.999 6.18343 180.212 6.08167 180.404 6.03892C181.608 5.74142 184.197 5.41983 185.634 5.48612C185.78 5.48971 185.914 5.49537 186.033 5.50259C186.279 5.5177 186.454 5.59091 186.6 5.59575C186.674 5.5984 186.842 5.55808 187.075 5.56558C189.134 5.64578 190.629 5.9107 192.578 6.43069C196.311 7.41839 200.419 9.4696 203.43 12.2154C204.089 12.8079 204.422 13.3337 204.511 13.4185C204.706 13.6081 204.894 13.6659 205.29 14.0524C206.619 15.332 208.026 17.3891 208.931 18.8815C209.391 19.6122 210.039 20.6202 210.409 21.3922C210.722 22.0037 211.25 23.5287 211.383 23.8027C211.471 23.9677 211.591 24.0186 211.67 24.2269ZM196.04 8.90042C196.211 8.79909 195.036 8.44789 195.426 8.70097C195.514 8.75581 195.997 8.92418 196.04 8.90042ZM160.189 38.1997C160.23 38.179 160.271 38.1584 160.312 38.1378C160.259 37.9852 160.208 37.8308 160.158 37.6774C160.149 37.7706 160.142 37.8655 160.134 37.9598C160.152 38.0399 160.17 38.1199 160.189 38.1997Z" fill="white"/>
<path d="M174.937 36.9114C179.723 38.0092 182.059 38.3189 186.056 38.3189C188.477 38.3189 189.547 38.0092 189.547 37.3055C189.547 36.3766 187.042 35.9544 179.582 35.6166V30.6342C187.267 30.2682 189.209 29.9586 189.209 29.1423C189.209 28.5793 188.336 28.3823 186.056 28.3823C183.326 28.3823 178.681 29.1704 175.5 30.1838L173.812 23.991C176.767 22.3021 182.763 21.0072 187.633 21.0072C194.417 21.0072 198.132 23.231 198.132 27.2844C198.132 29.7616 196.725 31.8164 194.276 33.055C197.203 34.1247 198.723 36.0388 198.723 38.713C198.723 43.5546 194.895 45.7784 186.619 45.7784C181.806 45.7784 177.358 45.0747 173.249 43.6391L174.937 36.9114Z" fill="white"/>
<path d="M258.745 3.47612C260.646 1.56061 263.744 1.56061 265.645 3.47612C267.006 4.84814 269.052 5.28286 270.854 4.58328C273.369 3.60657 276.199 4.86646 277.157 7.38957C277.842 9.19678 279.534 10.4258 281.465 10.5196C284.16 10.6506 286.233 12.9525 286.081 15.6469C285.973 17.5769 287.018 19.3877 288.744 20.2586C291.153 21.4747 292.11 24.4206 290.876 26.8205C289.992 28.5394 290.21 30.6189 291.433 32.1164C293.139 34.2072 292.815 37.2878 290.711 38.9781C289.205 40.1889 288.559 42.1775 289.066 44.0427C289.774 46.6467 288.226 49.3293 285.616 50.0178C283.747 50.511 282.348 52.0648 282.053 53.9752C281.641 56.6422 279.135 58.4629 276.471 58.0306C274.563 57.7209 272.653 58.5714 271.606 60.1965C270.145 62.4654 267.115 63.1094 264.858 61.631C263.241 60.5721 261.15 60.5721 259.532 61.631C257.275 63.1094 254.245 62.4654 252.784 60.1965C251.737 58.5714 249.827 57.7209 247.919 58.0306C245.255 58.4629 242.749 56.6422 242.337 53.9752C242.042 52.0648 240.643 50.511 238.774 50.0178C236.165 49.3293 234.616 46.6467 235.324 44.0427C235.832 42.1775 235.185 40.1889 233.679 38.9781C231.575 37.2878 231.251 34.2072 232.957 32.1164C234.18 30.6189 234.398 28.5394 233.514 26.8205C232.28 24.4206 233.237 21.4747 235.646 20.2586C237.372 19.3877 238.417 17.5769 238.309 15.6469C238.157 12.9525 240.23 10.6506 242.925 10.5196C244.856 10.4258 246.548 9.19678 247.234 7.38957C248.191 4.86646 251.021 3.60657 253.537 4.58328C255.338 5.28287 257.384 4.84814 258.745 3.47612Z" fill="#CECECE"/>
<path d="M288.231 24.2269C288.304 24.4199 288.332 24.7112 288.395 24.9436C288.656 25.9208 288.701 26.2921 288.862 27.19C289.18 28.5081 289.483 32.5141 289.02 32.5122C289.02 32.5122 289.02 32.5122 289.02 32.5122C289.016 32.5122 289.012 32.5118 289.008 32.5111C288.931 32.4967 288.844 32.1612 288.756 32.1135C288.667 32.0659 288.106 32.1086 288.061 31.6506C288.012 30.9879 288.005 29.3756 287.939 29.0212C287.902 28.7797 287.808 28.4908 287.747 28.1838C287.546 27.2006 287.466 26.6741 287.103 25.8375C287.081 25.4696 287.051 25.102 287.012 24.7337C286.84 24.2896 286.693 23.5826 286.583 23.3129C286.495 23.0925 286.39 22.9844 286.296 22.7573C286.189 22.5036 286.083 22.086 285.863 21.6324C285.5 20.8914 285.292 20.8306 285.048 20.4048C284.793 19.9639 284.471 19.2328 284.075 18.7107C284.017 18.6506 283.959 18.5908 283.901 18.5314C283.901 18.6009 283.901 18.6703 283.9 18.7396C283.71 18.4746 283.698 18.3155 283.531 18.0659C283.333 17.7726 283.169 17.6684 283.031 17.4762C282.918 17.3188 282.808 17.0721 282.652 16.8738C282.423 16.5855 282.405 16.702 282.27 16.5572C282.224 16.4926 281.249 15.4153 281.186 15.3623C280.764 14.9052 280.81 14.7874 280.468 14.4237C279.514 13.4185 278.367 12.5649 277.319 11.8426C276.851 11.519 276.365 11.1791 275.895 10.8597C276.818 11.0919 275.245 9.83165 275.636 10.623C275.13 10.2356 274.676 10.1219 274.158 9.82292C273.822 9.63103 273.611 9.44958 273.109 9.21422C272.214 8.79299 271.148 8.58646 270.992 8.18067C269.883 7.83971 268.937 7.46571 268.462 7.64835C268.173 7.59119 267.463 7.25375 267.138 7.16973C266.839 7.05845 264.426 6.65665 264.024 6.65525C263.623 6.62062 262.926 6.58843 262.587 6.61116C262.45 6.61942 262.326 6.65728 262.195 6.69292C261.922 6.76796 261.628 6.83034 261.112 6.61089C260.237 6.68092 259.93 6.69715 259.112 6.74723C258.965 6.75737 258.941 6.70744 258.856 6.71827C258.678 6.74088 258.386 6.81997 258.072 6.87501C257.557 6.96558 257.245 6.91661 257.334 7.07116C257.004 7.16275 256.672 7.26156 256.345 7.36637C256.221 7.36164 256.097 7.35782 255.972 7.35489C255.803 7.43324 255.634 7.51348 255.467 7.59552C255.609 7.29789 254.405 7.79427 254.848 7.81222C254.2 7.95197 253.555 8.11749 252.914 8.309C252.897 8.0067 251.544 8.83427 251.733 8.92663C251.664 8.95724 251.594 8.98814 251.525 9.01934C250.891 9.22815 250.368 9.5533 249.636 9.90255C248.904 10.2587 248.961 10.2042 248.681 10.2213C248.52 10.3275 248.361 10.4355 248.203 10.5452C247.559 11.3919 247.342 10.7679 246.125 12.0349C245.55 12.197 244.575 13.178 243.984 13.8618C243.914 13.9408 243.943 13.9725 243.853 14.0802C243.631 14.34 242.995 14.9377 243.118 15.0107C242.886 15.2048 242.657 15.4034 242.43 15.6065C242.289 15.8101 242.151 16.0155 242.016 16.2223C242.05 16.2484 242.084 16.2746 242.119 16.3007C241.692 16.5902 241.269 17.2484 241.022 17.5416C240.972 17.5999 240.913 17.5786 240.764 17.7652C240.589 17.9833 240.318 18.4248 240.127 18.6967C240.114 18.8409 240.103 18.985 240.093 19.1286C239.82 19.6499 239.57 19.7455 239.389 20.0442C239.352 20.0952 238.839 21.1151 238.821 21.1753C238.635 21.6444 238.804 21.5664 238.22 22.8902C238.119 23.1271 237.996 23.3038 237.913 23.5226C237.757 23.9056 237.488 25.1264 237.571 25.2484C237.293 25.685 237.03 26.9952 236.923 27.375C236.888 27.4886 236.797 27.4974 236.713 27.854C236.642 28.1437 236.592 28.9093 236.537 29.2802C236.476 29.6744 236.392 29.812 236.369 29.9884C236.348 30.1561 236.392 30.3163 236.374 30.546C236.318 31.2663 236.206 31.9098 236.204 32.4859C236.204 32.4947 236.204 32.5035 236.204 32.5122C236.205 33.3331 236.41 34.0421 236.542 34.7103C236.545 34.8803 236.524 35.0486 236.542 35.2267C236.757 37.4257 237.316 39.8675 238.101 41.9464C238.423 42.9225 239.405 45.317 239.436 44.5235C239.632 44.8204 240.849 47.1112 241.167 47.4995C241.453 47.9031 241.746 48.1725 241.987 48.4756C242.719 49.3846 243.227 50.0442 244.286 50.9976C244.561 51.2425 244.906 51.4476 245.066 51.5926C245.26 51.7678 245.419 52.0136 245.676 52.2358C246.282 52.773 247.511 53.649 248.159 54.0754C248.276 54.1549 248.28 54.2411 248.44 54.3684C249.063 54.8672 249.852 55.2872 249.822 55.0146C250.646 55.6137 251.548 55.9133 252.413 56.2628C254.225 57.0631 257.742 57.9648 259.476 57.9924C260.56 58.0306 260.534 57.9494 262.125 58.0616C262.148 58.0629 262.172 58.0642 262.195 58.0656C262.527 58.0842 262.862 58.1028 263.263 58.108C264.27 58.1214 265.223 58.2062 265.952 57.8726C267.071 57.7653 267.931 57.5318 268.786 57.5061C268.87 57.4365 268.954 57.3665 269.036 57.2962C269.169 57.2585 269.301 57.2198 269.432 57.1801C269.486 57.2101 269.539 57.2399 269.593 57.2696C270.551 57.0015 271.664 56.393 272.423 56.0587C273.734 55.5649 276.874 53.7789 277.93 52.9557C278.507 52.5451 278.473 52.4457 278.909 52.3335C279.021 52.2207 279.133 52.107 279.243 51.9924C279.29 51.8952 279.336 51.7979 279.382 51.7005C280.056 51.0973 280.862 50.3804 281.438 49.7332C282.507 48.5677 283.795 46.5807 284.623 45.2371C284.836 44.9026 285.147 44.5064 285.321 44.1573C285.573 43.6478 285.504 43.4641 285.791 42.8094C286.303 41.6919 287.183 39.5508 287.413 38.3956C287.488 38.0556 287.468 37.8843 287.51 37.6486C287.682 36.6604 287.804 35.8403 287.811 34.8754C288.034 33.8608 288.194 33.9506 288.391 33.6374C288.541 33.4007 288.869 32.6389 288.986 32.5256C289.07 32.4477 289.177 32.7389 289.269 32.6301C289.328 33.933 289.204 34.4816 288.967 35.5109C288.759 37.4398 288.341 39.3469 287.721 41.1866C287.617 41.3376 287.511 41.4869 287.404 41.6346C287.404 41.6346 287.404 41.6345 287.404 41.6345C287.095 42.3106 287.093 42.6464 286.964 43.0281C285.933 46.8217 280.843 52.8021 277.143 54.9185C276.407 55.4586 273.82 56.9357 273.196 57.0792C273.04 57.1259 272.967 57.073 272.808 57.1382C271.419 57.7882 269.969 58.3194 268.48 58.7225C266.435 59.1307 264.319 59.3971 262.195 59.4217C261.088 59.4349 259.991 59.3841 258.904 59.2581C250.288 58.3166 242.404 52.9051 238.397 45.3562C237.606 43.9112 236.744 41.9915 236.318 40.4301C236.14 39.7808 236.181 39.4779 235.887 38.6433C235.917 38.6266 235.948 38.6101 235.979 38.5935C235.769 37.8514 235.599 37.385 235.46 36.5278C235.328 35.8138 235.161 33.8832 235.175 33.2434C235.173 32.9093 235.238 33.0327 235.235 32.7213C235.234 32.6593 235.233 32.5891 235.23 32.5122C235.211 31.9266 235.178 30.9641 235.234 30.3129C235.282 29.6502 235.498 28.5431 235.577 28.0379C235.84 26.2171 236.272 24.2303 237.038 22.4097C237.246 21.9071 237.609 21.3008 237.679 21.1473C237.815 20.8448 237.788 20.7218 237.878 20.5159C238.326 19.4666 239.313 17.9831 239.96 17.0806C242.028 14.1045 244.846 11.3846 247.931 9.50022C249.844 8.25022 253.364 6.75955 255.436 6.34855C255.878 6.25012 255.781 6.36343 256.15 6.27696C256.56 6.18343 256.773 6.08167 256.964 6.03892C258.169 5.74142 260.758 5.41983 262.195 5.48612C262.341 5.48971 262.475 5.49537 262.594 5.50259C262.839 5.5177 263.015 5.59091 263.161 5.59575C263.235 5.5984 263.403 5.55808 263.636 5.56558C265.695 5.64578 267.19 5.9107 269.139 6.43069C272.872 7.41839 276.98 9.4696 279.991 12.2154C280.65 12.8079 280.983 13.3337 281.072 13.4185C281.267 13.6081 281.455 13.6659 281.851 14.0524C283.18 15.332 284.587 17.3891 285.492 18.8815C285.952 19.6122 286.6 20.6202 286.97 21.3922C287.283 22.0037 287.811 23.5287 287.944 23.8027C288.032 23.9677 288.152 24.0186 288.231 24.2269ZM272.601 8.90042C272.772 8.79909 271.597 8.44789 271.987 8.70097C272.075 8.75581 272.558 8.92418 272.601 8.90042ZM236.75 38.1997C236.791 38.179 236.832 38.1584 236.873 38.1378C236.82 37.9852 236.769 37.8308 236.719 37.6774C236.71 37.7706 236.703 37.8655 236.695 37.9598C236.713 38.0399 236.731 38.1199 236.75 38.1997Z" fill="white"/>
<path d="M249.809 35.6447L262.645 21.5702H272.075V35.6447H273.455V42.682H272.075V45.2154H262.645V42.682H250.372L249.809 35.6447ZM258.198 35.6447H262.645V30.7468L258.198 35.6447Z" fill="white"/>
<path d="M298.599 64.4517C300.5 62.5362 303.598 62.5362 305.499 64.4517C306.86 65.8237 308.905 66.2585 310.707 65.5589C313.223 64.5822 316.053 65.842 317.01 68.3652C317.696 70.1724 319.388 71.4014 321.318 71.4952C324.014 71.6262 326.087 73.9281 325.935 76.6225C325.827 78.5525 326.872 80.3632 328.598 81.2342C331.007 82.4502 331.964 85.3962 330.73 87.7961C329.846 89.515 330.064 91.5945 331.286 93.092C332.993 95.1828 332.669 98.2634 330.565 99.9537C329.058 101.164 328.412 103.153 328.92 105.018C329.628 107.622 328.079 110.305 325.47 110.993C323.601 111.487 322.202 113.04 321.907 114.951C321.495 117.618 318.989 119.438 316.325 119.006C314.417 118.697 312.507 119.547 311.46 121.172C309.999 123.441 306.969 124.085 304.711 122.607C303.094 121.548 301.003 121.548 299.386 122.607C297.129 124.085 294.099 123.441 292.638 121.172C291.591 119.547 289.681 118.697 287.773 119.006C285.109 119.438 282.603 117.618 282.191 114.951C281.896 113.04 280.497 111.487 278.628 110.993C276.018 110.305 274.47 107.622 275.178 105.018C275.685 103.153 275.039 101.164 273.532 99.9537C271.429 98.2634 271.105 95.1828 272.811 93.092C274.033 91.5945 274.252 89.515 273.368 87.7961C272.134 85.3962 273.091 82.4502 275.5 81.2342C277.226 80.3632 278.271 78.5525 278.162 76.6225C278.011 73.9281 280.084 71.6262 282.779 71.4952C284.71 71.4014 286.401 70.1724 287.087 68.3652C288.045 65.842 290.875 64.5822 293.39 65.5589C295.192 66.2585 297.237 65.8237 298.599 64.4517Z" fill="#CECECE"/>
<path d="M328.085 85.2025C328.158 85.3955 328.185 85.6868 328.249 85.9192C328.51 86.8964 328.555 87.2677 328.716 88.1656C329.034 89.4837 329.337 93.4897 328.873 93.4878C328.873 93.4878 328.873 93.4878 328.873 93.4878C328.869 93.4878 328.865 93.4874 328.861 93.4867C328.784 93.4723 328.698 93.1368 328.609 93.0891C328.52 93.0415 327.96 93.0842 327.914 92.6262C327.865 91.9635 327.859 90.3512 327.792 89.9968C327.756 89.7553 327.661 89.4664 327.6 89.1594C327.4 88.1762 327.319 87.6496 326.957 86.8131C326.934 86.4452 326.904 86.0776 326.866 85.7093C326.694 85.2652 326.546 84.5582 326.437 84.2885C326.348 84.0681 326.244 83.96 326.149 83.7329C326.043 83.4792 325.936 83.0616 325.717 82.608C325.354 81.867 325.146 81.8062 324.902 81.3804C324.647 80.9395 324.324 80.2084 323.929 79.6863C323.871 79.6261 323.813 79.5664 323.755 79.507C323.755 79.5765 323.755 79.6459 323.754 79.7151C323.564 79.4502 323.551 79.2911 323.384 79.0415C323.187 78.7482 323.022 78.644 322.884 78.4518C322.771 78.2944 322.662 78.0477 322.505 77.8494C322.277 77.5611 322.258 77.6776 322.124 77.5328C322.078 77.4682 321.103 76.3909 321.04 76.3379C320.618 75.8808 320.663 75.763 320.321 75.3993C319.368 74.3941 318.221 73.5404 317.172 72.8182C316.704 72.4946 316.218 72.1546 315.749 71.8353C316.671 72.0675 315.098 70.8072 315.49 71.5986C314.984 71.2112 314.529 71.0975 314.012 70.7985C313.676 70.6066 313.465 70.4252 312.962 70.1898C312.068 69.7686 311.001 69.562 310.846 69.1563C309.737 68.8153 308.791 68.4413 308.316 68.6239C308.027 68.5668 307.317 68.2293 306.992 68.1453C306.693 68.034 304.28 67.6322 303.877 67.6308C303.476 67.5962 302.78 67.564 302.441 67.5867C302.304 67.595 302.179 67.6329 302.049 67.6685C301.775 67.7435 301.482 67.8059 300.966 67.5865C300.091 67.6565 299.783 67.6727 298.966 67.7228C298.818 67.733 298.795 67.683 298.709 67.6939C298.532 67.7165 298.24 67.7956 297.926 67.8506C297.411 67.9412 297.099 67.8922 297.188 68.0467C296.857 68.1383 296.526 68.2371 296.199 68.342C296.075 68.3372 295.95 68.3334 295.826 68.3305C295.657 68.4088 295.488 68.4891 295.32 68.5711C295.463 68.2735 294.258 68.7699 294.702 68.7878C294.054 68.9276 293.409 69.0931 292.768 69.2846C292.751 68.9823 291.398 69.8099 291.587 69.9022C291.517 69.9328 291.448 69.9637 291.379 69.9949C290.744 70.2037 290.221 70.5289 289.489 70.8781C288.758 71.2343 288.814 71.1798 288.535 71.1968C288.374 71.3031 288.214 71.4111 288.056 71.5208C287.413 72.3675 287.196 71.7435 285.978 73.0104C285.403 73.1726 284.429 74.1536 283.837 74.8373C283.768 74.9164 283.796 74.9481 283.707 75.0558C283.484 75.3156 282.848 75.9133 282.972 75.9863C282.74 76.1804 282.51 76.379 282.284 76.5821C282.142 76.7857 282.004 76.9911 281.869 77.1979C281.904 77.224 281.938 77.2502 281.972 77.2763C281.546 77.5658 281.123 78.224 280.875 78.5172C280.825 78.5755 280.767 78.5542 280.618 78.7408C280.443 78.9589 280.172 79.4003 279.981 79.6723C279.968 79.8165 279.957 79.9606 279.946 80.1042C279.674 80.6255 279.424 80.7211 279.243 81.0198C279.205 81.0708 278.693 82.0907 278.674 82.1509C278.489 82.62 278.658 82.542 278.074 83.8657C277.973 84.1027 277.85 84.2794 277.766 84.4982C277.611 84.8812 277.342 86.102 277.425 86.224C277.146 86.6606 276.883 87.9708 276.776 88.3505C276.742 88.4642 276.651 88.4729 276.566 88.8296C276.496 89.1193 276.446 89.8849 276.391 90.2558C276.33 90.65 276.245 90.7876 276.223 90.964C276.202 91.1317 276.246 91.2919 276.228 91.5216C276.172 92.2418 276.06 92.8853 276.057 93.4615C276.057 93.4703 276.057 93.4791 276.057 93.4878C276.059 94.3087 276.263 95.0177 276.395 95.6858C276.399 95.8559 276.377 96.0241 276.396 96.2022C276.61 98.4013 277.169 100.843 277.955 102.922C278.277 103.898 279.258 106.293 279.289 105.499C279.485 105.796 280.703 108.087 281.021 108.475C281.307 108.879 281.6 109.148 281.84 109.451C282.573 110.36 283.08 111.02 284.139 111.973C284.414 112.218 284.76 112.423 284.92 112.568C285.113 112.743 285.272 112.989 285.529 113.211C286.136 113.749 287.365 114.625 288.013 115.051C288.13 115.13 288.133 115.217 288.294 115.344C288.917 115.843 289.706 116.263 289.675 115.99C290.5 116.589 291.402 116.889 292.267 117.238C294.078 118.039 297.596 118.94 299.33 118.968C300.414 119.006 300.387 118.925 301.979 119.037C302.002 119.038 302.025 119.04 302.049 119.041C302.381 119.06 302.716 119.078 303.117 119.084C304.123 119.097 305.076 119.182 305.805 118.848C306.925 118.741 307.785 118.507 308.64 118.482C308.724 118.412 308.807 118.342 308.89 118.272C309.022 118.234 309.154 118.195 309.286 118.156C309.339 118.186 309.393 118.215 309.447 118.245C310.404 117.977 311.517 117.369 312.277 117.034C313.588 116.54 316.728 114.754 317.783 113.931C318.361 113.521 318.326 113.421 318.762 113.309C318.875 113.196 318.987 113.083 319.097 112.968C319.144 112.871 319.19 112.773 319.236 112.676C319.91 112.073 320.716 111.356 321.291 110.709C322.361 109.543 323.649 107.556 324.477 106.213C324.69 105.878 325.001 105.482 325.175 105.133C325.427 104.623 325.358 104.44 325.645 103.785C326.156 102.667 327.036 100.526 327.267 99.3712C327.341 99.0312 327.322 98.8599 327.364 98.6241C327.536 97.636 327.658 96.8159 327.664 95.851C327.887 94.8364 328.047 94.9262 328.245 94.613C328.394 94.3763 328.723 93.6145 328.839 93.5012C328.923 93.4233 329.03 93.7145 329.123 93.6057C329.182 94.9086 329.057 95.4572 328.821 96.4865C328.613 98.4154 328.195 100.322 327.575 102.162C327.471 102.313 327.365 102.463 327.258 102.61C327.258 102.61 327.258 102.61 327.258 102.61C326.949 103.286 326.946 103.622 326.818 104.004C325.786 107.797 320.697 113.778 316.996 115.894C316.26 116.434 313.673 117.911 313.05 118.055C312.893 118.101 312.821 118.049 312.662 118.114C311.272 118.764 309.823 119.295 308.334 119.698C306.289 120.106 304.172 120.373 302.049 120.397C300.942 120.411 299.844 120.36 298.757 120.234C290.142 119.292 282.258 113.881 278.251 106.332C277.46 104.887 276.597 102.967 276.171 101.406C275.993 100.756 276.034 100.453 275.74 99.6189C275.771 99.6022 275.802 99.5856 275.832 99.5691C275.622 98.8269 275.453 98.3606 275.314 97.5034C275.182 96.7893 275.014 94.8588 275.028 94.219C275.027 93.8849 275.092 94.0083 275.088 93.6969C275.088 93.6349 275.086 93.5647 275.084 93.4878C275.064 92.9022 275.032 91.9397 275.088 91.2885C275.135 90.6258 275.352 89.5187 275.431 89.0135C275.694 87.1927 276.126 85.2059 276.892 83.3853C277.1 82.8827 277.463 82.2763 277.533 82.1229C277.669 81.8204 277.642 81.6974 277.732 81.4915C278.18 80.4422 279.167 78.9587 279.814 78.0562C281.882 75.0801 284.699 72.3602 287.784 70.4758C289.698 69.2258 293.218 67.7351 295.29 67.3241C295.731 67.2257 295.635 67.339 296.004 67.2525C296.413 67.159 296.627 67.0573 296.818 67.0145C298.023 66.717 300.611 66.3954 302.049 66.4617C302.195 66.4653 302.328 66.471 302.447 66.4782C302.693 66.4933 302.869 66.5665 303.014 66.5713C303.089 66.574 303.257 66.5337 303.49 66.5412C305.549 66.6214 307.043 66.8863 308.992 67.4063C312.726 68.394 316.833 70.4452 319.844 73.191C320.503 73.7835 320.837 74.3093 320.926 74.394C321.12 74.5837 321.309 74.6415 321.705 75.028C323.034 76.3076 324.441 78.3647 325.346 79.8571C325.805 80.5878 326.454 81.5958 326.824 82.3677C327.136 82.9793 327.664 84.5043 327.798 84.7783C327.886 84.9433 328.005 84.9942 328.085 85.2025ZM312.455 69.876C312.625 69.7747 311.451 69.4235 311.841 69.6766C311.928 69.7314 312.411 69.8998 312.455 69.876ZM276.603 99.1753C276.645 99.1546 276.686 99.134 276.727 99.1134C276.674 98.9608 276.622 98.8064 276.573 98.653C276.564 98.7462 276.556 98.8411 276.549 98.9354C276.567 99.0155 276.585 99.0955 276.603 99.1753Z" fill="white"/>
<path d="M291.352 82.5459H311.901V88.7387H298.952V90.6247H301.289C309.48 90.6247 313.59 93.0455 313.59 98.422C313.59 103.855 309.48 106.754 301.289 106.754C297.77 106.754 293.379 106.247 289.663 104.896L291.071 98.0842C295.04 98.9287 298.643 99.2946 301.345 99.2946C303.4 99.2946 304.16 98.9005 304.16 98.1405C304.16 97.2397 303.062 96.8175 299.712 96.8175H291.352V82.5459Z" fill="white"/>
<path d="M222.038 64.4517C223.939 62.5362 227.037 62.5362 228.938 64.4517C230.299 65.8237 232.344 66.2585 234.146 65.5589C236.662 64.5822 239.492 65.842 240.449 68.3652C241.135 70.1724 242.827 71.4014 244.757 71.4952C247.453 71.6262 249.526 73.9281 249.374 76.6225C249.266 78.5525 250.311 80.3632 252.037 81.2342C254.446 82.4502 255.403 85.3962 254.169 87.7961C253.285 89.515 253.503 91.5945 254.725 93.092C256.432 95.1828 256.108 98.2634 254.004 99.9537C252.497 101.164 251.851 103.153 252.359 105.018C253.067 107.622 251.518 110.305 248.909 110.993C247.04 111.487 245.641 113.04 245.346 114.951C244.934 117.618 242.428 119.438 239.764 119.006C237.856 118.697 235.946 119.547 234.899 121.172C233.438 123.441 230.408 124.085 228.15 122.607C226.533 121.548 224.442 121.548 222.825 122.607C220.568 124.085 217.538 123.441 216.076 121.172C215.03 119.547 213.12 118.697 211.212 119.006C208.548 119.438 206.042 117.618 205.63 114.951C205.335 113.04 203.936 111.487 202.067 110.993C199.457 110.305 197.909 107.622 198.617 105.018C199.124 103.153 198.478 101.164 196.971 99.9537C194.868 98.2634 194.544 95.1828 196.25 93.092C197.472 91.5945 197.691 89.515 196.807 87.7961C195.572 85.3962 196.53 82.4502 198.939 81.2342C200.664 80.3632 201.71 78.5525 201.601 76.6225C201.45 73.9281 203.523 71.6262 206.218 71.4952C208.149 71.4014 209.84 70.1724 210.526 68.3652C211.484 65.842 214.314 64.5822 216.829 65.5589C218.631 66.2585 220.676 65.8237 222.038 64.4517Z" fill="#CECECE"/>
<path d="M251.524 85.2025C251.597 85.3955 251.624 85.6868 251.688 85.9192C251.949 86.8964 251.994 87.2677 252.155 88.1656C252.473 89.4837 252.776 93.4897 252.312 93.4878C252.312 93.4878 252.312 93.4878 252.312 93.4878C252.308 93.4878 252.304 93.4874 252.3 93.4867C252.224 93.4723 252.137 93.1368 252.048 93.0891C251.959 93.0415 251.399 93.0842 251.353 92.6262C251.304 91.9635 251.298 90.3512 251.231 89.9968C251.195 89.7553 251.1 89.4664 251.039 89.1594C250.839 88.1762 250.758 87.6496 250.396 86.8131C250.373 86.4452 250.343 86.0776 250.305 85.7093C250.133 85.2652 249.985 84.5582 249.876 84.2885C249.787 84.0681 249.683 83.96 249.588 83.7329C249.482 83.4792 249.375 83.0616 249.156 82.608C248.793 81.867 248.585 81.8062 248.341 81.3804C248.086 80.9395 247.763 80.2084 247.368 79.6863C247.31 79.6261 247.252 79.5664 247.194 79.507C247.194 79.5765 247.194 79.6459 247.193 79.7151C247.003 79.4502 246.99 79.2911 246.824 79.0415C246.626 78.7482 246.462 78.644 246.323 78.4518C246.21 78.2944 246.101 78.0477 245.944 77.8494C245.716 77.5611 245.698 77.6776 245.563 77.5328C245.517 77.4682 244.542 76.3909 244.479 76.3379C244.057 75.8808 244.102 75.763 243.76 75.3993C242.807 74.3941 241.66 73.5404 240.612 72.8182C240.144 72.4946 239.657 72.1546 239.188 71.8353C240.11 72.0675 238.537 70.8072 238.929 71.5986C238.423 71.2112 237.968 71.0975 237.451 70.7985C237.115 70.6066 236.904 70.4252 236.402 70.1898C235.507 69.7686 234.44 69.562 234.285 69.1563C233.176 68.8153 232.23 68.4413 231.755 68.6239C231.466 68.5668 230.756 68.2293 230.431 68.1453C230.132 68.034 227.719 67.6322 227.317 67.6308C226.915 67.5962 226.219 67.564 225.88 67.5867C225.743 67.595 225.618 67.6329 225.488 67.6685C225.214 67.7435 224.921 67.8059 224.405 67.5865C223.53 67.6565 223.222 67.6727 222.405 67.7228C222.257 67.733 222.234 67.683 222.148 67.6939C221.971 67.7165 221.679 67.7956 221.365 67.8506C220.85 67.9412 220.538 67.8922 220.627 68.0467C220.296 68.1383 219.965 68.2371 219.638 68.342C219.514 68.3372 219.389 68.3334 219.265 68.3305C219.096 68.4088 218.927 68.4891 218.759 68.5711C218.902 68.2735 217.697 68.7699 218.141 68.7878C217.493 68.9276 216.848 69.0931 216.207 69.2846C216.19 68.9823 214.837 69.8099 215.026 69.9022C214.956 69.9328 214.887 69.9637 214.818 69.9949C214.183 70.2037 213.661 70.5289 212.928 70.8781C212.197 71.2343 212.253 71.1798 211.974 71.1968C211.813 71.3031 211.653 71.4111 211.495 71.5208C210.852 72.3675 210.635 71.7435 209.418 73.0104C208.842 73.1726 207.868 74.1536 207.277 74.8373C207.207 74.9164 207.236 74.9481 207.146 75.0558C206.923 75.3156 206.287 75.9133 206.411 75.9863C206.179 76.1804 205.949 76.379 205.723 76.5821C205.582 76.7857 205.443 76.9911 205.308 77.1979C205.343 77.224 205.377 77.2502 205.411 77.2763C204.985 77.5658 204.562 78.224 204.314 78.5172C204.265 78.5755 204.206 78.5542 204.057 78.7408C203.882 78.9589 203.611 79.4003 203.42 79.6723C203.407 79.8165 203.396 79.9606 203.385 80.1042C203.113 80.6255 202.863 80.7211 202.682 81.0198C202.644 81.0708 202.132 82.0907 202.114 82.1509C201.928 82.62 202.097 82.542 201.513 83.8657C201.412 84.1027 201.289 84.2794 201.206 84.4982C201.05 84.8812 200.781 86.102 200.864 86.224C200.585 86.6606 200.322 87.9708 200.215 88.3505C200.181 88.4642 200.09 88.4729 200.006 88.8296C199.935 89.1193 199.885 89.8849 199.83 90.2558C199.769 90.65 199.684 90.7876 199.662 90.964C199.641 91.1317 199.685 91.2919 199.667 91.5216C199.611 92.2418 199.499 92.8853 199.496 93.4615C199.496 93.4703 199.496 93.4791 199.496 93.4878C199.498 94.3087 199.702 95.0177 199.834 95.6858C199.838 95.8559 199.816 96.0241 199.835 96.2022C200.049 98.4013 200.608 100.843 201.394 102.922C201.716 103.898 202.697 106.293 202.728 105.499C202.924 105.796 204.142 108.087 204.46 108.475C204.746 108.879 205.039 109.148 205.279 109.451C206.012 110.36 206.519 111.02 207.578 111.973C207.853 112.218 208.199 112.423 208.359 112.568C208.552 112.743 208.711 112.989 208.968 113.211C209.575 113.749 210.804 114.625 211.452 115.051C211.569 115.13 211.573 115.217 211.733 115.344C212.356 115.843 213.145 116.263 213.114 115.99C213.939 116.589 214.841 116.889 215.706 117.238C217.517 118.039 221.035 118.94 222.769 118.968C223.853 119.006 223.826 118.925 225.418 119.037C225.441 119.038 225.464 119.04 225.488 119.041C225.82 119.06 226.155 119.078 226.556 119.084C227.562 119.097 228.516 119.182 229.244 118.848C230.364 118.741 231.224 118.507 232.079 118.482C232.163 118.412 232.246 118.342 232.329 118.272C232.461 118.234 232.593 118.195 232.725 118.156C232.778 118.186 232.832 118.215 232.886 118.245C233.843 117.977 234.956 117.369 235.716 117.034C237.027 116.54 240.167 114.754 241.222 113.931C241.8 113.521 241.765 113.421 242.201 113.309C242.314 113.196 242.426 113.083 242.536 112.968C242.583 112.871 242.629 112.773 242.675 112.676C243.349 112.073 244.155 111.356 244.73 110.709C245.8 109.543 247.088 107.556 247.916 106.213C248.129 105.878 248.44 105.482 248.614 105.133C248.866 104.623 248.797 104.44 249.084 103.785C249.595 102.667 250.476 100.526 250.706 99.3712C250.78 99.0312 250.761 98.8599 250.803 98.6241C250.975 97.636 251.097 96.8159 251.103 95.851C251.327 94.8364 251.486 94.9262 251.684 94.613C251.834 94.3763 252.162 93.6145 252.278 93.5012C252.362 93.4233 252.469 93.7145 252.562 93.6057C252.621 94.9086 252.496 95.4572 252.26 96.4865C252.052 98.4154 251.634 100.322 251.014 102.162C250.91 102.313 250.804 102.463 250.697 102.61C250.697 102.61 250.697 102.61 250.697 102.61C250.388 103.286 250.386 103.622 250.257 104.004C249.225 107.797 244.136 113.778 240.435 115.894C239.699 116.434 237.112 117.911 236.489 118.055C236.332 118.101 236.26 118.049 236.101 118.114C234.712 118.764 233.262 119.295 231.773 119.698C229.728 120.106 227.611 120.373 225.488 120.397C224.381 120.411 223.283 120.36 222.196 120.234C213.581 119.292 205.697 113.881 201.69 106.332C200.899 104.887 200.036 102.967 199.61 101.406C199.432 100.756 199.473 100.453 199.179 99.6189C199.21 99.6022 199.241 99.5856 199.271 99.5691C199.061 98.8269 198.892 98.3606 198.753 97.5034C198.621 96.7893 198.454 94.8588 198.468 94.219C198.466 93.8849 198.531 94.0083 198.527 93.6969C198.527 93.6349 198.525 93.5647 198.523 93.4878C198.503 92.9022 198.471 91.9397 198.527 91.2885C198.575 90.6258 198.791 89.5187 198.87 89.0135C199.133 87.1927 199.565 85.2059 200.331 83.3853C200.539 82.8827 200.902 82.2763 200.972 82.1229C201.108 81.8204 201.081 81.6974 201.171 81.4915C201.619 80.4422 202.606 78.9587 203.253 78.0562C205.321 75.0801 208.139 72.3602 211.223 70.4758C213.137 69.2258 216.657 67.7351 218.729 67.3241C219.17 67.2257 219.074 67.339 219.443 67.2525C219.852 67.159 220.066 67.0573 220.257 67.0145C221.462 66.717 224.05 66.3954 225.488 66.4617C225.634 66.4653 225.767 66.471 225.886 66.4782C226.132 66.4933 226.308 66.5665 226.454 66.5713C226.528 66.574 226.696 66.5337 226.929 66.5412C228.988 66.6214 230.482 66.8863 232.431 67.4063C236.165 68.394 240.272 70.4452 243.283 73.191C243.942 73.7835 244.276 74.3093 244.365 74.394C244.559 74.5837 244.748 74.6415 245.144 75.028C246.473 76.3076 247.88 78.3647 248.785 79.8571C249.244 80.5878 249.893 81.5958 250.263 82.3677C250.575 82.9793 251.103 84.5043 251.237 84.7783C251.325 84.9433 251.444 84.9942 251.524 85.2025ZM235.894 69.876C236.065 69.7747 234.89 69.4235 235.28 69.6766C235.367 69.7314 235.85 69.8998 235.894 69.876ZM200.043 99.1753C200.084 99.1546 200.125 99.134 200.166 99.1134C200.113 98.9608 200.061 98.8064 200.012 98.653C200.003 98.7462 199.995 98.8411 199.988 98.9354C200.006 99.0155 200.024 99.0955 200.043 99.1753Z" fill="white"/>
<path d="M221.969 97.6057C221.969 99.2664 223.264 99.8576 225.966 99.8576C228.612 99.8576 229.963 99.1539 229.963 97.8871C229.963 96.6486 228.697 96.1982 226.811 96.1982C225.6 96.1982 224.503 96.5078 223.095 97.3805L222.251 91.4691C224.531 90.2024 226.698 89.8084 228.809 89.8084C234.467 89.8084 238.408 92.8203 238.408 97.8871C238.408 103.601 233.567 106.754 225.826 106.754C218.085 106.754 213.243 103.601 213.243 97.8871V94.0307C213.243 85.4171 218.113 81.9829 226.67 81.9829C229.795 81.9829 233.144 82.3207 235.987 83.1933L235.03 89.2735C231.99 88.5698 230.47 88.3164 227.852 88.3164C224.193 88.3164 221.969 89.6395 221.969 91.4973V97.6057Z" fill="white"/>
<path d="M145.477 64.4517C147.378 62.5362 150.476 62.5362 152.377 64.4517C153.738 65.8237 155.783 66.2585 157.585 65.5589C160.101 64.5822 162.931 65.842 163.888 68.3652C164.574 70.1724 166.266 71.4014 168.196 71.4952C170.892 71.6262 172.965 73.9281 172.813 76.6225C172.705 78.5525 173.75 80.3632 175.476 81.2342C177.885 82.4502 178.842 85.3962 177.608 87.7961C176.724 89.515 176.942 91.5945 178.164 93.092C179.871 95.1828 179.547 98.2634 177.443 99.9537C175.936 101.164 175.29 103.153 175.798 105.018C176.506 107.622 174.957 110.305 172.348 110.993C170.479 111.487 169.08 113.04 168.785 114.951C168.373 117.618 165.867 119.438 163.203 119.006C161.295 118.697 159.385 119.547 158.338 121.172C156.877 123.441 153.847 124.085 151.589 122.607C149.972 121.548 147.881 121.548 146.264 122.607C144.006 124.085 140.977 123.441 139.515 121.172C138.469 119.547 136.559 118.697 134.651 119.006C131.987 119.438 129.481 117.618 129.069 114.951C128.774 113.04 127.375 111.487 125.506 110.993C122.896 110.305 121.348 107.622 122.056 105.018C122.563 103.153 121.917 101.164 120.41 99.9537C118.307 98.2634 117.983 95.1828 119.689 93.092C120.911 91.5945 121.13 89.515 120.246 87.7961C119.011 85.3962 119.969 82.4502 122.378 81.2342C124.103 80.3632 125.149 78.5525 125.04 76.6225C124.889 73.9281 126.962 71.6262 129.657 71.4952C131.588 71.4014 133.279 70.1724 133.965 68.3652C134.923 65.842 137.752 64.5822 140.268 65.5589C142.07 66.2585 144.115 65.8237 145.477 64.4517Z" fill="#CECECE"/>
<path d="M174.963 85.2025C175.036 85.3955 175.063 85.6868 175.127 85.9192C175.388 86.8964 175.433 87.2677 175.594 88.1656C175.912 89.4837 176.215 93.4897 175.751 93.4878C175.751 93.4878 175.751 93.4878 175.751 93.4878C175.747 93.4878 175.743 93.4874 175.739 93.4867C175.663 93.4723 175.576 93.1368 175.487 93.0891C175.398 93.0415 174.838 93.0842 174.792 92.6262C174.743 91.9635 174.737 90.3512 174.67 89.9968C174.634 89.7553 174.539 89.4664 174.478 89.1594C174.278 88.1762 174.197 87.6496 173.835 86.8131C173.812 86.4452 173.782 86.0776 173.744 85.7093C173.572 85.2652 173.424 84.5582 173.315 84.2885C173.226 84.0681 173.122 83.96 173.027 83.7329C172.921 83.4792 172.814 83.0616 172.595 82.608C172.232 81.867 172.024 81.8062 171.78 81.3804C171.525 80.9395 171.202 80.2084 170.807 79.6863C170.749 79.6261 170.691 79.5664 170.633 79.507C170.633 79.5765 170.633 79.6459 170.632 79.7151C170.442 79.4502 170.429 79.2911 170.262 79.0415C170.065 78.7482 169.9 78.644 169.762 78.4518C169.649 78.2944 169.54 78.0477 169.383 77.8494C169.155 77.5611 169.137 77.6776 169.002 77.5328C168.956 77.4682 167.981 76.3909 167.918 76.3379C167.496 75.8808 167.541 75.763 167.199 75.3993C166.246 74.3941 165.099 73.5404 164.051 72.8182C163.582 72.4946 163.096 72.1546 162.627 71.8353C163.549 72.0675 161.976 70.8072 162.368 71.5986C161.862 71.2112 161.407 71.0975 160.89 70.7985C160.554 70.6066 160.343 70.4252 159.84 70.1898C158.946 69.7686 157.879 69.562 157.724 69.1563C156.615 68.8153 155.669 68.4413 155.194 68.6239C154.905 68.5668 154.195 68.2293 153.87 68.1453C153.571 68.034 151.158 67.6322 150.755 67.6308C150.354 67.5962 149.658 67.564 149.319 67.5867C149.182 67.595 149.057 67.6329 148.927 67.6685C148.653 67.7435 148.36 67.8059 147.844 67.5865C146.969 67.6565 146.661 67.6727 145.844 67.7228C145.696 67.733 145.673 67.683 145.587 67.6939C145.41 67.7165 145.118 67.7956 144.804 67.8506C144.289 67.9412 143.977 67.8922 144.066 68.0467C143.735 68.1383 143.404 68.2371 143.077 68.342C142.953 68.3372 142.828 68.3334 142.704 68.3305C142.535 68.4088 142.366 68.4891 142.198 68.5711C142.341 68.2735 141.136 68.7699 141.58 68.7878C140.932 68.9276 140.287 69.0931 139.646 69.2846C139.629 68.9823 138.276 69.8099 138.465 69.9022C138.395 69.9328 138.326 69.9637 138.257 69.9949C137.622 70.2037 137.1 70.5289 136.367 70.8781C135.636 71.2343 135.692 71.1798 135.413 71.1968C135.252 71.3031 135.092 71.4111 134.934 71.5208C134.291 72.3675 134.074 71.7435 132.856 73.0104C132.281 73.1726 131.307 74.1536 130.716 74.8373C130.646 74.9164 130.674 74.9481 130.585 75.0558C130.362 75.3156 129.726 75.9133 129.85 75.9863C129.618 76.1804 129.388 76.379 129.162 76.5821C129.021 76.7857 128.882 76.9911 128.747 77.1979C128.782 77.224 128.816 77.2502 128.85 77.2763C128.424 77.5658 128.001 78.224 127.753 78.5172C127.703 78.5755 127.645 78.5542 127.496 78.7408C127.321 78.9589 127.05 79.4003 126.859 79.6723C126.846 79.8165 126.835 79.9606 126.824 80.1042C126.552 80.6255 126.302 80.7211 126.121 81.0198C126.083 81.0708 125.571 82.0907 125.553 82.1509C125.367 82.62 125.536 82.542 124.952 83.8657C124.851 84.1027 124.728 84.2794 124.644 84.4982C124.489 84.8812 124.22 86.102 124.303 86.224C124.024 86.6606 123.761 87.9708 123.654 88.3505C123.62 88.4642 123.529 88.4729 123.445 88.8296C123.374 89.1193 123.324 89.8849 123.269 90.2558C123.208 90.65 123.123 90.7876 123.101 90.964C123.08 91.1317 123.124 91.2919 123.106 91.5216C123.05 92.2418 122.938 92.8853 122.935 93.4615C122.935 93.4703 122.935 93.4791 122.935 93.4878C122.937 94.3087 123.141 95.0177 123.273 95.6858C123.277 95.8559 123.255 96.0241 123.274 96.2022C123.488 98.4013 124.047 100.843 124.833 102.922C125.155 103.898 126.136 106.293 126.167 105.499C126.363 105.796 127.581 108.087 127.899 108.475C128.185 108.879 128.478 109.148 128.718 109.451C129.451 110.36 129.958 111.02 131.017 111.973C131.292 112.218 131.638 112.423 131.798 112.568C131.991 112.743 132.15 112.989 132.407 113.211C133.014 113.749 134.243 114.625 134.891 115.051C135.008 115.13 135.011 115.217 135.172 115.344C135.795 115.843 136.584 116.263 136.553 115.99C137.378 116.589 138.28 116.889 139.145 117.238C140.956 118.039 144.474 118.94 146.208 118.968C147.292 119.006 147.265 118.925 148.857 119.037C148.88 119.038 148.903 119.04 148.927 119.041C149.259 119.06 149.594 119.078 149.995 119.084C151.001 119.097 151.954 119.182 152.683 118.848C153.803 118.741 154.663 118.507 155.518 118.482C155.602 118.412 155.685 118.342 155.768 118.272C155.9 118.234 156.032 118.195 156.164 118.156C156.217 118.186 156.271 118.215 156.325 118.245C157.282 117.977 158.395 117.369 159.155 117.034C160.466 116.54 163.606 114.754 164.661 113.931C165.239 113.521 165.204 113.421 165.64 113.309C165.753 113.196 165.865 113.083 165.975 112.968C166.022 112.871 166.068 112.773 166.114 112.676C166.788 112.073 167.594 111.356 168.169 110.709C169.239 109.543 170.527 107.556 171.355 106.213C171.568 105.878 171.879 105.482 172.053 105.133C172.305 104.623 172.236 104.44 172.523 103.785C173.034 102.667 173.915 100.526 174.145 99.3712C174.219 99.0312 174.2 98.8599 174.242 98.6241C174.414 97.636 174.536 96.8159 174.542 95.851C174.766 94.8364 174.925 94.9262 175.123 94.613C175.273 94.3763 175.601 93.6145 175.717 93.5012C175.801 93.4233 175.908 93.7145 176.001 93.6057C176.06 94.9086 175.935 95.4572 175.699 96.4865C175.491 98.4154 175.073 100.322 174.453 102.162C174.349 102.313 174.243 102.463 174.136 102.61C174.136 102.61 174.136 102.61 174.136 102.61C173.827 103.286 173.824 103.622 173.696 104.004C172.664 107.797 167.575 113.778 163.874 115.894C163.138 116.434 160.551 117.911 159.928 118.055C159.771 118.101 159.699 118.049 159.54 118.114C158.151 118.764 156.701 119.295 155.212 119.698C153.167 120.106 151.05 120.373 148.927 120.397C147.82 120.411 146.722 120.36 145.635 120.234C137.02 119.292 129.136 113.881 125.129 106.332C124.338 104.887 123.475 102.967 123.049 101.406C122.871 100.756 122.912 100.453 122.618 99.6189C122.649 99.6022 122.68 99.5856 122.71 99.5691C122.5 98.8269 122.331 98.3606 122.192 97.5034C122.06 96.7893 121.893 94.8588 121.906 94.219C121.905 93.8849 121.97 94.0083 121.966 93.6969C121.966 93.6349 121.964 93.5647 121.962 93.4878C121.942 92.9022 121.91 91.9397 121.966 91.2885C122.014 90.6258 122.23 89.5187 122.309 89.0135C122.572 87.1927 123.004 85.2059 123.77 83.3853C123.978 82.8827 124.341 82.2763 124.411 82.1229C124.547 81.8204 124.52 81.6974 124.61 81.4915C125.058 80.4422 126.045 78.9587 126.692 78.0562C128.76 75.0801 131.577 72.3602 134.662 70.4758C136.576 69.2258 140.096 67.7351 142.168 67.3241C142.609 67.2257 142.513 67.339 142.882 67.2525C143.291 67.159 143.505 67.0573 143.696 67.0145C144.901 66.717 147.489 66.3954 148.927 66.4617C149.073 66.4653 149.206 66.471 149.325 66.4782C149.571 66.4933 149.747 66.5665 149.893 66.5713C149.967 66.574 150.135 66.5337 150.368 66.5412C152.427 66.6214 153.921 66.8863 155.87 67.4063C159.604 68.394 163.711 70.4452 166.722 73.191C167.381 73.7835 167.715 74.3093 167.804 74.394C167.998 74.5837 168.187 74.6415 168.583 75.028C169.912 76.3076 171.319 78.3647 172.224 79.8571C172.683 80.5878 173.332 81.5958 173.702 82.3677C174.014 82.9793 174.542 84.5043 174.676 84.7783C174.764 84.9433 174.883 84.9942 174.963 85.2025ZM159.333 69.876C159.504 69.7747 158.329 69.4235 158.719 69.6766C158.806 69.7314 159.289 69.8998 159.333 69.876ZM123.482 99.1753C123.523 99.1546 123.564 99.134 123.605 99.1134C123.552 98.9608 123.5 98.8064 123.451 98.653C123.442 98.7462 123.434 98.8411 123.427 98.9354C123.445 99.0155 123.463 99.0955 123.482 99.1753Z" fill="white"/>
<path d="M138.652 82.5459H159.623L153.346 106.191H142.565L147.491 90.4276H138.652V82.5459Z" fill="white"/>
<path d="M68.9161 64.4517C70.8171 62.5362 73.9146 62.5362 75.8156 64.4517C77.1772 65.8237 79.2224 66.2585 81.0244 65.5589C83.5401 64.5822 86.3699 65.842 87.3274 68.3652C88.0132 70.1724 89.7048 71.4014 91.6355 71.4952C94.331 71.6262 96.4037 73.9281 96.2522 76.6225C96.1437 78.5525 97.1891 80.3632 98.9147 81.2342C101.324 82.4502 102.281 85.3962 101.047 87.7961C100.163 89.515 100.381 91.5945 101.603 93.092C103.31 95.1828 102.986 98.2634 100.882 99.9537C99.3754 101.164 98.7293 103.153 99.2367 105.018C99.9451 107.622 98.3963 110.305 95.7869 110.993C93.9179 111.487 92.5188 113.04 92.2237 114.951C91.8117 117.618 89.3057 119.438 86.6419 119.006C84.7339 118.697 82.8237 119.547 81.7771 121.172C80.316 123.441 77.2861 124.085 75.0284 122.607C73.4113 121.548 71.3204 121.548 69.7033 122.607C67.4456 124.085 64.4157 123.441 62.9545 121.172C61.9079 119.547 59.9978 118.697 58.0898 119.006C55.4259 119.438 52.92 117.618 52.5079 114.951C52.2128 113.04 50.8137 111.487 48.9447 110.993C46.3354 110.305 44.7866 107.622 45.495 105.018C46.0024 103.153 45.3562 101.164 43.8494 99.9537C41.7457 98.2634 41.4219 95.1828 43.1282 93.092C44.3504 91.5945 44.569 89.515 43.6849 87.7961C42.4505 85.3962 43.4077 82.4502 45.8169 81.2342C47.5425 80.3632 48.588 78.5525 48.4795 76.6225C48.328 73.9281 50.4007 71.6262 53.0962 71.4952C55.0269 71.4014 56.7184 70.1724 57.4043 68.3652C58.3618 65.842 61.1916 64.5822 63.7073 65.5589C65.5092 66.2585 67.5545 65.8237 68.9161 64.4517Z" fill="#CECECE"/>
<g clip-path="url(#clip0_367_2412)">
<path d="M79.5497 79.0004C80.6771 78.6725 81.8871 78.7878 82.9323 79.3227C83.9774 79.8576 84.7787 80.7717 85.1721 81.8779L85.2549 82.135L86.0334 84.812C86.1458 85.2109 86.152 85.6322 86.0514 86.0343C85.9508 86.4363 85.7469 86.805 85.4599 87.104L85.3271 87.2353C84.9185 87.6079 84.6181 88.0839 84.4578 88.6131C84.2975 89.1424 84.2831 89.7051 84.4163 90.2418C84.5494 90.7785 84.8251 91.2693 85.2142 91.6622C85.6034 92.0551 86.0914 92.3356 86.6268 92.4739L86.8652 92.5244C87.5948 92.6542 88.3543 93.1396 88.6871 93.976L88.7608 94.1911L89.5392 96.8681C89.8671 97.9954 89.7519 99.2055 89.217 100.251C88.6821 101.296 87.768 102.097 86.6618 102.491L86.4046 102.573L65.7784 108.571C64.651 108.899 63.441 108.784 62.3958 108.249C61.3506 107.714 60.5494 106.8 60.156 105.694L60.0732 105.437L59.2947 102.76C59.0351 101.867 59.3515 101.021 59.8682 100.468L60.001 100.337C60.4096 99.9639 60.71 99.4879 60.8703 98.9586C61.0306 98.4294 61.045 97.8667 60.9118 97.33C60.7787 96.7933 60.5029 96.3025 60.1138 95.9096C59.7247 95.5167 59.2367 95.2362 58.7013 95.0979L58.4629 95.0473C57.7333 94.9176 56.9737 94.4322 56.641 93.5958L56.5677 93.3822L55.7888 90.7037C55.4609 89.5764 55.5762 88.3663 56.1111 87.3211C56.646 86.276 57.5601 85.4747 58.6663 85.0813L58.9234 84.9985L79.5497 79.0004ZM68.4321 90.2229C68.0414 90.3365 67.7118 90.6007 67.5158 90.9573C67.3199 91.314 67.2736 91.7338 67.3873 92.1246L69.101 98.0178C69.2146 98.4085 69.4788 98.7381 69.8355 98.9341C70.1921 99.13 70.612 99.1763 71.0027 99.0627C71.3935 98.949 71.7231 98.6848 71.919 98.3282C72.115 97.9716 72.1612 97.5517 72.0476 97.1609L70.3339 91.2677C70.2202 90.877 69.956 90.5474 69.5994 90.3514C69.2428 90.1555 68.8229 90.1092 68.4321 90.2229Z" fill="white"/>
</g>
<path d="M98.4018 85.2025C98.4747 85.3955 98.5025 85.6868 98.5661 85.9192C98.827 86.8964 98.8716 87.2677 99.0328 88.1656C99.3508 89.4837 99.6539 93.4897 99.1905 93.4878C99.1905 93.4878 99.1905 93.4878 99.1905 93.4878C99.1865 93.4878 99.1825 93.4874 99.1784 93.4867C99.1016 93.4723 99.0151 93.1368 98.9264 93.0891C98.8375 93.0415 98.2767 93.0842 98.2315 92.6262C98.1824 91.9635 98.1757 90.3512 98.1096 89.9968C98.0727 89.7553 97.9783 89.4664 97.9174 89.1594C97.717 88.1762 97.6364 87.6496 97.2737 86.8131C97.2514 86.4452 97.2213 86.0776 97.1829 85.7093C97.0108 85.2652 96.8633 84.5582 96.7536 84.2885C96.6654 84.0681 96.5609 83.96 96.4663 83.7329C96.3599 83.4792 96.2534 83.0616 96.0341 82.608C95.6711 81.867 95.4627 81.8062 95.2187 81.3804C94.9642 80.9395 94.6415 80.2084 94.2459 79.6863C94.1882 79.6261 94.1302 79.5664 94.072 79.507C94.072 79.5765 94.0717 79.6459 94.071 79.7151C93.881 79.4502 93.8685 79.2911 93.7016 79.0415C93.504 78.7482 93.3396 78.644 93.2015 78.4518C93.0883 78.2944 92.979 78.0477 92.8224 77.8494C92.5938 77.5611 92.5756 77.6776 92.441 77.5328C92.3948 77.4682 91.4196 76.3909 91.3571 76.3379C90.9352 75.8808 90.9803 75.763 90.6384 75.3993C89.6847 74.3941 88.538 73.5404 87.4896 72.8182C87.0216 72.4946 86.5354 72.1546 86.066 71.8353C86.9883 72.0675 85.4154 70.8072 85.8069 71.5986C85.3009 71.2112 84.8465 71.0975 84.329 70.7985C83.993 70.6066 83.7818 70.4252 83.2796 70.1898C82.3847 69.7686 81.3185 69.562 81.163 69.1563C80.0541 68.8153 79.1083 68.4413 78.6327 68.6239C78.3441 68.5668 77.6342 68.2293 77.309 68.1453C77.0098 68.034 74.5968 67.6322 74.1946 67.6308C73.7933 67.5962 73.0971 67.564 72.7582 67.5867C72.6207 67.595 72.4963 67.6329 72.3659 67.6685C72.0925 67.7435 71.799 67.8059 71.2828 67.5865C70.4078 67.6565 70.1005 67.6727 69.283 67.7228C69.1353 67.733 69.1122 67.683 69.0264 67.6939C68.8491 67.7165 68.5569 67.7956 68.2431 67.8506C67.7281 67.9412 67.4162 67.8922 67.5047 68.0467C67.1743 68.1383 66.8429 68.2371 66.5162 68.342C66.3919 68.3372 66.2675 68.3334 66.143 68.3305C65.9738 68.4088 65.8051 68.4891 65.6374 68.5711C65.7802 68.2735 64.5755 68.7699 65.0192 68.7878C64.3708 68.9276 63.7257 69.0931 63.0852 69.2846C63.068 68.9823 61.715 69.8099 61.9038 69.9022C61.8343 69.9328 61.7651 69.9637 61.696 69.9949C61.0615 70.2037 60.5386 70.5289 59.8064 70.8781C59.0751 71.2343 59.1313 71.1798 58.8518 71.1968C58.6909 71.3031 58.5314 71.4111 58.3733 71.5208C57.7301 72.3675 57.5132 71.7435 56.2956 73.0104C55.7204 73.1726 54.746 74.1536 54.1546 74.8373C54.085 74.9164 54.1136 74.9481 54.0238 75.0558C53.8015 75.3156 53.1654 75.9133 53.2893 75.9863C53.0568 76.1804 52.8274 76.379 52.6009 76.5821C52.4596 76.7857 52.3214 76.9911 52.1865 77.1979C52.2208 77.224 52.2551 77.2502 52.2894 77.2763C51.8629 77.5658 51.4399 78.224 51.1923 78.5172C51.1426 78.5755 51.0839 78.5542 50.935 78.7408C50.76 78.9589 50.4891 79.4003 50.298 79.6723C50.2852 79.8165 50.2737 79.9606 50.2635 80.1042C49.9911 80.6255 49.7409 80.7211 49.5603 81.0198C49.5225 81.0708 49.0098 82.0907 48.9916 82.1509C48.8061 82.62 48.9747 82.542 48.391 83.8657C48.2897 84.1027 48.167 84.2794 48.0836 84.4982C47.9282 84.8812 47.6591 86.102 47.7421 86.224C47.4634 86.6606 47.2005 87.9708 47.0934 88.3505C47.0588 88.4642 46.9678 88.4729 46.8836 88.8296C46.8131 89.1193 46.7629 89.8849 46.7081 90.2558C46.6472 90.65 46.5625 90.7876 46.5398 90.964C46.519 91.1317 46.5629 91.2919 46.5452 91.5216C46.4892 92.2418 46.3769 92.8853 46.3745 93.4615C46.3745 93.4703 46.3745 93.4791 46.3745 93.4878C46.3758 94.3087 46.5805 95.0177 46.7124 95.6858C46.7157 95.8559 46.6944 96.0241 46.7127 96.2022C46.9275 98.4013 47.4864 100.843 48.2718 102.922C48.5939 103.898 49.5755 106.293 49.6065 105.499C49.8025 105.796 51.02 108.087 51.338 108.475C51.6237 108.879 51.9168 109.148 52.1575 109.451C52.89 110.36 53.3974 111.02 54.4565 111.973C54.7314 112.218 55.0767 112.423 55.2372 112.568C55.4304 112.743 55.5895 112.989 55.8465 113.211C56.4527 113.749 57.6821 114.625 58.3297 115.051C58.447 115.13 58.4506 115.217 58.6108 115.344C59.2341 115.843 60.0232 116.263 59.9924 115.99C60.8171 116.589 61.719 116.889 62.5842 117.238C64.3953 118.039 67.9129 118.94 69.6467 118.968C70.7307 119.006 70.7045 118.925 72.2957 119.037C72.3191 119.038 72.3425 119.04 72.3659 119.041C72.6982 119.06 73.0332 119.078 73.4341 119.084C74.4405 119.097 75.3936 119.182 76.1223 118.848C77.2417 118.741 78.1018 118.507 78.9572 118.482C79.0412 118.412 79.1244 118.342 79.207 118.272C79.3394 118.234 79.4714 118.195 79.603 118.156C79.6565 118.186 79.7101 118.215 79.7639 118.245C80.7214 117.977 81.8344 117.369 82.5938 117.034C83.905 116.54 87.0447 114.754 88.1005 113.931C88.6783 113.521 88.6433 113.421 89.0793 113.309C89.1921 113.196 89.3038 113.083 89.4143 112.968C89.4611 112.871 89.5073 112.773 89.5527 112.676C90.2271 112.073 91.0331 111.356 91.6084 110.709C92.6777 109.543 93.9661 107.556 94.7938 106.213C95.0069 105.878 95.3179 105.482 95.4922 105.133C95.744 104.623 95.6747 104.44 95.9622 103.785C96.4735 102.667 97.3536 100.526 97.5837 99.3712C97.6583 99.0312 97.639 98.8599 97.6811 98.6241C97.8532 97.636 97.9748 96.8159 97.9814 95.851C98.2046 94.8364 98.3643 94.9262 98.5622 94.613C98.7116 94.3763 99.0399 93.6145 99.1565 93.5012C99.2405 93.4233 99.3474 93.7145 99.4399 93.6057C99.4989 94.9086 99.3744 95.4572 99.138 96.4865C98.9298 98.4154 98.5119 100.322 97.8922 102.162C97.7877 102.313 97.682 102.463 97.5751 102.61C97.575 102.61 97.5748 102.61 97.5747 102.61C97.2658 103.286 97.2636 103.622 97.1352 104.004C96.1035 107.797 91.0141 113.778 87.3135 115.894C86.5775 116.434 83.9904 117.911 83.3672 118.055C83.2105 118.101 83.1382 118.049 82.9792 118.114C81.5896 118.764 80.1401 119.295 78.6512 119.698C76.6058 120.106 74.4893 120.373 72.3659 120.397C71.2592 120.411 70.1614 120.36 69.0745 120.234C60.4588 119.292 52.5752 113.881 48.5678 106.332C47.7772 104.887 46.9144 102.967 46.4884 101.406C46.3104 100.756 46.3514 100.453 46.0575 99.6189C46.0881 99.6022 46.1187 99.5856 46.1493 99.5691C45.9395 98.8269 45.7697 98.3606 45.6307 97.5034C45.4987 96.7893 45.3316 94.8588 45.3456 94.219C45.3443 93.8849 45.4092 94.0083 45.4055 93.6969C45.4049 93.6349 45.4033 93.5647 45.4011 93.4878C45.3814 92.9022 45.3492 91.9397 45.4051 91.2885C45.4526 90.6258 45.6689 89.5187 45.748 89.0135C46.0109 87.1927 46.4429 85.2059 47.2089 83.3853C47.4172 82.8827 47.7799 82.2763 47.8502 82.1229C47.9862 81.8204 47.9588 81.6974 48.0487 81.4915C48.4967 80.4422 49.484 78.9587 50.1307 78.0562C52.199 75.0801 55.0166 72.3602 58.1013 70.4758C60.015 69.2258 63.5347 67.7351 65.6068 67.3241C66.0484 67.2257 65.9517 67.339 66.3208 67.2525C66.7305 67.159 66.9441 67.0573 67.1352 67.0145C68.3398 66.717 70.9284 66.3954 72.3659 66.4617C72.5119 66.4653 72.6455 66.471 72.7643 66.4782C73.0102 66.4933 73.1857 66.5665 73.3316 66.5713C73.4057 66.574 73.5738 66.5337 73.8069 66.5412C75.8662 66.6214 77.3603 66.8863 79.3095 67.4063C83.0432 68.394 87.1504 70.4452 90.1613 73.191C90.8204 73.7835 91.1541 74.3093 91.2432 74.394C91.4373 74.5837 91.6262 74.6415 92.022 75.028C93.3508 76.3076 94.7578 78.3647 95.663 79.8571C96.1225 80.5878 96.7709 81.5958 97.1409 82.3677C97.4535 82.9793 97.9814 84.5043 98.1152 84.7783C98.2028 84.9433 98.3225 84.9942 98.4018 85.2025ZM82.772 69.876C82.9426 69.7747 81.7682 69.4235 82.1581 69.6766C82.2455 69.7314 82.7285 69.8998 82.772 69.876ZM46.9206 99.1753C46.9617 99.1546 47.0027 99.134 47.0438 99.1134C46.9911 98.9608 46.9395 98.8064 46.8897 98.653C46.8811 98.7462 46.8734 98.8411 46.8661 98.9354C46.8839 99.0155 46.9021 99.0955 46.9206 99.1753Z" fill="white"/>
<path d="M29.0624 3.47612C30.9634 1.56061 34.061 1.56061 35.962 3.47612C37.3236 4.84814 39.3688 5.28286 41.1707 4.58328C43.6865 3.60657 46.5162 4.86646 47.4737 7.38957C48.1596 9.19678 49.8512 10.4258 51.7819 10.5196C54.4774 10.6506 56.55 12.9525 56.3985 15.6469C56.29 17.5769 57.3355 19.3877 59.0611 20.2586C61.4703 21.4747 62.4275 24.4206 61.1932 26.8205C60.3091 28.5394 60.5276 30.6189 61.7498 32.1164C63.4561 34.2072 63.1323 37.2878 61.0286 38.9781C59.5218 40.1889 58.8757 42.1775 59.383 44.0427C60.0914 46.6467 58.5427 49.3293 55.9333 50.0178C54.0643 50.511 52.6652 52.0648 52.3701 53.9752C51.9581 56.6422 49.4521 58.4629 46.7883 58.0306C44.8802 57.7209 42.9701 58.5714 41.9235 60.1965C40.4623 62.4654 37.4325 63.1094 35.1748 61.631C33.5577 60.5721 31.4667 60.5721 29.8496 61.631C27.5919 63.1094 24.5621 62.4654 23.1009 60.1965C22.0543 58.5714 20.1441 57.7209 18.2361 58.0306C15.5723 58.4629 13.0663 56.6422 12.6543 53.9752C12.3592 52.0648 10.9601 50.511 9.0911 50.0178C6.48172 49.3293 4.93295 46.6467 5.64134 44.0427C6.14874 42.1775 5.50261 40.1889 3.99578 38.9781C1.89206 37.2878 1.56828 34.2072 3.27459 32.1164C4.49676 30.6189 4.71532 28.5394 3.83122 26.8205C2.59689 24.4206 3.55409 21.4747 5.96329 20.2586C7.68891 19.3877 8.73436 17.5769 8.62585 15.6469C8.47435 12.9525 10.547 10.6506 13.2425 10.5196C15.1732 10.4258 16.8648 9.19678 17.5507 7.38957C18.5082 4.86646 21.3379 3.60657 23.8537 4.58328C25.6556 5.28287 27.7008 4.84814 29.0624 3.47612Z" fill="#CECECE"/>
<path d="M58.5482 24.2269C58.6211 24.4199 58.6489 24.7112 58.7125 24.9436C58.9733 25.9208 59.018 26.2921 59.1791 27.19C59.4971 28.5081 59.8003 32.5141 59.3369 32.5122C59.3369 32.5122 59.3369 32.5122 59.3369 32.5122C59.3329 32.5122 59.3289 32.5118 59.3248 32.5111C59.248 32.4967 59.1614 32.1612 59.0727 32.1135C58.9839 32.0659 58.423 32.1086 58.3778 31.6506C58.3288 30.9879 58.3221 29.3756 58.2559 29.0212C58.2191 28.7797 58.1247 28.4908 58.0637 28.1838C57.8634 27.2006 57.7828 26.6741 57.42 25.8375C57.3977 25.4696 57.3676 25.102 57.3293 24.7337C57.1572 24.2896 57.0097 23.5826 56.9 23.3129C56.8118 23.0925 56.7072 22.9844 56.6127 22.7573C56.5063 22.5036 56.3998 22.086 56.1804 21.6324C55.8175 20.8914 55.6091 20.8306 55.3651 20.4048C55.1105 19.9639 54.7878 19.2328 54.3923 18.7107C54.3345 18.6506 54.2766 18.5908 54.2184 18.5314C54.2183 18.6009 54.218 18.6703 54.2174 18.7396C54.0273 18.4746 54.0148 18.3155 53.8479 18.0659C53.6504 17.7726 53.4859 17.6684 53.3479 17.4762C53.2347 17.3188 53.1254 17.0721 52.9687 16.8738C52.7401 16.5855 52.722 16.702 52.5874 16.5572C52.5411 16.4926 51.566 15.4153 51.5035 15.3623C51.0816 14.9052 51.1267 14.7874 50.7848 14.4237C49.8311 13.4185 48.6844 12.5649 47.636 11.8426C47.1679 11.519 46.6817 11.1791 46.2123 10.8597C47.1347 11.0919 45.5617 9.83165 45.9532 10.623C45.4472 10.2356 44.9929 10.1219 44.4753 9.82292C44.1393 9.63103 43.9281 9.44958 43.4259 9.21422C42.5311 8.79299 41.4649 8.58646 41.3093 8.18067C40.2005 7.83971 39.2546 7.46571 38.7791 7.64835C38.4904 7.59119 37.7806 7.25375 37.4554 7.16973C37.1561 7.05845 34.7432 6.65665 34.3409 6.65525C33.9397 6.62062 33.2434 6.58843 32.9046 6.61116C32.7671 6.61942 32.6427 6.65728 32.5122 6.69292C32.2389 6.76796 31.9454 6.83034 31.4292 6.61089C30.5542 6.68092 30.2469 6.69715 29.4294 6.74723C29.2817 6.75737 29.2586 6.70744 29.1728 6.71827C28.9955 6.74088 28.7033 6.81997 28.3895 6.87501C27.8745 6.96558 27.5626 6.91661 27.651 7.07116C27.3207 7.16275 26.9892 7.26156 26.6626 7.36637C26.5383 7.36164 26.4139 7.35782 26.2893 7.35489C26.1202 7.43324 25.9515 7.51348 25.7837 7.59552C25.9266 7.29789 24.7219 7.79427 25.1656 7.81222C24.5172 7.95197 23.8721 8.11749 23.2316 8.309C23.2144 8.0067 21.8613 8.83427 22.0501 8.92663C21.9807 8.95724 21.9114 8.98814 21.8423 9.01934C21.2078 9.22815 20.685 9.5533 19.9528 9.90255C19.2215 10.2587 19.2776 10.2042 18.9981 10.2213C18.8373 10.3275 18.6778 10.4355 18.5197 10.5452C17.8764 11.3919 17.6595 10.7679 16.4419 12.0349C15.8667 12.197 14.8924 13.178 14.301 13.8618C14.2313 13.9408 14.2599 13.9725 14.1702 14.0802C13.9478 14.34 13.3118 14.9377 13.4356 15.0107C13.2032 15.2048 12.9737 15.4034 12.7472 15.6065C12.606 15.8101 12.4678 16.0155 12.3329 16.2223C12.3672 16.2484 12.4015 16.2746 12.4358 16.3007C12.0092 16.5902 11.5863 17.2484 11.3387 17.5416C11.2889 17.5999 11.2303 17.5786 11.0814 17.7652C10.9064 17.9833 10.6355 18.4248 10.4443 18.6967C10.4316 18.8409 10.4201 18.985 10.4099 19.1286C10.1375 19.6499 9.88726 19.7455 9.70663 20.0442C9.66889 20.0952 9.15614 21.1151 9.13799 21.1753C8.95248 21.6444 9.12105 21.5664 8.53732 22.8902C8.4361 23.1271 8.31332 23.3038 8.22994 23.5226C8.07455 23.9056 7.80546 25.1264 7.88849 25.2484C7.60972 25.685 7.34688 26.9952 7.23976 27.375C7.20514 27.4886 7.1142 27.4974 7.03 27.854C6.95947 28.1437 6.90924 28.9093 6.8545 29.2802C6.79353 29.6744 6.70885 29.812 6.68619 29.9884C6.66537 30.1561 6.70926 30.3163 6.69154 30.546C6.63552 31.2663 6.52326 31.9098 6.52087 32.4859C6.52083 32.4947 6.52082 32.5035 6.52083 32.5122C6.52221 33.3331 6.7269 34.0421 6.8588 34.7103C6.86202 34.8803 6.84077 35.0486 6.85903 35.2267C7.07386 37.4257 7.6328 39.8675 8.41817 41.9464C8.74031 42.9225 9.72183 45.317 9.75286 44.5235C9.9489 44.8204 11.1663 47.1112 11.4844 47.4995C11.7701 47.9031 12.0632 48.1725 12.3039 48.4756C13.0364 49.3846 13.5437 50.0442 14.6028 50.9976C14.8777 51.2425 15.2231 51.4476 15.3836 51.5926C15.5767 51.7678 15.7358 52.0136 15.9929 52.2358C16.5991 52.773 17.8284 53.649 18.4761 54.0754C18.5933 54.1549 18.5969 54.2411 18.7572 54.3684C19.3805 54.8672 20.1696 55.2872 20.1388 55.0146C20.9634 55.6137 21.8653 55.9133 22.7306 56.2628C24.5417 57.0631 28.0593 57.9648 29.7931 57.9924C30.8771 58.0306 30.8508 57.9494 32.4421 58.0616C32.4654 58.0629 32.4888 58.0642 32.5122 58.0656C32.8446 58.0842 33.1796 58.1028 33.5804 58.108C34.5868 58.1214 35.5399 58.2062 36.2687 57.8726C37.3881 57.7653 38.2481 57.5318 39.1035 57.5061C39.1875 57.4365 39.2708 57.3665 39.3533 57.2962C39.4858 57.2585 39.6178 57.2198 39.7494 57.1801C39.8028 57.2101 39.8564 57.2399 39.9102 57.2696C40.8678 57.0015 41.9807 56.393 42.7402 56.0587C44.0513 55.5649 47.1911 53.7789 48.2469 52.9557C48.8246 52.5451 48.7897 52.4457 49.2256 52.3335C49.3385 52.2207 49.4501 52.107 49.5606 51.9924C49.6075 51.8952 49.6536 51.7979 49.699 51.7005C50.3735 51.0973 51.1795 50.3804 51.7548 49.7332C52.8241 48.5677 54.1125 46.5807 54.9401 45.2371C55.1532 44.9026 55.4642 44.5064 55.6386 44.1573C55.8904 43.6478 55.8211 43.4641 56.1085 42.8094C56.6198 41.6919 57.5 39.5508 57.73 38.3956C57.8047 38.0556 57.7853 37.8843 57.8275 37.6486C57.9996 36.6604 58.1212 35.8403 58.1278 34.8754C58.351 33.8608 58.5107 33.9506 58.7086 33.6374C58.858 33.4007 59.1863 32.6389 59.3029 32.5256C59.3869 32.4477 59.4937 32.7389 59.5863 32.6301C59.6453 33.933 59.5208 34.4816 59.2844 35.5109C59.0761 37.4398 58.6583 39.3469 58.0385 41.1866C57.9341 41.3376 57.8284 41.4869 57.7214 41.6346C57.7213 41.6346 57.7212 41.6345 57.7211 41.6345C57.4121 42.3106 57.4099 42.6464 57.2816 43.0281C56.2498 46.8217 51.1605 52.8021 47.4598 54.9185C46.7239 55.4586 44.1367 56.9357 43.5136 57.0792C43.3569 57.1259 43.2845 57.073 43.1255 57.1382C41.736 57.7882 40.2864 58.3194 38.7975 58.7225C36.7521 59.1307 34.6357 59.3971 32.5122 59.4217C31.4055 59.4349 30.3078 59.3841 29.2208 59.2581C20.6052 58.3166 12.7215 52.9051 8.71413 45.3562C7.92355 43.9112 7.06074 41.9915 6.63474 40.4301C6.45681 39.7808 6.49777 39.4779 6.20383 38.6433C6.23443 38.6266 6.26504 38.6101 6.29566 38.5935C6.08589 37.8514 5.91611 37.385 5.77711 36.5278C5.64505 35.8138 5.478 33.8832 5.49193 33.2434C5.49063 32.9093 5.55561 33.0327 5.55184 32.7213C5.55125 32.6593 5.54966 32.5891 5.5475 32.5122C5.52777 31.9266 5.4956 30.9641 5.55148 30.3129C5.59897 29.6502 5.8153 28.5431 5.89438 28.0379C6.15728 26.2171 6.58927 24.2303 7.35525 22.4097C7.56355 21.9071 7.92625 21.3008 7.99658 21.1473C8.13252 20.8448 8.1052 20.7218 8.19503 20.5159C8.64305 19.4666 9.63041 17.9831 10.277 17.0806C12.3454 14.1045 15.1629 11.3846 18.2477 9.50022C20.1613 8.25022 23.681 6.75955 25.7531 6.34855C26.1947 6.25012 26.0981 6.36343 26.4671 6.27696C26.8768 6.18343 27.0905 6.08167 27.2816 6.03892C28.4861 5.74142 31.0748 5.41983 32.5122 5.48612C32.6583 5.48971 32.7919 5.49537 32.9106 5.50259C33.1566 5.5177 33.332 5.59091 33.478 5.59575C33.552 5.5984 33.7202 5.55808 33.9533 5.56558C36.0125 5.64578 37.5067 5.9107 39.4559 6.43069C43.1895 7.41839 47.2968 9.4696 50.3077 12.2154C50.9668 12.8079 51.3004 13.3337 51.3895 13.4185C51.5837 13.6081 51.7725 13.6659 52.1684 14.0524C53.4971 15.332 54.9042 17.3891 55.8094 18.8815C56.2688 19.6122 56.9172 20.6202 57.2872 21.3922C57.5999 22.0037 58.1277 23.5287 58.2615 23.8027C58.3491 23.9677 58.4688 24.0186 58.5482 24.2269ZM42.9184 8.90042C43.089 8.79909 41.9145 8.44789 42.3044 8.70097C42.3919 8.75581 42.8749 8.92418 42.9184 8.90042ZM7.06698 38.1997C7.10803 38.179 7.1491 38.1584 7.19019 38.1378C7.13745 37.9852 7.08585 37.8308 7.03602 37.6774C7.02748 37.7706 7.01978 37.8655 7.01243 37.9598C7.03025 38.0399 7.04843 38.1199 7.06698 38.1997Z" fill="white"/>
<path d="M29.0964 45.2154V30.4371L26.8445 31.4224L26.563 23.7095L29.6594 21.5702H38.6671V45.2154H29.0964Z" fill="white"/>
<defs>
<clipPath id="clip0_367_2412">
<rect width="30.6867" height="30.6867" fill="white" transform="translate(53.6467 83.3372) rotate(-16.2143)"/>
</clipPath>
</defs>
</svg>
