<svg width="66" height="66" viewBox="0 0 66 66" fill="none" xmlns="http://www.w3.org/2000/svg">
<path d="M29.0624 3.47613C30.9634 1.56061 34.061 1.56061 35.9619 3.47613C37.3236 4.84814 39.3688 5.28287 41.1707 4.58328C43.6865 3.60657 46.5162 4.86646 47.4737 7.38957C48.1596 9.19678 49.8512 10.4258 51.7819 10.5196C54.4774 10.6506 56.55 12.9525 56.3985 15.6469C56.29 17.5769 57.3355 19.3876 59.0611 20.2586C61.4703 21.4747 62.4275 24.4206 61.1932 26.8205C60.3091 28.5394 60.5276 30.6189 61.7498 32.1164C63.4561 34.2072 63.1323 37.2878 61.0286 38.9781C59.5218 40.1889 58.8756 42.1775 59.383 44.0426C60.0914 46.6467 58.5427 49.3293 55.9333 50.0178C54.0643 50.511 52.6652 52.0648 52.3701 53.9751C51.9581 56.6422 49.4521 58.4629 46.7882 58.0306C44.8802 57.7209 42.9701 58.5714 41.9235 60.1965C40.4623 62.4654 37.4325 63.1094 35.1748 61.631C33.5576 60.5721 31.4667 60.5721 29.8496 61.631C27.5919 63.1094 24.5621 62.4654 23.1009 60.1965C22.0543 58.5714 20.1441 57.7209 18.2361 58.0306C15.5723 58.4629 13.0663 56.6422 12.6543 53.9751C12.3592 52.0648 10.9601 50.511 9.0911 50.0178C6.48172 49.3293 4.93295 46.6467 5.64134 44.0426C6.14874 42.1775 5.50261 40.1889 3.99578 38.9781C1.89206 37.2878 1.56827 34.2072 3.27459 32.1164C4.49676 30.6189 4.71532 28.5394 3.83122 26.8205C2.59689 24.4206 3.55408 21.4747 5.96328 20.2586C7.68891 19.3876 8.73436 17.5769 8.62585 15.6469C8.47435 12.9525 10.547 10.6506 13.2425 10.5196C15.1732 10.4258 16.8648 9.19678 17.5506 7.38957C18.5082 4.86646 21.3379 3.60657 23.8537 4.58328C25.6556 5.28287 27.7008 4.84814 29.0624 3.47613Z" fill="#25AF94"/>
<path d="M58.5482 24.2269C58.6211 24.4199 58.6489 24.7112 58.7125 24.9436C58.9733 25.9208 59.018 26.2921 59.1791 27.19C59.4971 28.5081 59.8003 32.5141 59.3369 32.5122C59.3369 32.5122 59.3369 32.5122 59.3369 32.5122C59.3329 32.5122 59.3288 32.5118 59.3248 32.5111C59.248 32.4967 59.1614 32.1612 59.0727 32.1135C58.9839 32.0659 58.423 32.1086 58.3778 31.6506C58.3288 30.9879 58.3221 29.3756 58.2559 29.0212C58.2191 28.7797 58.1247 28.4908 58.0637 28.1838C57.8634 27.2007 57.7828 26.6741 57.42 25.8375C57.3977 25.4696 57.3676 25.102 57.3293 24.7337C57.1572 24.2896 57.0097 23.5826 56.9 23.3129C56.8118 23.0925 56.7072 22.9844 56.6127 22.7573C56.5063 22.5036 56.3998 22.086 56.1804 21.6324C55.8175 20.8914 55.6091 20.8306 55.3651 20.4048C55.1105 19.9639 54.7878 19.2328 54.3923 18.7107C54.3345 18.6506 54.2766 18.5908 54.2184 18.5314C54.2183 18.6009 54.218 18.6703 54.2174 18.7396C54.0273 18.4746 54.0148 18.3155 53.8479 18.0659C53.6504 17.7726 53.4859 17.6684 53.3479 17.4762C53.2347 17.3188 53.1254 17.0721 52.9687 16.8738C52.7401 16.5855 52.722 16.702 52.5874 16.5572C52.5411 16.4926 51.566 15.4153 51.5035 15.3623C51.0816 14.9052 51.1267 14.7874 50.7848 14.4237C49.8311 13.4185 48.6844 12.5649 47.636 11.8426C47.1679 11.519 46.6817 11.1791 46.2123 10.8597C47.1346 11.0919 45.5617 9.83165 45.9532 10.623C45.4472 10.2356 44.9929 10.1219 44.4753 9.82292C44.1393 9.63103 43.9281 9.44958 43.4259 9.21421C42.5311 8.79299 41.4648 8.58646 41.3093 8.18067C40.2005 7.83971 39.2546 7.46571 38.779 7.64835C38.4904 7.59119 37.7806 7.25375 37.4554 7.16972C37.1561 7.05845 34.7431 6.65665 34.3409 6.65525C33.9397 6.62062 33.2434 6.58843 32.9046 6.61116C32.7671 6.61942 32.6427 6.65728 32.5122 6.69292C32.2389 6.76796 31.9454 6.83034 31.4292 6.61089C30.5542 6.68092 30.2469 6.69715 29.4294 6.74723C29.2817 6.75737 29.2586 6.70744 29.1728 6.71827C28.9955 6.74088 28.7033 6.81997 28.3895 6.87501C27.8745 6.96557 27.5625 6.91661 27.651 7.07116C27.3207 7.16275 26.9892 7.26156 26.6626 7.36636C26.5383 7.36164 26.4139 7.35782 26.2893 7.35489C26.1202 7.43324 25.9515 7.51348 25.7837 7.59551C25.9266 7.29789 24.7219 7.79427 25.1656 7.81222C24.5172 7.95197 23.8721 8.11749 23.2316 8.309C23.2144 8.0067 21.8613 8.83426 22.0501 8.92663C21.9807 8.95724 21.9114 8.98814 21.8423 9.01934C21.2078 9.22815 20.685 9.5533 19.9528 9.90255C19.2215 10.2587 19.2776 10.2042 18.9981 10.2213C18.8373 10.3275 18.6778 10.4355 18.5197 10.5452C17.8765 11.3919 17.6595 10.7679 16.4419 12.0349C15.8667 12.197 14.8924 13.178 14.301 13.8618C14.2313 13.9408 14.2599 13.9725 14.1702 14.0802C13.9478 14.34 13.3118 14.9377 13.4356 15.0107C13.2032 15.2048 12.9737 15.4034 12.7472 15.6065C12.606 15.8101 12.4678 16.0155 12.3329 16.2223C12.3672 16.2484 12.4015 16.2746 12.4358 16.3007C12.0092 16.5902 11.5863 17.2484 11.3387 17.5416C11.2889 17.5999 11.2303 17.5786 11.0814 17.7652C10.9064 17.9833 10.6355 18.4248 10.4443 18.6967C10.4316 18.8409 10.42 18.985 10.4099 19.1286C10.1375 19.6499 9.88726 19.7455 9.70663 20.0442C9.66889 20.0952 9.15614 21.1151 9.13799 21.1753C8.95248 21.6444 9.12105 21.5664 8.53732 22.8902C8.4361 23.1271 8.31332 23.3038 8.22994 23.5226C8.07455 23.9056 7.80546 25.1264 7.88849 25.2484C7.60972 25.685 7.34688 26.9952 7.23976 27.375C7.20514 27.4886 7.1142 27.4974 7.03 27.854C6.95947 28.1437 6.90924 28.9093 6.8545 29.2802C6.79353 29.6744 6.70885 29.812 6.68619 29.9884C6.66537 30.1561 6.70926 30.3163 6.69154 30.546C6.63552 31.2663 6.52326 31.9098 6.52087 32.4859C6.52083 32.4947 6.52082 32.5035 6.52083 32.5122C6.52221 33.3331 6.7269 34.0421 6.8588 34.7103C6.86202 34.8803 6.84077 35.0486 6.85903 35.2267C7.07386 37.4257 7.6328 39.8675 8.41817 41.9464C8.74031 42.9225 9.72183 45.317 9.75286 44.5234C9.9489 44.8204 11.1663 47.1112 11.4844 47.4995C11.7701 47.9031 12.0632 48.1725 12.3039 48.4756C13.0364 49.3846 13.5437 50.0442 14.6028 50.9976C14.8777 51.2425 15.2231 51.4476 15.3836 51.5926C15.5767 51.7678 15.7358 52.0135 15.9929 52.2358C16.5991 52.773 17.8284 53.649 18.4761 54.0754C18.5933 54.1549 18.5969 54.2411 18.7572 54.3684C19.3805 54.8672 20.1696 55.2872 20.1388 55.0146C20.9634 55.6137 21.8653 55.9133 22.7306 56.2628C24.5417 57.0631 28.0593 57.9648 29.7931 57.9924C30.8771 58.0305 30.8508 57.9494 32.4421 58.0616C32.4654 58.0629 32.4888 58.0642 32.5122 58.0656C32.8446 58.0842 33.1796 58.1028 33.5804 58.108C34.5868 58.1214 35.5399 58.2062 36.2687 57.8726C37.3881 57.7653 38.2481 57.5317 39.1035 57.5061C39.1875 57.4365 39.2708 57.3665 39.3533 57.2962C39.4858 57.2585 39.6178 57.2198 39.7494 57.1801C39.8028 57.2101 39.8564 57.2399 39.9102 57.2695C40.8678 57.0015 41.9807 56.393 42.7402 56.0587C44.0513 55.5649 47.1911 53.7789 48.2469 52.9557C48.8246 52.5451 48.7897 52.4457 49.2256 52.3335C49.3384 52.2207 49.4501 52.107 49.5606 51.9924C49.6075 51.8952 49.6536 51.7979 49.699 51.7005C50.3735 51.0973 51.1795 50.3804 51.7548 49.7332C52.8241 48.5677 54.1125 46.5806 54.9401 45.2371C55.1532 44.9026 55.4642 44.5064 55.6386 44.1573C55.8904 43.6478 55.8211 43.4641 56.1085 42.8094C56.6198 41.6919 57.5 39.5508 57.73 38.3956C57.8046 38.0556 57.7853 37.8843 57.8275 37.6486C57.9996 36.6604 58.1212 35.8403 58.1278 34.8754C58.351 33.8608 58.5107 33.9506 58.7085 33.6374C58.858 33.4007 59.1863 32.6389 59.3029 32.5256C59.3869 32.4477 59.4937 32.7389 59.5863 32.6301C59.6453 33.933 59.5208 34.4816 59.2844 35.5109C59.0761 37.4398 58.6583 39.3469 58.0385 41.1866C57.9341 41.3376 57.8284 41.4869 57.7214 41.6346C57.7213 41.6346 57.7212 41.6345 57.7211 41.6345C57.4121 42.3106 57.4099 42.6464 57.2816 43.0281C56.2498 46.8217 51.1605 52.8021 47.4598 54.9185C46.7239 55.4586 44.1367 56.9357 43.5136 57.0792C43.3569 57.1259 43.2845 57.073 43.1255 57.1382C41.736 57.7882 40.2864 58.3194 38.7975 58.7225C36.7521 59.1307 34.6357 59.3971 32.5122 59.4217C31.4055 59.4349 30.3078 59.384 29.2208 59.2581C20.6052 58.3166 12.7215 52.905 8.71413 45.3562C7.92355 43.9112 7.06074 41.9915 6.63474 40.4301C6.45681 39.7808 6.49777 39.4779 6.20383 38.6433C6.23443 38.6266 6.26504 38.61 6.29566 38.5935C6.08589 37.8514 5.91611 37.385 5.77711 36.5278C5.64505 35.8137 5.478 33.8832 5.49193 33.2434C5.49063 32.9093 5.55561 33.0327 5.55184 32.7213C5.55125 32.6593 5.54966 32.5891 5.5475 32.5122C5.52777 31.9266 5.4956 30.9641 5.55148 30.3129C5.59897 29.6502 5.8153 28.5431 5.89438 28.0379C6.15728 26.2171 6.58927 24.2303 7.35525 22.4097C7.56355 21.9071 7.92625 21.3008 7.99658 21.1473C8.13252 20.8448 8.1052 20.7218 8.19503 20.5159C8.64305 19.4666 9.63041 17.9831 10.277 17.0806C12.3454 14.1045 15.1629 11.3846 18.2477 9.50022C20.1613 8.25022 23.681 6.75955 25.7531 6.34855C26.1947 6.25012 26.0981 6.36343 26.4671 6.27696C26.8768 6.18343 27.0905 6.08167 27.2816 6.03892C28.4861 5.74142 31.0748 5.41983 32.5122 5.48612C32.6583 5.48971 32.7919 5.49537 32.9106 5.50259C33.1566 5.5177 33.332 5.59091 33.478 5.59575C33.552 5.5984 33.7202 5.55808 33.9533 5.56558C36.0125 5.64578 37.5067 5.9107 39.4559 6.43069C43.1895 7.41839 47.2968 9.4696 50.3077 12.2154C50.9668 12.8079 51.3004 13.3337 51.3895 13.4185C51.5837 13.6081 51.7725 13.6659 52.1684 14.0524C53.4971 15.332 54.9041 17.3891 55.8094 18.8815C56.2688 19.6122 56.9172 20.6202 57.2872 21.3922C57.5999 22.0037 58.1277 23.5287 58.2615 23.8027C58.3491 23.9677 58.4688 24.0186 58.5482 24.2269ZM42.9184 8.90042C43.089 8.79909 41.9145 8.44789 42.3044 8.70097C42.3919 8.75581 42.8749 8.92418 42.9184 8.90042ZM7.06698 38.1997C7.10803 38.179 7.1491 38.1584 7.19019 38.1378C7.13745 37.9852 7.08585 37.8308 7.03602 37.6774C7.02748 37.7706 7.01977 37.8655 7.01243 37.9598C7.03025 38.0399 7.04843 38.1199 7.06698 38.1997Z" fill="white"/>
<circle cx="32.0042" cy="32.0042" r="17.7801" stroke="white" stroke-width="0.689653" stroke-dasharray="2 2"/>
<rect x="29.3572" y="12.2706" width="22.952" height="5.67353" rx="1.59747" transform="rotate(25.1122 29.3572 12.2706)" fill="white"/>
<rect x="25.271" y="14.9119" width="28.1098" height="6.44719" rx="1.59747" transform="rotate(25.1122 25.271 14.9119)" fill="white"/>
<path d="M25.048 21.8714C25.363 20.9813 26.3771 20.557 27.232 20.9577L44.8265 29.2042C45.68 29.6042 46.0033 30.6525 45.5235 31.4638L33.7718 51.3355C33.3529 52.0439 32.4642 52.3181 31.7189 51.9688L18.1733 45.6201C17.4294 45.2714 17.0713 44.4153 17.3453 43.6407L25.048 21.8714Z" fill="white"/>
<path d="M27.1317 15.4996C29.3043 17.0552 36.6892 21.2687 48.8483 25.6781" stroke="#25AF94" stroke-width="0.798733"/>
<path d="M24.2351 21.8317C28.7302 23.9385 38.3152 28.8581 45.6598 31.8733" stroke="#25AF94" stroke-width="0.798733"/>
</svg>
