<svg width="202" height="63" viewBox="0 0 202 63" fill="none" xmlns="http://www.w3.org/2000/svg">
<g opacity="0.1">
<path d="M5.7217 43.6939H48.5134V57.3872H5.7217V43.6939ZM1.66775 16.6676C11.217 15.8117 20.4961 15.8117 30.0454 16.6676L29.5949 24.0097C24.8653 23.6493 20.4961 23.4241 16.0818 23.4241C15.9467 24.1899 15.8115 24.8655 15.7214 25.5412H29.1445V31.9825H15.1809C15.226 33.7842 15.9467 34.2797 18.0637 34.2797C21.2618 34.2797 25.586 34.1896 30.0454 33.9193L30.4958 41.8921C26.532 42.2074 20.8114 42.3425 17.343 42.3425C6.66762 42.3425 3.01907 40.0003 3.01907 33.0635C3.01907 30.0456 3.33437 27.1177 4.05508 23.8746L2.11819 24.0097L1.66775 16.6676ZM17.8835 51.5315H36.3515V49.3243H17.8835V51.5315ZM30.721 32.9734V21.7125H36.5767V15.5865H48.5134V42.5678H36.5767V32.9734H30.721ZM98.3822 40.3606V50.6757H65.9957V51.9819H98.8326V57.3872H53.1582V46.6217H85.5447V45.3154H52.9329V40.3606H98.3822ZM51.2213 39.2345V33.3788H100.319V39.2345H51.2213ZM53.1582 25.5412V15.5865H66.2209V17.3432H85.3195C85.2294 16.8928 85.0942 16.4423 84.9591 15.9468L96.6255 15.5865C98.6074 18.109 98.8777 21.9827 97.6164 25.4961H98.3822V32.2527H65.32C55.2752 32.2527 53.1582 30.0906 53.1582 25.5412ZM66.2209 23.6493C66.356 25.2259 67.3019 25.4961 70.2298 25.4961H85.1393C85.3195 24.8655 85.4546 24.2349 85.5447 23.6493H66.2209ZM136.81 15.5865H148.972V57.3872H136.81V41.4417H134.242V29.2798H136.81V15.5865ZM102.577 40.6309V30.9465H120.414C120.774 29.7753 120.954 28.6943 120.954 27.8835C120.954 26.7123 120.234 26.1718 118.702 26.1718C115.729 26.1718 114.243 26.2619 103.928 26.8475L103.477 17.3432C108.748 16.7126 114.333 16.3522 119.243 16.3522C129.513 16.3522 132.666 18.3342 132.666 24.8205C132.666 26.6673 132.441 28.7393 131.945 30.9465H133.116V40.6309H115.594C115.459 41.4867 115.414 42.2975 115.414 43.0632C115.414 45.1353 115.91 45.6307 118.072 45.6307C121.27 45.6307 125.594 45.3154 134.017 44.5947L134.468 54.144C128.477 55.135 122.576 55.7206 117.351 55.7206C107.486 55.7206 103.477 53.063 103.477 46.5767C103.477 44.6848 103.658 42.6128 104.018 40.6309H102.577ZM156.86 44.3695H169.697V48.1532H200.552V57.3872H156.86V44.3695ZM152.806 30.1807H164.787C165.058 32.0725 166.769 33.6491 169.427 33.6491C172.355 33.6491 174.156 31.9374 174.156 29.3699C174.156 26.8024 172.355 25.1358 169.427 25.1358C166.679 25.1358 164.742 26.8925 164.742 29.7303L152.806 28.8294C152.806 20.5413 159.562 15.8117 169.427 15.8117C179.607 15.8117 186.093 20.9918 186.093 29.5501C186.093 38.0183 179.562 43.2434 169.427 43.2434C159.517 43.2434 152.806 38.0183 152.806 30.1807ZM187.039 46.5767V15.3613L199.651 15.5865V46.5767H187.039Z" fill="white"/>
</g>
</svg>
