<svg width="17" height="14" viewBox="0 0 17 14" fill="none" xmlns="http://www.w3.org/2000/svg">
<path fill-rule="evenodd" clip-rule="evenodd" d="M0 11.8572C0 12.8627 0.813571 13.6787 1.819 13.6787H15.181C16.1864 13.6787 17 12.8627 17 11.8572V9.38739C17.0001 9.25398 16.9563 9.12425 16.8753 9.01824C16.7943 8.91223 16.6807 8.83584 16.5519 8.80089C16.1568 8.69328 15.808 8.45869 15.5593 8.13326C15.3107 7.80784 15.1759 7.40966 15.1759 7.0001C15.1759 6.59055 15.3107 6.19237 15.5593 5.86695C15.808 5.54152 16.1568 5.30692 16.5519 5.19932C16.6807 5.16437 16.7943 5.08798 16.8753 4.98197C16.9563 4.87596 17.0001 4.74623 17 4.61282V2.14296C17 1.13753 16.1864 0.321533 15.181 0.321533H1.819C0.813571 0.321533 0 1.13753 0 2.14296V4.60796C0.000161446 4.74201 0.0446791 4.87223 0.12661 4.97832C0.208541 5.08442 0.323279 5.16041 0.452929 5.19446C0.852277 5.29889 1.20574 5.53276 1.45801 5.85948C1.71028 6.1862 1.84712 6.58733 1.84712 7.0001C1.84712 7.41288 1.71028 7.81401 1.45801 8.14073C1.20574 8.46745 0.852277 8.70132 0.452929 8.80575C0.323279 8.8398 0.208541 8.91579 0.12661 9.02188C0.0446791 9.12798 0.000161446 9.2582 0 9.39225L0 11.8572ZM6.02529 10.5725L12.0967 4.5011C12.2322 4.35754 12.3064 4.16683 12.3036 3.96944C12.3009 3.77205 12.2213 3.58351 12.0817 3.44384C11.9422 3.30418 11.7538 3.22436 11.5564 3.22134C11.359 3.21833 11.1682 3.29234 11.0245 3.42768L4.95307 9.4991C4.87915 9.56872 4.81994 9.65246 4.77897 9.74537C4.73799 9.83829 4.71608 9.93847 4.71453 10.04C4.71297 10.1415 4.73181 10.2424 4.76993 10.3365C4.80804 10.4306 4.86466 10.5161 4.93642 10.588C5.00818 10.6598 5.09363 10.7165 5.18771 10.7547C5.28179 10.793 5.38258 10.8119 5.48411 10.8105C5.58565 10.809 5.68586 10.7872 5.77882 10.7464C5.87178 10.7055 5.95559 10.6464 6.02529 10.5725ZM4.88264 4.57153C4.88264 4.24948 5.01058 3.94063 5.2383 3.7129C5.46602 3.48518 5.77488 3.35725 6.09693 3.35725C6.41898 3.35725 6.72784 3.48518 6.95556 3.7129C7.18328 3.94063 7.31121 4.24948 7.31121 4.57153C7.31121 4.89358 7.18328 5.20244 6.95556 5.43016C6.72784 5.65789 6.41898 5.78582 6.09693 5.78582C5.77488 5.78582 5.46602 5.65789 5.2383 5.43016C5.01058 5.20244 4.88264 4.89358 4.88264 4.57153ZM9.73979 9.42868C9.73979 9.10663 9.86772 8.79777 10.0954 8.57005C10.3232 8.34232 10.632 8.21439 10.9541 8.21439C11.2761 8.21439 11.585 8.34232 11.8127 8.57005C12.0404 8.79777 12.1684 9.10663 12.1684 9.42868C12.1684 9.75072 12.0404 10.0596 11.8127 10.2873C11.585 10.515 11.2761 10.643 10.9541 10.643C10.632 10.643 10.3232 10.515 10.0954 10.2873C9.86772 10.0596 9.73979 9.75072 9.73979 9.42868Z" fill="white"/>
</svg>
