<svg width="17" height="17" viewBox="0 0 17 17" fill="none" xmlns="http://www.w3.org/2000/svg">
<path d="M11.3391 9.91748V10.2718M7.97266 11.5121H9.03574L8.5042 12.0436L7.97266 11.5121Z" stroke="#25AF94" stroke-linecap="round" stroke-linejoin="round"/>
<path d="M3.13263 7.96631C2.93464 8.7323 2.83462 9.52031 2.83496 10.3115C2.83496 13.2683 5.37361 14.8785 8.50474 14.8785C11.6359 14.8785 14.1745 13.2683 14.1745 10.3115C14.171 9.51705 14.0533 8.72726 13.8251 7.96631M5.66985 9.91742V10.2718" stroke="#25AF94" stroke-linecap="round" stroke-linejoin="round"/>
<path d="M6.02377 6.01952C5.75162 6.76367 5.25622 7.4568 4.36252 7.79132C2.99398 8.30302 1.82813 7.58083 1.77143 7.0826C1.69135 6.37813 2.6056 2.45464 4.60632 2.12154C5.9692 1.89404 7.19387 2.72041 7.19387 3.70554C8.09027 3.47798 9.03053 3.48824 9.92174 3.7353C9.92174 2.75018 11.2286 1.89404 12.5915 2.12154C14.5922 2.45464 15.5065 6.37813 15.4264 7.0826C15.3697 7.58083 14.2038 8.30302 12.8353 7.79132C11.9416 7.4568 11.5206 6.76367 11.2485 6.01952" stroke="#25AF94" stroke-linecap="round" stroke-linejoin="round"/>
</svg>
