<svg width="17" height="17" viewBox="0 0 17 17" fill="none" xmlns="http://www.w3.org/2000/svg">
<path d="M8.50482 5.66518V8.50007M2.31767 9.36258C2.29463 9.25893 2.29517 9.15143 2.31926 9.04801C2.34335 8.9446 2.39037 8.84792 2.45684 8.76511C2.52331 8.68231 2.60754 8.61551 2.7033 8.56963C2.79906 8.52375 2.90391 8.49998 3.01009 8.50007H14.0003C14.1064 8.50009 14.2111 8.52394 14.3068 8.56986C14.4025 8.61578 14.4866 8.6826 14.553 8.76539C14.6194 8.84818 14.6664 8.94482 14.6904 9.04818C14.7145 9.15155 14.715 9.25899 14.692 9.36258L13.5895 14.3236C13.5546 14.4811 13.4669 14.6219 13.3411 14.7228C13.2152 14.8237 13.0588 14.8786 12.8975 14.8786H4.11216C3.95093 14.8785 3.79454 14.8235 3.66878 14.7227C3.54303 14.6218 3.45543 14.481 3.42044 14.3236L2.31767 9.36258ZM7.31523 3.49968C7.82232 2.83348 8.21353 1.91249 8.42473 1.41284C8.79469 1.91249 9.59767 3.16622 9.85139 3.83278C10.1682 4.66552 9.37584 5.66518 8.42473 5.66518C7.47363 5.66518 6.68127 4.33278 7.31523 3.49968Z" stroke="#ABABAB" stroke-width="1.21495" stroke-linecap="round" stroke-linejoin="round"/>
</svg>
