<svg width="24" height="24" viewBox="0 0 24 24" fill="none" xmlns="http://www.w3.org/2000/svg">
<path d="M3.92852 13.179L9.59179 18.9956C9.82294 19.233 9.93389 19.51 9.92465 19.8265C9.9154 20.1431 9.79482 20.4201 9.56289 20.6575C9.33174 20.8751 9.06206 20.9891 8.75385 20.9994C8.44565 21.0096 8.17597 20.8957 7.94482 20.6575L0.316751 12.8229C0.201174 12.7042 0.119115 12.5756 0.0705728 12.4371C0.0220306 12.2986 -0.0014699 12.1502 7.11246e-05 11.992C0.00161215 11.8337 0.025883 11.6853 0.0728842 11.5468C0.119885 11.4083 0.20156 11.2797 0.317907 11.161L7.94597 3.32644C8.15786 3.10881 8.42292 3 8.74114 3C9.05936 3 9.33366 3.10881 9.56405 3.32644C9.7952 3.56385 9.91078 3.84598 9.91078 4.17281C9.91078 4.49965 9.7952 4.78138 9.56405 5.018L3.92852 10.8049H16.8442C17.1717 10.8049 17.4464 10.9189 17.6683 11.1468C17.8902 11.3747 18.0008 11.6564 18 11.992C17.9992 12.3275 17.8883 12.6096 17.6671 12.8383C17.446 13.067 17.1717 13.1806 16.8442 13.179H3.92852Z" fill="#767676"/>
</svg>
