<svg width="42" height="42" viewBox="0 0 42 42" fill="none" xmlns="http://www.w3.org/2000/svg">
<circle cx="21" cy="21" r="21" fill="#76D4C1"/>
<path d="M20.5995 9.13865C20.8644 8.45985 21.825 8.45985 22.0899 9.13865L24.6548 15.7093C24.7685 16.0005 25.0415 16.1989 25.3536 16.217L32.3952 16.6259C33.1227 16.6681 33.4195 17.5816 32.8558 18.0434L27.3994 22.5131C27.1575 22.7113 27.0532 23.0322 27.1324 23.3347L28.9195 30.158C29.1042 30.8629 28.3271 31.4275 27.7137 31.034L21.7766 27.2259C21.5134 27.0571 21.176 27.0571 20.9128 27.2259L14.9757 31.034C14.3624 31.4275 13.5853 30.8629 13.7699 30.158L15.557 23.3347C15.6362 23.0322 15.532 22.7113 15.2901 22.5131L9.83362 18.0434C9.26993 17.5816 9.56675 16.6681 10.2942 16.6259L17.3358 16.217C17.648 16.1989 17.921 16.0005 18.0347 15.7093L20.5995 9.13865Z" fill="white"/>
</svg>
