<svg width="17" height="17" viewBox="0 0 17 17" fill="none" xmlns="http://www.w3.org/2000/svg">
<path d="M12.25 14.2585C11.2015 14.8639 9.98245 15.1063 8.78206 14.9483C7.58166 14.7902 6.46696 14.2405 5.61084 13.3844C4.75473 12.5282 4.20504 11.4135 4.04704 10.2131C3.88904 9.01269 4.13156 7.79369 4.73698 6.74517C5.3424 5.69665 6.27688 4.8772 7.3955 4.41392C8.51411 3.95064 9.75434 3.86942 10.9238 4.18286C12.0933 4.49629 13.1267 5.18687 13.8637 6.14748C14.6007 7.10809 15.0001 8.28504 15 9.4958V10.3877C15 10.7819 14.8434 11.16 14.5646 11.4388C14.2858 11.7176 13.9078 11.8742 13.5135 11.8742C13.1193 11.8742 12.7412 11.7176 12.4624 11.4388C12.1836 11.16 12.027 10.7819 12.027 10.3877V9.4958M12.027 9.4958C12.027 9.82765 11.9617 10.1563 11.8347 10.4628C11.7077 10.7694 11.5215 11.048 11.2869 11.2827C11.0522 11.5173 10.7736 11.7035 10.4671 11.8305C10.1605 11.9575 9.83186 12.0228 9.5 12.0228C9.16815 12.0228 8.83955 11.9575 8.53295 11.8305C8.22636 11.7035 7.94778 11.5173 7.71313 11.2827C7.47847 11.048 7.29233 10.7694 7.16534 10.4628C7.03834 10.1563 6.97298 9.82765 6.97298 9.4958C6.97298 8.82559 7.23922 8.18283 7.71313 7.70892C8.18704 7.23501 8.8298 6.96877 9.5 6.96877C10.1702 6.96877 10.813 7.23501 11.2869 7.70892C11.7608 8.18283 12.027 8.82559 12.027 9.4958ZM12.027 9.4958V6.96877" stroke="#ABABAB" stroke-width="1.1" stroke-linecap="round" stroke-linejoin="round"/>
</svg>
