<svg width="17" height="17" viewBox="0 0 17 17" fill="none" xmlns="http://www.w3.org/2000/svg">
<path d="M10.6307 7.0827L2.83475 14.8794M12.7569 2.12235L10.6307 4.24852C10.2444 4.63477 10.051 4.82825 9.94749 5.03662C9.85056 5.23225 9.80012 5.44763 9.80012 5.66596C9.80012 5.88429 9.85056 6.09967 9.94749 6.29531C10.051 6.50367 10.2444 6.69715 10.6307 7.08341C11.017 7.46966 11.2104 7.66314 11.4188 7.76661C11.6144 7.86355 11.8298 7.91399 12.0481 7.91399C12.2665 7.91399 12.4819 7.86355 12.6775 7.76661C12.8859 7.66314 13.0793 7.46966 13.4656 7.08341L15.5918 4.95724M14.1743 3.53838L12.0481 5.66454M6.26852 6.97355C5.30111 7.94096 3.97438 8.18263 2.76459 6.97355C1.55551 5.76376 0.921912 3.56176 1.88932 2.59365C2.85672 1.62695 5.05873 2.26055 6.26852 3.46963C7.4776 4.67942 7.23592 6.00615 6.26852 6.97355ZM6.26852 6.97355L14.1743 14.8786" stroke="#ABABAB" stroke-width="1.1" stroke-linecap="round" stroke-linejoin="round"/>
</svg>
