<svg width="16" height="16" viewBox="0 0 16 16" fill="none" xmlns="http://www.w3.org/2000/svg">
<path d="M8.00016 1.33337C11.6822 1.33337 14.6668 4.31804 14.6668 8.00004C14.6668 11.682 11.6822 14.6667 8.00016 14.6667C4.31816 14.6667 1.3335 11.682 1.3335 8.00004C1.3335 4.31804 4.31816 1.33337 8.00016 1.33337ZM8.00016 4.00004C7.82335 4.00004 7.65378 4.07028 7.52876 4.1953C7.40373 4.32033 7.3335 4.4899 7.3335 4.66671V8.00004C7.33353 8.17684 7.4038 8.34638 7.52883 8.47137L9.52883 10.4714C9.65457 10.5928 9.82297 10.66 9.99776 10.6585C10.1726 10.657 10.3398 10.5869 10.4634 10.4633C10.587 10.3396 10.6571 10.1724 10.6586 9.99764C10.6601 9.82284 10.5929 9.65444 10.4715 9.52871L8.66683 7.72404V4.66671C8.66683 4.4899 8.59659 4.32033 8.47157 4.1953C8.34654 4.07028 8.17697 4.00004 8.00016 4.00004Z" fill="#ABABAB"/>
</svg>
