<svg width="16" height="16" viewBox="0 0 16 16" fill="none" xmlns="http://www.w3.org/2000/svg">
<path d="M6.75598 7.0225L7.82898 6.0385C8.12262 5.76911 8.32909 5.41815 8.42192 5.03063C8.51475 4.64311 8.4897 4.23669 8.34998 3.8635L7.89148 2.6395C7.72057 2.18265 7.38177 1.80825 6.94422 1.59268C6.50667 1.37711 6.00335 1.33663 5.53698 1.4795C3.82098 2.0045 2.50198 3.5995 2.90798 5.494C3.17498 6.74 3.68548 8.304 4.65398 9.9685C5.46547 11.3704 6.48642 12.64 7.68148 13.7335C9.11648 15.0395 11.1665 14.713 12.4855 13.4835C12.8388 13.1537 13.0532 12.7017 13.085 12.2194C13.1168 11.7371 12.9635 11.2608 12.6565 10.8875L11.816 9.8665C11.5627 9.55861 11.2231 9.33346 10.8409 9.21996C10.4587 9.10645 10.0513 9.10978 9.67098 9.2295L8.28298 9.667C8.22931 9.612 8.16831 9.54666 8.09998 9.471C7.81452 9.15538 7.56204 8.81142 7.34648 8.4445C7.13656 8.07428 6.965 7.68358 6.83448 7.2785C6.80656 7.19371 6.78039 7.10836 6.75598 7.0225Z" fill="#ABABAB"/>
</svg>
