<svg width="17" height="17" viewBox="0 0 17 17" fill="none" xmlns="http://www.w3.org/2000/svg">
<path d="M12.0818 8.57227H2.42969M12.0818 11.5735H2.42969M5.54807 4.74572L3.03257 6.62148C2.8455 6.76107 2.69349 6.9431 2.58877 7.15292C2.48405 7.36274 2.42956 7.59448 2.42969 7.82947V13.8244C2.42969 14.0234 2.50791 14.2142 2.64715 14.3549C2.78639 14.4956 2.97524 14.5747 3.17216 14.5747H15.0517C15.2486 14.5747 15.4375 14.4956 15.5767 14.3549C15.7159 14.2142 15.7942 14.0234 15.7942 13.8244V7.33127C15.7942 5.83066 13.9825 2.80994 11.0127 1.30934C10.8888 1.23772 10.7472 1.20366 10.6048 1.21124C10.4623 1.21883 10.325 1.26773 10.2093 1.35211L7.92398 3.02003" stroke="#25AF94" stroke-width="1.1" stroke-linecap="round" stroke-linejoin="round"/>
<path d="M6.62221 6.86404C7.46096 6.86404 8.1409 6.1841 8.1409 5.34535C8.1409 4.5066 7.46096 3.82666 6.62221 3.82666C5.78346 3.82666 5.10352 4.5066 5.10352 5.34535C5.10352 6.1841 5.78346 6.86404 6.62221 6.86404Z" stroke="#25AF94" stroke-width="1.1" stroke-linecap="round" stroke-linejoin="round"/>
</svg>
