<svg width="37" height="37" viewBox="0 0 37 37" fill="none" xmlns="http://www.w3.org/2000/svg">
<path d="M27.6001 14.5643C27.6001 14.1751 27.4441 13.8019 27.1665 13.5268C26.8889 13.2516 26.5124 13.097 26.1198 13.097H8.96349L12.3681 9.73711C12.6468 9.46083 12.8034 9.08611 12.8034 8.69539C12.8034 8.30467 12.6468 7.92995 12.3681 7.65366C12.0894 7.37738 11.7113 7.22217 11.3171 7.22217C10.9229 7.22217 10.5449 7.37738 10.2661 7.65366L4.34505 13.5225C4.13965 13.7289 4.00051 13.9909 3.94519 14.2755C3.88986 14.5601 3.92084 14.8546 4.03419 15.1218C4.14524 15.3897 4.33383 15.6191 4.57618 15.781C4.81853 15.9429 5.1038 16.03 5.39604 16.0315H26.1198C26.5124 16.0315 26.8889 15.8769 27.1665 15.6017C27.4441 15.3266 27.6001 14.9534 27.6001 14.5643ZM33.4027 19.8756C33.2917 19.6076 33.1031 19.3783 32.8607 19.2164C32.6184 19.0545 32.3331 18.9674 32.0409 18.9659H11.3171C10.9245 18.9659 10.548 19.1205 10.2704 19.3957C9.9928 19.6708 9.83685 20.044 9.83685 20.4331C9.83685 20.8223 9.9928 21.1955 10.2704 21.4706C10.548 21.7458 10.9245 21.9003 11.3171 21.9003H28.4734L25.0688 25.2603C24.9301 25.3967 24.8199 25.5589 24.7448 25.7377C24.6696 25.9165 24.6309 26.1083 24.6309 26.302C24.6309 26.4957 24.6696 26.6875 24.7448 26.8663C24.8199 27.0451 24.9301 27.2073 25.0688 27.3437C25.2064 27.4812 25.3701 27.5904 25.5505 27.6649C25.7309 27.7394 25.9244 27.7777 26.1198 27.7777C26.3152 27.7777 26.5087 27.7394 26.6891 27.6649C26.8695 27.5904 27.0332 27.4812 27.1708 27.3437L33.0919 21.4749C33.2973 21.2685 33.4364 21.0065 33.4917 20.7219C33.547 20.4373 33.5161 20.1428 33.4027 19.8756Z" fill="#BCC6C4"/>
</svg>
