<svg width="21" height="21" viewBox="0 0 21 21" fill="none" xmlns="http://www.w3.org/2000/svg">
<g clip-path="url(#clip0_914_2472)">
<mask id="path-1-inside-1_914_2472" fill="white">
<path fill-rule="evenodd" clip-rule="evenodd" d="M10.7864 19.9201L10.7762 19.9218L10.7153 19.9517L10.6982 19.9552L10.6862 19.9517L10.6254 19.9209C10.6163 19.9186 10.6094 19.9203 10.6049 19.9261L10.6014 19.9346L10.5869 20.3012L10.5912 20.3183L10.5997 20.3295L10.6888 20.3928L10.7016 20.3963L10.7119 20.3928L10.801 20.3295L10.8113 20.3158L10.8147 20.3012L10.8001 19.9355C10.7978 19.9263 10.7933 19.9212 10.7864 19.9201ZM11.0125 19.8233L11.0006 19.825L10.843 19.9046L10.8344 19.9132L10.8318 19.9226L10.8472 20.2909L10.8515 20.3012L10.8584 20.308L11.0305 20.3868C11.0414 20.3897 11.0497 20.3874 11.0554 20.38L11.0588 20.368L11.0297 19.8421C11.0268 19.8313 11.0211 19.825 11.0125 19.8233ZM10.4002 19.825C10.3964 19.8227 10.3919 19.822 10.3876 19.8229C10.3833 19.8239 10.3795 19.8265 10.377 19.8301L10.3719 19.8421L10.3428 20.368C10.3433 20.3783 10.3482 20.3851 10.3573 20.3886L10.3702 20.3868L10.5423 20.3072L10.5509 20.3003L10.5535 20.2909L10.5689 19.9226L10.5663 19.9124L10.5577 19.9038L10.4002 19.825Z"/>
</mask>
<path d="M10.7864 19.9201L10.9675 18.8339L10.7864 18.8037L10.6053 18.8339L10.7864 19.9201ZM10.7762 19.9218L10.595 18.8356L10.4349 18.8623L10.2893 18.9341L10.7762 19.9218ZM10.7153 19.9517L10.9313 21.0316L11.0728 21.0033L11.2022 20.9395L10.7153 19.9517ZM10.6982 19.9552L10.3957 21.014L10.6524 21.0873L10.9142 21.035L10.6982 19.9552ZM10.6862 19.9517L10.1882 20.9339L10.2823 20.9816L10.3837 21.0106L10.6862 19.9517ZM10.6254 19.9209L11.1234 18.9388L11.0128 18.8827L10.8925 18.8526L10.6254 19.9209ZM10.6049 19.9261L9.74497 19.2381L9.64302 19.3656L9.58241 19.5171L10.6049 19.9261ZM10.6014 19.9346L9.57899 19.5257L9.50863 19.7016L9.50111 19.8909L10.6014 19.9346ZM10.5869 20.3012L9.48655 20.2575L9.48028 20.4152L9.51856 20.5683L10.5869 20.3012ZM10.5912 20.3183L9.52284 20.5854L9.57847 20.8079L9.71832 20.9897L10.5912 20.3183ZM10.5997 20.3295L9.72688 21.0009L9.82722 21.1313L9.9613 21.2267L10.5997 20.3295ZM10.6888 20.3928L10.0504 21.2901L10.2126 21.4055L10.4051 21.4569L10.6888 20.3928ZM10.7016 20.3963L10.4179 21.4603L10.7368 21.5453L11.0498 21.441L10.7016 20.3963ZM10.7119 20.3928L11.0601 21.4375L11.2162 21.3855L11.3503 21.2901L10.7119 20.3928ZM10.801 20.3295L11.4394 21.2267L11.5791 21.1273L11.682 20.9902L10.801 20.3295ZM10.8113 20.3158L11.6922 20.9765L11.8304 20.7922L11.8832 20.5679L10.8113 20.3158ZM10.8147 20.3012L11.8866 20.5534L11.921 20.4073L11.915 20.2574L10.8147 20.3012ZM10.8001 19.9355L11.9005 19.8917L11.8959 19.7784L11.8684 19.6684L10.8001 19.9355ZM11.0125 19.8233L11.2285 18.7435L11.0436 18.7065L10.8569 18.7331L11.0125 19.8233ZM11.0006 19.825L10.8449 18.7349L10.6655 18.7605L10.5038 18.8422L11.0006 19.825ZM10.843 19.9046L10.3462 18.9219L10.1889 19.0014L10.0643 19.126L10.843 19.9046ZM10.8344 19.9132L10.0557 19.1345L9.84893 19.3414L9.77199 19.6235L10.8344 19.9132ZM10.8318 19.9226L9.76942 19.6329L9.72445 19.7979L9.7316 19.9687L10.8318 19.9226ZM10.8472 20.2909L9.74701 20.337L9.75523 20.5332L9.83077 20.7145L10.8472 20.2909ZM10.8515 20.3012L9.83505 20.7248L9.91883 20.9258L10.0728 21.0798L10.8515 20.3012ZM10.8584 20.308L10.0797 21.0867L10.2198 21.2268L10.4001 21.3093L10.8584 20.308ZM11.0305 20.3868L10.5722 21.3881L10.6585 21.4276L10.7503 21.4518L11.0305 20.3868ZM11.0554 20.38L11.9282 21.0514L12.0564 20.8847L12.1142 20.6825L11.0554 20.38ZM11.0588 20.368L12.1176 20.6705L12.1685 20.4922L12.1583 20.3071L11.0588 20.368ZM11.0297 19.8421L12.1292 19.7812L12.123 19.6698L12.0946 19.5619L11.0297 19.8421ZM10.4002 19.825L9.82942 20.7667L9.86768 20.7899L9.90769 20.8099L10.4002 19.825ZM10.377 19.8301L9.46116 19.2187L9.40485 19.3031L9.36489 19.3963L10.377 19.8301ZM10.3719 19.8421L9.35975 19.4083L9.28314 19.5871L9.27239 19.7812L10.3719 19.8421ZM10.3428 20.368L9.24327 20.3071L9.23989 20.3681L9.24328 20.4291L10.3428 20.368ZM10.3573 20.3886L9.97068 21.4196L10.2292 21.5166L10.5029 21.4801L10.3573 20.3886ZM10.3702 20.3868L10.5158 21.4784L10.6812 21.4563L10.8326 21.3862L10.3702 20.3868ZM10.5423 20.3072L11.0047 21.3066L11.1259 21.2505L11.2302 21.1671L10.5423 20.3072ZM10.5509 20.3003L11.2388 21.1603L11.5189 20.9361L11.6133 20.59L10.5509 20.3003ZM10.5535 20.2909L11.6159 20.5806L11.6485 20.4609L11.6537 20.337L10.5535 20.2909ZM10.5689 19.9226L11.6691 19.9687L11.6758 19.8098L11.6372 19.6555L10.5689 19.9226ZM10.5663 19.9124L11.6346 19.6452L11.5606 19.3494L11.345 19.1337L10.5663 19.9124ZM10.5577 19.9038L11.3364 19.1251L11.2101 18.9988L11.0502 18.9189L10.5577 19.9038ZM10.7864 19.9201L10.6053 18.8339L10.595 18.8356L10.7762 19.9218L10.9573 21.008L10.9675 21.0063L10.7864 19.9201ZM10.7762 19.9218L10.2893 18.9341L10.2284 18.964L10.7153 19.9517L11.2022 20.9395L11.263 20.9095L10.7762 19.9218ZM10.7153 19.9517L10.4994 18.8719L10.4823 18.8754L10.6982 19.9552L10.9142 21.035L10.9313 21.0316L10.7153 19.9517ZM10.6982 19.9552L11.0007 18.8963L10.9887 18.8929L10.6862 19.9517L10.3837 21.0106L10.3957 21.014L10.6982 19.9552ZM10.6862 19.9517L11.1842 18.9696L11.1234 18.9388L10.6254 19.9209L10.1274 20.9031L10.1882 20.9339L10.6862 19.9517ZM10.6254 19.9209L10.8925 18.8526C10.7688 18.8217 10.5739 18.7953 10.3464 18.8522C10.1003 18.9137 9.8922 19.0541 9.74497 19.2381L10.6049 19.9261L11.4647 20.614C11.3221 20.7923 11.1196 20.929 10.8804 20.9888C10.6598 21.0439 10.4729 21.0179 10.3583 20.9892L10.6254 19.9209ZM10.6049 19.9261L9.58241 19.5171L9.57899 19.5257L10.6014 19.9346L11.6239 20.3436L11.6273 20.335L10.6049 19.9261ZM10.6014 19.9346L9.50111 19.8909L9.48655 20.2575L10.5869 20.3012L11.6872 20.3449L11.7018 19.9783L10.6014 19.9346ZM10.5869 20.3012L9.51856 20.5683L9.52284 20.5854L10.5912 20.3183L11.6595 20.0512L11.6552 20.0341L10.5869 20.3012ZM10.5912 20.3183L9.71832 20.9897L9.72688 21.0009L10.5997 20.3295L11.4726 19.6581L11.464 19.6469L10.5912 20.3183ZM10.5997 20.3295L9.9613 21.2267L10.0504 21.2901L10.6888 20.3928L11.3272 19.4956L11.2381 19.4322L10.5997 20.3295ZM10.6888 20.3928L10.4051 21.4569L10.4179 21.4603L10.7016 20.3963L10.9853 19.3322L10.9725 19.3288L10.6888 20.3928ZM10.7016 20.3963L11.0498 21.441L11.0601 21.4375L10.7119 20.3928L10.3637 19.3481L10.3534 19.3516L10.7016 20.3963ZM10.7119 20.3928L11.3503 21.2901L11.4394 21.2267L10.801 20.3295L10.1626 19.4322L10.0735 19.4956L10.7119 20.3928ZM10.801 20.3295L11.682 20.9902L11.6922 20.9765L10.8113 20.3158L9.9303 19.6551L9.92003 19.6688L10.801 20.3295ZM10.8113 20.3158L11.8832 20.5679L11.8866 20.5534L10.8147 20.3012L9.74277 20.049L9.73935 20.0636L10.8113 20.3158ZM10.8147 20.3012L11.915 20.2574L11.9005 19.8917L10.8001 19.9355L9.69982 19.9793L9.71438 20.345L10.8147 20.3012ZM10.8001 19.9355L11.8684 19.6684C11.8049 19.4144 11.5645 18.9334 10.9675 18.8339L10.7864 19.9201L10.6054 21.0063C10.3634 20.9659 10.1387 20.844 9.97196 20.6564C9.82075 20.4863 9.75864 20.3098 9.73182 20.2026L10.8001 19.9355ZM11.0125 19.8233L10.8569 18.7331L10.8449 18.7349L11.0006 19.825L11.1562 20.9151L11.1682 20.9134L11.0125 19.8233ZM11.0006 19.825L10.5038 18.8422L10.3462 18.9219L10.843 19.9046L11.3397 20.8874L11.4973 20.8078L11.0006 19.825ZM10.843 19.9046L10.0643 19.126L10.0557 19.1345L10.8344 19.9132L11.6131 20.6919L11.6216 20.6833L10.843 19.9046ZM10.8344 19.9132L9.77199 19.6235L9.76942 19.6329L10.8318 19.9226L11.8942 20.2123L11.8968 20.2029L10.8344 19.9132ZM10.8318 19.9226L9.7316 19.9687L9.74701 20.337L10.8472 20.2909L11.9475 20.2449L11.9321 19.8766L10.8318 19.9226ZM10.8472 20.2909L9.83077 20.7145L9.83505 20.7248L10.8515 20.3012L11.868 19.8776L11.8637 19.8673L10.8472 20.2909ZM10.8515 20.3012L10.0728 21.0798L10.0797 21.0867L10.8584 20.308L11.6371 19.5294L11.6302 19.5226L10.8515 20.3012ZM10.8584 20.308L10.4001 21.3093L10.5722 21.3881L11.0305 20.3868L11.4888 19.3856L11.3167 19.3068L10.8584 20.308ZM11.0305 20.3868L10.7503 21.4518C10.8876 21.4879 11.0972 21.5151 11.3377 21.4488C11.5935 21.3782 11.7934 21.2266 11.9282 21.0514L11.0554 20.38L10.1825 19.7086C10.3116 19.5408 10.5045 19.394 10.7521 19.3257C10.9842 19.2617 11.1843 19.2886 11.3108 19.3219L11.0305 20.3868ZM11.0554 20.38L12.1142 20.6825L12.1176 20.6705L11.0588 20.368L9.99996 20.0655L9.99654 20.0775L11.0554 20.38ZM11.0588 20.368L12.1583 20.3071L12.1292 19.7812L11.0297 19.8421L9.93017 19.903L9.95929 20.4289L11.0588 20.368ZM11.0297 19.8421L12.0946 19.5619C12.0209 19.2819 11.7728 18.8523 11.2285 18.7435L11.0125 19.8233L10.7966 20.9031C10.5774 20.8592 10.3687 20.7463 10.2085 20.57C10.06 20.4067 9.99447 20.2353 9.96474 20.1224L11.0297 19.8421ZM10.4002 19.825L10.9709 18.8832C10.7244 18.7338 10.4298 18.6855 10.1487 18.748L10.3876 19.8229L10.6264 20.8979C10.3539 20.9584 10.0684 20.9116 9.82942 20.7667L10.4002 19.825ZM10.3876 19.8229L10.1487 18.748C9.8675 18.8104 9.62117 18.979 9.46116 19.2187L10.377 19.8301L11.2929 20.4415C11.1378 20.6739 10.899 20.8373 10.6264 20.8979L10.3876 19.8229ZM10.377 19.8301L9.36489 19.3963L9.35975 19.4083L10.3719 19.8421L11.384 20.2759L11.3892 20.2639L10.377 19.8301ZM10.3719 19.8421L9.27239 19.7812L9.24327 20.3071L10.3428 20.368L11.4423 20.4289L11.4714 19.903L10.3719 19.8421ZM10.3428 20.368L9.24328 20.4291C9.25246 20.5943 9.30156 20.8103 9.44825 21.0174C9.59766 21.2283 9.79415 21.3534 9.97068 21.4196L10.3573 20.3886L10.744 19.3575C10.9114 19.4203 11.1009 19.5402 11.2454 19.7443C11.3873 19.9446 11.4337 20.152 11.4423 20.3069L10.3428 20.368ZM10.3573 20.3886L10.5029 21.4801L10.5158 21.4784L10.3702 20.3868L10.2246 19.2953L10.2117 19.297L10.3573 20.3886ZM10.3702 20.3868L10.8326 21.3862L11.0047 21.3066L10.5423 20.3072L10.0799 19.3078L9.90777 19.3874L10.3702 20.3868ZM10.5423 20.3072L11.2302 21.1671L11.2388 21.1603L10.5509 20.3003L9.86303 19.4404L9.85447 19.4473L10.5423 20.3072ZM10.5509 20.3003L11.6133 20.59L11.6159 20.5806L10.5535 20.2909L9.49106 20.0012L9.48849 20.0106L10.5509 20.3003ZM10.5535 20.2909L11.6537 20.337L11.6691 19.9687L10.5689 19.9226L9.46866 19.8766L9.45324 20.2449L10.5535 20.2909ZM10.5689 19.9226L11.6372 19.6555L11.6346 19.6452L10.5663 19.9124L9.49801 20.1795L9.50058 20.1897L10.5689 19.9226ZM10.5663 19.9124L11.345 19.1337L11.3364 19.1251L10.5577 19.9038L9.77909 20.6824L9.78766 20.691L10.5663 19.9124ZM10.5577 19.9038L11.0502 18.9189L10.8926 18.8401L10.4002 19.825L9.90769 20.8099L10.0653 20.8887L10.5577 19.9038Z" fill="#25AF94" mask="url(#path-1-inside-1_914_2472)"/>
<path fill-rule="evenodd" clip-rule="evenodd" d="M16.6973 3.53979C16.887 3.42563 17.1137 3.38942 17.3296 3.43877C17.5455 3.48811 17.7339 3.61917 17.8552 3.80444L18.7031 5.09773C18.8137 5.26668 18.861 5.46925 18.8367 5.66968C18.8124 5.87011 18.7181 6.05551 18.5704 6.19317L18.5678 6.1966L18.5558 6.20773L18.507 6.25312L18.3143 6.43727C17.248 7.47161 16.214 8.53872 15.2138 9.63708C13.3321 11.7063 11.0976 14.4145 9.59361 17.0422C9.17393 17.7754 8.14872 17.933 7.54062 17.3L1.98634 11.5291C1.90674 11.4463 1.84459 11.3484 1.80358 11.2412C1.76257 11.134 1.74354 11.0196 1.74761 10.9048C1.75168 10.7901 1.77879 10.6774 1.8273 10.5733C1.87581 10.4693 1.94475 10.376 2.03002 10.2991L3.70872 8.78488C3.85624 8.65188 4.04541 8.57429 4.24383 8.56538C4.44226 8.55647 4.63761 8.61681 4.79645 8.73606L7.63055 10.861C12.0577 6.49551 14.5681 4.82023 16.6973 3.53979Z" fill="#25AF94"/>
</g>
<defs>
<clipPath id="clip0_914_2472">
<rect width="20.5556" height="20.5556" fill="white"/>
</clipPath>
</defs>
</svg>
