<svg width="57" height="57" viewBox="0 0 57 57" fill="none" xmlns="http://www.w3.org/2000/svg">
<circle cx="28.5" cy="28.5" r="28.5" fill="#DEEEEB"/>
<g clip-path="url(#clip0_303_43191)">
<mask id="path-2-inside-1_303_43191" fill="white">
<path fill-rule="evenodd" clip-rule="evenodd" d="M30.1654 47.2605L30.1461 47.2637L30.0323 47.3198L30.0003 47.3262L29.9778 47.3198L29.864 47.2621C29.8469 47.2578 29.8341 47.261 29.8255 47.2717L29.8191 47.2877L29.7919 47.9739L29.7999 48.0059L29.8159 48.0268L29.9826 48.1454L30.0067 48.1518L30.0259 48.1454L30.1926 48.0268L30.2119 48.0011L30.2183 47.9739L30.191 47.2893C30.1868 47.2722 30.1782 47.2626 30.1654 47.2605ZM30.5886 47.0793L30.5662 47.0825L30.2712 47.2316L30.2552 47.2476L30.2503 47.2653L30.2792 47.9546L30.2872 47.9739L30.3 47.9867L30.6223 48.1342C30.6426 48.1395 30.6581 48.1352 30.6688 48.1213L30.6752 48.0989L30.6207 47.1146C30.6153 47.0943 30.6046 47.0825 30.5886 47.0793ZM29.4424 47.0825C29.4353 47.0782 29.4269 47.0769 29.4188 47.0786C29.4107 47.0804 29.4037 47.0853 29.3991 47.0921L29.3895 47.1146L29.335 48.0989C29.336 48.1181 29.3451 48.131 29.3622 48.1374L29.3863 48.1342L29.7085 47.9851L29.7245 47.9723L29.7293 47.9546L29.7582 47.2653L29.7534 47.246L29.7373 47.23L29.4424 47.0825Z"/>
</mask>
<path d="M30.1654 47.2605L30.4234 45.7126L30.1653 45.6696L29.9073 45.7126L30.1654 47.2605ZM30.1461 47.2637L29.8881 45.7158L29.6598 45.7539L29.4523 45.8562L30.1461 47.2637ZM30.0323 47.3198L30.3401 48.8585L30.5417 48.8182L30.7261 48.7273L30.0323 47.3198ZM30.0003 47.3262L29.5692 48.835L29.935 48.9395L30.308 48.8649L30.0003 47.3262ZM29.9778 47.3198L29.2682 48.7194L29.4022 48.7873L29.5468 48.8286L29.9778 47.3198ZM29.864 47.2621L30.5736 45.8625L30.416 45.7826L30.2446 45.7397L29.864 47.2621ZM29.8255 47.2717L28.6002 46.2914L28.4549 46.473L28.3685 46.689L29.8255 47.2717ZM29.8191 47.2877L28.3621 46.705L28.2619 46.9557L28.2511 47.2254L29.8191 47.2877ZM29.7919 47.9739L28.2239 47.9116L28.215 48.1363L28.2695 48.3544L29.7919 47.9739ZM29.7999 48.0059L28.2775 48.3865L28.3568 48.7036L28.5561 48.9627L29.7999 48.0059ZM29.8159 48.0268L28.5721 48.9835L28.7151 49.1694L28.9062 49.3053L29.8159 48.0268ZM29.9826 48.1454L29.0729 49.424L29.3041 49.5885L29.5783 49.6616L29.9826 48.1454ZM30.0067 48.1518L29.6024 49.668L30.0567 49.7892L30.5029 49.6405L30.0067 48.1518ZM30.0259 48.1454L30.5221 49.6341L30.7446 49.5599L30.9357 49.424L30.0259 48.1454ZM30.1926 48.0268L31.1024 49.3053L31.3014 49.1637L31.448 48.9683L30.1926 48.0268ZM30.2119 48.0011L31.4672 48.9426L31.6642 48.68L31.7394 48.3605L30.2119 48.0011ZM30.2183 47.9739L31.7458 48.3332L31.7947 48.1251L31.7862 47.9114L30.2183 47.9739ZM30.191 47.2893L31.759 47.2269L31.7526 47.0655L31.7134 46.9087L30.191 47.2893ZM30.5886 47.0793L30.8964 45.5406L30.6328 45.4879L30.3668 45.5259L30.5886 47.0793ZM30.5662 47.0825L30.3444 45.5291L30.0888 45.5656L29.8583 45.682L30.5662 47.0825ZM30.2712 47.2316L29.5633 45.8311L29.3392 45.9444L29.1616 46.122L30.2712 47.2316ZM30.2552 47.2476L29.1456 46.1381L28.8509 46.4328L28.7412 46.8348L30.2552 47.2476ZM30.2503 47.2653L28.7364 46.8525L28.6723 47.0875L28.6825 47.3309L30.2503 47.2653ZM30.2792 47.9546L28.7114 48.0203L28.7231 48.2999L28.8307 48.5582L30.2792 47.9546ZM30.2872 47.9739L28.8387 48.5774L28.9581 48.8639L29.1776 49.0834L30.2872 47.9739ZM30.3 47.9867L29.1904 49.0962L29.3901 49.296L29.647 49.4135L30.3 47.9867ZM30.6223 48.1342L29.9692 49.561L30.0922 49.6173L30.2229 49.6517L30.6223 48.1342ZM30.6688 48.1213L31.9125 49.0781L32.0953 48.8406L32.1776 48.5524L30.6688 48.1213ZM30.6752 48.0989L32.184 48.53L32.2566 48.2759L32.242 48.0121L30.6752 48.0989ZM30.6207 47.1146L32.1875 47.0278L32.1787 46.869L32.1382 46.7152L30.6207 47.1146ZM29.4424 47.0825L28.6291 48.4245L28.6836 48.4575L28.7406 48.4861L29.4424 47.0825ZM29.3991 47.0921L28.094 46.2209L28.0137 46.3411L27.9568 46.474L29.3991 47.0921ZM29.3895 47.1146L27.9472 46.4964L27.838 46.7511L27.8227 47.0278L29.3895 47.1146ZM29.335 48.0989L27.7682 48.0121L27.7634 48.099L27.7682 48.1859L29.335 48.0989ZM29.3622 48.1374L28.8112 49.6067L29.1797 49.7448L29.5697 49.6928L29.3622 48.1374ZM29.3863 48.1342L29.5937 49.6896L29.8294 49.6582L30.0452 49.5583L29.3863 48.1342ZM29.7085 47.9851L30.3674 49.4092L30.5401 49.3293L30.6887 49.2105L29.7085 47.9851ZM29.7245 47.9723L30.7047 49.1976L31.104 48.8783L31.2384 48.3851L29.7245 47.9723ZM29.7293 47.9546L31.2433 48.3674L31.2898 48.1969L31.2972 48.0203L29.7293 47.9546ZM29.7582 47.2653L31.326 47.3309L31.3355 47.1045L31.2805 46.8846L29.7582 47.2653ZM29.7534 47.246L31.2757 46.8654L31.1703 46.4438L30.863 46.1365L29.7534 47.246ZM29.7373 47.23L30.8469 46.1204L30.6669 45.9404L30.4391 45.8265L29.7373 47.23ZM30.1654 47.2605L29.9073 45.7126L29.8881 45.7158L30.1461 47.2637L30.4042 48.8115L30.4235 48.8083L30.1654 47.2605ZM30.1461 47.2637L29.4523 45.8562L29.3385 45.9123L30.0323 47.3198L30.7261 48.7273L30.84 48.6712L30.1461 47.2637ZM30.0323 47.3198L29.7246 45.7811L29.6925 45.7875L30.0003 47.3262L30.308 48.8649L30.3401 48.8585L30.0323 47.3198ZM30.0003 47.3262L30.4313 45.8174L30.4089 45.811L29.9778 47.3198L29.5468 48.8286L29.5692 48.835L30.0003 47.3262ZM29.9778 47.3198L30.6874 45.9202L30.5736 45.8625L29.864 47.2621L29.1544 48.6616L29.2682 48.7194L29.9778 47.3198ZM29.864 47.2621L30.2446 45.7397C30.0662 45.6951 29.7867 45.6575 29.4611 45.7389C29.1089 45.8269 28.811 46.0279 28.6002 46.2914L29.8255 47.2717L31.0509 48.252C30.8486 48.5048 30.5614 48.6988 30.222 48.7836C29.9092 48.8618 29.6447 48.8247 29.4834 48.7844L29.864 47.2621ZM29.8255 47.2717L28.3685 46.689L28.3621 46.705L29.8191 47.2877L31.2761 47.8705L31.2825 47.8544L29.8255 47.2717ZM29.8191 47.2877L28.2511 47.2254L28.2239 47.9116L29.7919 47.9739L31.3598 48.0361L31.3871 47.35L29.8191 47.2877ZM29.7919 47.9739L28.2695 48.3544L28.2775 48.3865L29.7999 48.0059L31.3222 47.6253L31.3142 47.5933L29.7919 47.9739ZM29.7999 48.0059L28.5561 48.9627L28.5721 48.9835L29.8159 48.0268L31.0597 47.07L31.0437 47.0492L29.7999 48.0059ZM29.8159 48.0268L28.9062 49.3053L29.0729 49.424L29.9826 48.1454L30.8924 46.8668L30.7256 46.7482L29.8159 48.0268ZM29.9826 48.1454L29.5783 49.6616L29.6024 49.668L30.0067 48.1518L30.411 46.6356L30.3869 46.6292L29.9826 48.1454ZM30.0067 48.1518L30.5029 49.6405L30.5221 49.6341L30.0259 48.1454L29.5297 46.6567L29.5105 46.6631L30.0067 48.1518ZM30.0259 48.1454L30.9357 49.424L31.1024 49.3053L30.1926 48.0268L29.2829 46.7482L29.1162 46.8668L30.0259 48.1454ZM30.1926 48.0268L31.448 48.9683L31.4672 48.9426L30.2119 48.0011L28.9565 47.0596L28.9373 47.0853L30.1926 48.0268ZM30.2119 48.0011L31.7394 48.3605L31.7458 48.3332L30.2183 47.9739L28.6908 47.6145L28.6844 47.6417L30.2119 48.0011ZM30.2183 47.9739L31.7862 47.9114L31.759 47.2269L30.191 47.2893L28.6231 47.3517L28.6503 48.0363L30.2183 47.9739ZM30.191 47.2893L31.7134 46.9087C31.6219 46.5426 31.2772 45.8549 30.4234 45.7126L30.1654 47.2605L29.9074 48.8083C29.5641 48.7511 29.2452 48.578 29.0086 48.3118C28.7941 48.0706 28.7064 47.8207 28.6687 47.6699L30.191 47.2893ZM30.5886 47.0793L30.3668 45.5259L30.3444 45.5291L30.5662 47.0825L30.788 48.636L30.8104 48.6328L30.5886 47.0793ZM30.5662 47.0825L29.8583 45.682L29.5633 45.8311L30.2712 47.2316L30.979 48.6321L31.274 48.483L30.5662 47.0825ZM30.2712 47.2316L29.1616 46.122L29.1456 46.1381L30.2552 47.2476L31.3647 48.3572L31.3808 48.3412L30.2712 47.2316ZM30.2552 47.2476L28.7412 46.8348L28.7364 46.8525L30.2503 47.2653L31.7643 47.6781L31.7691 47.6605L30.2552 47.2476ZM30.2503 47.2653L28.6825 47.3309L28.7114 48.0203L30.2792 47.9546L31.847 47.889L31.8182 47.1997L30.2503 47.2653ZM30.2792 47.9546L28.8307 48.5582L28.8387 48.5774L30.2872 47.9739L31.7357 47.3703L31.7277 47.351L30.2792 47.9546ZM30.2872 47.9739L29.1776 49.0834L29.1904 49.0962L30.3 47.9867L31.4097 46.8772L31.3969 46.8643L30.2872 47.9739ZM30.3 47.9867L29.647 49.4135L29.9692 49.561L30.6223 48.1342L31.2753 46.7073L30.9531 46.5598L30.3 47.9867ZM30.6223 48.1342L30.2229 49.6517C30.421 49.7038 30.7219 49.7427 31.0664 49.6477C31.4328 49.5466 31.7193 49.3294 31.9125 49.0781L30.6688 48.1213L29.425 47.1646C29.6076 46.9272 29.881 46.7191 30.2319 46.6223C30.5609 46.5315 30.8438 46.5699 31.0216 46.6166L30.6223 48.1342ZM30.6688 48.1213L32.1776 48.5524L32.184 48.53L30.6752 48.0989L29.1663 47.6678L29.1599 47.6903L30.6688 48.1213ZM30.6752 48.0989L32.242 48.0121L32.1875 47.0278L30.6207 47.1146L29.0539 47.2013L29.1084 48.1857L30.6752 48.0989ZM30.6207 47.1146L32.1382 46.7152C32.0319 46.3114 31.6758 45.6965 30.8964 45.5406L30.5886 47.0793L30.2809 48.618C29.9704 48.5559 29.6747 48.3959 29.4476 48.1461C29.2373 47.9148 29.1449 47.6725 29.1031 47.5139L30.6207 47.1146ZM29.4424 47.0825L30.2557 45.7405C29.9027 45.5266 29.4809 45.4574 29.0784 45.5468L29.4188 47.0786L29.7592 48.6105C29.3728 48.6963 28.9679 48.6299 28.6291 48.4245L29.4424 47.0825ZM29.4188 47.0786L29.0784 45.5468C28.6758 45.6363 28.3231 45.8777 28.094 46.2209L29.3991 47.0921L30.7042 47.9634C30.4843 48.2928 30.1457 48.5246 29.7592 48.6105L29.4188 47.0786ZM29.3991 47.0921L27.9568 46.474L27.9472 46.4964L29.3895 47.1146L30.8318 47.7328L30.8414 47.7103L29.3991 47.0921ZM29.3895 47.1146L27.8227 47.0278L27.7682 48.0121L29.335 48.0989L30.9018 48.1857L30.9563 47.2013L29.3895 47.1146ZM29.335 48.0989L27.7682 48.1859C27.7814 48.4237 27.852 48.7333 28.0621 49.03C28.2761 49.3321 28.5576 49.5116 28.8112 49.6067L29.3622 48.1374L29.9132 46.6681C30.1497 46.7568 30.4182 46.9266 30.6231 47.2159C30.8241 47.4997 30.8896 47.7934 30.9017 48.0119L29.335 48.0989ZM29.3622 48.1374L29.5697 49.6928L29.5937 49.6896L29.3863 48.1342L29.1788 46.5788L29.1547 46.582L29.3622 48.1374ZM29.3863 48.1342L30.0452 49.5583L30.3674 49.4092L29.7085 47.9851L29.0496 46.5609L28.7273 46.71L29.3863 48.1342ZM29.7085 47.9851L30.6887 49.2105L30.7047 49.1976L29.7245 47.9723L28.7443 46.7469L28.7283 46.7597L29.7085 47.9851ZM29.7245 47.9723L31.2384 48.3851L31.2433 48.3674L29.7293 47.9546L28.2154 47.5418L28.2106 47.5595L29.7245 47.9723ZM29.7293 47.9546L31.2972 48.0203L31.326 47.3309L29.7582 47.2653L28.1904 47.1996L28.1615 47.889L29.7293 47.9546ZM29.7582 47.2653L31.2805 46.8846L31.2757 46.8654L29.7534 47.246L28.231 47.6267L28.2359 47.6459L29.7582 47.2653ZM29.7534 47.246L30.863 46.1365L30.8469 46.1204L29.7373 47.23L28.6278 48.3396L28.6438 48.3556L29.7534 47.246ZM29.7373 47.23L30.4391 45.8265L30.1441 45.679L29.4424 47.0825L28.7406 48.4861L29.0356 48.6335L29.7373 47.23Z" fill="white" mask="url(#path-2-inside-1_303_43191)"/>
<path fill-rule="evenodd" clip-rule="evenodd" d="M41.2282 16.6005C41.5835 16.3868 42.0077 16.319 42.4118 16.4114C42.8159 16.5038 43.1685 16.7491 43.3957 17.0959L44.9828 19.5166C45.1897 19.8328 45.2782 20.212 45.2327 20.5871C45.1873 20.9623 45.0107 21.3093 44.7343 21.567L44.7295 21.5734L44.707 21.5942L44.6156 21.6792L44.2549 22.0239C42.2591 23.9599 40.3238 25.9573 38.4516 28.0131C34.9296 31.8863 30.747 36.9554 27.9319 41.8738C27.1464 43.246 25.2275 43.541 24.0892 42.3563L13.693 31.5544C13.544 31.3996 13.4277 31.2163 13.3509 31.0156C13.2741 30.8149 13.2385 30.6008 13.2461 30.3861C13.2538 30.1713 13.3045 29.9603 13.3953 29.7655C13.4861 29.5708 13.6151 29.3962 13.7747 29.2524L16.9169 26.418C17.193 26.1691 17.547 26.0238 17.9184 26.0072C18.2899 25.9905 18.6555 26.1034 18.9528 26.3266L24.2576 30.304C32.5441 22.1329 37.2429 18.9972 41.2282 16.6005Z" fill="white"/>
</g>
<defs>
<clipPath id="clip0_303_43191">
<rect width="38.475" height="38.475" fill="white" transform="translate(9.97559 9.97485)"/>
</clipPath>
</defs>
</svg>
