<svg width="22" height="22" viewBox="0 0 22 22" fill="none" xmlns="http://www.w3.org/2000/svg">
<path d="M10.9998 13.3333L2.83317 21.5C2.52761 21.8055 2.13873 21.9583 1.6665 21.9583C1.19428 21.9583 0.805392 21.8055 0.499837 21.5C0.194281 21.1944 0.0415039 20.8055 0.0415039 20.3333C0.0415039 19.8611 0.194281 19.4722 0.499837 19.1666L8.6665 11L0.499837 2.83329C0.194281 2.52774 0.0415039 2.13885 0.0415039 1.66663C0.0415039 1.1944 0.194281 0.805514 0.499837 0.499959C0.805392 0.194403 1.19428 0.041626 1.6665 0.041626C2.13873 0.041626 2.52761 0.194403 2.83317 0.499959L10.9998 8.66663L19.1665 0.499959C19.4721 0.194403 19.861 0.041626 20.3332 0.041626C20.8054 0.041626 21.1943 0.194403 21.4998 0.499959C21.8054 0.805514 21.9582 1.1944 21.9582 1.66663C21.9582 2.13885 21.8054 2.52774 21.4998 2.83329L13.3332 11L21.4998 19.1666C21.8054 19.4722 21.9582 19.8611 21.9582 20.3333C21.9582 20.8055 21.8054 21.1944 21.4998 21.5C21.1943 21.8055 20.8054 21.9583 20.3332 21.9583C19.861 21.9583 19.4721 21.8055 19.1665 21.5L10.9998 13.3333Z" fill="white"/>
</svg>
