<svg width="17" height="18" viewBox="0 0 17 18" fill="none" xmlns="http://www.w3.org/2000/svg">
<path fill-rule="evenodd" clip-rule="evenodd" d="M0 13.8571C0 14.8626 0.813571 15.6786 1.819 15.6786H15.181C16.1864 15.6786 17 14.8626 17 13.8571V11.3873C17.0001 11.2539 16.9563 11.1241 16.8753 11.0181C16.7943 10.9121 16.6807 10.8357 16.5519 10.8008C16.1568 10.6932 15.808 10.4586 15.5593 10.1332C15.3107 9.80773 15.1759 9.40955 15.1759 9C15.1759 8.59045 15.3107 8.19227 15.5593 7.86684C15.808 7.54142 16.1568 7.30682 16.5519 7.19921C16.6807 7.16426 16.7943 7.08788 16.8753 6.98186C16.9563 6.87585 17.0001 6.74612 17 6.61271V4.14285C17 3.13743 16.1864 2.32143 15.181 2.32143H1.819C0.813571 2.32143 0 3.13743 0 4.14285V6.60786C0.000161446 6.7419 0.0446791 6.87213 0.12661 6.97822C0.208541 7.08431 0.323279 7.16031 0.452929 7.19436C0.852277 7.29878 1.20574 7.53265 1.45801 7.85937C1.71028 8.18609 1.84712 8.58722 1.84712 9C1.84712 9.41277 1.71028 9.81391 1.45801 10.1406C1.20574 10.4673 0.852277 10.7012 0.452929 10.8056C0.323279 10.8397 0.208541 10.9157 0.12661 11.0218C0.0446791 11.1279 0.000161446 11.2581 0 11.3921L0 13.8571ZM6.02529 12.5724L12.0967 6.501C12.2322 6.35743 12.3064 6.16672 12.3036 5.96933C12.3009 5.77194 12.2213 5.58341 12.0817 5.44374C11.9422 5.30407 11.7538 5.22426 11.5564 5.22124C11.359 5.21822 11.1682 5.29223 11.0245 5.42757L4.95307 11.499C4.87915 11.5686 4.81994 11.6524 4.77897 11.7453C4.73799 11.8382 4.71608 11.9384 4.71453 12.0399C4.71297 12.1414 4.73181 12.2422 4.76993 12.3364C4.80804 12.4305 4.86466 12.516 4.93642 12.5878C5.00818 12.6597 5.09363 12.7164 5.18771 12.7546C5.28179 12.7928 5.38258 12.8118 5.48411 12.8104C5.58565 12.8089 5.68586 12.7871 5.77882 12.7463C5.87178 12.7054 5.95559 12.6463 6.02529 12.5724ZM4.88264 6.57143C4.88264 6.24938 5.01058 5.94052 5.2383 5.7128C5.46602 5.48507 5.77488 5.35714 6.09693 5.35714C6.41898 5.35714 6.72784 5.48507 6.95556 5.7128C7.18328 5.94052 7.31121 6.24938 7.31121 6.57143C7.31121 6.89348 7.18328 7.20233 6.95556 7.43006C6.72784 7.65778 6.41898 7.78571 6.09693 7.78571C5.77488 7.78571 5.46602 7.65778 5.2383 7.43006C5.01058 7.20233 4.88264 6.89348 4.88264 6.57143ZM9.73979 11.4286C9.73979 11.1065 9.86772 10.7977 10.0954 10.5699C10.3232 10.3422 10.632 10.2143 10.9541 10.2143C11.2761 10.2143 11.585 10.3422 11.8127 10.5699C12.0404 10.7977 12.1684 11.1065 12.1684 11.4286C12.1684 11.7506 12.0404 12.0595 11.8127 12.2872C11.585 12.5149 11.2761 12.6429 10.9541 12.6429C10.632 12.6429 10.3232 12.5149 10.0954 12.2872C9.86772 12.0595 9.73979 11.7506 9.73979 11.4286Z" fill="white"/>
</svg>
