<svg width="17" height="18" viewBox="0 0 17 18" fill="none" xmlns="http://www.w3.org/2000/svg">
<path fill-rule="evenodd" clip-rule="evenodd" d="M0 13.8571C0 14.8626 0.813571 15.6786 1.819 15.6786H15.181C16.1864 15.6786 17 14.8626 17 13.8571V11.3873C17.0001 11.2539 16.9563 11.1241 16.8753 11.0181C16.7943 10.9121 16.6807 10.8357 16.5519 10.8008C16.1568 10.6932 15.808 10.4586 15.5593 10.1331C15.3107 9.80771 15.1759 9.40953 15.1759 8.99998C15.1759 8.59043 15.3107 8.19225 15.5593 7.86683C15.808 7.5414 16.1568 7.3068 16.5519 7.1992C16.6807 7.16424 16.7943 7.08786 16.8753 6.98185C16.9563 6.87584 17.0001 6.7461 17 6.6127V4.14284C17 3.13741 16.1864 2.32141 15.181 2.32141H1.819C0.813571 2.32141 0 3.13741 0 4.14284V6.60784C0.000161446 6.74189 0.0446791 6.87211 0.12661 6.9782C0.208541 7.0843 0.323279 7.16029 0.452929 7.19434C0.852277 7.29877 1.20574 7.53264 1.45801 7.85936C1.71028 8.18608 1.84712 8.58721 1.84712 8.99998C1.84712 9.41276 1.71028 9.81389 1.45801 10.1406C1.20574 10.4673 0.852277 10.7012 0.452929 10.8056C0.323279 10.8397 0.208541 10.9157 0.12661 11.0218C0.0446791 11.1279 0.000161446 11.2581 0 11.3921L0 13.8571ZM6.02529 12.5724L12.0967 6.50098C12.2322 6.35742 12.3064 6.16671 12.3036 5.96932C12.3009 5.77193 12.2213 5.58339 12.0817 5.44372C11.9422 5.30405 11.7538 5.22424 11.5564 5.22122C11.359 5.2182 11.1682 5.29222 11.0245 5.42755L4.95307 11.499C4.87915 11.5686 4.81994 11.6523 4.77897 11.7453C4.73799 11.8382 4.71608 11.9384 4.71453 12.0399C4.71297 12.1414 4.73181 12.2422 4.76993 12.3364C4.80804 12.4305 4.86466 12.516 4.93642 12.5878C5.00818 12.6597 5.09363 12.7164 5.18771 12.7546C5.28179 12.7928 5.38258 12.8118 5.48411 12.8103C5.58565 12.8089 5.68586 12.7871 5.77882 12.7462C5.87178 12.7054 5.95559 12.6463 6.02529 12.5724ZM4.88264 6.57141C4.88264 6.24936 5.01058 5.9405 5.2383 5.71278C5.46602 5.48506 5.77488 5.35713 6.09693 5.35713C6.41898 5.35713 6.72784 5.48506 6.95556 5.71278C7.18328 5.9405 7.31121 6.24936 7.31121 6.57141C7.31121 6.89346 7.18328 7.20232 6.95556 7.43004C6.72784 7.65776 6.41898 7.7857 6.09693 7.7857C5.77488 7.7857 5.46602 7.65776 5.2383 7.43004C5.01058 7.20232 4.88264 6.89346 4.88264 6.57141ZM9.73979 11.4286C9.73979 11.1065 9.86772 10.7976 10.0954 10.5699C10.3232 10.3422 10.632 10.2143 10.9541 10.2143C11.2761 10.2143 11.585 10.3422 11.8127 10.5699C12.0404 10.7976 12.1684 11.1065 12.1684 11.4286C12.1684 11.7506 12.0404 12.0595 11.8127 12.2872C11.585 12.5149 11.2761 12.6428 10.9541 12.6428C10.632 12.6428 10.3232 12.5149 10.0954 12.2872C9.86772 12.0595 9.73979 11.7506 9.73979 11.4286Z" fill="#84DFCD"/>
</svg>
