<svg width="42" height="42" viewBox="0 0 42 42" fill="none" xmlns="http://www.w3.org/2000/svg">
<circle cx="21" cy="21" r="21" fill="#76D4C1"/>
<path d="M11.9342 11.705C11.3255 11.705 10.7418 11.9468 10.3114 12.3772C9.88096 12.8076 9.63916 13.3913 9.63916 14V18.5902C10.2479 18.5902 10.8316 18.832 11.262 19.2624C11.6924 19.6928 11.9342 20.2766 11.9342 20.8853C11.9342 21.494 11.6924 22.0777 11.262 22.5082C10.8316 22.9386 10.2479 23.1804 9.63916 23.1804V27.7705C9.63916 28.3792 9.88096 28.963 10.3114 29.3934C10.7418 29.8238 11.3255 30.0656 11.9342 30.0656H30.2949C30.9036 30.0656 31.4874 29.8238 31.9178 29.3934C32.3482 28.963 32.59 28.3792 32.59 27.7705V23.1804C31.9813 23.1804 31.3975 22.9386 30.9671 22.5082C30.5367 22.0777 30.2949 21.494 30.2949 20.8853C30.2949 20.2766 30.5367 19.6928 30.9671 19.2624C31.3975 18.832 31.9813 18.5902 32.59 18.5902V14C32.59 13.3913 32.3482 12.8076 31.9178 12.3772C31.4874 11.9468 30.9036 11.705 30.2949 11.705H11.9342ZM25.131 15.1476L26.8523 16.8689L17.0982 26.623L15.3769 24.9017L25.131 15.1476ZM17.4539 15.1935C18.5785 15.1935 19.4851 16.1 19.4851 17.2246C19.4851 17.7633 19.2711 18.28 18.8902 18.6609C18.5092 19.0418 17.9926 19.2558 17.4539 19.2558C16.3293 19.2558 15.4228 18.3492 15.4228 17.2246C15.4228 16.6859 15.6368 16.1693 16.0177 15.7884C16.3986 15.4075 16.9152 15.1935 17.4539 15.1935ZM24.7752 22.5148C25.8998 22.5148 26.8064 23.4213 26.8064 24.5459C26.8064 25.0846 26.5924 25.6013 26.2115 25.9822C25.8306 26.3631 25.3139 26.5771 24.7752 26.5771C23.6506 26.5771 22.7441 25.6705 22.7441 24.5459C22.7441 24.0072 22.9581 23.4906 23.339 23.1097C23.7199 22.7288 24.2365 22.5148 24.7752 22.5148Z" fill="white"/>
</svg>
