<svg width="25" height="28" viewBox="0 0 25 28" fill="none" xmlns="http://www.w3.org/2000/svg">
<path d="M0.277044 1.84742C0.185899 1.15624 0.72382 0.542725 1.42099 0.542725H23.2327C23.9298 0.542725 24.4677 1.15624 24.3766 1.84742L21.189 26.0204C21.1133 26.5943 20.624 27.0233 20.045 27.0233H4.60862C4.02968 27.0233 3.54037 26.5943 3.46468 26.0204L0.277044 1.84742Z" fill="#CCDDDA"/>
<path d="M2.31618 1.84907L5.05906 22.4207C5.13757 23.0095 5.65031 23.4425 6.24396 23.4213L18.5071 22.9833C19.0585 22.9636 19.5188 22.5563 19.6055 22.0115L22.8085 1.87786C22.92 1.17711 22.3786 0.542725 21.669 0.542725H3.4599C2.76207 0.542725 2.22395 1.15736 2.31618 1.84907Z" fill="#EEF6F8"/>
<path d="M5.06635 23.4725L3.76745 13.5142C3.70806 13.0589 3.92187 12.6026 4.33795 12.4085C8.08585 10.66 11.3659 13.2361 13.7642 13.764C13.8249 13.7774 13.8848 13.7945 13.9431 13.8157C17.9702 15.2836 20.8154 13.4385 20.9839 12.7645L19.5872 23.4725C19.5123 24.0471 19.0226 24.4771 18.4431 24.4771H6.21051C5.63095 24.4771 5.14131 24.0471 5.06635 23.4725Z" fill="url(#paint0_linear_139_2736)"/>
<defs>
<linearGradient id="paint0_linear_139_2736" x1="12.5814" y1="11.8083" x2="12.5814" y2="24.4771" gradientUnits="userSpaceOnUse">
<stop stop-color="#86F7E8"/>
<stop offset="1" stop-color="#C2FFF3"/>
</linearGradient>
</defs>
</svg>
