<svg width="17" height="17" viewBox="0 0 17 17" fill="none" xmlns="http://www.w3.org/2000/svg">
<path d="M9.0498 2.49536C10.0734 2.49536 10.8193 3.23816 10.8193 4.04614V8.39771L11.6338 7.73853C12.3092 7.19255 13.4582 7.21865 14.1006 7.79907C14.4275 8.09462 14.5996 8.48435 14.5996 8.87817C14.5996 9.27203 14.4275 9.6617 14.1006 9.95728L9.0498 14.5208L4 9.95728C3.67303 9.66169 3.5 9.27206 3.5 8.87817C3.50005 8.48435 3.67308 8.09462 4 7.79907C4.6426 7.21883 5.79155 7.19235 6.4668 7.73853L7.28125 8.39771V4.04614C7.28125 3.23821 8.0263 2.49546 9.0498 2.49536ZM10.3066 4.03345L10.3057 4.02075C10.2897 3.70003 10.138 3.4087 9.90039 3.20337C9.66414 2.99921 9.35865 2.89185 9.0498 2.89185C8.74118 2.89189 8.43635 2.99944 8.2002 3.20337C7.9626 3.40871 7.80994 3.70002 7.79395 4.02075V9.51978L6.1377 8.02368C5.89925 7.80844 5.58601 7.69464 5.26855 7.69458C5.03075 7.69426 4.79469 7.75774 4.58984 7.8811C4.38436 8.00489 4.21592 8.18661 4.11426 8.40845C4.01233 8.63102 3.98496 8.87921 4.03809 9.11938C4.09104 9.35855 4.21966 9.5704 4.39844 9.73169V9.73267L8.71484 13.6331L9.0498 13.9368L9.38477 13.6331L13.7012 9.73267C13.9414 9.51554 14.0879 9.20926 14.0879 8.87817C14.0878 8.54716 13.9413 8.24175 13.7012 8.02466V8.02368L13.6943 8.01782L13.6016 7.94458C13.3778 7.78434 13.1065 7.70054 12.832 7.70044C12.5183 7.70044 12.208 7.8099 11.9688 8.01782L11.9619 8.02368L10.3066 9.5188V4.03345Z" fill="#25AF94" stroke="#ABABAB"/>
</svg>
