<svg width="17" height="17" viewBox="0 0 17 17" fill="none" xmlns="http://www.w3.org/2000/svg">
<path d="M9.33301 4.56665H14.0947V9.32837C14.0947 10.6689 13.6368 11.7843 12.7129 12.7083C11.789 13.6322 10.6735 14.0901 9.33301 14.0901C8.77135 14.0901 8.2502 14.0025 7.76562 13.8313C7.27363 13.6575 6.82489 13.4127 6.41797 13.095L6.02344 12.7864L5.66602 13.1379L4.7334 14.054H4.73242L4.72949 14.0579C4.722 14.0654 4.71795 14.0668 4.71582 14.0676C4.71229 14.069 4.6982 14.0735 4.66699 14.0735C4.63481 14.0735 4.62031 14.0689 4.61719 14.0676C4.61508 14.0668 4.61179 14.0651 4.60449 14.0579C4.597 14.0504 4.59556 14.0463 4.59473 14.0442C4.59337 14.0407 4.58791 14.0267 4.58789 13.9954C4.58789 13.9632 4.5935 13.9487 4.59473 13.9456C4.59559 13.9434 4.5974 13.94 4.60449 13.9329L5.52051 13.0159L5.87793 12.6584L5.56738 12.26C5.2509 11.8545 5.00509 11.4043 4.83105 10.9065C4.65925 10.4149 4.57171 9.89004 4.57129 9.32837L4.57715 9.08032C4.63084 7.84973 5.08784 6.81572 5.9541 5.94946C6.87796 5.02561 7.9926 4.56671 9.33301 4.56665ZM9.33301 4.75708C8.0722 4.75714 6.98179 5.20498 6.0957 6.09106C5.20962 6.97715 4.76178 8.06756 4.76172 9.32837C4.76172 9.82129 4.8382 10.2973 4.99219 10.7532C5.14305 11.1997 5.35238 11.6101 5.62109 11.9807L6.01367 12.5227L9.9375 8.59888C9.94429 8.59215 9.94806 8.59094 9.9502 8.59009C9.95332 8.58886 9.96782 8.58325 10 8.58325C10.0313 8.58326 10.0452 8.58871 10.0488 8.59009C10.0509 8.59091 10.0552 8.59159 10.0625 8.59888C10.082 8.61833 10.0879 8.63128 10.0898 8.63599C10.0917 8.64044 10.0947 8.6499 10.0947 8.67017C10.0947 8.69107 10.0916 8.70119 10.0898 8.70532C10.0879 8.70992 10.0822 8.7218 10.0635 8.74048L6.13867 12.6653L6.68164 13.0579C7.05431 13.3277 7.46697 13.5353 7.91602 13.6809C8.36988 13.8281 8.84312 13.8991 9.33301 13.8987C10.5939 13.8987 11.6842 13.4518 12.5703 12.5657C13.4565 11.6795 13.9043 10.5893 13.9043 9.32837V4.75708H9.33301Z" fill="#ABABAB" stroke="#ABABAB" stroke-width="1.14284"/>
</svg>
