<svg width="17" height="17" viewBox="0 0 17 17" fill="none" xmlns="http://www.w3.org/2000/svg">
<path d="M7.9773 3.48914C8.06485 3.33889 8.19027 3.21424 8.34104 3.1276C8.4918 3.04096 8.66265 2.99536 8.83654 2.99536C9.01043 2.99536 9.18128 3.04096 9.33205 3.1276C9.48282 3.21424 9.60823 3.33889 9.69579 3.48914L10.9011 5.55768C10.9705 5.67707 11.064 5.7807 11.1756 5.86197C11.2873 5.94324 11.4146 6.00038 11.5495 6.02973L13.8899 6.53626C14.0598 6.5732 14.217 6.65402 14.3459 6.77066C14.4748 6.88731 14.5709 7.0357 14.6245 7.20106C14.6782 7.36641 14.6876 7.54294 14.6517 7.71304C14.6159 7.88315 14.5361 8.04089 14.4203 8.17055L12.8258 9.95599C12.7338 10.0589 12.6643 10.1799 12.6216 10.3111C12.5789 10.4424 12.564 10.5811 12.5778 10.7184L12.8185 13.1006C12.836 13.2736 12.8079 13.4482 12.7369 13.607C12.6658 13.7657 12.5544 13.9031 12.4137 14.0053C12.273 14.1076 12.108 14.1712 11.9351 14.1897C11.7621 14.2082 11.5874 14.1811 11.4282 14.111L9.23766 13.1457C9.11127 13.09 8.97466 13.0612 8.83654 13.0612C8.69842 13.0612 8.56182 13.09 8.43543 13.1457L6.24489 14.111C6.08573 14.1811 5.91096 14.2082 5.73803 14.1897C5.5651 14.1712 5.40005 14.1076 5.25936 14.0053C5.11867 13.9031 5.00725 13.7657 4.93623 13.607C4.8652 13.4482 4.83705 13.2736 4.85459 13.1006L5.09526 10.7184C5.10919 10.5811 5.0944 10.4425 5.05183 10.3112C5.00925 10.1799 4.93983 10.059 4.84796 9.95599L3.2528 8.17055C3.13699 8.04089 3.05719 7.88315 3.02136 7.71304C2.98552 7.54294 2.99491 7.36641 3.04857 7.20106C3.10223 7.0357 3.1983 6.88731 3.3272 6.77066C3.4561 6.65402 3.61332 6.5732 3.78319 6.53626L6.12357 6.02973C6.25856 6.00054 6.38599 5.94355 6.49774 5.86239C6.60949 5.78123 6.70311 5.67768 6.77264 5.55834L7.9773 3.48914Z" stroke="#25AF94" stroke-width="1.2" stroke-linecap="round" stroke-linejoin="round"/>
</svg>
