<svg width="24" height="24" viewBox="0 0 24 24" fill="none" xmlns="http://www.w3.org/2000/svg">
<path d="M20.4 2.3999C21.3183 2.39985 22.2018 2.75069 22.8699 3.38064C23.538 4.01059 23.9401 4.87203 23.994 5.7887L24 5.9999V8.1803C23.9973 8.5044 23.9099 8.82217 23.7466 9.10212C23.5833 9.38206 23.3496 9.61447 23.0688 9.7763L22.9404 9.8459C22.5522 10.0365 22.2226 10.3284 21.9866 10.6908C21.7507 11.0533 21.617 11.4727 21.5998 11.9049C21.5826 12.337 21.6825 12.7658 21.8889 13.1458C22.0953 13.5259 22.4005 13.8431 22.7724 14.0639L22.9404 14.1539C23.46 14.4107 23.9244 14.9411 23.9916 15.6419L24 15.8195V17.9999C24.0001 18.9182 23.6492 19.8017 23.0193 20.4698C22.3893 21.1379 21.5279 21.54 20.6112 21.5939L20.4 21.5999H3.6C2.68175 21.6 1.79818 21.2491 1.13009 20.6192C0.461992 19.9892 0.059871 19.1278 0.00600014 18.2111L5.59254e-09 17.9999V15.8195C5.59254e-09 15.0923 0.4224 14.5259 0.9312 14.2235L1.0596 14.1539C1.44784 13.9633 1.77737 13.6714 2.01335 13.309C2.24933 12.9466 2.383 12.5271 2.40021 12.095C2.41742 11.6628 2.31754 11.234 2.11113 10.854C1.90472 10.4739 1.59945 10.1567 1.2276 9.9359L1.0596 9.8459C0.54 9.5891 0.0756 9.0587 0.00839997 8.3579L5.59254e-09 8.1815V5.9999C-5.11461e-05 5.08165 0.35079 4.19808 0.98074 3.52999C1.61069 2.86189 2.47213 2.45977 3.3888 2.4059L3.6 2.3999H20.4ZM9.6 8.3999C9.28174 8.3999 8.97652 8.52633 8.75147 8.75137C8.52643 8.97642 8.4 9.28164 8.4 9.5999V14.3999C8.4 14.7182 8.52643 15.0234 8.75147 15.2484C8.97652 15.4735 9.28174 15.5999 9.6 15.5999C9.91826 15.5999 10.2235 15.4735 10.4485 15.2484C10.6736 15.0234 10.8 14.7182 10.8 14.3999V9.5999C10.8 9.28164 10.6736 8.97642 10.4485 8.75137C10.2235 8.52633 9.91826 8.3999 9.6 8.3999Z" fill="#ABABAB"/>
</svg>
