<svg width="24" height="24" viewBox="0 0 24 24" fill="none" xmlns="http://www.w3.org/2000/svg">
<g clip-path="url(#clip0_454_1983)">
<path d="M12 12C10.46 12 9.14172 11.4517 8.04505 10.355C6.94838 9.25838 6.40005 7.94005 6.40005 6.40005C6.40005 4.86005 6.94838 3.54172 8.04505 2.44505C9.14172 1.34838 10.46 0.800049 12 0.800049C13.54 0.800049 14.8584 1.34838 15.955 2.44505C17.0517 3.54172 17.6 4.86005 17.6 6.40005C17.6 7.94005 17.0517 9.25838 15.955 10.355C14.8584 11.4517 13.54 12 12 12ZM0.800049 23.2V19.28C0.800049 18.4867 1.00445 17.7578 1.41325 17.0932C1.82205 16.4287 2.36432 15.921 3.04005 15.57C4.48671 14.8467 5.95672 14.3044 7.45005 13.9432C8.94338 13.582 10.46 13.401 12 13.4C13.54 13.3991 15.0567 13.5802 16.55 13.9432C18.0434 14.3063 19.5134 14.8486 20.96 15.57C21.6367 15.92 22.1794 16.4278 22.5882 17.0932C22.997 17.7587 23.201 18.4876 23.2 19.28V23.2H0.800049Z" fill="#ABABAB"/>
</g>
<defs>
<clipPath id="clip0_454_1983">
<rect width="24" height="24" fill="white"/>
</clipPath>
</defs>
</svg>
