<svg width="24" height="25" viewBox="0 0 24 25" fill="none" xmlns="http://www.w3.org/2000/svg">
<path d="M14.5844 17.9722V3.15601C13.9722 3.45468 13.3714 3.92565 12.689 4.49082L12.5041 4.64475C11.6471 5.35695 10.6386 6.19781 9.41519 6.59987V21.4172C10.0286 21.1174 10.6282 20.6464 11.3106 20.0824L11.4955 19.9273C12.3525 19.2151 13.361 18.3754 14.5844 17.9722ZM19.285 1.95215C19.6376 2.09345 19.9581 2.2221 20.2637 2.32664L20.3062 2.34157C20.838 2.52536 21.3056 2.68618 21.6755 2.86538C22.0787 3.05952 22.4428 3.30764 22.7208 3.70625C22.9965 4.1014 23.1045 4.53102 23.1539 4.97788C23.1998 5.39486 23.1998 5.90145 23.1998 6.48385V16.2525C23.1998 17.0865 23.1998 17.7849 23.1378 18.3352C23.0746 18.9038 22.9322 19.4621 22.5335 19.9147C22.2944 20.1837 22.0028 20.401 21.6766 20.5533C21.062 20.8371 20.4348 20.844 19.8685 20.7463C19.3137 20.651 18.7658 20.4442 18.2833 20.2443C18.1225 20.1777 17.9685 20.113 17.8215 20.0502C17.4999 19.9135 17.2058 19.7883 16.9037 19.6826C16.4741 19.5298 16.1375 19.4598 15.8675 19.469C15.6989 19.4735 15.5314 19.4966 15.3678 19.5379C14.3719 19.7826 13.531 20.4787 12.4915 21.3414L12.4087 21.4091C11.4048 22.2408 10.1883 23.2333 8.62028 23.4504C8.12862 23.5193 7.50028 23.4757 6.86618 23.3792C6.16444 23.2679 5.47154 23.1067 4.79275 22.8967C4.1017 22.6895 3.43172 22.4175 2.79168 22.0846C2.21158 21.7756 1.63377 21.3758 1.27882 20.8669C1.00313 20.4706 0.895148 20.041 0.845753 19.5942C0.799805 19.1772 0.799805 18.6717 0.799805 18.0882V8.3195C0.799805 7.48553 0.799805 6.78711 0.861835 6.23687C0.925015 5.66826 1.06746 5.10998 1.46606 4.65738C1.70499 4.38744 1.99562 4.16918 2.323 4.0187C2.93757 3.73496 3.56477 3.72807 4.13109 3.82571C4.68592 3.9222 5.23386 4.12783 5.71632 4.3277C5.87714 4.39433 6.03107 4.45904 6.1781 4.52184C6.49974 4.65968 6.79381 4.78374 7.09593 4.88943C7.5267 5.0422 7.86212 5.11343 8.13207 5.10309C8.30055 5.09696 8.46711 5.07399 8.63176 5.03416C9.6277 4.78949 10.4686 4.09336 11.5082 3.23068L11.5909 3.1629C12.5948 2.33238 13.8113 1.33989 15.3793 1.12163C16.319 0.991825 17.2483 1.21583 18.0512 1.48577C18.4579 1.62362 18.8577 1.78214 19.2252 1.92918L19.285 1.95215Z" fill="black"/>
</svg>
