<svg width="48" height="48" viewBox="0 0 48 48" fill="none" xmlns="http://www.w3.org/2000/svg">
<path d="M41.6161 7.57421V19.6925C41.6161 20.0834 41.4608 20.4583 41.1844 20.7347C40.908 21.0111 40.5331 21.1664 40.1422 21.1664C39.7514 21.1664 39.3765 21.0111 39.1001 20.7347C38.8237 20.4583 38.6684 20.0834 38.6684 19.6925V9.04806L27.5981 9.04804C27.2072 9.04804 26.8323 8.89276 26.5559 8.61636C26.2795 8.33996 26.1243 7.96508 26.1243 7.57419C26.1243 7.1833 26.2795 6.80842 26.5559 6.53202C26.8323 6.25562 27.2072 6.10034 27.5981 6.10034L40.1422 6.10036C40.5331 6.10036 40.908 6.25564 41.1844 6.53204C41.4608 6.80844 41.6161 7.18332 41.6161 7.57421ZM18.7878 38.5251H9.19137L9.19137 27.4489C9.19137 27.058 9.03609 26.6831 8.75969 26.4067C8.48329 26.1303 8.10841 25.9751 7.71752 25.9751C7.32663 25.9751 6.95175 26.1303 6.67535 26.4067C6.39895 26.6831 6.24367 27.058 6.24367 27.4489L6.24367 39.9989C6.24367 40.3898 6.39895 40.7647 6.67535 41.0411C6.95175 41.3175 7.32663 41.4728 7.71752 41.4728H18.7878C19.1787 41.4728 19.5535 41.3175 19.8299 41.0411C20.1063 40.7647 20.2616 40.3898 20.2616 39.9989C20.2616 39.608 20.1063 39.2332 19.8299 38.9568C19.5535 38.6804 19.1787 38.5251 18.7878 38.5251ZM40.1422 25.9751C39.7514 25.9751 39.3765 26.1303 39.1001 26.4067C38.8237 26.6831 38.6684 27.058 38.6684 27.4489V38.5251H27.5981C27.2072 38.5251 26.8323 38.6804 26.5559 38.9568C26.2795 39.2332 26.1243 39.608 26.1243 39.9989C26.1243 40.3898 26.2795 40.7647 26.5559 41.0411C26.8323 41.3175 27.2072 41.4728 27.5981 41.4728H40.1422C40.5331 41.4728 40.908 41.3175 41.1844 41.0411C41.4608 40.7647 41.6161 40.3898 41.6161 39.9989V27.4489C41.6161 27.058 41.4608 26.6831 41.1844 26.4067C40.908 26.1303 40.5331 25.9751 40.1422 25.9751ZM7.7175 21.1664C8.10839 21.1664 8.48327 21.0111 8.75967 20.7347C9.03607 20.4583 9.19135 20.0834 9.19135 19.6925L9.19137 9.04806L18.7878 9.04804C19.1787 9.04804 19.5535 8.89276 19.8299 8.61636C20.1063 8.33996 20.2616 7.96508 20.2616 7.57419C20.2616 7.1833 20.1063 6.80842 19.8299 6.53202C19.5535 6.25562 19.1787 6.10034 18.7878 6.10034L7.71752 6.10036C7.32663 6.10036 6.95175 6.25564 6.67535 6.53204C6.39895 6.80844 6.24367 7.18332 6.24367 7.57421L6.24365 19.6925C6.24365 20.0834 6.39893 20.4583 6.67533 20.7347C6.95173 21.0111 7.32661 21.1664 7.7175 21.1664Z" fill="white"/>
<mask id="path-2-inside-1_454_1993" fill="white">
<rect x="17.1174" y="16.9741" width="13.3438" height="13.3438" rx="0.81051"/>
</mask>
<rect x="17.1174" y="16.9741" width="13.3438" height="13.3438" rx="0.81051" stroke="white" stroke-width="4.4" mask="url(#path-2-inside-1_454_1993)"/>
</svg>
