<svg width="24" height="25" viewBox="0 0 24 25" fill="none" xmlns="http://www.w3.org/2000/svg">
<path d="M14.5847 17.9722V3.15601C13.9724 3.45468 13.3716 3.92565 12.6893 4.49082L12.5043 4.64475C11.6474 5.35695 10.6388 6.19781 9.41543 6.59987V21.4172C10.0288 21.1174 10.6285 20.6464 11.3108 20.0824L11.4958 19.9273C12.3527 19.2151 13.3613 18.3754 14.5847 17.9722ZM19.2852 1.95215C19.6379 2.09345 19.9584 2.2221 20.2639 2.32664L20.3064 2.34157C20.8383 2.52536 21.3058 2.68618 21.6757 2.86538C22.0789 3.05952 22.443 3.30764 22.721 3.70625C22.9967 4.1014 23.1047 4.53102 23.1541 4.97788C23.2 5.39486 23.2 5.90145 23.2 6.48385V16.2525C23.2 17.0865 23.2 17.7849 23.138 18.3352C23.0748 18.9038 22.9324 19.4621 22.5338 19.9147C22.2946 20.1837 22.003 20.401 21.6768 20.5533C21.0623 20.8371 20.4351 20.844 19.8688 20.7463C19.3139 20.651 18.766 20.4442 18.2835 20.2443C18.1227 20.1777 17.9688 20.113 17.8218 20.0502C17.5001 19.9135 17.206 19.7883 16.9039 19.6826C16.4743 19.5298 16.1377 19.4598 15.8678 19.469C15.6992 19.4735 15.5316 19.4966 15.3681 19.5379C14.3722 19.7826 13.5313 20.4787 12.4917 21.3414L12.409 21.4091C11.405 22.2408 10.1885 23.2333 8.62052 23.4504C8.12887 23.5193 7.50052 23.4757 6.86643 23.3792C6.16469 23.2679 5.47178 23.1067 4.79299 22.8967C4.10195 22.6895 3.43196 22.4175 2.79193 22.0846C2.21182 21.7756 1.63402 21.3758 1.27906 20.8669C1.00337 20.4706 0.895392 20.041 0.845998 19.5942C0.800049 19.1772 0.800049 18.6717 0.800049 18.0882V8.3195C0.800049 7.48553 0.800049 6.78711 0.862079 6.23687C0.925259 5.66826 1.0677 5.10998 1.46631 4.65738C1.70524 4.38744 1.99586 4.16918 2.32325 4.0187C2.93781 3.73496 3.56501 3.72807 4.13133 3.82571C4.68616 3.9222 5.2341 4.12783 5.71656 4.3277C5.87738 4.39433 6.03131 4.45904 6.17835 4.52184C6.49999 4.65968 6.79406 4.78374 7.09617 4.88943C7.52694 5.0422 7.86237 5.11343 8.13232 5.10309C8.30079 5.09696 8.46736 5.07399 8.63201 5.03416C9.62795 4.78949 10.4688 4.09336 11.5084 3.23068L11.5911 3.1629C12.5951 2.33238 13.8116 1.33989 15.3796 1.12163C16.3192 0.991825 17.2485 1.21583 18.0515 1.48577C18.4581 1.62362 18.8579 1.78214 19.2255 1.92918L19.2852 1.95215Z" fill="#ABABAB"/>
</svg>
