<svg width="101" height="96" viewBox="0 0 101 96" fill="none" xmlns="http://www.w3.org/2000/svg">
<circle cx="50.3433" cy="46.316" r="45.7835" fill="white" stroke="#D9D9D9" stroke-width="1.06514"/>
<rect y="20.0071" width="100.833" height="75.625" fill="white"/>
<circle cx="50.2981" cy="45.1548" r="35.1104" fill="#25AF94"/>
<path d="M67.6161 28.5742V40.6925C67.6161 41.0834 67.4608 41.4583 67.1844 41.7347C66.908 42.0111 66.5331 42.1664 66.1422 42.1664C65.7514 42.1664 65.3765 42.0111 65.1001 41.7347C64.8237 41.4583 64.6684 41.0834 64.6684 40.6925V30.0481L53.5981 30.048C53.2072 30.048 52.8323 29.8928 52.5559 29.6164C52.2795 29.34 52.1243 28.9651 52.1243 28.5742C52.1243 28.1833 52.2795 27.8084 52.5559 27.532C52.8323 27.2556 53.2072 27.1003 53.5981 27.1003L66.1422 27.1004C66.5331 27.1004 66.908 27.2556 67.1844 27.532C67.4608 27.8084 67.6161 28.1833 67.6161 28.5742ZM44.7878 59.5251H35.1914L35.1914 48.4489C35.1914 48.058 35.0361 47.6831 34.7597 47.4067C34.4833 47.1303 34.1084 46.9751 33.7175 46.9751C33.3266 46.9751 32.9518 47.1303 32.6753 47.4067C32.3989 47.6831 32.2437 48.058 32.2437 48.4489L32.2437 60.9989C32.2437 61.3898 32.3989 61.7647 32.6754 62.0411C32.9518 62.3175 33.3266 62.4728 33.7175 62.4728H44.7878C45.1787 62.4728 45.5535 62.3175 45.8299 62.0411C46.1063 61.7647 46.2616 61.3898 46.2616 60.9989C46.2616 60.608 46.1063 60.2332 45.8299 59.9568C45.5535 59.6804 45.1787 59.5251 44.7878 59.5251ZM66.1422 46.9751C65.7514 46.9751 65.3765 47.1303 65.1001 47.4067C64.8237 47.6831 64.6684 48.058 64.6684 48.4489V59.5251H53.5981C53.2072 59.5251 52.8323 59.6804 52.5559 59.9568C52.2795 60.2332 52.1243 60.608 52.1243 60.9989C52.1243 61.3898 52.2795 61.7647 52.5559 62.0411C52.8323 62.3175 53.2072 62.4728 53.5981 62.4728H66.1422C66.5331 62.4728 66.908 62.3175 67.1844 62.0411C67.4608 61.7647 67.6161 61.3898 67.6161 60.9989V48.4489C67.6161 48.058 67.4608 47.6831 67.1844 47.4067C66.908 47.1303 66.5331 46.9751 66.1422 46.9751ZM33.7175 42.1664C34.1084 42.1664 34.4833 42.0111 34.7597 41.7347C35.0361 41.4583 35.1914 41.0834 35.1914 40.6925L35.1914 30.0481L44.7878 30.048C45.1787 30.048 45.5535 29.8928 45.8299 29.6164C46.1063 29.34 46.2616 28.9651 46.2616 28.5742C46.2616 28.1833 46.1063 27.8084 45.8299 27.532C45.5535 27.2556 45.1787 27.1003 44.7878 27.1003L33.7175 27.1004C33.3266 27.1004 32.9518 27.2556 32.6754 27.532C32.3989 27.8084 32.2437 28.1833 32.2437 28.5742L32.2437 40.6925C32.2437 41.0834 32.3989 41.4583 32.6753 41.7347C32.9517 42.0111 33.3266 42.1664 33.7175 42.1664Z" fill="white"/>
<rect x="43.1174" y="37.9741" width="13.3438" height="13.3438" rx="0.81051"
      fill="none" stroke="white" stroke-width="3"
      />
</svg>
