<svg width="24" height="25" viewBox="0 0 24 25" fill="none" xmlns="http://www.w3.org/2000/svg">
<path d="M11.9998 12.284C10.4598 12.284 9.14147 11.7357 8.0448 10.639C6.94814 9.54232 6.3998 8.22398 6.3998 6.68398C6.3998 5.14398 6.94814 3.82565 8.0448 2.72898C9.14147 1.63232 10.4598 1.08398 11.9998 1.08398C13.5398 1.08398 14.8581 1.63232 15.9548 2.72898C17.0515 3.82565 17.5998 5.14398 17.5998 6.68398C17.5998 8.22398 17.0515 9.54232 15.9548 10.639C14.8581 11.7357 13.5398 12.284 11.9998 12.284ZM0.799805 23.484V19.564C0.799805 18.7707 1.0042 18.0417 1.413 17.3772C1.8218 16.7126 2.36407 16.2049 3.0398 15.854C4.48647 15.1306 5.95647 14.5884 7.4498 14.2272C8.94314 13.866 10.4598 13.6849 11.9998 13.684C13.5398 13.6831 15.0565 13.8641 16.5498 14.2272C18.0431 14.5902 19.5131 15.1325 20.9598 15.854C21.6365 16.204 22.1792 16.7117 22.588 17.3772C22.9968 18.0426 23.2007 18.7716 23.1998 19.564V23.484H0.799805Z" fill="black"/>
</svg>
