<svg width="24" height="25" viewBox="0 0 24 25" fill="none" xmlns="http://www.w3.org/2000/svg">
<path d="M20.4 2.68408C21.3183 2.68403 22.2018 3.03487 22.8699 3.66482C23.538 4.29477 23.9401 5.15621 23.994 6.07288L24 6.28408V8.46448C23.9973 8.78858 23.9099 9.10635 23.7466 9.3863C23.5833 9.66624 23.3496 9.89865 23.0688 10.0605L22.9404 10.1301C22.5522 10.3206 22.2226 10.6126 21.9866 10.975C21.7507 11.3374 21.617 11.7569 21.5998 12.189C21.5826 12.6212 21.6825 13.0499 21.8889 13.43C22.0953 13.81 22.4005 14.1272 22.7724 14.3481L22.9404 14.4381C23.46 14.6949 23.9244 15.2253 23.9916 15.9261L24 16.1037V18.2841C24.0001 19.2023 23.6492 20.0859 23.0193 20.754C22.3893 21.4221 21.5279 21.8242 20.6112 21.8781L20.4 21.8841H3.6C2.68175 21.8841 1.79818 21.5333 1.13009 20.9033C0.461992 20.2734 0.059871 19.412 0.00600014 18.4953L5.59254e-09 18.2841V16.1037C5.59254e-09 15.3765 0.4224 14.8101 0.9312 14.5077L1.0596 14.4381C1.44784 14.2475 1.77737 13.9556 2.01335 13.5932C2.24933 13.2307 2.383 12.8113 2.40021 12.3791C2.41742 11.947 2.31754 11.5182 2.11113 11.1382C1.90472 10.7581 1.59945 10.4409 1.2276 10.2201L1.0596 10.1301C0.54 9.87328 0.0756 9.34288 0.00839997 8.64208L5.59254e-09 8.46568V6.28408C-5.11461e-05 5.36583 0.35079 4.48226 0.98074 3.81417C1.61069 3.14607 2.47213 2.74395 3.3888 2.69008L3.6 2.68408H20.4ZM9.6 8.68408C9.28174 8.68408 8.97652 8.81051 8.75147 9.03555C8.52643 9.2606 8.4 9.56582 8.4 9.88408V14.6841C8.4 15.0023 8.52643 15.3076 8.75147 15.5326C8.97652 15.7577 9.28174 15.8841 9.6 15.8841C9.91826 15.8841 10.2235 15.7577 10.4485 15.5326C10.6736 15.3076 10.8 15.0023 10.8 14.6841V9.88408C10.8 9.56582 10.6736 9.2606 10.4485 9.03555C10.2235 8.81051 9.91826 8.68408 9.6 8.68408Z" fill="black"/>
</svg>
