<svg width="18" height="18" viewBox="0 0 18 18" fill="none" xmlns="http://www.w3.org/2000/svg">
<g clip-path="url(#clip0_290_42531)">
<path d="M10.627 17.8242C13.4855 17.2711 17.1817 15.284 17.1817 10.1462C17.1817 5.47139 13.6401 2.35778 11.0934 0.927323C10.5273 0.609247 9.86618 1.02716 9.86618 1.6589V3.27402C9.86618 4.54809 9.31203 6.87358 7.77211 7.84106C6.9857 8.33496 6.13527 7.59543 6.04017 6.69422L5.96152 5.95381C5.87008 5.09324 4.96296 4.57106 4.25152 5.09589C2.97223 6.03686 1.63623 7.68909 1.63623 10.1453C1.63623 16.4282 6.4727 18.0001 8.89047 18.0001C9.0319 18.0001 9.17943 17.9956 9.33306 17.9868C8.1388 17.8887 6.20842 17.1731 6.20842 14.8582C6.20842 13.0469 7.57551 11.8232 8.61431 11.2268C8.89413 11.0678 9.22058 11.2754 9.22058 11.5891V12.1103C9.22058 12.5079 9.38061 13.1308 9.7601 13.5567C10.1899 14.0391 10.8199 13.5337 10.8702 12.8994C10.8867 12.6997 11.0952 12.5724 11.2744 12.6732C11.8606 13.0045 12.6095 13.7113 12.6095 14.8582C12.6095 16.6677 11.5771 17.5 10.627 17.8242Z" fill="#EC779B"/>
</g>
<defs>
<clipPath id="clip0_290_42531">
<rect width="18" height="18" fill="white"/>
</clipPath>
</defs>
</svg>
