<svg width="17" height="17" viewBox="0 0 17 17" fill="none" xmlns="http://www.w3.org/2000/svg">
<path d="M14.1743 9.28739C14.1743 14.3271 9.89074 15.5872 7.74827 15.5872C5.87512 15.5872 2.12598 14.3271 2.12598 9.28739C2.12598 7.31572 3.16142 5.99183 4.15292 5.23633C4.70431 4.81535 5.40736 5.2342 5.47823 5.9245L5.53918 6.51841C5.6136 7.24131 6.2713 7.83451 6.8808 7.43833C8.07499 6.66228 8.50448 4.79692 8.50448 3.77494V3.54602C8.50448 2.53255 9.52788 1.88053 10.3486 2.47444C12.165 3.78699 14.1743 6.079 14.1743 9.28668V9.28739Z" stroke="#25AF94" stroke-width="1.1"/>
<path d="M5.66943 13.0677C5.66943 15.0833 7.43344 15.5872 8.3151 15.5872C9.0876 15.5872 10.6305 15.0833 10.6305 13.0677C10.6305 12.2867 10.2123 11.7601 9.80837 11.4561C9.5263 11.2442 9.13013 11.4348 9.03303 11.7743C8.90688 12.2165 8.44975 12.4943 8.21658 12.0975C8.00397 11.7346 8.00397 11.1903 8.00397 10.8622C8.00397 10.4114 7.55038 10.1194 7.18539 10.3845C6.45328 10.916 5.66943 11.8168 5.66943 13.0677Z" stroke="#25AF94" stroke-width="1.1"/>
</svg>
