<svg width="18" height="18" viewBox="0 0 18 18" fill="none" xmlns="http://www.w3.org/2000/svg">
<g clip-path="url(#clip0_1006_2750)">
<path d="M10.6271 17.8242C13.4856 17.2711 17.1818 15.284 17.1818 10.1462C17.1818 5.47134 13.6402 2.35773 11.0935 0.92727C10.5274 0.609194 9.8663 1.02711 9.8663 1.65884V3.27396C9.8663 4.54804 9.31215 6.87352 7.77224 7.84101C6.98582 8.33491 6.13539 7.59538 6.04029 6.69417L5.96165 5.95375C5.8702 5.09318 4.96308 4.57101 4.25165 5.09583C2.97235 6.03681 1.63635 7.68904 1.63635 10.1453C1.63635 16.4282 6.47282 18 8.89059 18C9.03203 18 9.17956 17.9956 9.33318 17.9867C8.13893 17.8887 6.20855 17.173 6.20855 14.8581C6.20855 13.0469 7.57563 11.8231 8.61443 11.2267C8.89425 11.0677 9.22071 11.2753 9.22071 11.589V12.1103C9.22071 12.5079 9.38073 13.1308 9.76022 13.5567C10.19 14.0391 10.8201 13.5337 10.8704 12.8993C10.8868 12.6996 11.0953 12.5724 11.2745 12.6731C11.8607 13.0044 12.6096 13.7113 12.6096 14.8581C12.6096 16.6676 11.5772 17.4999 10.6271 17.8242Z" fill="white"/>
</g>
<defs>
<clipPath id="clip0_1006_2750">
<rect width="18" height="18" fill="white"/>
</clipPath>
</defs>
</svg>
