<svg width="43" height="39" viewBox="0 0 43 39" fill="none" xmlns="http://www.w3.org/2000/svg">
<path d="M4.51446 2.2863C5.51139 1.94554 6.68777 2.0909 7.61995 2.78924C10.0432 4.60455 11.912 5.03938 12.6183 5.06616C12.8476 5.07486 13.1996 5.09876 13.5702 5.21125C16.1741 6.00149 18.0003 7.19255 19.2502 8.58792C20.4988 9.98183 21.0998 11.4981 21.382 12.826C21.4374 13.0867 21.4782 13.3416 21.5118 13.5864C23.5715 12.377 26.6065 11.502 30.1035 12.4288C31.8301 12.8865 34.2411 12.3848 36.5345 11.4926C37.8171 10.9936 39.138 11.3683 40.0171 12.0898C40.9045 12.8182 41.5494 14.0855 41.1467 15.5001C41.0808 15.7315 40.9865 15.9599 40.8671 16.1721C38.2277 20.8614 35.0321 23.4408 31.7483 24.5674C28.4853 25.6868 25.3182 25.3092 22.8244 24.4255C22.6489 24.3633 22.3827 24.3853 22.1547 24.5299C21.9374 24.6677 21.9331 24.7882 21.9352 24.8208L22.4639 32.9486C22.5476 34.2369 21.8505 35.2514 21.0671 35.8689C20.2867 36.484 19.2522 36.8558 18.2269 36.8303C18.1229 36.8278 18.0189 36.8278 17.9162 36.8301C16.8754 36.8527 15.867 36.4415 15.1359 35.7876C14.3974 35.1269 13.8169 34.0905 13.9692 32.8577L15.287 22.1975C15.2922 22.1547 15.2841 22.1004 15.218 22.033C15.1448 21.9585 15.0327 21.9075 14.9123 21.9098C12.1799 21.9627 9.91827 21.3891 8.09342 20.3039C6.2683 19.2185 4.97245 17.6761 4.08385 15.9406C2.33254 12.5201 2.12407 8.28032 2.47497 4.836C2.60771 3.53311 3.48781 2.63742 4.51446 2.2863Z" fill="#25AF94" stroke="white" stroke-width="3"/>
</svg>
