<svg width="18" height="17" viewBox="0 0 18 17" fill="none" xmlns="http://www.w3.org/2000/svg">
<path d="M14.9624 8.5C14.9624 8.6409 14.9064 8.77602 14.8068 8.87565C14.7072 8.97528 14.572 9.03125 14.4312 9.03125H2.74365C2.60276 9.03125 2.46763 8.97528 2.368 8.87565C2.26837 8.77602 2.2124 8.6409 2.2124 8.5C2.2124 8.3591 2.26837 8.22398 2.368 8.12435C2.46763 8.02472 2.60276 7.96875 2.74365 7.96875H14.4312C14.572 7.96875 14.7072 8.02472 14.8068 8.12435C14.9064 8.22398 14.9624 8.3591 14.9624 8.5ZM2.74365 4.78125H14.4312C14.572 4.78125 14.7072 4.72528 14.8068 4.62565C14.9064 4.52602 14.9624 4.3909 14.9624 4.25C14.9624 4.1091 14.9064 3.97398 14.8068 3.87435C14.7072 3.77472 14.572 3.71875 14.4312 3.71875H2.74365C2.60276 3.71875 2.46763 3.77472 2.368 3.87435C2.26837 3.97398 2.2124 4.1091 2.2124 4.25C2.2124 4.3909 2.26837 4.52602 2.368 4.62565C2.46763 4.72528 2.60276 4.78125 2.74365 4.78125ZM14.4312 12.2188H2.74365C2.60276 12.2188 2.46763 12.2747 2.368 12.3743C2.26837 12.474 2.2124 12.6091 2.2124 12.75C2.2124 12.8909 2.26837 13.026 2.368 13.1257C2.46763 13.2253 2.60276 13.2812 2.74365 13.2812H14.4312C14.572 13.2812 14.7072 13.2253 14.8068 13.1257C14.9064 13.026 14.9624 12.8909 14.9624 12.75C14.9624 12.6091 14.9064 12.474 14.8068 12.3743C14.7072 12.2747 14.572 12.2188 14.4312 12.2188Z" fill="black"/>
</svg>
