<svg width="17" height="17" viewBox="0 0 17 17" fill="none" xmlns="http://www.w3.org/2000/svg">
<mask id="path-1-inside-1_914_2489" fill="white">
<path d="M5.27489 6.5836C5.27489 6.15457 5.44608 5.74312 5.75081 5.43975C6.05555 5.13638 6.46885 4.96595 6.89981 4.96595C7.33076 4.96595 7.74406 5.13638 8.0488 5.43975C8.35353 5.74312 8.52472 6.15457 8.52472 6.5836C8.52472 7.01262 8.35353 7.42408 8.0488 7.72745C7.74406 8.03081 7.33076 8.20124 6.89981 8.20124C6.46885 8.20124 6.05555 8.03081 5.75081 7.72745C5.44608 7.42408 5.27489 7.01262 5.27489 6.5836ZM6.89981 3.99536C6.21028 3.99536 5.54899 4.26805 5.06142 4.75344C4.57385 5.23883 4.29993 5.89715 4.29993 6.5836C4.29993 7.27004 4.57385 7.92837 5.06142 8.41376C5.54899 8.89914 6.21028 9.17183 6.89981 9.17183C7.58933 9.17183 8.25062 8.89914 8.73819 8.41376C9.22576 7.92837 9.49967 7.27004 9.49967 6.5836C9.49967 5.89715 9.22576 5.23883 8.73819 4.75344C8.25062 4.26805 7.58933 3.99536 6.89981 3.99536ZM11.7746 7.23066C11.7746 6.97324 11.8773 6.72637 12.0601 6.54435C12.243 6.36233 12.4909 6.26007 12.7495 6.26007C13.0081 6.26007 13.2561 6.36233 13.4389 6.54435C13.6217 6.72637 13.7245 6.97324 13.7245 7.23066C13.7245 7.48807 13.6217 7.73494 13.4389 7.91697C13.2561 8.09899 13.0081 8.20124 12.7495 8.20124C12.4909 8.20124 12.243 8.09899 12.0601 7.91697C11.8773 7.73494 11.7746 7.48807 11.7746 7.23066ZM12.7495 5.28948C12.2324 5.28948 11.7364 5.494 11.3707 5.85804C11.005 6.22208 10.7996 6.71582 10.7996 7.23066C10.7996 7.74549 11.005 8.23923 11.3707 8.60327C11.7364 8.96732 12.2324 9.17183 12.7495 9.17183C13.2667 9.17183 13.7626 8.96732 14.1283 8.60327C14.494 8.23923 14.6994 7.74549 14.6994 7.23066C14.6994 6.71582 14.494 6.22208 14.1283 5.85804C13.7626 5.494 13.2667 5.28948 12.7495 5.28948ZM10.9608 13.7258C11.4177 13.9102 12.0033 14.0248 12.7502 14.0248C14.2334 14.0248 15.0809 13.5738 15.5431 13.0167C15.7673 12.7462 15.8811 12.4731 15.9396 12.2641C15.973 12.1431 15.9933 12.0188 16 11.8934V11.8759C15.9998 11.502 15.8506 11.1435 15.585 10.8791C15.3194 10.6147 14.9593 10.4661 14.5837 10.466H10.9166C10.8984 10.466 10.8806 10.4664 10.8633 10.4672C11.1194 10.7325 11.3053 11.0658 11.3937 11.4365H14.5837C14.8255 11.4365 15.0218 11.63 15.025 11.8694L15.0231 11.8901C15.0205 11.9151 15.0125 11.954 14.9991 12.0066C14.9589 12.1505 14.8879 12.284 14.7911 12.3981C14.5636 12.6737 14.0293 13.0542 12.7502 13.0542C12.1132 13.0542 11.6608 12.9597 11.3397 12.831C11.2695 13.0898 11.1538 13.4023 10.9608 13.7258ZM4.46243 10.466C4.07457 10.466 3.70259 10.6193 3.42833 10.8924C3.15408 11.1654 3 11.5357 3 11.9218V12.1017C3.00068 12.1467 3.00372 12.1916 3.0091 12.2363C3.06312 12.7177 3.23693 13.1781 3.51477 13.5757C4.04645 14.3315 5.0617 14.9954 6.89981 14.9954C8.73791 14.9954 9.75316 14.3321 10.2848 13.5751C10.5627 13.1774 10.7365 12.717 10.7905 12.2357C10.7951 12.1911 10.7981 12.1465 10.7996 12.1017V11.9218C10.7996 11.5357 10.6455 11.1654 10.3713 10.8924C10.097 10.6193 9.72504 10.466 9.33718 10.466H4.46243ZM3.97495 12.0881V11.9218C3.97495 11.7931 4.02631 11.6697 4.11773 11.5787C4.20915 11.4877 4.33314 11.4365 4.46243 11.4365H9.33718C9.46647 11.4365 9.59046 11.4877 9.68188 11.5787C9.7733 11.6697 9.82466 11.7931 9.82466 11.9218V12.0881L9.82011 12.1399C9.7827 12.4556 9.66798 12.7573 9.48603 13.0186C9.16559 13.4748 8.47403 14.0248 6.89981 14.0248C5.32558 14.0248 4.63402 13.4748 4.31293 13.0186C4.13121 12.7573 4.01671 12.4556 3.9795 12.1399L3.97495 12.0881Z"/>
</mask>
<path d="M5.27489 6.5836C5.27489 6.15457 5.44608 5.74312 5.75081 5.43975C6.05555 5.13638 6.46885 4.96595 6.89981 4.96595C7.33076 4.96595 7.74406 5.13638 8.0488 5.43975C8.35353 5.74312 8.52472 6.15457 8.52472 6.5836C8.52472 7.01262 8.35353 7.42408 8.0488 7.72745C7.74406 8.03081 7.33076 8.20124 6.89981 8.20124C6.46885 8.20124 6.05555 8.03081 5.75081 7.72745C5.44608 7.42408 5.27489 7.01262 5.27489 6.5836ZM6.89981 3.99536C6.21028 3.99536 5.54899 4.26805 5.06142 4.75344C4.57385 5.23883 4.29993 5.89715 4.29993 6.5836C4.29993 7.27004 4.57385 7.92837 5.06142 8.41376C5.54899 8.89914 6.21028 9.17183 6.89981 9.17183C7.58933 9.17183 8.25062 8.89914 8.73819 8.41376C9.22576 7.92837 9.49967 7.27004 9.49967 6.5836C9.49967 5.89715 9.22576 5.23883 8.73819 4.75344C8.25062 4.26805 7.58933 3.99536 6.89981 3.99536ZM11.7746 7.23066C11.7746 6.97324 11.8773 6.72637 12.0601 6.54435C12.243 6.36233 12.4909 6.26007 12.7495 6.26007C13.0081 6.26007 13.2561 6.36233 13.4389 6.54435C13.6217 6.72637 13.7245 6.97324 13.7245 7.23066C13.7245 7.48807 13.6217 7.73494 13.4389 7.91697C13.2561 8.09899 13.0081 8.20124 12.7495 8.20124C12.4909 8.20124 12.243 8.09899 12.0601 7.91697C11.8773 7.73494 11.7746 7.48807 11.7746 7.23066ZM12.7495 5.28948C12.2324 5.28948 11.7364 5.494 11.3707 5.85804C11.005 6.22208 10.7996 6.71582 10.7996 7.23066C10.7996 7.74549 11.005 8.23923 11.3707 8.60327C11.7364 8.96732 12.2324 9.17183 12.7495 9.17183C13.2667 9.17183 13.7626 8.96732 14.1283 8.60327C14.494 8.23923 14.6994 7.74549 14.6994 7.23066C14.6994 6.71582 14.494 6.22208 14.1283 5.85804C13.7626 5.494 13.2667 5.28948 12.7495 5.28948ZM10.9608 13.7258C11.4177 13.9102 12.0033 14.0248 12.7502 14.0248C14.2334 14.0248 15.0809 13.5738 15.5431 13.0167C15.7673 12.7462 15.8811 12.4731 15.9396 12.2641C15.973 12.1431 15.9933 12.0188 16 11.8934V11.8759C15.9998 11.502 15.8506 11.1435 15.585 10.8791C15.3194 10.6147 14.9593 10.4661 14.5837 10.466H10.9166C10.8984 10.466 10.8806 10.4664 10.8633 10.4672C11.1194 10.7325 11.3053 11.0658 11.3937 11.4365H14.5837C14.8255 11.4365 15.0218 11.63 15.025 11.8694L15.0231 11.8901C15.0205 11.9151 15.0125 11.954 14.9991 12.0066C14.9589 12.1505 14.8879 12.284 14.7911 12.3981C14.5636 12.6737 14.0293 13.0542 12.7502 13.0542C12.1132 13.0542 11.6608 12.9597 11.3397 12.831C11.2695 13.0898 11.1538 13.4023 10.9608 13.7258ZM4.46243 10.466C4.07457 10.466 3.70259 10.6193 3.42833 10.8924C3.15408 11.1654 3 11.5357 3 11.9218V12.1017C3.00068 12.1467 3.00372 12.1916 3.0091 12.2363C3.06312 12.7177 3.23693 13.1781 3.51477 13.5757C4.04645 14.3315 5.0617 14.9954 6.89981 14.9954C8.73791 14.9954 9.75316 14.3321 10.2848 13.5751C10.5627 13.1774 10.7365 12.717 10.7905 12.2357C10.7951 12.1911 10.7981 12.1465 10.7996 12.1017V11.9218C10.7996 11.5357 10.6455 11.1654 10.3713 10.8924C10.097 10.6193 9.72504 10.466 9.33718 10.466H4.46243ZM3.97495 12.0881V11.9218C3.97495 11.7931 4.02631 11.6697 4.11773 11.5787C4.20915 11.4877 4.33314 11.4365 4.46243 11.4365H9.33718C9.46647 11.4365 9.59046 11.4877 9.68188 11.5787C9.7733 11.6697 9.82466 11.7931 9.82466 11.9218V12.0881L9.82011 12.1399C9.7827 12.4556 9.66798 12.7573 9.48603 13.0186C9.16559 13.4748 8.47403 14.0248 6.89981 14.0248C5.32558 14.0248 4.63402 13.4748 4.31293 13.0186C4.13121 12.7573 4.01671 12.4556 3.9795 12.1399L3.97495 12.0881Z" fill="#25AF94"/>
<path d="M5.27489 6.5836H4.27489H5.27489ZM6.89981 3.99536L6.8998 2.99536L6.89981 3.99536ZM4.29993 6.5836H3.29993H4.29993ZM6.89981 9.17183V10.1718V9.17183ZM9.49967 6.5836H10.4997H9.49967ZM11.7746 7.23066H10.7746H11.7746ZM12.7495 6.26007V5.26007V6.26007ZM12.7495 8.20124V9.20124V8.20124ZM12.7495 9.17183V10.1718V9.17183ZM14.6994 7.23066L15.6994 7.23066L14.6994 7.23066ZM10.9608 13.7258L10.102 13.2134L9.50376 14.2162L10.5865 14.6532L10.9608 13.7258ZM15.5431 13.0167L16.3127 13.6551L16.3129 13.6549L15.5431 13.0167ZM15.9396 12.2641L16.9025 12.5337L16.9034 12.5306L15.9396 12.2641ZM16 11.8934L16.9986 11.9468L17 11.9201V11.8934H16ZM16 11.8759H17L17 11.8754L16 11.8759ZM14.5837 10.466L14.5842 9.46595H14.5837V10.466ZM10.8633 10.4672L10.8136 9.46848L8.61496 9.57792L10.1438 11.1618L10.8633 10.4672ZM11.3937 11.4365L10.4209 11.6685L10.6041 12.4365H11.3937V11.4365ZM15.025 11.8694L16.0206 11.9632L16.0257 11.9096L16.025 11.8558L15.025 11.8694ZM15.0231 11.8901L16.0178 11.9935L16.0187 11.9839L15.0231 11.8901ZM14.9991 12.0066L15.9622 12.2754L15.9652 12.2647L15.968 12.2539L14.9991 12.0066ZM14.7911 12.3981L14.029 11.7506L14.0244 11.756L14.0198 11.7616L14.7911 12.3981ZM11.3397 12.831L11.7119 11.9028L10.6688 11.4845L10.3746 12.5692L11.3397 12.831ZM3 11.9218H2H3ZM3 12.1017H2V12.1093L2.00011 12.1168L3 12.1017ZM3.0091 12.2363L4.00289 12.1248L4.00192 12.1167L3.0091 12.2363ZM3.51477 13.5757L2.69505 14.1485L2.69689 14.1511L3.51477 13.5757ZM10.2848 13.5751L11.1032 14.1498L11.1046 14.1478L10.2848 13.5751ZM10.7905 12.2357L11.7843 12.3472L11.7853 12.338L10.7905 12.2357ZM10.7996 12.1017L11.7991 12.1348L11.7996 12.1183V12.1017H10.7996ZM10.7996 11.9218H11.7996H10.7996ZM3.97495 12.0881H2.97495V12.132L2.97879 12.1757L3.97495 12.0881ZM9.33718 11.4365V10.4365V11.4365ZM9.82466 12.0881L10.8208 12.1757L10.8247 12.132V12.0881H9.82466ZM9.82011 12.1399L10.8132 12.2575L10.8149 12.2425L10.8163 12.2274L9.82011 12.1399ZM9.48603 13.0186L10.3043 13.5934L10.3066 13.5901L9.48603 13.0186ZM4.31293 13.0186L3.49193 13.5896L3.49519 13.5942L4.31293 13.0186ZM3.9795 12.1399L2.98334 12.2274L2.98464 12.2422L2.98638 12.257L3.9795 12.1399ZM5.27489 6.5836H6.27489C6.27489 6.42124 6.33963 6.26462 6.45633 6.14844L5.75081 5.43975L5.04529 4.73106C4.55253 5.22161 4.27489 5.8879 4.27489 6.5836H5.27489ZM5.75081 5.43975L6.45633 6.14844C6.57319 6.03211 6.73262 5.96595 6.89981 5.96595V4.96595V3.96595C6.20508 3.96595 5.5379 4.24065 5.04529 4.73106L5.75081 5.43975ZM6.89981 4.96595V5.96595C7.06699 5.96595 7.22642 6.03211 7.34328 6.14844L8.0488 5.43975L8.75432 4.73106C8.26171 4.24065 7.59453 3.96595 6.89981 3.96595V4.96595ZM8.0488 5.43975L7.34328 6.14844C7.45998 6.26462 7.52472 6.42124 7.52472 6.5836H8.52472H9.52472C9.52472 5.8879 9.24708 5.22161 8.75432 4.73106L8.0488 5.43975ZM8.52472 6.5836H7.52472C7.52472 6.74596 7.45998 6.90258 7.34328 7.01876L8.0488 7.72745L8.75432 8.43614C9.24708 7.94558 9.52472 7.27929 9.52472 6.5836H8.52472ZM8.0488 7.72745L7.34328 7.01876C7.22642 7.13509 7.06699 7.20124 6.89981 7.20124V8.20124V9.20124C7.59453 9.20124 8.26171 8.92654 8.75432 8.43614L8.0488 7.72745ZM6.89981 8.20124V7.20124C6.73262 7.20124 6.57319 7.13509 6.45633 7.01876L5.75081 7.72745L5.04529 8.43614C5.5379 8.92654 6.20508 9.20124 6.89981 9.20124V8.20124ZM5.75081 7.72745L6.45633 7.01876C6.33963 6.90258 6.27489 6.74596 6.27489 6.5836H5.27489H4.27489C4.27489 7.27929 4.55253 7.94558 5.04529 8.43614L5.75081 7.72745ZM6.89981 3.99536L6.8998 2.99536C5.9465 2.99536 5.03135 3.37232 4.3559 4.04475L5.06142 4.75344L5.76694 5.46213C6.06663 5.16378 6.47405 4.99536 6.89981 4.99536V3.99536ZM5.06142 4.75344L4.3559 4.04475C3.6803 4.71732 3.29993 5.63049 3.29993 6.5836H4.29993H5.29993C5.29994 6.16382 5.4674 5.76033 5.76694 5.46213L5.06142 4.75344ZM4.29993 6.5836H3.29993C3.29993 7.53671 3.6803 8.44987 4.3559 9.12245L5.06142 8.41376L5.76694 7.70507C5.4674 7.40686 5.29993 7.00337 5.29993 6.5836H4.29993ZM5.06142 8.41376L4.3559 9.12245C5.03135 9.79487 5.9465 10.1718 6.8998 10.1718L6.89981 9.17183V8.17183C6.47405 8.17183 6.06663 8.00342 5.76694 7.70507L5.06142 8.41376ZM6.89981 9.17183V10.1718C7.85311 10.1718 8.76826 9.79487 9.44371 9.12245L8.73819 8.41376L8.03267 7.70507C7.73298 8.00342 7.32556 8.17183 6.8998 8.17183L6.89981 9.17183ZM8.73819 8.41376L9.44371 9.12245C10.1193 8.44987 10.4997 7.53671 10.4997 6.5836H9.49967H8.49967C8.49967 7.00337 8.33221 7.40686 8.03267 7.70507L8.73819 8.41376ZM9.49967 6.5836H10.4997C10.4997 5.63049 10.1193 4.71732 9.44371 4.04475L8.73819 4.75344L8.03267 5.46213C8.33221 5.76033 8.49967 6.16382 8.49967 6.5836H9.49967ZM8.73819 4.75344L9.44371 4.04475C8.76826 3.37232 7.85311 2.99536 6.89981 2.99536V3.99536L6.8998 4.99536C7.32556 4.99536 7.73298 5.16378 8.03267 5.46213L8.73819 4.75344ZM11.7746 7.23066H12.7746C12.7746 7.23991 12.7708 7.24787 12.7656 7.25304L12.0601 6.54435L11.3546 5.83566C10.9837 6.20486 10.7746 6.70657 10.7746 7.23066H11.7746ZM12.0601 6.54435L12.7656 7.25304C12.7606 7.25805 12.7547 7.26007 12.7495 7.26007V6.26007V5.26007C12.2272 5.26007 11.7253 5.4666 11.3546 5.83566L12.0601 6.54435ZM12.7495 6.26007V7.26007C12.7443 7.26007 12.7384 7.25805 12.7334 7.25304L13.4389 6.54435L14.1444 5.83566C13.7737 5.4666 13.2719 5.26007 12.7495 5.26007V6.26007ZM13.4389 6.54435L12.7334 7.25304C12.7282 7.24787 12.7245 7.23991 12.7245 7.23066H13.7245H14.7245C14.7245 6.70657 14.5153 6.20486 14.1444 5.83566L13.4389 6.54435ZM13.7245 7.23066H12.7245C12.7245 7.2214 12.7282 7.21344 12.7334 7.20827L13.4389 7.91697L14.1444 8.62566C14.5153 8.25645 14.7245 7.75474 14.7245 7.23066H13.7245ZM13.4389 7.91697L12.7334 7.20827C12.7384 7.20326 12.7443 7.20124 12.7495 7.20124V8.20124V9.20124C13.2719 9.20124 13.7737 8.99471 14.1444 8.62566L13.4389 7.91697ZM12.7495 8.20124V7.20124C12.7547 7.20124 12.7606 7.20326 12.7656 7.20827L12.0601 7.91697L11.3546 8.62566C11.7253 8.99471 12.2272 9.20124 12.7495 9.20124V8.20124ZM12.0601 7.91697L12.7656 7.20827C12.7708 7.21344 12.7746 7.2214 12.7746 7.23066L11.7746 7.23066H10.7746C10.7746 7.75474 10.9837 8.25645 11.3546 8.62566L12.0601 7.91697ZM12.7495 5.28948V4.28948C11.9686 4.28948 11.2188 4.59827 10.6652 5.14935L11.3707 5.85804L12.0762 6.56673C12.254 6.38972 12.4961 6.28948 12.7495 6.28948V5.28948ZM11.3707 5.85804L10.6652 5.14935C10.1115 5.70057 9.79961 6.44916 9.79961 7.23066H10.7996H11.7996C11.7996 6.98249 11.8986 6.74358 12.0762 6.56673L11.3707 5.85804ZM10.7996 7.23066H9.79961C9.79961 8.01215 10.1115 8.76074 10.6652 9.31197L11.3707 8.60327L12.0762 7.89458C11.8986 7.71773 11.7996 7.47882 11.7996 7.23066H10.7996ZM11.3707 8.60327L10.6652 9.31197C11.2188 9.86304 11.9686 10.1718 12.7495 10.1718V9.17183V8.17183C12.4961 8.17183 12.254 8.07159 12.0762 7.89458L11.3707 8.60327ZM12.7495 9.17183V10.1718C13.5304 10.1718 14.2803 9.86304 14.8338 9.31197L14.1283 8.60327L13.4228 7.89458C13.245 8.07159 13.0029 8.17183 12.7495 8.17183V9.17183ZM14.1283 8.60327L14.8338 9.31197C15.3875 8.76074 15.6994 8.01215 15.6994 7.23066H14.6994L13.6994 7.23066C13.6994 7.47882 13.6004 7.71773 13.4228 7.89458L14.1283 8.60327ZM14.6994 7.23066L15.6994 7.23066C15.6994 6.44916 15.3875 5.70057 14.8338 5.14935L14.1283 5.85804L13.4228 6.56673C13.6004 6.74358 13.6994 6.98249 13.6994 7.23066H14.6994ZM14.1283 5.85804L14.8338 5.14935C14.2803 4.59827 13.5304 4.28948 12.7495 4.28948V5.28948V6.28948C13.0029 6.28948 13.245 6.38972 13.4228 6.56673L14.1283 5.85804ZM10.9608 13.7258L10.5865 14.6532C11.1857 14.895 11.9028 15.0248 12.7502 15.0248V14.0248V13.0248C12.1039 13.0248 11.6498 12.9255 11.3351 12.7985L10.9608 13.7258ZM12.7502 14.0248V15.0248C14.4404 15.0248 15.6095 14.5029 16.3127 13.6551L15.5431 13.0167L14.7734 12.3782C14.5524 12.6447 14.0264 13.0248 12.7502 13.0248V14.0248ZM15.5431 13.0167L16.3129 13.6549C16.644 13.2556 16.8143 12.8489 16.9025 12.5337L15.9396 12.2641L14.9766 11.9946C14.9478 12.0973 14.8906 12.2368 14.7732 12.3784L15.5431 13.0167ZM15.9396 12.2641L16.9034 12.5306C16.9561 12.34 16.988 12.1443 16.9986 11.9468L16 11.8934L15.0014 11.84C14.9986 11.8933 14.99 11.9461 14.9757 11.9976L15.9396 12.2641ZM16 11.8934H17V11.8759H16H15V11.8934H16ZM16 11.8759L17 11.8754C16.9997 11.235 16.744 10.6219 16.2905 10.1704L15.585 10.8791L14.8795 11.5878C14.9571 11.6651 15 11.769 15 11.8764L16 11.8759ZM15.585 10.8791L16.2905 10.1704C15.8372 9.71911 15.2234 9.46624 14.5842 9.46595L14.5837 10.466L14.5833 11.4659C14.6952 11.466 14.8017 11.5103 14.8795 11.5878L15.585 10.8791ZM14.5837 10.466V9.46595H10.9166V10.466V11.466H14.5837V10.466ZM10.9166 10.466V9.46595C10.8826 9.46595 10.8483 9.46675 10.8136 9.46848L10.8633 10.4672L10.913 11.466C10.913 11.466 10.9142 11.466 10.9166 11.466V10.466ZM10.8633 10.4672L10.1438 11.1618C10.2774 11.3002 10.3747 11.4743 10.4209 11.6685L11.3937 11.4365L12.3664 11.2046C12.2359 10.6573 11.9614 10.1649 11.5828 9.77273L10.8633 10.4672ZM11.3937 11.4365V12.4365H14.5837V11.4365V10.4365H11.3937V11.4365ZM14.5837 11.4365V12.4365C14.2825 12.4365 14.0294 12.1945 14.0251 11.883L15.025 11.8694L16.025 11.8558C16.0142 11.0655 15.3685 10.4365 14.5837 10.4365V11.4365ZM15.025 11.8694L14.0295 11.7757L14.0275 11.7964L15.0231 11.8901L16.0187 11.9839L16.0206 11.9632L15.025 11.8694ZM15.0231 11.8901L14.0285 11.7868C14.0304 11.768 14.0325 11.7542 14.0337 11.7475C14.0349 11.7402 14.0357 11.7361 14.0358 11.7358C14.0359 11.7354 14.0355 11.7371 14.0345 11.7414C14.0335 11.7456 14.0321 11.7515 14.0301 11.7593L14.9991 12.0066L15.968 12.2539C15.983 12.1952 16.0071 12.0962 16.0177 11.9935L15.0231 11.8901ZM14.9991 12.0066L14.0359 11.7378C14.0346 11.7422 14.0324 11.7466 14.029 11.7506L14.7911 12.3981L15.5531 13.0456C15.7435 12.8215 15.8832 12.5588 15.9622 12.2754L14.9991 12.0066ZM14.7911 12.3981L14.0198 11.7616C14.0137 11.7689 13.9608 11.8337 13.7916 11.9018C13.6143 11.9732 13.293 12.0542 12.7502 12.0542V13.0542V14.0542C14.2375 14.0542 15.0941 13.602 15.5623 13.0346L14.7911 12.3981ZM12.7502 13.0542V12.0542C12.2095 12.0542 11.8888 11.9737 11.7119 11.9028L11.3397 12.831L10.9675 13.7591C11.4328 13.9457 12.0169 14.0542 12.7502 14.0542V13.0542ZM11.3397 12.831L10.3746 12.5692C10.3236 12.7571 10.2401 12.9821 10.102 13.2134L10.9608 13.7258L11.8196 14.2382C12.0676 13.8225 12.2154 13.4224 12.3049 13.0927L11.3397 12.831ZM4.46243 10.466V9.46595C3.81079 9.46595 3.18495 9.72361 2.72282 10.1837L3.42833 10.8924L4.13385 11.6011C4.22023 11.5151 4.33834 11.466 4.46243 11.466V10.466ZM3.42833 10.8924L2.72282 10.1837C2.26053 10.6439 2 11.269 2 11.9218H3H4C4 11.8024 4.04763 11.6869 4.13385 11.6011L3.42833 10.8924ZM3 11.9218H2V12.1017H3H4V11.9218H3ZM3 12.1017L2.00011 12.1168C2.00132 12.1968 2.00672 12.2765 2.01628 12.3559L3.0091 12.2363L4.00192 12.1167C4.00072 12.1067 4.00004 12.0967 3.99989 12.0866L3 12.1017ZM3.0091 12.2363L2.01534 12.3478C2.088 12.9953 2.32175 13.6142 2.69505 14.1485L3.51477 13.5757L4.3345 13.003C4.15211 12.7419 4.03824 12.4401 4.00286 12.1248L3.0091 12.2363ZM3.51477 13.5757L2.69689 14.1511C3.44639 15.2165 4.79319 15.9954 6.89981 15.9954V14.9954V13.9954C5.33021 13.9954 4.64651 13.4465 4.33266 13.0003L3.51477 13.5757ZM6.89981 14.9954V15.9954C9.00605 15.9954 10.3534 15.2174 11.1032 14.1498L10.2848 13.5751L9.46648 13.0003C9.15288 13.4469 8.46978 13.9954 6.89981 13.9954V14.9954ZM10.2848 13.5751L11.1046 14.1478C11.4779 13.6136 11.7116 12.9947 11.7843 12.3472L10.7905 12.2357L9.79675 12.1241C9.76137 12.4394 9.6475 12.7413 9.46511 13.0023L10.2848 13.5751ZM10.7905 12.2357L11.7853 12.338C11.7922 12.2705 11.7968 12.2027 11.7991 12.1348L10.7996 12.1017L9.80016 12.0686C9.79944 12.0902 9.79798 12.1118 9.79577 12.1333L10.7905 12.2357ZM10.7996 12.1017H11.7996V11.9218H10.7996H9.79961V12.1017H10.7996ZM10.7996 11.9218H11.7996C11.7996 11.269 11.5391 10.6439 11.0768 10.1837L10.3713 10.8924L9.66576 11.6011C9.75199 11.6869 9.79961 11.8024 9.79961 11.9218H10.7996ZM10.3713 10.8924L11.0768 10.1837C10.6147 9.72361 9.98882 9.46595 9.33718 9.46595V10.466V11.466C9.46127 11.466 9.57937 11.5151 9.66576 11.6011L10.3713 10.8924ZM9.33718 10.466V9.46595H4.46243V10.466V11.466H9.33718V10.466ZM3.97495 12.0881H4.97495V11.9218H3.97495H2.97495V12.0881H3.97495ZM3.97495 11.9218H4.97495C4.97495 12.0598 4.91986 12.1912 4.82325 12.2874L4.11773 11.5787L3.41221 10.87C3.13276 11.1482 2.97495 11.5265 2.97495 11.9218H3.97495ZM4.11773 11.5787L4.82325 12.2874C4.72679 12.3834 4.59691 12.4365 4.46243 12.4365V11.4365V10.4365C4.06937 10.4365 3.69151 10.5919 3.41221 10.87L4.11773 11.5787ZM4.46243 11.4365V12.4365H9.33718V11.4365V10.4365H4.46243V11.4365ZM9.33718 11.4365V12.4365C9.20269 12.4365 9.07282 12.3834 8.97636 12.2874L9.68188 11.5787L10.3874 10.87C10.1081 10.5919 9.73024 10.4365 9.33718 10.4365V11.4365ZM9.68188 11.5787L8.97636 12.2874C8.87975 12.1912 8.82466 12.0598 8.82466 11.9218H9.82466H10.8247C10.8247 11.5265 10.6668 11.1482 10.3874 10.87L9.68188 11.5787ZM9.82466 11.9218H8.82466V12.0881H9.82466H10.8247V11.9218H9.82466ZM9.82466 12.0881L8.8285 12.0006L8.82395 12.0523L9.82011 12.1399L10.8163 12.2274L10.8208 12.1757L9.82466 12.0881ZM9.82011 12.1399L8.82705 12.0222C8.80901 12.1746 8.75363 12.3204 8.66544 12.4471L9.48603 13.0186L10.3066 13.5901C10.5823 13.1942 10.7564 12.7367 10.8132 12.2575L9.82011 12.1399ZM9.48603 13.0186L8.66773 12.4438C8.56451 12.5907 8.20418 13.0248 6.89981 13.0248V14.0248V15.0248C8.74387 15.0248 9.76667 14.3588 10.3043 13.5934L9.48603 13.0186ZM6.89981 14.0248V13.0248C5.59574 13.0248 5.23478 12.5909 5.13068 12.443L4.31293 13.0186L3.49519 13.5942C4.03325 14.3586 5.05543 15.0248 6.89981 15.0248V14.0248ZM4.31293 13.0186L5.13392 12.4476C5.04584 12.321 4.99058 12.1751 4.97262 12.0228L3.9795 12.1399L2.98638 12.257C3.04285 12.736 3.21657 13.1936 3.49195 13.5895L4.31293 13.0186ZM3.9795 12.1399L4.97566 12.0523L4.97111 12.0006L3.97495 12.0881L2.97879 12.1757L2.98334 12.2274L3.9795 12.1399Z" fill="#ABABAB" mask="url(#path-1-inside-1_914_2489)"/>
</svg>
