<svg width="23" height="23" viewBox="0 0 23 23" fill="none" xmlns="http://www.w3.org/2000/svg">
<path d="M19.8914 10.756H18.6492C18.4869 9.06664 17.7418 7.48644 16.5418 6.28641C15.3417 5.08637 13.7615 4.34128 12.0722 4.17894V2.93681C12.0722 2.75906 12.0016 2.58859 11.8759 2.4629C11.7502 2.33721 11.5798 2.2666 11.402 2.2666C11.2243 2.2666 11.0538 2.33721 10.9281 2.4629C10.8024 2.58859 10.7318 2.75906 10.7318 2.93681V4.17894C9.04986 4.3494 7.47921 5.09827 6.2879 6.29773C5.09658 7.49719 4.35844 9.07291 4.19945 10.756H2.95732C2.86931 10.756 2.78216 10.7733 2.70084 10.807C2.61953 10.8407 2.54565 10.89 2.48341 10.9523C2.42118 11.0145 2.37181 11.0884 2.33813 11.1697C2.30444 11.251 2.28711 11.3382 2.28711 11.4262C2.28711 11.5142 2.30444 11.6013 2.33813 11.6827C2.37181 11.764 2.42118 11.8379 2.48341 11.9001C2.54565 11.9623 2.61953 12.0117 2.70084 12.0454C2.78216 12.0791 2.86931 12.0964 2.95732 12.0964H4.19945C4.36179 13.7857 5.10688 15.3659 6.30692 16.5659C7.50695 17.766 9.08715 18.5111 10.7765 18.6734V19.9155C10.7765 20.0933 10.8471 20.2638 10.9728 20.3895C11.0985 20.5151 11.2689 20.5858 11.4467 20.5858C11.6244 20.5858 11.7949 20.5151 11.9206 20.3895C12.0463 20.2638 12.1169 20.0933 12.1169 19.9155V18.6734C13.8056 18.5094 15.3849 17.7638 16.5846 16.5641C17.7843 15.3644 18.5299 13.7851 18.6939 12.0964H19.936C20.0241 12.0964 20.1112 12.0791 20.1925 12.0454C20.2738 12.0117 20.3477 11.9623 20.41 11.9001C20.4722 11.8379 20.5216 11.764 20.5552 11.6827C20.5889 11.6013 20.6063 11.5142 20.6063 11.4262C20.6063 11.3382 20.5889 11.251 20.5552 11.1697C20.5216 11.0884 20.4722 11.0145 20.41 10.9523C20.3477 10.89 20.2738 10.8407 20.1925 10.807C20.1112 10.7733 20.0241 10.756 19.936 10.756H19.8914ZM11.402 17.3598C10.2284 17.3598 9.08124 17.0118 8.10546 16.3598C7.12968 15.7078 6.36916 14.7811 5.92006 13.6969C5.47095 12.6126 5.35345 11.4196 5.5824 10.2686C5.81135 9.11758 6.37647 8.06031 7.2063 7.23047C8.03613 6.40064 9.0934 5.83552 10.2444 5.60657C11.3954 5.37762 12.5885 5.49513 13.6727 5.94423C14.7569 6.39333 15.6836 7.15386 16.3356 8.12963C16.9876 9.10541 17.3356 10.2526 17.3356 11.4262C17.3356 13.0007 16.7108 14.5109 15.5982 15.625C14.4857 16.7392 12.9765 17.3664 11.402 17.3687V17.3598Z" fill="black"/>
<path d="M15.4505 11.4352C15.4505 12.238 15.2123 13.0227 14.7661 13.6901C14.3199 14.3575 13.6858 14.8774 12.9439 15.1843C12.2021 15.4911 11.3859 15.5709 10.5987 15.4136C9.81144 15.2563 9.08857 14.8691 8.52154 14.3008C7.95451 13.7325 7.56883 13.0088 7.4133 12.2212C7.25777 11.4336 7.33938 10.6176 7.64782 9.87645C7.95626 9.13528 8.47765 8.50228 9.146 8.05757C9.81434 7.61285 10.5996 7.37642 11.4024 7.37818C11.9347 7.37818 12.4619 7.48318 12.9536 7.68718C13.4453 7.89117 13.892 8.19015 14.268 8.567C14.644 8.94384 14.942 9.39116 15.1449 9.88333C15.3478 10.3755 15.4516 10.9029 15.4505 11.4352Z" fill="black"/>
</svg>
