<svg width="24" height="24" viewBox="0 0 24 24" fill="none" xmlns="http://www.w3.org/2000/svg">
<g clip-path="url(#clip0_17_505)">
<path d="M22.4134 11.6864C20.1667 7.53311 16.2267 5.01978 11.8667 5.01978C7.50673 5.01978 3.56006 7.53311 1.3334 11.6864L1.14673 11.9998L1.32006 12.3198C3.56673 16.4731 7.50673 18.9864 11.8667 18.9864C16.2267 18.9864 20.1734 16.5064 22.4134 12.3198L22.5867 11.9998L22.4134 11.6864ZM11.8667 17.6198C8.1134 17.6198 4.66673 15.5264 2.66673 11.9998C4.66673 8.47311 8.1134 6.37978 11.8667 6.37978C15.6201 6.37978 19.0267 8.47977 21.0601 11.9998C19.0267 15.5264 15.6134 17.6198 11.8667 17.6198Z" fill="#777777"/>
<path d="M12.0601 7.4469C11.1562 7.4535 10.2745 7.72782 9.52638 8.23522C8.77828 8.74262 8.19732 9.46034 7.85688 10.2977C7.51644 11.1351 7.43179 12.0546 7.61363 12.9401C7.79547 13.8255 8.23563 14.6373 8.87853 15.2727C9.52142 15.9082 10.3382 16.3389 11.2257 16.5104C12.1133 16.6819 13.0317 16.5865 13.8651 16.2364C14.6984 15.8862 15.4093 15.2969 15.908 14.543C16.4067 13.789 16.6707 12.9042 16.6668 12.0002C16.6642 11.3985 16.5428 10.8032 16.3097 10.2485C16.0766 9.69378 15.7364 9.19049 15.3084 8.7675C14.8805 8.34451 14.3733 8.01013 13.8159 7.78351C13.2584 7.5569 12.6618 7.44251 12.0601 7.4469ZM12.0601 15.2602C11.4216 15.2537 10.7993 15.0586 10.2713 14.6994C9.74333 14.3403 9.33324 13.8332 9.09253 13.2418C8.85182 12.6504 8.79123 12.001 8.91838 11.3753C9.04552 10.7495 9.35472 10.1753 9.80715 9.72471C10.2596 9.27412 10.8351 8.96726 11.4613 8.84268C12.0876 8.71809 12.7367 8.78133 13.3271 9.02445C13.9176 9.26757 14.423 9.67973 14.7799 10.2092C15.1369 10.7386 15.3295 11.3617 15.3334 12.0002C15.3352 12.43 15.2517 12.8558 15.0876 13.253C14.9236 13.6502 14.6823 14.0108 14.3778 14.3141C14.0734 14.6173 13.7117 14.8571 13.3138 15.0195C12.916 15.182 12.4898 15.2638 12.0601 15.2602Z" fill="#777777"/>
</g>
<defs>
<clipPath id="clip0_17_505">
<rect width="24" height="24" fill="white"/>
</clipPath>
</defs>
</svg>
