<svg width="24" height="24" viewBox="0 0 24 24" fill="none" xmlns="http://www.w3.org/2000/svg">
<g clip-path="url(#clip0_17_477)">
<path d="M22.4134 11.6864C20.1667 7.53311 16.2267 5.01978 11.8667 5.01978C7.50673 5.01978 3.56006 7.53311 1.3334 11.6864L1.14673 11.9998L1.32006 12.3198C3.56673 16.4731 7.50673 18.9864 11.8667 18.9864C16.2267 18.9864 20.1734 16.5064 22.4134 12.3198L22.5867 11.9998L22.4134 11.6864ZM11.8667 17.6198C8.1134 17.6198 4.66673 15.5264 2.66673 11.9998C4.66673 8.47311 8.1134 6.37978 11.8667 6.37978C15.6201 6.37978 19.0267 8.47977 21.0601 11.9998C19.0267 15.5264 15.6134 17.6198 11.8667 17.6198Z" fill="#777777"/>
<path d="M12.06 7.4469C11.1561 7.4535 10.2744 7.72782 9.52626 8.23522C8.77815 8.74262 8.19719 9.46034 7.85676 10.2977C7.51632 11.1351 7.43167 12.0546 7.61351 12.9401C7.79534 13.8255 8.23551 14.6373 8.8784 15.2727C9.5213 15.9082 10.3381 16.3389 11.2256 16.5104C12.1131 16.6819 13.0316 16.5865 13.865 16.2364C14.6983 15.8862 15.4092 15.2969 15.9079 14.543C16.4065 13.789 16.6706 12.9042 16.6666 12.0002C16.664 11.3985 16.5427 10.8032 16.3096 10.2485C16.0765 9.69378 15.7363 9.19049 15.3083 8.7675C14.8804 8.34451 14.3731 8.01013 13.8157 7.78351C13.2583 7.5569 12.6617 7.44251 12.06 7.4469ZM12.06 15.2602C11.4215 15.2537 10.7992 15.0586 10.2712 14.6994C9.74321 14.3403 9.33311 13.8332 9.09241 13.2418C8.8517 12.6504 8.79111 12.001 8.91825 11.3753C9.0454 10.7495 9.3546 10.1753 9.80703 9.72471C10.2595 9.27412 10.8349 8.96726 11.4612 8.84268C12.0875 8.71809 12.7366 8.78133 13.327 9.02445C13.9174 9.26757 14.4229 9.67973 14.7798 10.2092C15.1368 10.7386 15.3293 11.3617 15.3333 12.0002C15.3351 12.43 15.2515 12.8558 15.0875 13.253C14.9235 13.6502 14.6822 14.0108 14.3777 14.3141C14.0732 14.6173 13.7116 14.8571 13.3137 15.0195C12.9158 15.182 12.4897 15.2638 12.06 15.2602Z" fill="#777777"/>
<path d="M18.1543 2.10034L6.99998 21.4201" stroke="#777777" stroke-width="1.3"/>
</g>
<defs>
<clipPath id="clip0_17_477">
<rect width="24" height="24" fill="white"/>
</clipPath>
</defs>
</svg>
