<svg width="15" height="15" viewBox="0 0 15 15" fill="none" xmlns="http://www.w3.org/2000/svg">
<path d="M7.375 13.75C10.8958 13.75 13.75 10.8958 13.75 7.375C13.75 3.85418 10.8958 1 7.375 1C3.85418 1 1 3.85418 1 7.375C1 10.8958 3.85418 13.75 7.375 13.75Z" stroke="white" stroke-width="1.2"/>
<path d="M7.37504 11.9792C7.57064 11.9792 7.72921 11.8206 7.72921 11.625C7.72921 11.4294 7.57064 11.2709 7.37504 11.2709C7.17944 11.2709 7.02087 11.4294 7.02087 11.625C7.02087 11.8206 7.17944 11.9792 7.37504 11.9792Z" fill="#005C4A" fill-opacity="0.34" stroke="white" stroke-width="1.2"/>
<path d="M7.375 10.2084V9.20325C7.375 8.53458 7.80283 7.941 8.4375 7.72921C8.7471 7.62643 9.01641 7.42867 9.20716 7.16404C9.39791 6.89941 9.50038 6.58138 9.5 6.25517V5.89179C9.5 4.75421 8.57917 3.83337 7.44158 3.83337H7.375C6.81141 3.83337 6.27091 4.05726 5.8724 4.45577C5.47388 4.85429 5.25 5.39479 5.25 5.95837" stroke="white" stroke-width="1.2"/>
</svg>
