<svg width="18" height="18" viewBox="0 0 18 18" fill="none" xmlns="http://www.w3.org/2000/svg">
<path d="M8.5166 15.2194C12.0374 15.2194 14.8916 12.3652 14.8916 8.84436C14.8916 5.32354 12.0374 2.46936 8.5166 2.46936C4.99579 2.46936 2.1416 5.32354 2.1416 8.84436C2.1416 12.3652 4.99579 15.2194 8.5166 15.2194Z" stroke="#005C4A" stroke-opacity="0.34" stroke-width="1.2"/>
<path d="M8.51628 13.4486C8.71188 13.4486 8.87044 13.29 8.87044 13.0944C8.87044 12.8988 8.71188 12.7402 8.51628 12.7402C8.32068 12.7402 8.16211 12.8988 8.16211 13.0944C8.16211 13.29 8.32068 13.4486 8.51628 13.4486Z" fill="#005C4A" fill-opacity="0.34" stroke="#005C4A" stroke-opacity="0.34" stroke-width="1.2"/>
<path d="M8.5166 11.6777V10.6726C8.5166 10.0039 8.94443 9.41036 9.5791 9.19857C9.8887 9.09579 10.158 8.89803 10.3488 8.6334C10.5395 8.36877 10.642 8.05074 10.6416 7.72453V7.36115C10.6416 6.22357 9.72077 5.30273 8.58318 5.30273H8.5166C7.95302 5.30273 7.41251 5.52662 7.014 5.92513C6.61548 6.32365 6.3916 6.86415 6.3916 7.42773" stroke="#005C4A" stroke-opacity="0.34" stroke-width="1.2"/>
</svg>
