<svg width="16" height="17" viewBox="0 0 16 17" fill="none" xmlns="http://www.w3.org/2000/svg">
<path d="M8 15.5C11.866 15.5 15 12.366 15 8.5C15 4.63401 11.866 1.5 8 1.5C4.13401 1.5 1 4.63401 1 8.5C1 12.366 4.13401 15.5 8 15.5Z" stroke="#ABABAB" stroke-width="1.2"/>
<path d="M8 13.5556C8.21478 13.5556 8.38889 13.3815 8.38889 13.1667C8.38889 12.9519 8.21478 12.7778 8 12.7778C7.78523 12.7778 7.61111 12.9519 7.61111 13.1667C7.61111 13.3815 7.78523 13.5556 8 13.5556Z" fill="#005C4A" fill-opacity="0.34" stroke="#ABABAB" stroke-width="1.2"/>
<path d="M8.00002 11.6112V10.5075C8.00002 9.77332 8.4698 9.12154 9.16669 8.88898C9.50664 8.77613 9.80236 8.55898 10.0118 8.2684C10.2213 7.97783 10.3338 7.62862 10.3334 7.27043V6.87143C10.3334 5.62232 9.32224 4.61121 8.07313 4.61121H8.00002C7.38118 4.61121 6.78769 4.85704 6.3501 5.29462C5.91252 5.73221 5.66669 6.3257 5.66669 6.94454" stroke="#ABABAB" stroke-width="1.2"/>
</svg>
