<svg width="17" height="17" viewBox="0 0 17 17" fill="none" xmlns="http://www.w3.org/2000/svg">
<path d="M3.15527 14.1223C3.22877 14.2774 3.32657 14.4215 3.4502 14.5452C3.73048 14.8255 4.11047 14.9841 4.50684 14.9875C4.90305 14.9909 5.28432 14.838 5.56934 14.5627L7.71777 12.4143L7.0127 11.7092L4.86426 13.8577V13.8586C4.76736 13.9521 4.63754 14.0033 4.50293 14.0022C4.36807 14.001 4.23892 13.9472 4.14355 13.8518C4.04819 13.7564 3.99434 13.6273 3.99316 13.4924C3.99225 13.3793 4.02954 13.2706 4.09668 13.1809M3.15527 14.1223L4.09668 13.1809M3.15527 14.1223L3.14941 14.1282C3.14841 14.1261 3.1465 14.1244 3.14551 14.1223L3.15137 14.1165M3.15527 14.1223C3.15428 14.1202 3.15235 14.1186 3.15137 14.1165M4.09668 13.1809L6.29102 10.9875V10.9866L5.58008 10.2766L3.43164 12.425C3.15637 12.7101 3.00448 13.0923 3.00781 13.4885C3.00972 13.7077 3.06014 13.9216 3.15137 14.1165M4.09668 13.1809C4.10832 13.1654 4.11936 13.1493 4.13281 13.135L3.15137 14.1165M10.9482 3.00317C12.0207 3.0033 13.0493 3.42938 13.8076 4.18774C14.566 4.94611 14.9921 5.97464 14.9922 7.04712C14.9922 8.11976 14.5661 9.149 13.8076 9.90747L10.584 13.1321C10.4436 13.2725 10.2771 13.3842 10.0938 13.4602C9.91028 13.5362 9.71325 13.5754 9.51465 13.5754C9.31629 13.5754 9.1198 13.5361 8.93652 13.4602C8.76113 13.3875 8.60125 13.2815 8.46484 13.1497L7.73145 12.4163V12.4016L7.72363 12.4084L5.58105 10.2659L4.86426 9.55005C4.72378 9.40966 4.61216 9.24231 4.53613 9.05884C4.46026 8.87557 4.42093 8.67907 4.4209 8.48071C4.4209 8.28211 4.4601 8.08508 4.53613 7.90161C4.61213 7.71823 4.72387 7.55172 4.86426 7.41138L8.08789 4.18774C8.84636 3.42927 9.8756 3.00317 10.9482 3.00317ZM10.9482 4.00024C10.1401 4.00024 9.36442 4.32137 8.79297 4.89282L5.56934 8.11743C5.4731 8.21379 5.41902 8.34453 5.41895 8.48071C5.41895 8.61709 5.47291 8.74852 5.56934 8.84497L9.15137 12.426C9.24782 12.5224 9.37924 12.5764 9.51562 12.5764C9.65181 12.5763 9.78254 12.5223 9.87891 12.426L13.1025 9.20239C13.674 8.63094 13.9951 7.85527 13.9951 7.04712C13.995 6.23913 13.6739 5.46417 13.1025 4.89282C12.5312 4.32148 11.7562 4.00037 10.9482 4.00024ZM12.0225 6.90747C12.0879 6.90752 12.1525 6.9205 12.2129 6.94556C12.2735 6.9707 12.3287 7.00751 12.375 7.05396C12.4684 7.14747 12.5215 7.27429 12.5215 7.40649C12.5214 7.53862 12.4684 7.66558 12.375 7.75903L9.50977 10.6233H9.50879C9.46284 10.6709 9.40842 10.7095 9.34766 10.7356C9.28694 10.7617 9.22135 10.775 9.15527 10.7756C9.08909 10.7762 9.02318 10.7636 8.96191 10.7385C8.90067 10.7135 8.84466 10.6769 8.79785 10.6301C8.75103 10.5833 8.71355 10.5274 8.68848 10.4661C8.66346 10.4048 8.65079 10.3389 8.65137 10.2727C8.65197 10.2066 8.66628 10.1411 8.69238 10.0803C8.71851 10.0195 8.75612 9.96418 8.80371 9.91821L11.6689 7.05396C11.7153 7.00753 11.7705 6.9707 11.8311 6.94556C11.8916 6.92042 11.9569 6.90747 12.0225 6.90747ZM10.5879 5.47388C10.6872 5.47388 10.7839 5.50353 10.8652 5.55786L10.9404 5.62036L10.9424 5.62134L11.0049 5.69751C11.059 5.77879 11.0889 5.87478 11.0889 5.97388C11.0888 6.10608 11.0358 6.23292 10.9424 6.32642L8.0752 9.19165H8.07422C8.02882 9.24081 7.97407 9.28033 7.91309 9.30786C7.85178 9.33546 7.78499 9.35046 7.71777 9.35181C7.65061 9.35313 7.58379 9.34078 7.52148 9.31567C7.45939 9.29062 7.40284 9.25362 7.35547 9.2063C7.30799 9.15875 7.27016 9.10166 7.24512 9.03931C7.22011 8.977 7.20758 8.91014 7.20898 8.84302C7.21042 8.7758 7.22622 8.70897 7.25391 8.64771C7.28152 8.58676 7.3209 8.5319 7.37012 8.48657L7.37109 8.4856L10.2354 5.62036C10.3288 5.52693 10.4557 5.47395 10.5879 5.47388Z" fill="#25AF94" stroke="#25AF94" stroke-width="0.015625"/>
</svg>
