<svg width="16" height="16" viewBox="0 0 16 16" fill="none" xmlns="http://www.w3.org/2000/svg">
<path d="M5.13607 11.4168C5.27948 11.5181 5.44362 11.5863 5.61661 11.6163C5.78959 11.6463 5.96708 11.6375 6.13622 11.5904C6.30536 11.5433 6.46192 11.4592 6.59456 11.3441C6.72719 11.229 6.83258 11.0859 6.90309 10.925L7.46302 9.22273C7.59919 8.81317 7.82886 8.44097 8.1338 8.13564C8.43875 7.83031 8.81059 7.60024 9.21986 7.46366L10.8473 6.93478C11.0786 6.85427 11.2786 6.7028 11.4188 6.50193C11.5271 6.34964 11.5976 6.17377 11.6246 5.98884C11.6515 5.80391 11.6341 5.61522 11.5738 5.43834C11.5135 5.26146 11.412 5.10146 11.2777 4.97156C11.1434 4.84165 10.9802 4.74556 10.8015 4.69121L9.19077 4.16742C8.78128 4.03152 8.40905 3.80207 8.1036 3.49724C7.79815 3.19242 7.56787 2.8206 7.43102 2.41127L6.90237 0.783878C6.82108 0.553304 6.67013 0.353728 6.47043 0.212801C6.26953 0.0742147 6.03127 0 5.78725 0C5.54323 0 5.30497 0.0742147 5.10407 0.212801C4.90128 0.356272 4.74866 0.559852 4.66777 0.794791L4.13257 2.44255C3.99604 2.84125 3.77066 3.20367 3.47347 3.50238C3.17628 3.80108 2.81507 4.02825 2.41718 4.16669L0.788316 4.69485C0.556536 4.77682 0.356058 4.92902 0.214774 5.13029C0.0734892 5.33156 -0.00157488 5.57188 2.5054e-05 5.81781C0.00162498 6.06375 0.0798093 6.30307 0.2237 6.50248C0.367591 6.70189 0.570033 6.85147 0.802859 6.93042L2.41427 7.45421C2.9367 7.62961 3.39597 7.95498 3.73481 8.38975C3.92824 8.63928 4.07731 8.91937 4.17548 9.21909L4.70486 10.8443C4.7863 11.0756 4.93755 11.2757 5.13752 11.4168M12.2231 15.8399C12.3711 15.9446 12.548 16.0005 12.7292 16C12.9092 16.0006 13.0849 15.9454 13.2324 15.8421C13.3842 15.7349 13.4978 15.582 13.5567 15.4056L13.8272 14.5741C13.8844 14.4015 13.981 14.2445 14.1094 14.1158C14.2378 13.987 14.3944 13.8898 14.5667 13.8321L15.4146 13.5571C15.5856 13.4963 15.7337 13.3842 15.8384 13.236C15.9432 13.0877 15.9997 12.9108 16 12.7292C16 12.5429 15.9404 12.3615 15.83 12.2115C15.7196 12.0615 15.5641 11.9508 15.3863 11.8955L14.5544 11.6263C14.3817 11.569 14.2248 11.4723 14.0961 11.3437C13.9673 11.2152 13.8703 11.0584 13.8127 10.8858L13.5363 10.0397C13.4768 9.86702 13.3645 9.71739 13.2154 9.61189C13.0664 9.5064 12.888 9.45034 12.7054 9.45163C12.5228 9.45291 12.3452 9.51147 12.1976 9.61906C12.05 9.72664 11.9399 9.87783 11.8828 10.0513L11.6108 10.885C11.5551 11.0554 11.461 11.2107 11.3358 11.339C11.2106 11.4673 11.0576 11.5651 10.8887 11.6249L10.0408 11.8999C9.86945 11.9604 9.72102 12.0726 9.61595 12.221C9.51087 12.3694 9.4543 12.5466 9.45401 12.7285C9.4542 12.9119 9.51212 13.0906 9.61954 13.2392C9.72696 13.3878 9.87844 13.4988 10.0525 13.5564L10.8844 13.827C11.0577 13.8842 11.2151 13.9813 11.3439 14.1106C11.4728 14.2399 11.5694 14.3977 11.6261 14.5712L11.9017 15.4173C11.9618 15.5882 12.0736 15.7362 12.2216 15.8407" fill="#FFDB57"/>
</svg>
