<svg width="17" height="17" viewBox="0 0 17 17" fill="none" xmlns="http://www.w3.org/2000/svg">
<path d="M5.9165 3.49536C5.93861 3.49536 5.96045 3.50415 5.97607 3.51978C5.99152 3.53531 6.0004 3.55646 6.00049 3.57837V4.74536C6.00049 4.76731 5.9915 4.78836 5.97607 4.80396C5.96045 4.81958 5.9386 4.82837 5.9165 4.82837C5.89452 4.82828 5.87346 4.81951 5.85791 4.80396C5.84238 4.78834 5.8335 4.76739 5.8335 4.74536V3.57837C5.83358 3.55639 5.84236 3.53533 5.85791 3.51978C5.87346 3.50422 5.89452 3.49545 5.9165 3.49536Z" fill="#ABABAB" stroke="#ABABAB"/>
<path fill-rule="evenodd" clip-rule="evenodd" d="M10 14.0788C10.8272 14.0789 11.6277 13.786 12.2596 13.2521C12.8914 12.7182 13.3137 11.9778 13.4516 11.1621H13.5C14.1188 11.1621 14.7123 10.9163 15.1499 10.4787C15.5875 10.0411 15.8333 9.44761 15.8333 8.82878C15.8333 8.20994 15.5875 7.61645 15.1499 7.17886C14.7123 6.74128 14.1188 6.49544 13.5 6.49544V5.91211H3V10.5788C3 11.507 3.36875 12.3973 4.02513 13.0537C4.6815 13.71 5.57174 14.0788 6.5 14.0788H10ZM4.16667 7.07878V10.5788C4.16667 11.1976 4.4125 11.7911 4.85008 12.2287C5.28767 12.6663 5.88116 12.9121 6.5 12.9121H10C10.6188 12.9121 11.2123 12.6663 11.6499 12.2287C12.0875 11.7911 12.3333 11.1976 12.3333 10.5788V7.07878H4.16667ZM14.6667 8.82878C14.6667 9.1382 14.5437 9.43494 14.325 9.65373C14.1062 9.87253 13.8094 9.99544 13.5 9.99544V7.66211C13.8094 7.66211 14.1062 7.78503 14.325 8.00382C14.5437 8.22261 14.6667 8.51936 14.6667 8.82878Z" fill="#ABABAB"/>
<path d="M7.6665 3.57869C7.6665 3.42399 7.72796 3.27561 7.83736 3.16622C7.94675 3.05682 8.09513 2.99536 8.24984 2.99536C8.40455 2.99536 8.55292 3.05682 8.66232 3.16622C8.77171 3.27561 8.83317 3.42399 8.83317 3.57869V4.74536C8.83317 4.90007 8.77171 5.04844 8.66232 5.15784C8.55292 5.26724 8.40455 5.32869 8.24984 5.32869C8.09513 5.32869 7.94675 5.26724 7.83736 5.15784C7.72796 5.04844 7.6665 4.90007 7.6665 4.74536V3.57869ZM10.5832 2.99536C10.4285 2.99536 10.2801 3.05682 10.1707 3.16622C10.0613 3.27561 9.99984 3.42399 9.99984 3.57869V4.74536C9.99984 4.90007 10.0613 5.04844 10.1707 5.15784C10.2801 5.26724 10.4285 5.32869 10.5832 5.32869C10.7379 5.32869 10.8863 5.26724 10.9956 5.15784C11.105 5.04844 11.1665 4.90007 11.1665 4.74536V3.57869C11.1665 3.42399 11.105 3.27561 10.9956 3.16622C10.8863 3.05682 10.7379 2.99536 10.5832 2.99536Z" fill="#ABABAB"/>
</svg>
