<svg width="13" height="13" viewBox="0 0 13 13" fill="none" xmlns="http://www.w3.org/2000/svg">
<path d="M4.58179 8.84283C4.68935 8.91879 4.81246 8.96987 4.94219 8.99237C5.07193 9.01488 5.20504 9.00824 5.3319 8.97295C5.45876 8.93766 5.57618 8.8746 5.67565 8.78833C5.77513 8.70206 5.85417 8.59475 5.90706 8.47416L6.327 7.19797C6.42913 6.89094 6.60138 6.61191 6.83009 6.38301C7.0588 6.15411 7.33768 5.98164 7.64463 5.87925L8.86519 5.48276C9.03867 5.42241 9.18868 5.30885 9.29386 5.15826C9.37506 5.04409 9.42796 4.91225 9.44817 4.77361C9.46838 4.63497 9.45534 4.49352 9.41011 4.36091C9.36488 4.22831 9.28876 4.10837 9.18804 4.01098C9.08732 3.91359 8.96488 3.84156 8.83083 3.80081L7.62282 3.40814C7.3157 3.30626 7.03653 3.13425 6.80744 2.90573C6.57835 2.67721 6.40564 2.39847 6.303 2.0916L5.90651 0.871589C5.84555 0.698733 5.73234 0.549116 5.58256 0.443467C5.43189 0.339572 5.25319 0.283936 5.07017 0.283936C4.88716 0.283936 4.70846 0.339572 4.55779 0.443467C4.4057 0.551024 4.29123 0.703642 4.23057 0.879769L3.82917 2.11505C3.72677 2.41395 3.55773 2.68564 3.33484 2.90958C3.11195 3.13351 2.84104 3.30381 2.54262 3.4076L1.32097 3.80354C1.14714 3.86499 0.99678 3.97909 0.890817 4.12998C0.784853 4.28086 0.728555 4.46103 0.729755 4.6454C0.730955 4.82977 0.789593 5.00918 0.897512 5.15868C1.00543 5.30817 1.15726 5.42031 1.33188 5.47949L2.54044 5.87216C2.93226 6.00365 3.27672 6.24758 3.53085 6.57352C3.67592 6.76058 3.78772 6.97055 3.86134 7.19525L4.25838 8.41362C4.31946 8.58705 4.4329 8.73703 4.58288 8.84283M9.89704 12.1587C10.008 12.2372 10.1407 12.2791 10.2766 12.2787C10.4116 12.2791 10.5434 12.2378 10.654 12.1604C10.7679 12.08 10.8531 11.9653 10.8973 11.8331L11.1001 11.2098C11.1431 11.0804 11.2155 10.9627 11.3118 10.8661C11.4081 10.7696 11.5255 10.6968 11.6548 10.6535L12.2907 10.4473C12.419 10.4018 12.53 10.3177 12.6086 10.2066C12.6872 10.0955 12.7295 9.96279 12.7297 9.8267C12.7297 9.68704 12.6851 9.55104 12.6022 9.43859C12.5194 9.32614 12.4028 9.24312 12.2694 9.20169L11.6455 8.9999C11.516 8.95694 11.3984 8.88439 11.3018 8.78802C11.2052 8.69165 11.1325 8.5741 11.0892 8.44471L10.882 7.81043C10.8373 7.68098 10.7531 7.56881 10.6413 7.48972C10.5295 7.41063 10.3957 7.36861 10.2588 7.36957C10.1218 7.37054 9.98863 7.41444 9.87794 7.49509C9.76726 7.57575 9.68467 7.68909 9.64181 7.81916L9.43783 8.44416C9.39603 8.57189 9.32547 8.68833 9.23158 8.78449C9.13768 8.88065 9.02297 8.95397 8.89627 8.99881L8.26036 9.20496C8.13183 9.25037 8.0205 9.33446 7.9417 9.44569C7.86289 9.55692 7.82046 9.68983 7.82024 9.82615C7.82039 9.96364 7.86382 10.0976 7.94439 10.209C8.02496 10.3204 8.13857 10.4036 8.26909 10.4468L8.893 10.6497C9.02298 10.6925 9.14106 10.7654 9.2377 10.8623C9.33433 10.9592 9.40681 11.0775 9.44929 11.2076L9.65599 11.8419C9.70109 11.97 9.78496 12.0809 9.89595 12.1593" fill="#767676"/>
</svg>
