<svg width="17" height="17" viewBox="0 0 17 17" fill="none" xmlns="http://www.w3.org/2000/svg">
<path d="M14.148 11.32H3.85202M12.8351 3.99536C13.1741 3.99536 13.4993 4.13584 13.739 4.38588C13.9788 4.63593 14.1135 4.97507 14.1135 5.32869V11.0127C14.1134 11.2203 14.1598 11.4251 14.249 11.6107L14.9316 13.0287C14.9809 13.1307 15.0042 13.2442 14.9994 13.3583C14.9945 13.4724 14.9616 13.5832 14.9039 13.6803C14.8461 13.7773 14.7655 13.8572 14.6696 13.9124C14.5737 13.9676 14.4659 13.9961 14.3564 13.9953H3.64365C3.53415 13.9961 3.42629 13.9676 3.33041 13.9124C3.23453 13.8572 3.15385 13.7773 3.09611 13.6803C3.03836 13.5832 3.00548 13.4724 3.00063 13.3583C2.99577 13.2442 3.0191 13.1307 3.06838 13.0287L3.75103 11.6107C3.84022 11.4251 3.88662 11.2203 3.88654 11.0127V5.32869C3.88654 4.97507 4.02122 4.63593 4.26096 4.38588C4.5007 4.13584 4.82586 3.99536 5.1649 3.99536H12.8351Z" stroke="#ABABAB" stroke-linecap="round" stroke-linejoin="round"/>
</svg>
