<svg width="17" height="17" viewBox="0 0 17 17" fill="none" xmlns="http://www.w3.org/2000/svg">
<g clip-path="url(#clip0_914_2680)">
<mask id="path-1-inside-1_914_2680" fill="white">
<path d="M8.93647 16.708L8.92845 16.7095L8.87669 16.735L8.86211 16.7379L8.8519 16.735L8.80014 16.7095C8.79237 16.7071 8.78654 16.7083 8.78265 16.7131L8.77973 16.7204L8.76734 17.0324L8.77098 17.047L8.77827 17.0565L8.85409 17.1104L8.86503 17.1134L8.87377 17.1104L8.94959 17.0565L8.95834 17.0448L8.96126 17.0324L8.94886 16.7212C8.94692 16.7134 8.94279 16.709 8.93647 16.708ZM9.12966 16.6257L9.12018 16.6271L8.98531 16.6949L8.97802 16.7022L8.97584 16.7102L8.98896 17.0237L8.9926 17.0324L8.99844 17.0375L9.14497 17.1053C9.1542 17.1078 9.16125 17.1058 9.16611 17.0995L9.16902 17.0893L9.14424 16.6417C9.14181 16.6329 9.13695 16.6276 9.12966 16.6257ZM8.60841 16.6271C8.6052 16.6252 8.60136 16.6245 8.59769 16.6253C8.59403 16.6262 8.59082 16.6284 8.58873 16.6315L8.58436 16.6417L8.55957 17.0893C8.56006 17.0981 8.56419 17.1039 8.57196 17.1068L8.5829 17.1053L8.72943 17.0375L8.73672 17.0317L8.73964 17.0237L8.75203 16.7102L8.74984 16.7015L8.74255 16.6942L8.60841 16.6271Z"/>
</mask>
<path d="M8.93647 16.708L9.08853 15.7197L8.92265 15.6941L8.75752 15.7242L8.93647 16.708ZM8.92845 16.7095L8.7495 15.7256L8.61182 15.7507L8.4863 15.8126L8.92845 16.7095ZM8.87669 16.735L9.0728 17.7156L9.2013 17.6899L9.31884 17.6319L8.87669 16.735ZM8.86211 16.7379L8.58741 17.6994L8.8205 17.766L9.05822 17.7185L8.86211 16.7379ZM8.8519 16.735L8.40975 17.6319L8.49057 17.6718L8.5772 17.6965L8.8519 16.735ZM8.80014 16.7095L9.2423 15.8126L9.17259 15.7782L9.09842 15.755L8.80014 16.7095ZM8.78265 16.7131L8.00178 16.0884L7.9092 16.2042L7.85416 16.3418L8.78265 16.7131ZM8.77973 16.7204L7.85124 16.3491L7.78735 16.5088L7.78052 16.6807L8.77973 16.7204ZM8.76734 17.0324L7.76813 16.9928L7.76244 17.1359L7.7972 17.275L8.76734 17.0324ZM8.77098 17.047L7.80084 17.2896L7.85136 17.4916L7.97835 17.6567L8.77098 17.047ZM8.77827 17.0565L7.98564 17.6662L8.07676 17.7847L8.19852 17.8713L8.77827 17.0565ZM8.85409 17.1104L8.27433 17.9252L8.4217 18.0301L8.59645 18.0767L8.85409 17.1104ZM8.86503 17.1134L8.60739 18.0796L8.89694 18.1568L9.18123 18.0621L8.86503 17.1134ZM8.87377 17.1104L9.18998 18.0591L9.33176 18.0119L9.45353 17.9252L8.87377 17.1104ZM8.94959 17.0565L9.52934 17.8713L9.6562 17.781L9.7496 17.6565L8.94959 17.0565ZM8.95834 17.0448L9.75835 17.6448L9.88386 17.4775L9.93176 17.2739L8.95834 17.0448ZM8.96126 17.0324L9.93468 17.2615L9.96588 17.1288L9.96046 16.9927L8.96126 17.0324ZM8.94886 16.7212L9.94807 16.6814L9.94397 16.5785L9.919 16.4786L8.94886 16.7212ZM9.12966 16.6257L9.38732 15.6594L9.18482 15.6054L8.97768 15.6373L9.12966 16.6257ZM9.12018 16.6271L8.9682 15.6387L8.81212 15.6627L8.67103 15.7337L9.12018 16.6271ZM8.98531 16.6949L8.53617 15.8015L8.39217 15.8738L8.2782 15.9878L8.98531 16.6949ZM8.97802 16.7022L8.27091 15.9951L8.08311 16.1829L8.01324 16.4391L8.97802 16.7022ZM8.97584 16.7102L8.01106 16.4472L7.97022 16.5969L7.97671 16.752L8.97584 16.7102ZM8.98896 17.0237L7.98983 17.0655L7.99729 17.2437L8.06589 17.4083L8.98896 17.0237ZM8.9926 17.0324L8.06954 17.4171L8.15903 17.6318L8.33412 17.785L8.9926 17.0324ZM8.99844 17.0375L8.33995 17.7901L8.4481 17.8848L8.57851 17.9451L8.99844 17.0375ZM9.14497 17.1053L8.72504 18.0129L8.80513 18.05L8.89047 18.0724L9.14497 17.1053ZM9.16611 17.0995L9.95873 17.7092L10.0752 17.5578L10.1276 17.3742L9.16611 17.0995ZM9.16902 17.0893L10.1306 17.364L10.1768 17.2021L10.1675 17.034L9.16902 17.0893ZM9.14424 16.6417L10.1427 16.5864L10.1367 16.4783L10.1078 16.374L9.14424 16.6417ZM8.60841 16.6271L8.09012 17.4823L8.12486 17.5034L8.16119 17.5215L8.60841 16.6271ZM8.58873 16.6315L7.75702 16.0763L7.70588 16.1529L7.6696 16.2375L8.58873 16.6315ZM8.58436 16.6417L7.66522 16.2477L7.59565 16.4101L7.58589 16.5864L8.58436 16.6417ZM8.55957 17.0893L7.5611 17.034L7.55803 17.0894L7.56111 17.1448L8.55957 17.0893ZM8.57196 17.1068L8.22084 18.0431L8.45563 18.1312L8.70419 18.098L8.57196 17.1068ZM8.5829 17.1053L8.71512 18.0966L8.86531 18.0765L9.00282 18.0129L8.5829 17.1053ZM8.72943 17.0375L9.14935 17.9451L9.2594 17.8942L9.35409 17.8184L8.72943 17.0375ZM8.73672 17.0317L9.36138 17.8126L9.58059 17.6373L9.67652 17.3734L8.73672 17.0317ZM8.73964 17.0237L9.67943 17.3654L9.7327 17.2189L9.73886 17.0632L8.73964 17.0237ZM8.75203 16.7102L9.75125 16.7497L9.75691 16.6066L9.72216 16.4676L8.75203 16.7102ZM8.74984 16.7015L9.71998 16.4589L9.65279 16.1902L9.45695 15.9944L8.74984 16.7015ZM8.74255 16.6942L9.44966 15.9871L9.33491 15.8723L9.18977 15.7998L8.74255 16.6942ZM8.93647 16.708L8.75752 15.7242L8.7495 15.7256L8.92845 16.7095L9.1074 17.6933L9.11542 17.6919L8.93647 16.708ZM8.92845 16.7095L8.4863 15.8126L8.43454 15.8381L8.87669 16.735L9.31884 17.6319L9.3706 17.6064L8.92845 16.7095ZM8.87669 16.735L8.68058 15.7544L8.666 15.7573L8.86211 16.7379L9.05822 17.7185L9.0728 17.7156L8.87669 16.735ZM8.86211 16.7379L9.13682 15.7764L9.12661 15.7735L8.8519 16.735L8.5772 17.6965L8.58741 17.6994L8.86211 16.7379ZM8.8519 16.735L9.29406 15.8381L9.2423 15.8126L8.80014 16.7095L8.35799 17.6064L8.40975 17.6319L8.8519 16.735ZM8.80014 16.7095L9.09842 15.755C8.98906 15.7208 8.80583 15.6838 8.58603 15.7296C8.34466 15.7799 8.14196 15.9132 8.00178 16.0884L8.78265 16.7131L9.56352 17.3378C9.42722 17.5082 9.22938 17.6385 8.99384 17.6876C8.77988 17.7321 8.60345 17.6957 8.50187 17.664L8.80014 16.7095ZM8.78265 16.7131L7.85416 16.3418L7.85124 16.3491L8.77973 16.7204L9.70822 17.0918L9.71114 17.0845L8.78265 16.7131ZM8.77973 16.7204L7.78052 16.6807L7.76813 16.9928L8.76734 17.0324L9.76655 17.0721L9.77894 16.7601L8.77973 16.7204ZM8.76734 17.0324L7.7972 17.275L7.80084 17.2896L8.77098 17.047L9.74113 16.8045L9.73748 16.7899L8.76734 17.0324ZM8.77098 17.047L7.97835 17.6567L7.98564 17.6662L8.77827 17.0565L9.5709 16.4468L9.56361 16.4373L8.77098 17.047ZM8.77827 17.0565L8.19852 17.8713L8.27433 17.9252L8.85409 17.1104L9.43385 16.2957L9.35803 16.2417L8.77827 17.0565ZM8.85409 17.1104L8.59645 18.0767L8.60739 18.0796L8.86503 17.1134L9.12267 16.1471L9.11173 16.1442L8.85409 17.1104ZM8.86503 17.1134L9.18123 18.0621L9.18998 18.0591L8.87377 17.1104L8.55757 16.1618L8.54882 16.1647L8.86503 17.1134ZM8.87377 17.1104L9.45353 17.9252L9.52934 17.8713L8.94959 17.0565L8.36984 16.2417L8.29402 16.2957L8.87377 17.1104ZM8.94959 17.0565L9.7496 17.6565L9.75835 17.6448L8.95834 17.0448L8.15833 16.4449L8.14958 16.4565L8.94959 17.0565ZM8.95834 17.0448L9.93176 17.2739L9.93468 17.2615L8.96126 17.0324L7.98783 16.8034L7.98492 16.8158L8.95834 17.0448ZM8.96126 17.0324L9.96046 16.9927L9.94807 16.6814L8.94886 16.7212L7.94965 16.7609L7.96205 17.0722L8.96126 17.0324ZM8.94886 16.7212L9.919 16.4786C9.88977 16.3617 9.82394 16.187 9.67133 16.0254C9.5066 15.851 9.29686 15.7517 9.08853 15.7197L8.93647 16.708L8.78441 17.6964C8.5824 17.6653 8.37789 17.5687 8.21728 17.3986C8.06881 17.2414 8.00601 17.0729 7.97872 16.9637L8.94886 16.7212ZM9.12966 16.6257L8.97768 15.6373L8.9682 15.6387L9.12018 16.6271L9.27216 17.6155L9.28164 17.614L9.12966 16.6257ZM9.12018 16.6271L8.67103 15.7337L8.53617 15.8015L8.98531 16.6949L9.43446 17.5884L9.56933 17.5206L9.12018 16.6271ZM8.98531 16.6949L8.2782 15.9878L8.27091 15.9951L8.97802 16.7022L9.68513 17.4093L9.69242 17.402L8.98531 16.6949ZM8.97802 16.7022L8.01324 16.4391L8.01106 16.4472L8.97584 16.7102L9.94061 16.9733L9.9428 16.9653L8.97802 16.7022ZM8.97584 16.7102L7.97671 16.752L7.98983 17.0655L8.98896 17.0237L9.98808 16.9819L9.97496 16.6684L8.97584 16.7102ZM8.98896 17.0237L8.06589 17.4083L8.06954 17.4171L8.9926 17.0324L9.91567 16.6478L9.91202 16.639L8.98896 17.0237ZM8.9926 17.0324L8.33412 17.785L8.33995 17.7901L8.99844 17.0375L9.65692 16.285L9.65109 16.2799L8.9926 17.0324ZM8.99844 17.0375L8.57851 17.9451L8.72504 18.0129L9.14497 17.1053L9.56489 16.1978L9.41836 16.13L8.99844 17.0375ZM9.14497 17.1053L8.89047 18.0724C9.01486 18.1052 9.20496 18.1299 9.42308 18.0697C9.65517 18.0057 9.83653 17.8681 9.95873 17.7092L9.16611 17.0995L8.37348 16.4898C8.49082 16.3373 8.66623 16.2038 8.89128 16.1417C9.10235 16.0835 9.28431 16.108 9.39946 16.1383L9.14497 17.1053ZM9.16611 17.0995L10.1276 17.3742L10.1306 17.364L9.16902 17.0893L8.20749 16.8146L8.20458 16.8248L9.16611 17.0995ZM9.16902 17.0893L10.1675 17.034L10.1427 16.5864L9.14424 16.6417L8.14577 16.697L8.17055 17.1446L9.16902 17.0893ZM9.14424 16.6417L10.1078 16.374C10.0331 16.1054 9.81167 15.7726 9.38732 15.6594L9.12966 16.6257L8.87199 17.5919C8.6987 17.5457 8.53155 17.4498 8.39885 17.3038C8.27261 17.165 8.21087 17.0179 8.18072 16.9093L9.14424 16.6417ZM8.60841 16.6271L9.1267 15.7719C8.90303 15.6364 8.6358 15.5925 8.38076 15.6492L8.59769 16.6253L8.81463 17.6015C8.56692 17.6566 8.30737 17.614 8.09012 17.4823L8.60841 16.6271ZM8.59769 16.6253L8.38076 15.6492C8.12566 15.7059 7.90219 15.8588 7.75702 16.0763L8.58873 16.6315L9.42044 17.1867C9.27945 17.3979 9.06239 17.5465 8.81463 17.6015L8.59769 16.6253ZM8.58873 16.6315L7.6696 16.2375L7.66522 16.2477L8.58436 16.6417L9.50349 17.0356L9.50786 17.0254L8.58873 16.6315ZM8.58436 16.6417L7.58589 16.5864L7.5611 17.034L8.55957 17.0893L9.55804 17.1446L9.58283 16.697L8.58436 16.6417ZM8.55957 17.0893L7.56111 17.1448C7.56943 17.2945 7.61394 17.4904 7.74701 17.6783C7.88256 17.8696 8.06079 17.9831 8.22084 18.0431L8.57196 17.1068L8.92309 16.1705C9.07536 16.2276 9.24764 16.3367 9.37906 16.5222C9.508 16.7043 9.5502 16.8929 9.55803 17.0338L8.55957 17.0893ZM8.57196 17.1068L8.70419 18.098L8.71512 18.0966L8.5829 17.1053L8.45068 16.1141L8.43974 16.1156L8.57196 17.1068ZM8.5829 17.1053L9.00282 18.0129L9.14935 17.9451L8.72943 17.0375L8.30951 16.13L8.16298 16.1978L8.5829 17.1053ZM8.72943 17.0375L9.35409 17.8184L9.36138 17.8126L8.73672 17.0317L8.11206 16.2508L8.10477 16.2566L8.72943 17.0375ZM8.73672 17.0317L9.67652 17.3734L9.67943 17.3654L8.73964 17.0237L7.79984 16.682L7.79692 16.69L8.73672 17.0317ZM8.73964 17.0237L9.73886 17.0632L9.75125 16.7497L8.75203 16.7102L7.75281 16.6707L7.74042 16.9842L8.73964 17.0237ZM8.75203 16.7102L9.72216 16.4676L9.71998 16.4589L8.74984 16.7015L7.77971 16.944L7.7819 16.9528L8.75203 16.7102ZM8.74984 16.7015L9.45695 15.9944L9.44966 15.9871L8.74255 16.6942L8.03544 17.4013L8.04273 17.4086L8.74984 16.7015ZM8.74255 16.6942L9.18977 15.7998L9.05563 15.7327L8.60841 16.6271L8.16119 17.5215L8.29533 17.5886L8.74255 16.6942Z" fill="#25AF94" mask="url(#path-1-inside-1_914_2680)"/>
<path d="M8.50416 13.6037C8.6975 13.6037 8.88293 13.6805 9.01965 13.8172C9.15636 13.9539 9.23317 14.1393 9.23317 14.3327V15.0617C9.23317 15.255 9.15636 15.4405 9.01965 15.5772C8.88293 15.7139 8.6975 15.7907 8.50416 15.7907C8.31081 15.7907 8.12539 15.7139 7.98867 15.5772C7.85195 15.4405 7.77515 15.255 7.77515 15.0617V14.3327C7.77515 14.1393 7.85195 13.9539 7.98867 13.8172C8.12539 13.6805 8.31081 13.6037 8.50416 13.6037ZM13.1436 12.1092L13.659 12.6246C13.7918 12.7621 13.8653 12.9462 13.8636 13.1374C13.862 13.3285 13.7853 13.5114 13.6501 13.6465C13.515 13.7817 13.3321 13.8584 13.141 13.86C12.9498 13.8617 12.7657 13.7882 12.6282 13.6554L12.1128 13.14C11.98 13.0025 11.9065 12.8184 11.9082 12.6272C11.9098 12.4361 11.9865 12.2532 12.1216 12.1181C12.2568 11.9829 12.4397 11.9062 12.6308 11.9046C12.8219 11.9029 13.0061 11.9764 13.1436 12.1092ZM3.86472 12.1092C3.99592 11.9784 4.17196 11.9025 4.35709 11.8969C4.54222 11.8912 4.72256 11.9562 4.86149 12.0787C5.00041 12.2012 5.0875 12.372 5.10507 12.5564C5.12263 12.7408 5.06935 12.925 4.95606 13.0715L4.89555 13.14L4.38014 13.6554C4.24894 13.7862 4.07291 13.8621 3.88777 13.8677C3.70264 13.8734 3.5223 13.8084 3.38337 13.6859C3.24445 13.5634 3.15736 13.3926 3.1398 13.2082C3.12223 13.0238 3.17551 12.8396 3.28881 12.6931L3.34931 12.6246L3.86472 12.1092ZM8.50416 4.1265C9.66423 4.1265 10.7768 4.58734 11.5971 5.40763C12.4174 6.22793 12.8782 7.3405 12.8782 8.50057C12.8782 9.66065 12.4174 10.7732 11.5971 11.5935C10.7768 12.4138 9.66423 12.8746 8.50416 12.8746C7.34408 12.8746 6.23152 12.4138 5.41122 11.5935C4.59092 10.7732 4.13009 9.66065 4.13009 8.50057C4.13009 7.3405 4.59092 6.22793 5.41122 5.40763C6.23152 4.58734 7.34408 4.1265 8.50416 4.1265ZM8.50416 5.58452C7.73077 5.58452 6.98907 5.89175 6.4422 6.43861C5.89534 6.98548 5.58811 7.72719 5.58811 8.50057C5.58811 9.27396 5.89534 10.0157 6.4422 10.5625C6.98907 11.1094 7.73077 11.4166 8.50416 11.4166C9.27754 11.4166 10.0193 11.1094 10.5661 10.5625C11.113 10.0157 11.4202 9.27396 11.4202 8.50057C11.4202 7.72719 11.113 6.98548 10.5661 6.43861C10.0193 5.89175 9.27754 5.58452 8.50416 5.58452ZM2.67206 7.77156C2.85787 7.77177 3.03659 7.84291 3.1717 7.97047C3.30681 8.09802 3.38812 8.27236 3.39901 8.45785C3.4099 8.64334 3.34955 8.82599 3.23029 8.96848C3.11103 9.11096 2.94186 9.20253 2.75736 9.22448L2.67206 9.22958H1.94305C1.75724 9.22938 1.57852 9.15823 1.44341 9.03067C1.30829 8.90312 1.22699 8.72879 1.2161 8.5433C1.20521 8.3578 1.26556 8.17516 1.38482 8.03267C1.50408 7.89018 1.67324 7.79861 1.85775 7.77666L1.94305 7.77156H2.67206ZM15.0653 7.77156C15.2586 7.77156 15.444 7.84837 15.5808 7.98508C15.7175 8.1218 15.7943 8.30723 15.7943 8.50057C15.7943 8.69392 15.7175 8.87934 15.5808 9.01606C15.444 9.15278 15.2586 9.22958 15.0653 9.22958H14.3363C14.1429 9.22958 13.9575 9.15278 13.8208 9.01606C13.6841 8.87934 13.6072 8.69392 13.6072 8.50057C13.6072 8.30723 13.6841 8.1218 13.8208 7.98508C13.9575 7.84837 14.1429 7.77156 14.3363 7.77156H15.0653ZM3.34931 3.34573C3.47484 3.22021 3.64186 3.1448 3.81903 3.13366C3.9962 3.12252 4.17134 3.17641 4.31161 3.28522L4.38014 3.34573L4.89555 3.86114C5.0263 3.99233 5.1022 4.16837 5.10786 4.3535C5.11351 4.53863 5.04848 4.71898 4.92599 4.8579C4.80349 4.99683 4.6327 5.08391 4.44832 5.10148C4.26393 5.11904 4.07978 5.06577 3.93325 4.95247L3.86472 4.89196L3.34931 4.37655C3.21264 4.23984 3.13587 4.05445 3.13587 3.86114C3.13587 3.66783 3.21264 3.48244 3.34931 3.34573ZM13.659 3.34573C13.7957 3.48244 13.8724 3.66783 13.8724 3.86114C13.8724 4.05445 13.7957 4.23984 13.659 4.37655L13.1436 4.89196C13.0763 4.96159 12.9959 5.01713 12.907 5.05533C12.818 5.09354 12.7224 5.11365 12.6256 5.11449C12.5288 5.11533 12.4328 5.09689 12.3432 5.06023C12.2536 5.02358 12.1722 4.96945 12.1037 4.901C12.0353 4.83255 11.9812 4.75115 11.9445 4.66156C11.9078 4.57197 11.8894 4.47597 11.8902 4.37917C11.8911 4.28238 11.9112 4.18671 11.9494 4.09777C11.9876 4.00883 12.0431 3.92839 12.1128 3.86114L12.6282 3.34573C12.7649 3.20906 12.9503 3.13228 13.1436 3.13228C13.3369 3.13228 13.5223 3.20906 13.659 3.34573ZM8.50416 1.21045C8.6975 1.21045 8.88293 1.28726 9.01965 1.42397C9.15636 1.56069 9.23317 1.74612 9.23317 1.93946V2.66847C9.23317 2.86182 9.15636 3.04725 9.01965 3.18396C8.88293 3.32068 8.6975 3.39749 8.50416 3.39749C8.31081 3.39749 8.12539 3.32068 7.98867 3.18396C7.85195 3.04725 7.77515 2.86182 7.77515 2.66847V1.93946C7.77515 1.74612 7.85195 1.56069 7.98867 1.42397C8.12539 1.28726 8.31081 1.21045 8.50416 1.21045Z" fill="#25AF94"/>
</g>
<defs>
<clipPath id="clip0_914_2680">
<rect width="17.0093" height="17.0093" fill="white" transform="translate(0 -0.00463867)"/>
</clipPath>
</defs>
</svg>
