<svg width="30" height="36" viewBox="0 0 30 36" fill="none" xmlns="http://www.w3.org/2000/svg">
<path d="M12.0832 24.3438C12.1276 24.0635 12.3693 23.8571 12.6531 23.8571H17.5746C17.8584 23.8571 18.1001 24.0635 18.1445 24.3438L19.7341 34.3933C19.7895 34.7436 19.5188 35.0604 19.1643 35.0604H11.0634C10.7089 35.0604 10.4382 34.7436 10.4936 34.3933L12.0832 24.3438Z" fill="url(#paint0_linear_139_2744)"/>
<path d="M13.9561 4.34833C14.3922 3.54098 15.5506 3.54098 15.9866 4.34833L26.8415 24.4462C27.2567 25.215 26.7 26.1484 25.8263 26.1484H4.11646C3.24273 26.1484 2.68601 25.215 3.10123 24.4462L13.9561 4.34833Z" fill="url(#paint1_linear_139_2744)"/>
<path d="M14.0438 1.68464C14.5051 1.0615 15.4374 1.0615 15.8987 1.68464L24.3522 13.1048C24.9159 13.8664 24.3722 14.9452 23.4248 14.9452H6.51775C5.57027 14.9452 5.02662 13.8664 5.59034 13.1048L14.0438 1.68464Z" fill="#93D67C"/>
<defs>
<linearGradient id="paint0_linear_139_2744" x1="15.1138" y1="23.8571" x2="15.1138" y2="35.0604" gradientUnits="userSpaceOnUse">
<stop stop-color="#B38E69"/>
<stop offset="1" stop-color="#938469"/>
</linearGradient>
<linearGradient id="paint1_linear_139_2744" x1="15.5621" y1="13.672" x2="15.123" y2="34.0449" gradientUnits="userSpaceOnUse">
<stop stop-color="#80D093"/>
<stop offset="1" stop-color="#4C9C49"/>
</linearGradient>
</defs>
</svg>
