<svg width="17" height="17" viewBox="0 0 17 17" fill="none" xmlns="http://www.w3.org/2000/svg">
<path d="M12.3486 9.63989C13.6552 9.63989 14.6971 10.682 14.6973 11.9885C14.6973 13.2952 13.6553 14.3372 12.3486 14.3372C11.042 14.3371 10 13.2951 10 11.9885C10.0001 10.682 11.0421 9.63992 12.3486 9.63989ZM12.3486 9.82446C11.7746 9.82448 11.2243 10.0524 10.8184 10.4583C10.4125 10.8641 10.1846 11.4146 10.1846 11.9885C10.1846 12.5626 10.4124 13.1139 10.8184 13.5198C11.2242 13.9255 11.7748 14.1536 12.3486 14.1536C12.9225 14.1536 13.473 13.9255 13.8789 13.5198C14.2848 13.1139 14.5127 12.5626 14.5127 11.9885C14.5126 11.4146 14.2848 10.8641 13.8789 10.4583C13.473 10.0524 12.9226 9.82446 12.3486 9.82446ZM7.60547 9.96216V14.0149H3.55273V9.96216H7.60547ZM3.7373 13.8313H7.4209V10.1467H3.7373V13.8313ZM11.3633 7.24536H6.24219L8.80273 3.05493L11.3633 7.24536ZM8.33105 4.19556L7.09277 6.21997L6.5791 7.06079H11.0264L10.5117 6.21997L9.27441 4.19556L8.80273 3.42505L8.33105 4.19556Z" fill="#25AF94" stroke="#25AF94" stroke-width="1.10526"/>
</svg>
