<svg width="70" height="70" viewBox="0 0 70 70" fill="none" xmlns="http://www.w3.org/2000/svg">
<path d="M35.0002 5.83325C51.1089 5.83325 64.1668 18.8912 64.1668 34.9999C64.1668 51.1087 51.1089 64.1666 35.0002 64.1666C18.8914 64.1666 5.8335 51.1087 5.8335 34.9999C5.8335 18.8912 18.8914 5.83325 35.0002 5.83325ZM35.0002 43.7499C34.2266 43.7499 33.4847 44.0572 32.9378 44.6042C32.3908 45.1512 32.0835 45.893 32.0835 46.6666C32.0835 47.4401 32.3908 48.182 32.9378 48.729C33.4847 49.276 34.2266 49.5832 35.0002 49.5832C35.7737 49.5832 36.5156 49.276 37.0626 48.729C37.6095 48.182 37.9168 47.4401 37.9168 46.6666C37.9168 45.893 37.6095 45.1512 37.0626 44.6042C36.5156 44.0572 35.7737 43.7499 35.0002 43.7499ZM35.0002 17.4999C34.2858 17.5 33.5963 17.7623 33.0624 18.237C32.5286 18.7117 32.1875 19.3659 32.1039 20.0753L32.0835 20.4166V37.9166C32.0843 38.66 32.369 39.375 32.8793 39.9156C33.3896 40.4561 34.0871 40.7814 34.8292 40.825C35.5714 40.8686 36.3021 40.6271 36.8722 40.15C37.4422 39.6728 37.8086 38.996 37.8964 38.2578L37.9168 37.9166V20.4166C37.9168 19.643 37.6095 18.9012 37.0626 18.3542C36.5156 17.8072 35.7737 17.4999 35.0002 17.4999Z" fill="url(#paint0_linear_206_10441)"/>
<defs>
<linearGradient id="paint0_linear_206_10441" x1="35.0002" y1="5.83325" x2="35.0002" y2="64.1666" gradientUnits="userSpaceOnUse">
<stop stop-color="#DEEEEB"/>
<stop offset="1" stop-color="#D5EDE8"/>
</linearGradient>
</defs>
</svg>
